<svg xmlns="http://www.w3.org/2000/svg" viewBox="0 0 16.901 13.941">
  <g data-name="Group 94632">
    <path data-name="Path 99378" d="M16.708 10.449a26.154 26.154 0 0 1-4.755 1.678c-3.5.991.9-1.377 1.081-1.678.607-1.039 1.911-4.573.922-6.286C12.943 2.41 8.172 1.84 8.17 1.84s-3.846.487-1.169-.654A12.933 12.933 0 0 1 10.675.001a2.574 2.574 0 0 0 .258.573 1.138 1.138 0 0 0 .835.61.486.486 0 0 0 .06 0 4.325 4.325 0 0 0 1.931-.969 4.487 4.487 0 0 0-.2.929c-.01.1-.016.21-.016.323a1.45 1.45 0 0 0 .409 1.115 2.989 2.989 0 0 0 1.795.431 8.23 8.23 0 0 0 1.15-.082 5.9 5.9 0 0 0-1.027 1.97c-.174.881 1.027 1.256 1.027 1.256.01.059-1.1.583-1.15 1.655a5.919 5.919 0 0 0 .961 2.637Zm-12.6 2.7.482-.312v-.648l.616-.272.192.567s.561.168.57.345v.008c-.008.174-.565.363-.565.363l-.813.743ZM3.145 1.656 3.42.521l.828.374s.572-.116.664.035a.107.107 0 0 1 .014.05c0 .183-.336.545-.336.545v1.211l-.69-.554-.27-.526Z"/>
    <path data-name="Subtraction 652" d="M1.5 12.114c-.363 0-.549-.409-.551-.413L.143 8.923a1.617 1.617 0 0 1-.08-1.037.578.578 0 0 1 .337-.322c.713-.271 7.437-3.419 7.5-3.45a1.415 1.415 0 0 1 .278-.021c1.069 0 3.6.6 3.905 1.265a3.33 3.33 0 0 1-.389 2.04 4.864 4.864 0 0 1-1.014 1.708l-.231.076C5.1 10.933 2 11.961 1.7 12.073a.552.552 0 0 1-.2.041Zm7.144-7.369a3.7 3.7 0 0 0-.8.09L.673 8.028l.282.965 6.671-3a4.9 4.9 0 0 1 1.518-.444 11.049 11.049 0 0 0 1.606-.234s-.738-.278-1.413-.48a2.448 2.448 0 0 0-.693-.09Z"/>
  </g>
</svg>
