<svg xmlns="http://www.w3.org/2000/svg" viewBox="0 0 18.689 18.446">
  <g data-name="Group 94359">
    <path data-name="Intersection 1" d="M8.163 18.354v-1.606l-.827-.168v1.6l-.754-.156-.409-2.687-1.49-1.247.954-1.528 1.8-1.093.329.9.582 1.818h.382v4.264Zm-7.211-4.8 1.2-.939h3.261L4.5 14.071l-2.392.2Zm-.786-.487.2-1.219.711-1.55.888 2.261-1.166.9Zm7.406-1.7L6.481 8.249h-.017l.26-3.071h2.081v5.323h-.462l-.518 1.57ZM0 9.758l2.293-1.229L1 10.084v.007H.993l-.66 1.453Zm1.47-4.919 1.081 3.362-2.534 1.36ZM2.7 8.132l-1.118-3.48 3.04-2.485.754 3.011h1.185L6.3 8.242Zm2.8-3.115-.723-2.9 3.989-1.016.039.007v3.914Z"/>
    <path data-name="Intersection 2" d="M10.525 17.254v-1.608l.828-.167v1.601l.753-.154.41-2.688 1.488-1.248-.952-1.527-1.8-1.094-.328.9-.581 1.817h-.382v4.26Zm7.212-4.803-1.205-.939h-3.257l.914 1.458 2.392.2Zm.785-.487-.204-1.218-.71-1.551-.89 2.261 1.171.903Zm-7.4-1.7 1.085-3.118h.017l-.26-3.072H9.881v5.325h.464l.519 1.57Zm7.567-1.607-2.293-1.229 1.293 1.557v.006l.665 1.455Zm-1.471-4.918-1.082 3.367 2.534 1.353Zm-1.229 3.292 1.117-3.479-3.039-2.484-.755 3.009h-1.187l.264 3.069Zm-2.8-3.115.723-2.9L9.92.004l-.039.009v3.908Z"/>
  </g>
</svg>
