<svg xmlns="http://www.w3.org/2000/svg" viewBox="0 0 19.887 20.102">
  <g>
    <path data-name="Path 99333" d="m6.076 16.878-.061-.1s.064-.608.061-.612.021-.047.021-.047l.03-.045.027-.024.485-.368.043-.017.062-.014h.034l.022.02.019.082h.016v.012l.03-.005.05.024.12-.03.057.07-.057.839.083-.089.113-.063.094-.039.114-.016h.117l.077.027h.115l.077.052-.007.069.07.054.073.072.051.076.007.062-.009.032-.062.061.005.089.278-.084-.056-.049-.015-.062-.106-.228v-.059h-.071l-.011-.052v-.1A.889.889 0 0 1 8 16.332l.038-.015h.011l.024-.146.139-.886.006-.069h-.64l-.052-.052h-.049l.009.039-.18.013-.111-.066-.063-1.483.063-.647.092-.08h.053l-.024-.1.007-.06.086-.2.018-.009.028-.021h.063l.005.035.019-.005.06-.03.166-.006-.028-.044-.01-.039.01-.052-.171-.188-.229-.128-.09-.13-.083-.01-.067-.008-.032-.033-.862-.066-.006.269-.025.06-.033.047-.03.014h-.127l-.049-.036-.042-.029h-.012v.137l-.024.054s.01.016 0 .025a1.22 1.22 0 0 0-.018.183v.186l-.04.128-.058.084h-.023l-.088.017v.065l.032.079-.032.389-.125.095v.11l-.015.176-.035.061v.11l-.048.05-.051.245-.117.047-.136-.047v.235l.011.035v.121H5.1l-.019.165-.5-.021.008-.152-.04-.027.011-.149c0 .009.02 0 .02 0v-.061h-.035l.011-.134h.02l.017-.115-.147-.023v-.091l-.094.006-.034-.034v-.089h-.026v-.107h.027v-.164l-.019-.015s-.018-.063-.017-.07-.032-.009-.032-.009a.345.345 0 0 1-.042-.035c0-.005-.023-.1-.023-.1l-.1-.063.014-.568-.071-.011-.049-.077h-.073v-.447s.048-.044.044-.054a.437.437 0 0 1 0-.068h-.02l.013-.691.036-.022.119.007v-.017h.034l.024-.412.043-.075.054-.044.011-.246-.127.186-.166-.071-.755 1.149h-.032l-.166-.029v-.031L3 11.937v-.47l.281-.723.332-.5.017.007.449-.678.046-.719v-.246l.018-.025v-.09l-.01-.015.01-.14h.016v-.2L4.18 8.1l.044-.045.318-.42v-.442l-.022-.028.055-.914.06-.01.04-.069.093-.018V5.87l.022-.025.02-.274.028-.039.037-.623.134-.1.1-.019h.1l.021.044.191.01.017-.035.212.035.132.135-.039.634.023.02-.023.277.039.032-.016.167-.043.045-.054 1.18-.019.024.168.133-.018.179.327.553v.246l-.087 1.539h.015v.143h-.022l-.015.2-.044.057-.162.128.083.025.064-.034.058-.008.041-.012.106.028.023.035.713-.181.089-.137.061-.013.021-.088.073-.051h.068l.082.075.7-.184.077.035.074-.035.071-.028.081.016.038.046.029.074.151.025.344.55-.019.144.019.022.622.057L9.6 11l-.055.344.055.009.136.117-.017.1h.1l.111-.219.039-.009.018.137.066-.079-.038-.2.139-.125-.01-.049.137-.136.5-.027.267-.429h.033l.172-.279.143-.041.058-.062.072-.036h.091l.064.054.069-.031.68.22.062-.059h.108l.053.045.014.081.049.016.112.145.633.2v-.023l.077-.058.1-.019.159.077.178-.024.007-.025h.1l.05.025v.036h.05l.012-.069-.368-.964.064-.122.055-.04.011.03-.018.1.038.025.03-.081.076-.062.836.031.142.031.082.081.5.956v.088l.081.062.086.166.037.291-.112.15-.129.009-.054-.1-.116-.058-.122.04v.474l.224.171.1.157-.054.146-.151.075-.188-.017-.03.239.2.953.05.5.248 1.877.64.069.147.048.233.116.036.117.044-.018.032.041v.091l.046.02v.139l-.077.042.056.609h-.74l-.1-.652-.381.042.123.609h-.959l-.056-.458h-.129l.04.458h-.147l-.081-.756-.094-.54v-.349l.094-.176-.049-.065-.029-.159-.136-.079-.153-1.2-.142-.183-.094-.26-.082-.35.009-.341-.058.026-.072-.02-.16-.11-.011-.021.005-.054.026-.055.084-.109h.016l.2-.3-.011-.007.158-.248.04-.032.045-.013.045-.011h-.078l-.075.01-.044.02-.033.09-1.257.253-.153-.089-.051.054-.079.004-.006.1-.007.053-.025.034v.04l-.013.016-.011.281-.012.029v.012l.156.009.058.047-.007.04-.02.049-.023 1.084h.02l.006-.017h.021l.044.071-.01.322-.042.043h-.019v-.021h-.017l-.005.013h-.07v.111l.01.008v.152h-.04l-.124.651-.071.063-.078.009-.021.041-.167.079-.087-.027-.015-.031v-.061h-.546l-.105.51-.022.01h-.02l-.017.252.007.021-.007.069h.017l.071.112.041.27-.066.464-.046.064h-.1l-.019.026v.064l-4.854.02ZM5.344 4.473a.833.833 0 0 0-.268.029l-.229-.623.279.11v-.757l.206.648.193-.88.044.807.246-.291-.146.6.32-.041-.366.466a1.039 1.039 0 0 0-.279-.068Z" />
  </g>
</svg>
