<svg xmlns="http://www.w3.org/2000/svg" viewBox="0 0 18.825 18.828">
  <path data-name="Path 99214" d="m14.877 17.112-1.709-3.947 3.943 1.717 1.713 3.947ZM1.713 14.881l3.943-1.717-1.715 3.948L0 18.828ZM4.627 17.4l.442-1.088a8.2 8.2 0 0 0 8.673 0l.448 1.088a9.334 9.334 0 0 1-9.564 0Zm-.007 0h.007Zm0 0h.007Zm11.68-3.648a8.173 8.173 0 0 0 0-8.662l1.1-.464a9.328 9.328 0 0 1-.01 9.574ZM1.428 14.2a9.331 9.331 0 0 1-.008-9.573l1.088.464a8.173 8.173 0 0 0 0 8.662Zm-.008 0h.008Zm0 0h.008Zm7.989-3.451-1.76.764.764-1.758-.763-1.76 1.76.765 1.76-.765-.77 1.762.765 1.758Zm5.468-9.035L18.825 0l-1.713 3.951-3.951 1.713ZM1.713 3.943 0 0l3.941 1.717 1.715 3.947Zm3.355-1.424L4.62 1.428a9.378 9.378 0 0 1 9.578 0l-.456 1.091a8.218 8.218 0 0 0-8.674 0Z" />
</svg>
