<svg xmlns="http://www.w3.org/2000/svg" viewBox="0 0 13.445 20.492">
  <path data-name="Subtraction 609" d="M6.666 20.492h-.033a.1.1 0 0 1-.062-.014h-.016a.159.159 0 0 0-.059-.023h-.023a.157.157 0 0 0-.045.006.032.032 0 0 0-.018 0H6.4a.113.113 0 0 1-.033.01s-.012 0-.014 0a.034.034 0 0 0-.016 0h-.021a.1.1 0 0 1-.045-.006l-.006-.006a.184.184 0 0 0-.08-.014.809.809 0 0 0-.185.035v-2.5a1.572 1.572 0 0 0 .789.238l.027-.025.012-.012v2.3h-.006a1.327 1.327 0 0 1-.156.011Zm-.006-2.783a.581.581 0 0 1-.176-.033c-.053-.025-.053-.025-.061-.053a.107.107 0 0 0-.012-.062.031.031 0 0 0-.025-.027c-.014 0-.031.018-.045.033v.006c-.02.025-.037.047-.061.051h-.024s-.006-.006-.014-.008-.008 0-.01 0v-.006a.267.267 0 0 0 0-.031.066.066 0 0 1-.008-.023v-.012c-.021-.057-.033-.057-.045-.057l-.006-.006a.03.03 0 0 1-.014-.01h-.008a.025.025 0 0 0-.018-.014.056.056 0 0 0-.035.014l-.021.012a.019.019 0 0 0-.01.008c-.008 0-.02.01-.031.014a.021.021 0 0 1-.01 0s-.008 0-.01 0h-.01a.193.193 0 0 1-.039-.025.481.481 0 0 1-.066-.043.176.176 0 0 1-.012-.117l-.242-.2-.059-.3-.1.205c-.469-.291-.551-1.037-.658-1.986-.035-.322-.07-.635-.121-.967v-.021a.526.526 0 0 1 .107.156l.01.012c.01.02.023.035.033.053.045.064.08.115.1.115.008-.006.01-.031 0-.076s-.17-.416-.379-.895c-.275-.621-.568-1.295-.586-1.406v-.027H4c.02 0 .07.072.123.148l.016.027c.057.088.111.174.129.174V12.3a8.3 8.3 0 0 1-.232-.973 4.227 4.227 0 0 0-.072-.348l-.01-.041v-.006a2.135 2.135 0 0 1 .078-1.549 5.875 5.875 0 0 0-.59 1.736 6.5 6.5 0 0 0 .164.988l.014.063c.014.076.031.156.047.234v.008a19.736 19.736 0 0 1 .405 2.288 3.724 3.724 0 0 1-.035 1.547 1.217 1.217 0 0 0-.172-.035l-.041-.006L3.8 16.2l-.1-.025-.135-.285a.007.007 0 0 0-.008-.006c-.02 0-.064.057-.1.111l-.018.018a.359.359 0 0 1-.072.084l-.006-.008-.109-.082a.1.1 0 0 0-.074-.02h-.043A.108.108 0 0 1 3.09 16l.006-.008h-.012a.121.121 0 0 1-.035-.016.054.054 0 0 1 0-.035v-.012a.039.039 0 0 1 0-.018v-.01c0-.002-.08-.479-.154-.9l-.086-.473-.037-.215a2.3 2.3 0 0 0-.408-.937 3.866 3.866 0 0 1 .209 1.041 4.378 4.378 0 0 1-.324 1 .271.271 0 0 0-.117.07l-.012-.008a.186.186 0 0 0-.064-.018v-.016c0-.006-.01-.008-.012-.014a.039.039 0 0 0-.045-.027c-.012 0-.031 0-.039-.018a.3.3 0 0 0-.045-.049c-.01 0-.016-.006-.021-.02h-.019c-.014 0-.066.02-.086.023h-.012l-.012.006a.078.078 0 0 1-.045.016h-.038a.139.139 0 0 1-.041-.006l-.014-.078v-.006c-.016-.07-.033-.156-.043-.189v-.02l-.072.27h-.006a.821.821 0 0 0-.121-.012l-.02-.02-.115-.051-.033.033-.008.006h-.148v-.033a.584.584 0 0 0 .006-.113l.064.107.141-.756-.141-.328.189-1.119h-.175l.033-.387-.047-.119.066-.322-.086-.154.105-.238-.086-.139v-.121l.1-.076-.084-.084.174-.207-.17-.006.215-.277h-.092v-.07l.039-.1.125-.3h-.1l.027-.553-.072-.1.369-1.553a3.7 3.7 0 0 0-.084-.748c-.014-.027-.021-.039-.027-.039-.021 0-.039.08-.055.25a.057.057 0 0 0-.01.031.081.081 0 0 1 0 .012v.01a.659.659 0 0 1-.035.2.035.035 0 0 1-.006-.021 4.4 4.4 0 0 1-.008-.709v-.051a3.349 3.349 0 0 0 .008-.342.1.1 0 0 0-.111-.084.155.155 0 0 0-.084.021.182.182 0 0 1 0-.027v-.023a6.7 6.7 0 0 0 .07-.908 8.035 8.035 0 0 0-.131-1.68s-.006 0-.006.012a1.593 1.593 0 0 0-.072.514v.025a.534.534 0 0 1-.014.209c0 .027-.014.041-.02.041v-.008A2.245 2.245 0 0 1 1 4a3.274 3.274 0 0 0-.01-.359v-.014A1.112 1.112 0 0 1 1 3.35l.148-.408.148.139-.072-.35.072-.205a.058.058 0 0 0-.02-.066c-.012-.016-.045-.016-.064-.016h-.034L1 2.178V1.127a.44.44 0 0 0-.027.073l-.021.082-.009.018c-.013.046-.043.12-.064.208L.854 1.6C.867 1.127.9.8.92.646.955.311 1 .131 1.055.131h.006V.125c0-.057 0-.088.033-.1A.435.435 0 0 1 1.293 0h10.926a.477.477 0 0 1 .213.025c.012.016.012.033.012.074v.032a5.335 5.335 0 0 0-.168 1.34l-.1-.344-.266.949c.027.176.225 1.762.311 2.561.006.055.008.111.01.168s0 .105 0 .16v.006c-.01-.045-.027-.094-.045-.148-.008-.029-.018-.055-.023-.084s-.018-.049-.025-.074c-.062-.2-.113-.359-.154-.52-.008-.012-.008-.012-.012-.012-.035.023-.016 1.041.012 1.986v.055a.2.2 0 0 0-.09-.027c-.049 0-.084.031-.1.092s.033.707.049.957l.006.031v.08l-.2-.473-.146 1.4.258 1.125-.066.105.027.543-.148-.187.117.367.049.344.271.658-.166.006.182.215-.088.078.094.076.006.121-.082.139.094.238-.076.154.1.359-.075.085.258.559c-.01-.014-.094-.088-.135-.088v.006a.021.021 0 0 0-.008.031l.008.033c.012.053.021.107.029.17a.944.944 0 0 0-.045.131c0 .012 0 .016-.006.016a.252.252 0 0 1 .043-.02l.021-.01.016.078c.006.027.008.055.014.08l.047.275a.007.007 0 0 0-.006 0l-.006.01a.107.107 0 0 0-.008.047v.035h-.014a.512.512 0 0 1-.1-.023.224.224 0 0 0-.076-.018h-.014s0 .014.014.025l.006.012a.181.181 0 0 1 .035.055v.006a3.922 3.922 0 0 0 .174.633v-.395h.033l.037.084c.018.1.031.205.043.309 0 .033.01.068.014.1s.01.068.016.1l-.045-.023a.615.615 0 0 1-.109-.059h-.008a.026.026 0 0 0 .006.016v.008a.4.4 0 0 0 .018.049v.012a.735.735 0 0 1 .094.383.336.336 0 0 1-.084.008l-.014-.037-.006-.01a.91.91 0 0 0-.33-.264h-.008a1.321 1.321 0 0 0-.029.156 1.422 1.422 0 0 1-.045.205h-.01c-.012 0-.029.006-.057.006s-.088-.006-.115-.006h-.021a.3.3 0 0 0-.092.039c-.021.01-.041.016-.061.025a.669.669 0 0 1-.193.059h-.012c-.031-.014-.031-.021-.031-.045a.349.349 0 0 0-.008-.078c-.021-.057-.045-.07-.062-.076h-.014c-.008-.006-.016-.01-.02-.02s-.014-.014-.02-.014-.021.018-.039.041l-.008.012a.17.17 0 0 1-.018.021.049.049 0 0 1-.014.016.828.828 0 0 1-.053.086c-.066.1-.045.119-.012.156 0 .006.008.01.01.014l.01.012c.006.014.018.027.025.043v.029l-.088.043-.021.016-.072.035a3.68 3.68 0 0 1-.121-.869 3.555 3.555 0 0 1 .207-1.033l.006-.01a2.162 2.162 0 0 0-.414.943 8.7 8.7 0 0 1-.609 1.422l-.037.02-.111-.07-.09.137h-.014l-.01.006a.189.189 0 0 1-.035.006l-.129-.047-.331-.664v.73h-.008a.076.076 0 0 1-.057-.035 7.013 7.013 0 0 1-.072-2.773v-.028a9.949 9.949 0 0 0 .23-1.271 3.4 3.4 0 0 0-.088-.717 6.853 6.853 0 0 1-.145-1.242c0 .088-.072.486-.148.949l-.016.1c-.078.455-.143.836-.174 1.047a8.7 8.7 0 0 1-.213.877l-.02.063v.034a23.149 23.149 0 0 0-.335 2.547l-.008.088a7.5 7.5 0 0 1-.1.848h-.09a.9.9 0 0 0-.311.141h.1l-.066.086c-.119.076-.234.164-.334.236l-.215.125.053.006q-.064.053-.135.123l-.164-.018h-.004c-.012 0-.031.037-.053.082l-.006.018c-.016.039-.029.078-.047.08s-.031.013-.06.013Zm-.373-5.025c.012 0 .02.057.027.115V12.871a1.923 1.923 0 0 0 .057.291c.053.121.105.176.164.176a.143.143 0 0 0 .1-.066c.049-.053.041-.125.031-.25v-.047l-.006-.043a3.136 3.136 0 0 1-.021-.461c.006-.129.016-.187.027-.187.029 0 .076.324.078.328v-.872l-.105.486L6.5 11.3a.321.321 0 0 1 .006-.25v-.012a.777.777 0 0 0 .072-.225.84.84 0 0 0 0-.412v-.006a1.748 1.748 0 0 1-.309.518c-.064.082-.109.129-.131.129-.02-.02.01-.127.045-.252v-.022l.017-.008v-.012l.01-.035a2.308 2.308 0 0 0 .072-.316.982.982 0 0 0-.021-.518c-.012-.057-.023-.125-.037-.2s-.023-.133-.041-.213a2.261 2.261 0 0 0-.094-.43.127.127 0 0 0-.008.059 7.017 7.017 0 0 1-.1 1.2 2.273 2.273 0 0 1-.16.576l-.012.033-.008.021a2.038 2.038 0 0 0-.07.252l.107.676h.092a.565.565 0 0 1 .006.234v.021a.224.224 0 0 0 0 .035 1.693 1.693 0 0 1 .051.207c.1.291.184.512.24.66.014.043.031.078.039.107l.008.023.012.023v-.031a1.864 1.864 0 0 1 0-.414.053.053 0 0 0 .008-.023s0-.008 0-.008Zm.59-1.645v.322l.049-.105a.549.549 0 0 0 .072-.1v-.016l-.07-.1.029-.215H6.9v-.215l.029.1.041-.029-.09-.27-.07.27v.145l-.025.154.059.123.035-.061ZM5.729 9.578l-.125.1v.109l-.051.033.051.057.047.033v.109l-.084.078.109.078.053.078c.006-.012.07-.09.07-.113v-.076l.088-.045-.119-.109.07-.09-.07-.09Zm1.021-.666-.123.094V9.214h.059l.016.07h.048v.306s.07-.053.076-.072H6.82l.023-.078-.057.029.021-.1h.035l.031-.131-.088-.172ZM6.2 6.465l.1.1.074.076a101.316 101.316 0 0 1 2.308 2.566h.008a.037.037 0 0 1 .018-.006.042.042 0 0 1 .02 0h.008a.128.128 0 0 1 .045-.012H8.8v-.033a.22.22 0 0 0 0-.039.129.129 0 0 1 0-.027.046.046 0 0 1 .02-.031h.016a.046.046 0 0 1 .043.02s.008 0 .008.006h.006c.014 0 .039-.018.039-.033l.006.006v-.033s.008-.012.018-.012v-.008l.006.006a.122.122 0 0 0 .051.023c.008 0 .014 0 .02.014a.025.025 0 0 0 .014.008.028.028 0 0 0 .025.014c0 .006 0 .006.014.012l.006.008h.006a.055.055 0 0 0 .031.012.093.093 0 0 0 .053-.018h.006v-.008l.012.002.016-.012c0-.008.006-.016.01-.016l-.01-.006h-.032a.014.014 0 0 1-.012-.008c-.039 0-.039 0-.078-.035a.015.015 0 0 1-.006-.008c0-.006.006-.014.018-.025s.027-.018.027-.025v-.027c-.008 0-.008 0-.012-.006s-.008 0-.008-.008c-.018-.012-.021-.029-.008-.057a.1.1 0 0 0 .016-.061V8.758a.084.084 0 0 1 .047-.031h.057c.016 0 .02 0 .027-.006V8.7l-.008-.006c-.031-.025-.031-.025-.037-.064V8.6a.048.048 0 0 1 .025-.041v-.008l.006.006v-.01a.1.1 0 0 0 .02-.049c0-.031 0-.031-.039-.064a.1.1 0 0 1 0-.037v-.034a.047.047 0 0 0 .006-.027c0-.006-.01-.016-.016-.02s0 0 0-.006h-.008l.006-.006.008-.004a.233.233 0 0 1-.015-.075v-.012h.008v-.022c0-.004 0 0 .006-.008a.079.079 0 0 0 0-.029v-.035h-.008V8.1a.25.25 0 0 1 .012-.045.016.016 0 0 0 .008-.016.012.012 0 0 0-.008-.012v-.009s.014-.008.018-.018a.022.022 0 0 1 .02 0 .035.035 0 0 1 .021 0 .067.067 0 0 0 .037-.008v-.045a.028.028 0 0 1-.006-.02.3.3 0 0 0-.012-.078L9.289 7.8l-.008-.064a.16.16 0 0 1 0-.043.02.02 0 0 0-.011-.013.009.009 0 0 1-.008-.006c-.018-.008-.033-.012-.033-.031s-.012-.025-.018-.025S9.2 7.6 9.2 7.592a.093.093 0 0 0-.029-.061c-.006 0-.008 0-.008-.006a.052.052 0 0 1 .008-.02.042.042 0 0 0 .008-.029c0-.006 0-.006-.008-.008a.047.047 0 0 1-.027-.047l-.006-.006v-.014l-.012-.02c-.018 0-.027-.018-.027-.039-.006-.006-.006-.014-.006-.025s-.006-.012-.006-.02a.028.028 0 0 0-.01-.021c-.021-.008-.027-.029-.035-.049s0-.033-.008-.039 0-.006 0-.008-.006-.006-.01-.006l-.012-.01c-.012-.01-.016-.012-.016-.027v-.012a.05.05 0 0 1-.008-.031c0-.016 0-.021-.023-.027a.083.083 0 0 0-.023-.008h-.021c-.009 0 0 0 0 0h-.02c-.006 0-.014 0-.014-.02v-.012a.038.038 0 0 1 .01-.029l.006-.006a.052.052 0 0 1 0-.021.293.293 0 0 0 0-.043.054.054 0 0 1 .014-.025h.014v.006a.017.017 0 0 0 .012.006c.014.014.029.025.029.043v.018a.017.017 0 0 1 0 .012h.006v.008c.02.012.027.02.027.033s.006.012.006.02a.033.033 0 0 0 .02.029.027.027 0 0 1 .02.027v.006h.006v.023c.01.023.012.035.033.047s.012.006.012.014a.042.042 0 0 0 .027.039s.006 0 .006.006 0 0 .008.006l.01.006h.008c.008 0 .008 0 .018-.018.023-.031.033-.055.027-.072v-.02l-.027-.025-.029-.037-.021-.033h-.008a67.003 67.003 0 0 0-1.693-1.926A44.435 44.435 0 0 1 11.475 1.6a.081.081 0 0 1 .025-.059.036.036 0 0 0 .023-.021v-.038a.051.051 0 0 0-.016-.006.039.039 0 0 0-.021-.006h-.055a.02.02 0 0 1-.014-.008.036.036 0 0 1-.014-.033v-.005a.059.059 0 0 0 .008-.039v-.012a.056.056 0 0 0-.027-.014v-.006h-.006c-.02 0-.02-.01-.027-.029v-.035a.052.052 0 0 0-.027-.014h-.059a.057.057 0 0 1-.02-.01h-.012c-.033-.02-.039-.02-.057-.02h-.035a.02.02 0 0 0-.018.008c-.014.014-.018.018-.047.018h-.07a.067.067 0 0 0-.053.027c0 .006-.012.006-.023.006a.108.108 0 0 0-.047.025.028.028 0 0 1-.02.014h-.057s-.008-.008-.014-.008a.051.051 0 0 1-.014-.031.025.025 0 0 0 .006-.016.06.06 0 0 0 .008-.018v-.006c0-.012 0-.02-.021-.031v-.008h-.006a.1.1 0 0 0-.049-.029h-.01a.047.047 0 0 0-.035.012l-.027.029c-.01 0-.014.012-.021.02a.026.026 0 0 1-.018.012h-.045c-.008 0-.018 0-.018.006a.067.067 0 0 1-.061.027.067.067 0 0 0-.047.018.055.055 0 0 1-.025.02v.008c-.008 0-.016.006-.016.014a.071.071 0 0 1-.037.006h-.012a.015.015 0 0 1-.01 0H10.3a.08.08 0 0 0-.031.012.007.007 0 0 0-.006.008s-.006 0-.008.006 0 .006-.006.006h-.039c-.012 0-.027 0-.033-.006h-.01l-.008-.008h.006v-.01h.006a.014.014 0 0 0 .012 0h.008c.018 0 .027 0 .031-.014v-.014h.008v-.022a.062.062 0 0 0 .008-.037v-.027c0-.012-.033-.043-.039-.043h-.012a.012.012 0 0 1-.012-.006s0 0-.008 0h-.006a.092.092 0 0 0-.053.02.025.025 0 0 1-.018.012s-.006 0-.008.008h-.028a.079.079 0 0 1-.027.029h-.008a.046.046 0 0 0-.016.02.063.063 0 0 1-.033.014.234.234 0 0 0-.07-.003v-.012a.066.066 0 0 1 .031-.066h.006a.1.1 0 0 0-.027-.053v-.006h-.008L9.9 1.154c0-.006-.008 0-.01-.01a.021.021 0 0 0-.006-.014h-.019a.031.031 0 0 0-.033.021s0 0-.006 0 0 .01-.006.01-.02.006-.029.018-.012.014-.02.014-.014 0-.025-.014v-.007a.062.062 0 0 1 .012-.033.143.143 0 0 0 .027-.02.01.01 0 0 0 0-.006h.008a.018.018 0 0 1 .02-.013.112.112 0 0 0 .021-.031.021.021 0 0 0 0-.01v-.008s0-.018-.006-.029l-.012.006h-.029a.033.033 0 0 1-.014.02.143.143 0 0 0-.027.02.041.041 0 0 1-.039.021H9.7c-.008-.01-.008-.01-.008-.014v-.009c-.008 0-.012-.02-.02-.031a.2.2 0 0 1-.008-.051A.361.361 0 0 1 9.7.887l.015-.065c-.826.7-1.6 1.4-2.377 2.119.01 0 .012 0 .012.008h.006s.008 0 .008.006h.006s.006 0 .006-.01.006-.008.014-.008.027.01.039.027.012.014.012.021S7.439 3 7.432 3l-.016.018c-.008.01-.014.012-.02.012l-.01.008a.135.135 0 0 0-.023.021h-.008c-.006.006-.006.008-.012.008H7.33a.031.031 0 0 1-.02-.031s.008 0 .008-.01c0-.008 0-.008-.008-.008V2.969c-.193.182-.371.35-.539.514-.074.068-.143.135-.215.2l-.26.252A13.389 13.389 0 0 0 3.625 1.7s0 .006-.012.012l-.008.006a.03.03 0 0 0-.012.008.015.015 0 0 1-.01 0 .035.035 0 0 1-.016.01l-.008.006h-.02c-.018.006-.018.006-.025.029h-.008a.042.042 0 0 1-.012.031.021.021 0 0 1-.012 0 .007.007 0 0 1-.006 0H3.46a.022.022 0 0 1-.018-.012.023.023 0 0 1-.008-.008h-.008a.107.107 0 0 0-.02.008.048.048 0 0 0-.027.025v.023a.015.015 0 0 1 0 .008.025.025 0 0 1-.01.014v.014a.1.1 0 0 0-.012.043.021.021 0 0 1-.008.018.019.019 0 0 1 0 .012h-.008v.008a.039.039 0 0 1-.008.016.137.137 0 0 1-.012.018v.012l-.008.008-.006.012a.041.041 0 0 0-.008.012.043.043 0 0 0-.01.021l-.014.014c-.006 0-.006 0-.01.008l-.012.006a.035.035 0 0 0-.023.018c-.029.021-.045.033-.064.045a.088.088 0 0 1-.031.023H3.09c-.008.006-.008.008-.012.008a.02.02 0 0 0-.016.008l-.005.016c0 .008-.006.012-.008.012s0 .008-.012.008v.008h-.006l-.012.014a.05.05 0 0 0-.025.045v.025a.033.033 0 0 0 .02.033.03.03 0 0 1 .014.031v.014l-.016.01h-.02c-.023 0-.033-.008-.033-.025s-.021-.027-.039-.027-.016.006-.025.016h-.008l-.006.012a.115.115 0 0 0-.02.047.206.206 0 0 0 0 .1v.01s0 .012-.008.016v.006a.019.019 0 0 1 0 .014h-.014l-.009-.001-.006-.006c-.006-.006 0 0-.006 0s-.014-.012-.027-.012a.036.036 0 0 0-.031.012l-.012.01c-.012.016-.018.023-.018.031a.4.4 0 0 1-.029.1v.01h-.006v.121c.006.021.012.041.023.047a.02.02 0 0 1 .008.02.026.026 0 0 0 0 .01.1.1 0 0 1 0 .023v.023a.037.037 0 0 0 .018.021.153.153 0 0 1 .049.045.083.083 0 0 1 .041.066.032.032 0 0 0 .012.025.053.053 0 0 1 .023.039c0 .023 0 .041.016.045l.02.02h.008v.006a.046.046 0 0 1 .016.037.089.089 0 0 1 0 .016.029.029 0 0 0 .014.023l.02.018.02.02A.032.032 0 0 1 3 3.361a.076.076 0 0 1 .008.01.033.033 0 0 0 0 .014c0 .006.006.006.01.006.012.021.027.037.027.057v.014c0 .012 0 .012.012.012h.025c.021 0 .025.008.025.02s0 .021.012.025.006 0 .008 0a.018.018 0 0 0 .01 0c.008.01.008.01.008.012l.012.014s.008.006.008.008v.01c0 .002-.008.016-.012.016s0 .008 0 .01.023.02.041.033.023.027.035.031v.012c0 .006 0 .006.006.008a.129.129 0 0 0 .064.064.245.245 0 0 1 .033.021.18.18 0 0 1 .025.018.029.029 0 0 1 .012.027c.006 0 .008 0 .008.008h.006l.012.01h.006a.059.059 0 0 1 .031.01.019.019 0 0 0 .01.018c.016.01.02.014.02.021a.014.014 0 0 1 .008.006c.5.41 1 .855 1.512 1.354a18.93 18.93 0 0 0-2 2.482c.014.01.02.02.012.029v.053a.019.019 0 0 1 0 .012.025.025 0 0 0 0 .012.111.111 0 0 0 .025.09.044.044 0 0 0 .041.021.118.118 0 0 1 .033-.027s.008-.006.01-.01 0 0 .006 0a.083.083 0 0 0 .018-.029l.016-.012s0-.008.01-.008h.021a.05.05 0 0 1 .025.033v.053a.09.09 0 0 0 .027.053.116.116 0 0 0 .078.037.086.086 0 0 0 .031 0c0-.006 0-.008.006-.008v-.008h.01c.012 0 .031.014.041.043v.014a.082.082 0 0 1 0 .031V8.117h-.006v.006a.033.033 0 0 1-.006.018c0 .012 0 .02.012.023a.055.055 0 0 0 .012.01h.016a.193.193 0 0 1 .09.039h.006a.024.024 0 0 0 .02-.006v-.002a.008.008 0 0 0 0-.014.076.076 0 0 0-.006-.039c-.006-.012-.006-.021 0-.025a.034.034 0 0 1 .033.021.048.048 0 0 0 .037.032.011.011 0 0 0 .01 0 .132.132 0 0 1 .045.088.222.222 0 0 1 .01.068.111.111 0 0 0 .01.072H3.7a.047.047 0 0 0 .045-.02h.016a.007.007 0 0 1 .006 0c.008.006.01.006.012.006a.078.078 0 0 1 .033.033.066.066 0 0 1 .012.012c.021.025.037.037.047.037a.072.072 0 0 0 .025 0l.004-.005a.037.037 0 0 1 .033.031v.022a.05.05 0 0 1 0 .037l-.006.008v.006a.021.021 0 0 0 0 .01.032.032 0 0 0 0 .018.023.023 0 0 0 0 .029.028.028 0 0 0 .02.006H4a.092.092 0 0 1 .053.02c0 .006.008.016.018.016l.006.006.006.006a.052.052 0 0 0 .041.02.02.02 0 0 0 .019-.006.276.276 0 0 0 .07-.105l.008-.01.006-.02.006-.008c.037-.08.063-.115.08-.115s.023.01.037.012h.006l.014.006a.067.067 0 0 0 .025.006.044.044 0 0 1 .031.027v.012c-.01.021-.018.033-.039.033h-.026s-.012.006-.018.018v.006a.038.038 0 0 0 .029.014c.014.008.025.012.029.02h.016a.03.03 0 0 1 .014.006.029.029 0 0 0 .016.006.045.045 0 0 0 .014-.01l.039-.029.037-.023.012-.008h.033a.017.017 0 0 1 .016.012.059.059 0 0 1 .018.039v.033s-.006 0-.006.006l.006.006a.065.065 0 0 0 .016.035.029.029 0 0 0 .023.018h.006l.008-.006a.158.158 0 0 1 .029 0 .023.023 0 0 1 .016 0c.008 0 .012 0 .02.006a.069.069 0 0 0 .021.006h.008c.006 0 .012-.006.016-.008l.01-.01h.006v-.008s0-.006.01-.008.006 0 .008-.006a.071.071 0 0 0 .023-.059V8.58a.067.067 0 0 1 0-.031.278.278 0 0 0 .047-.049l.008-.021a3.2 3.2 0 0 1 .08-.152h.008v-.008C5 8.314 5 8.307 5 8.3v-.038a.047.047 0 0 0 0-.043.062.062 0 0 0-.025-.035H4.957c0-.008-.006-.008-.012-.008a.021.021 0 0 1-.012-.02s0-.012.006-.012a.107.107 0 0 0 .032-.044v-.016c.008 0 .008-.006.014-.006s.006.008.025.031a.057.057 0 0 0 .025.02h.008v-.008c.016-.021.016-.027 0-.049s-.027-.031-.02-.039 0 0 .02 0h.051A.034.034 0 0 0 5.145 8c.014-.027.014-.033-.037-.072a.084.084 0 0 0-.033-.012l.012-.014.129-.158h.008l.008.008c.293-.434.617-.871.967-1.293ZM13.238.646h-.588c.014-.148.037-.291.057-.4l.012-.08h.52a.187.187 0 0 1 .207.16v.16a.188.188 0 0 1-.208.16ZM.551.646H.207A.188.188 0 0 1 0 .486V.324a.187.187 0 0 1 .207-.16h.426a5.576 5.576 0 0 0-.08.481Z" />
</svg>
