<svg xmlns="http://www.w3.org/2000/svg" viewBox="0 0 20.869 19.337">
  <path data-name="Path 99324" d="M15.2 16.337h-3.291v-.667H8.826v.667h-3.06l-.922-1.517 4.09-2.52a2.682 2.682 0 0 0 .529.259 2.75 2.75 0 0 0 1.839 0 2.682 2.682 0 0 0 .522-.252l4.238 2.613-.86 1.416Zm1.631-1.3-.062-.039v-.006l-5.218-3.224.714-1.13 4.655 2.87.63.389-.714 1.131Zm-12.77-.1-.71-1.137.635-.393 4.485-2.767.713 1.128-.528.326-4.593 2.834Zm13.022-1.691L13 10.718a2.653 2.653 0 0 0-.705-2.555 2.692 2.692 0 0 0-.885-.583V3.571h1.619l1.514 2.62-.691.394 1.541 2.64.679-.387 1.8 3.109-.783 1.29Zm-13.265-.1L3 11.784l1.663-2.877.559.319 1.541-2.64-.571-.326 1.553-2.689h1.679v3.985a2.684 2.684 0 0 0-.944.607 2.653 2.653 0 0 0-.709 2.537l-3.95 2.435Zm6.54-1.599a1.54 1.54 0 0 1-1.09-.447 1.512 1.512 0 0 1 0-2.156 1.553 1.553 0 0 1 2.18 0 1.36 1.36 0 0 1 .465 1.006 1.689 1.689 0 0 1-.465 1.15 1.54 1.54 0 0 1-1.09.447Zm.733-3.4H9.743V3h1.348v5.144Z"/>
</svg>
