<svg data-name="Group 94501" xmlns="http://www.w3.org/2000/svg" viewBox="0 0 22.172 15">
  <path data-name="Path 98922" d="M13.725 15h-3.7v-.75H6.554V15H3.111l-1.037-1.707 4.6-2.836a3.017 3.017 0 0 0 .595.291 3.094 3.094 0 0 0 2.068 0 3.017 3.017 0 0 0 .588-.284l4.767 2.939L13.725 15Zm1.835-1.468-.07-.043v-.007L9.619 9.861l.8-1.271 5.236 3.228.708.438-.8 1.272ZM1.2 13.415l-.8-1.268.715-.442 5.046-3.11.8 1.268-.594.367L1.2 13.415Zm14.648-1.9-4.6-2.833a2.984 2.984 0 0 0-.793-2.873 3.028 3.028 0 0 0-.994-.656V.643h1.821l1.7 2.947-.777.444L13.941 7l.764-.436 2.02 3.5-.881 1.45ZM.923 11.4 0 9.88l1.87-3.237L2.5 7l1.732-2.967-.642-.366L5.338.643h1.888v4.482a3.019 3.019 0 0 0-1.062.682 2.984 2.984 0 0 0-.8 2.853L.923 11.4Zm7.354-1.787a1.732 1.732 0 0 1-1.226-.5 1.7 1.7 0 0 1 0-2.424 1.747 1.747 0 0 1 2.452 0 1.53 1.53 0 0 1 .523 1.131A1.9 1.9 0 0 1 9.5 9.111a1.732 1.732 0 0 1-1.223.502ZM9.1 5.786H7.584V0H9.1v5.786Z"/>
  <path data-name="Path 98924" d="M22.171 15h-5.332l.705-1.111h4.627V15Zm0-2.23h-3.924l.705-1.117h3.219v1.117Zm0-2.225h-3.426l.445-.734-.217-.385h3.2v1.119Zm0-2.24h-3.848l-.643-1.113h4.49v1.113Zm0-2.232h-5.137l-.645-1.113h5.781v1.113Zm0-2.23h-6.422l-.1-.17-.549-.943h7.07v1.113Zm0-2.23h-7.713L13.813.504h8.357v1.109Z"/>
</svg>
