<svg xmlns="http://www.w3.org/2000/svg" viewBox="0 0 22.852 15.291">
  <g data-name="Group 94492">
    <path data-name="Path 98925" d="M13.725 15.15h-3.7v-.75H6.554v.75H3.111l-1.037-1.707 4.6-2.836a3.017 3.017 0 0 0 .595.291 3.094 3.094 0 0 0 2.068 0 3.017 3.017 0 0 0 .588-.284l4.767 2.939-.967 1.597Zm1.835-1.468-.07-.043v-.007l-5.871-3.621.8-1.271 5.236 3.228.708.438-.8 1.272ZM1.2 13.565l-.8-1.268.715-.442 5.046-3.11.8 1.268-.594.367L1.2 13.565Zm14.648-1.9-4.6-2.833a2.984 2.984 0 0 0-.793-2.873 3.028 3.028 0 0 0-.994-.656V.793h1.821l1.7 2.947-.777.444 1.736 2.966.764-.436 2.02 3.5-.881 1.45ZM.923 11.55 0 10.03l1.87-3.237.63.357 1.732-2.967-.642-.366L5.338.793h1.888v4.482a3.019 3.019 0 0 0-1.062.682 2.984 2.984 0 0 0-.8 2.853L.923 11.55Zm7.354-1.787a1.732 1.732 0 0 1-1.226-.5 1.7 1.7 0 0 1 0-2.424 1.747 1.747 0 0 1 2.452 0 1.53 1.53 0 0 1 .523 1.131A1.9 1.9 0 0 1 9.5 9.261a1.732 1.732 0 0 1-1.223.502ZM9.1 5.936H7.584V.15H9.1v5.786Z"/>
    <path data-name="Path 98926" d="M15.928 14.495c.181-.31.325-.5.707-1.158l.368-.089a.283.283 0 0 1 .338.2l.23.825a.292.292 0 0 1-.21.363 6.847 6.847 0 0 1-1.133.153h-.014a.292.292 0 0 1-.286-.294ZM13.656 2.34l1.557-.361V.73a.225.225 0 0 1 .383-.157l1.7 1.92a.222.222 0 0 1 0 .314l-1.7 1.921a.225.225 0 0 1-.383-.157v-1.15l-.782.242Zm5.475 11.259-.448-.734a.283.283 0 0 1 .084-.382 4.926 4.926 0 0 0 .639-.526.288.288 0 0 1 .393-.009l.629.586a.289.289 0 0 1 .014.412 6.416 6.416 0 0 1-.907.742.279.279 0 0 1-.155.049.3.3 0 0 1-.249-.138Zm2.106-2.168-.739-.429a.281.281 0 0 1-.107-.378 5.166 5.166 0 0 0 .265-.624.282.282 0 0 1 .345-.185l.823.235a.288.288 0 0 1 .2.365 5.933 5.933 0 0 1-.383.9.291.291 0 0 1-.4.112Zm-.033-3.067a.284.284 0 0 1-.282-.274 5.033 5.033 0 0 0-.166-1.03.284.284 0 0 1 .184-.352l.816-.266a.291.291 0 0 1 .37.191 6.554 6.554 0 0 1 .23 1.434.292.292 0 0 1-.292.3Zm-1.406-3.167a5.261 5.261 0 0 0-.455-.489.285.285 0 0 1-.029-.394l.551-.655a.29.29 0 0 1 .413-.032 6.7 6.7 0 0 1 .659.7.288.288 0 0 1-.06.411l-.691.507a.281.281 0 0 1-.164.053.291.291 0 0 1-.224-.101Z" />
  </g>
</svg>
