<svg xmlns="http://www.w3.org/2000/svg" viewBox="0 0 17.709 18.193">
  <path data-name="Path 99368" d="M12.935 10.875c.08.71.652 1.076 1.15.49.612-.72.394-2.006-.329-1.936-.023.006-.056.01-.081.013-.6.194-.793.956-.74 1.433Zm2.77-.563a.139.139 0 0 1 .029-.002c.316.046-.177 1.845-.569 2.07-.167.096-.13-.352-.026-.81s.338-1.155.567-1.257ZM13.928 4.68c-.213-.273-.498-.733-.356-.801.337-.035 1.169 1.075 1.109 1.336-.043.178-.397-.078-.751-.533Zm-.398 2.135c-.22.577-1.036.381-1.389-.347-.185-.382-.23-.99.254-1.145.715-.122 1.366.888 1.136 1.496Zm-.815 4.71a.7.7 0 0 1-1.33-.216 1.036 1.036 0 0 1 .689-1.192c.775-.141 1.072.78.642 1.41Zm.576 1.556c-.448.431-.818.172-.807-.35a1.187 1.187 0 0 1 .726-1.076.666.666 0 0 1 .127-.014c.516.023.488.925-.045 1.443Zm2.63-3.19a4.459 4.459 0 0 0-.075 1.096l.005-.019c.07-.334.142-.783.186-1.122.018-.268.013-.625.006-.897l-.018.053c-.001-.047-.004-.189-.019-.34-.004-.043-.101-1.056-.37-.734a1.78 1.78 0 0 1-.036-.234.258.258 0 0 0 .094.033c.204-.169-.05-.89-.218-1.367a.411.411 0 0 0 .082.093l-.01-.041-.067-.165a7.035 7.035 0 0 0-.55-1.069 1.386 1.386 0 0 0-.263-.368c.09.24.462.929.535 1.065-.104-.132-.14-.136-.21-.151-.157.127-.024.593.116 1.087a.778.778 0 0 0-.103-.047c-.042-.62-.548-1.521-1.093-1.467a1.464 1.464 0 0 0-1.065-1.23.342.342 0 0 0-.164.043c-.278.214.317 1.453 1.059 1.403a1.9 1.9 0 0 0 .517 1.482c-.282-.101-.65-.071-.806.65-.575-.562-1.253-.279-1.398.58a.966.966 0 0 0-.399-.306c-.756-.302-1.436.553-1.084 1.364a1.161 1.161 0 0 0 .094.172.861.861 0 0 0 1.591-.31c.48.699 1.187.633 1.484-.127.106.142.39.516.79.34a2.558 2.558 0 0 0 .051 1.307 2.105 2.105 0 0 0-.472 1.756c-.612.422-.848 1.411-.688 1.55.2.174 1.04-.716 1.034-1.388a1.588 1.588 0 0 0 .557-.728l.616-2.178-.003-.013a.6.6 0 0 0 .144.316l.068.006a1 1 0 0 0 .084-.092Zm-1.294-2.642-.007.059c-.003-.013-.032-.045-.067-.086a.426.426 0 0 0 .075.028Zm.39 5.135a.078.078 0 0 1 .045.003c.206.13-.617 1.512-.945 1.6-.136.036.08-.42.18-.616.045-.093.45-.884.72-.987Zm.141.225a7.984 7.984 0 0 1 .467-.923.494.494 0 0 1-.036.124l-.124.31c-.147.314-.36.728-.532 1.032-.065.106-.074.109-.083.112a5.656 5.656 0 0 1 .305-.657Zm-1.658-9c-.597-.539-.605-.572-.608-.59a.811.811 0 0 1 .209.138l.298.242c.174.151.393.366.556.527.136.143.138.158.142.177a3.665 3.665 0 0 1-.598-.497Zm-1.048-.326c-.002-.006-.562-.45-.41-.516a1.907 1.907 0 0 1 1.152.823c.014.16-.344.01-.742-.306Zm-.836.407c-.192-.19-.41-.519-.18-.598.379-.065 1.113.491 1.092.824-.018.28-.528.151-.912-.225Zm-.729 1.183c-.185-.28-.268-.729.127-.853a1.068 1.068 0 0 1 1.136 1.023c-.09.514-.882.404-1.263-.17Zm-.026.84a.985.985 0 0 1 1.065 1.268c-.262.622-1.177.501-1.484-.196a.754.754 0 0 1 .42-1.07ZM9.417 8.457a.861.861 0 0 1 .95 1.226.846.846 0 0 1-1.565-.098.872.872 0 0 1 .615-1.128Zm.266 3.278a.823.823 0 0 1 .613-1.024.715.715 0 0 1 .796 1.036.751.751 0 0 1-1.41-.012Zm1.25 1.543a.755.755 0 0 1 .55-.815l.06-.016c.458-.06.655.457.346.907-.336.495-.882.376-.956-.076Zm1.03.966a.921.921 0 0 1 .573-.706.341.341 0 0 1 .124-.006c.312.06.15.656-.259.966-.311.236-.487.06-.437-.254Zm.666.485a1.652 1.652 0 0 1 .685-.701.144.144 0 0 1 .083.002c.25.122-.527 1.01-.824 1.08-.183.05.017-.305.058-.376Zm1.29-.634c.014-.004.03-.009.038.012.009.032-.041.204-.422.587a2.206 2.206 0 0 1-.662.504c-.005-.017-.005-.044.318-.415.541-.615.68-.666.729-.684Zm-.033.313a7.107 7.107 0 0 1 .607-.657 5.325 5.325 0 0 1-1.02 1.102 1.03 1.03 0 0 1 .12-.136c.093-.082.175-.172.294-.304ZM11.15 2.095a3.322 3.322 0 0 1 .978.462 2.088 2.088 0 0 1-.49-.21c-.482-.22-.484-.232-.486-.244Zm.304.388c.03.083-.208.041-.611-.154-.05-.025-.49-.24-.398-.279a1.827 1.827 0 0 1 1.011.442Zm-1.38-.125c.262-.045.851.263.876.458.018.154-.325.12-.67-.116-.11-.065-.364-.28-.202-.335Zm.54 1.313c-.027.318-.596.263-.896-.088-.136-.158-.248-.442.025-.524.4-.067.9.334.876.62ZM9.128 5.072a.475.475 0 0 1 .28-.707.7.7 0 0 1 .833.765c-.123.467-.86.429-1.108-.05Zm-.469 2.093a.72.72 0 0 1 .508-.954.78.78 0 0 1 .914 1.031.782.782 0 0 1-1.417-.07ZM7.567 9.053a.716.716 0 0 1 .789 1.011.685.685 0 0 1-1.267-.088.7.7 0 0 1 .478-.923Zm.863 2.262a.63.63 0 0 1 .758.823A.644.644 0 0 1 8 12.132a.6.6 0 0 1 .43-.817Zm1.268 1.78a.453.453 0 0 1 .55.642.5.5 0 0 1-.932.003.488.488 0 0 1 .382-.645Zm.833 1.716a.534.534 0 0 1 .407-.562l.043-.012c.329-.044.449.31.21.62-.25.33-.613.251-.66-.046Zm.826.619a.744.744 0 0 1 .426-.44.159.159 0 0 1 .096.002c.183.08-.124.52-.392.638-.175.077-.174-.077-.13-.2Zm.698.212a1.943 1.943 0 0 1-.542.338c-.015.004-.046 0 .183-.226a1.74 1.74 0 0 1 .547-.42c.014-.003.033-.008.043.003.04.032-.062.165-.231.305Zm.498-.216.014.001a3.328 3.328 0 0 1-1.042.656c.118-.093.254-.16.379-.242a4.857 4.857 0 0 1 .65-.415ZM9.685 1.73c-.39-.073-.39-.073-.399-.078a3.69 3.69 0 0 1 .788.139 2.966 2.966 0 0 1-.389-.061Zm-.046.125c-.018.022-.167.003-.444-.058-.348-.076-.352-.088-.354-.096l.005-.001a1.97 1.97 0 0 1 .793.155Zm-1.005.008c.197-.035.776.125.848.26.047.091-.198.102-.58-.06a1.038 1.038 0 0 1-.112-.05c-.162-.08-.214-.13-.156-.15Zm-.066.477c.23-.043.62.168.631.342s-.348.18-.594-.042c-.1-.088-.199-.25-.037-.3Zm.264 1.427c-.085.321-.626.3-.803-.03a.318.318 0 0 1 .194-.477c.357-.068.677.254.61.507Zm-1.47 1.63a.48.48 0 0 1 .354-.613.49.49 0 0 1 .588.65.517.517 0 0 1-.942-.037ZM6.907 7.56Zm1.147.07a.616.616 0 0 1-1.147-.07.64.64 0 0 1 .458-.796.611.611 0 0 1 .69.867ZM5.832 9.623a.574.574 0 0 1 .569.84.485.485 0 0 1-.893-.132.53.53 0 0 1 .324-.708Zm.617 2.867a.415.415 0 0 1 .25-.615.537.537 0 0 1 .615.675c-.136.36-.672.324-.866-.06Zm1.4 1.632a.3.3 0 0 1 .187-.464.421.421 0 0 1 .522.472c-.078.29-.53.288-.71-.008Zm1.37 1.114a.278.278 0 0 1 .199-.417.334.334 0 0 1 .428.388.342.342 0 0 1-.628.03Zm1.295.327c.212-.04.271.135.163.303-.14.214-.363.191-.397.015a.292.292 0 0 1 .234-.318Zm.163.785c-.026.007-.01-.039.054-.123a.785.785 0 0 1 .334-.27.076.076 0 0 1 .055.002c.092.067-.316.384-.443.395ZM7.412 1.717a1.537 1.537 0 0 1 .579.046c-.004.026-.217.002-.334-.007a1.415 1.415 0 0 1-.245-.038Zm.548.332c.018.068-.161.068-.31-.02-.046-.026-.144-.1-.07-.123.112-.02.365.064.38.143Zm-.25.689c-.054.186-.375.174-.47-.016a.184.184 0 0 1 .116-.264c.2-.04.392.143.359.283ZM6.5 3.95a.366.366 0 0 1 .267-.404.3.3 0 0 1 .314.474.315.315 0 0 1-.58-.065Zm0 0Zm-.114 1.844c-.191.277-.574.224-.621-.084a.442.442 0 0 1 .314-.479.34.34 0 0 1 .307.563Zm-.302 2.238a.419.419 0 0 1-.786-.118.527.527 0 0 1 .358-.62.465.465 0 0 1 .428.738Zm-1.807 2.113c.298-.049.498.347.382.609s-.458.2-.568-.114c-.057-.166-.038-.428.186-.495Zm.908 2.227a.432.432 0 0 1 .46.482c-.058.255-.412.22-.57-.054-.086-.14-.107-.364.105-.427Zm1.428 1.757a.365.365 0 0 1 .414.34c-.024.18-.314.16-.47-.03-.082-.099-.118-.259.051-.308Zm1.535 1.142a.378.378 0 0 1 .433.282c.005.186-.301.16-.466.001-.111-.1-.129-.234.029-.279Zm1.36.747a.181.181 0 0 1 .215.135c.004.103-.157.098-.245.013-.06-.048-.06-.12.025-.144Zm.813.416c-.031.056-.093.064-.108.015a.07.07 0 0 1 .057-.082c.053-.003.07.03.047.071ZM6.949 2.072a.074.074 0 0 1-.13-.013.057.057 0 0 1 .035-.079c.057-.011.116.046.095.092Zm-.575.806c-.083.075-.179.048-.174-.05a.191.191 0 0 1 .13-.163l.02-.006c.1 0 .111.142.024.22Zm-.86 1.41c-.15.12-.307.053-.289-.122a.387.387 0 0 1 .251-.315.184.184 0 0 1 .058-.003c.165.022.151.3-.02.44Zm-.865 1.365c.182.004.212.288.049.454-.142.141-.323.079-.322-.115a.359.359 0 0 1 .231-.334.266.266 0 0 1 .042-.005Zm-.31 2.705c-.154.218-.424.142-.467-.131a.4.4 0 0 1 .242-.442c.281-.046.385.341.224.573ZM2.973 10.6c.165-.024.28.27.2.414-.064.121-.217.058-.277-.12-.034-.1-.033-.26.077-.294Zm.952 2.21a.292.292 0 0 1 .27.317c-.031.112-.197.07-.291-.076-.052-.08-.08-.21.021-.241Zm1.523 1.725a.267.267 0 0 1 .26.194c.001.086-.143.065-.242-.033-.055-.053-.094-.138-.018-.161Zm1.687 1.108a.392.392 0 0 1 .356.191c.025.092-.168.064-.302-.022-.09-.065-.137-.145-.054-.17Zm1.643.673a.266.266 0 0 1 .205.078c.01.034-.086.023-.158-.008l-.02-.01c-.03-.02-.064-.05-.024-.061ZM6.3 2.12c-.013.003-.013-.01-.001-.029a.164.164 0 0 1 .07-.054.011.011 0 0 1 .007-.002c.015.013-.04.085-.076.085Zm-.907.864c-.036.01-.045-.012-.024-.054a.207.207 0 0 1 .102-.094.025.025 0 0 1 .017 0c.034.02-.036.132-.097.149Zm-1.134 1.48c-.076.036-.116-.02-.083-.117a.346.346 0 0 1 .187-.209.072.072 0 0 1 .03 0c.09.022-.007.266-.134.326ZM3.32 6.316c-.065.05-.122.005-.11-.089a.223.223 0 0 1 .124-.18l.017-.004c.085.01.062.2-.031.273ZM2.873 8.6c-.08.09-.184.028-.197-.117-.008-.088.025-.226.124-.255l.013-.004c.125-.007.167.255.06.376Zm-.882 2.384c.044-.005.082.11.061.154s-.058.005-.073-.054c-.01-.037-.016-.09.012-.1Zm1 2.184c.037-.005.091.071.086.107s-.046.012-.076-.034c-.017-.026-.031-.067-.008-.074Zm1.657 1.738c.004.013-.026.007-.047-.014s-.026-.029-.014-.033a.079.079 0 0 1 .063.046ZM4.74 3.02l.004-.009a.053.053 0 0 1 .017-.014s-.016.023-.02.023Zm-2.435 3.4c-.007.001-.008-.005-.004-.015s.008-.02.015-.023c.008.002 0 .031-.011.037Zm-.558 2.252c0-.025.006-.062.026-.07.026.001.03.08.006.109s-.023-.004-.032-.04Z" />
</svg>
