<svg xmlns="http://www.w3.org/2000/svg" viewBox="0 0 19.148 15">
  <path data-name="Path 99272" d="M19.147 15h-6.4l-2.116-3.094h6.091L19.145 15Zm-7.328 0H9.787l-.612-.879.385-2.219 2.261 3.1Zm2.79-3.793h-4.232l-1.2-1.316 2.067-2.289.031 1.75-.013.016.565.516 5.818-6.467 1.5 1.387-5.212 5.605.675.8Zm-7.458-.2L5.327 8.241 13.935.003l1.009.936-3.756 3.871.005.018.029 1.658-4.071 4.521Zm4.871-2.484-.06-3.41 3.542-3.664 1.579 1.453-5.061 5.621ZM.809 7.755l1.728-1.971h3.315L3.809 7.755Zm-.654-3.1 1.724-1.76h6.87l-2.042 1.76ZM.001 1.76 1.553.002h10.09L9.788 1.76Z" />
</svg>
