<svg xmlns="http://www.w3.org/2000/svg" viewBox="0 0 25.258 24.267">
  <path data-name="Path 99339" d="M14.972 21.239a.289.289 0 0 1-.049-.093 15.74 15.74 0 0 1-.131-.37c-.032-.092-.065-.188-.1-.282v-.022c-.087-.243-.087-.243-.285-.265l-.1-.013a16.677 16.677 0 0 0-.822-.081h-.013l-.25-.021c-.1-.008-.2-.014-.29-.02h-.021a12.02 12.02 0 0 1-.263-.018 28.202 28.202 0 0 1-.436-.04L12 19.983l-.128-.012c-.1-.01-.208-.02-.312-.028s-.192-.012-.286-.017c-.112-.006-.228-.012-.342-.021-.263-.02-.529-.043-.788-.065h-.005l-.394-.033-.225-.018h-.022l-.211-.017h-.02a.174.174 0 0 0-.158.1c-.152.254-.311.5-.433.693-.057.089-.091.128-.144.128a.357.357 0 0 1-.132-.043l-.379-.183H8a48.795 48.795 0 0 0-.687-.328.256.256 0 0 1-.113-.099.22.22 0 0 1-.025-.143 1.159 1.159 0 0 0 0-.187.384.384 0 0 1 .087-.286.338.338 0 0 0 .071-.133.507.507 0 0 0 .016-.152v-.459a.184.184 0 0 0-.031-.106 48.274 48.274 0 0 0-.347-.393l-.194-.218-.404-.463-.273-.318-.305-.344-.845-.938-.105-.116a8.95 8.95 0 0 1-.212-.237.211.211 0 0 0-.168-.089.318.318 0 0 0-.085.013c-.237.066-.479.124-.713.18h-.011l-.156.038a.32.32 0 0 1-.073.011c-.054 0-.081-.027-.1-.108l-.067-.208a16.084 16.084 0 0 1-.237-.836A1.319 1.319 0 0 1 3 14.192v-.1A.124.124 0 0 1 3.067 14a.156.156 0 0 0 .089-.088.377.377 0 0 0 .018-.123 3.113 3.113 0 0 1 .039-.422.217.217 0 0 1 .105-.139l.182-.086.629-.929s.061-.1.126-.224a1.322 1.322 0 0 0 .145-.354l.12-.731v-.014l.15-.914c0-.027.007-.055.01-.082a.881.881 0 0 1 .02-.119.107.107 0 0 0-.068-.137l-.143-.068-.132-.062L4 9.338a.187.187 0 0 1-.109-.178A.573.573 0 0 1 4 8.742a.394.394 0 0 0 .079-.142.545.545 0 0 0 .019-.16.83.83 0 0 1 .192-.548c.108-.135.206-.281.3-.423l.078-.117c.044-.066.073-.117.078-.127s.219-.062.225-.1a1.791 1.791 0 0 1 .072-.254c.021-.017.212-.171.307-.241.285-.21.568-.43.842-.642l.3-.236a.212.212 0 0 0 .05-.057.3.3 0 0 1 .063-.073l.023.015a.012.012 0 0 0 .011.006c.046 0 .168-.192.17-.194l.1-.147.1-.046a.3.3 0 0 1 .1-.019.135.135 0 0 1 .076.019.083.083 0 0 0 .015-.013c.007-.007.007-.007.046-.009l.095-.006a3.3 3.3 0 0 0 .359-.142.143.143 0 0 0 .089.031A.442.442 0 0 0 8.022 5a1.383 1.383 0 0 1 .117-.081C8.4 4.768 9.98 3.666 10.16 3.541l.371-.141a.966.966 0 0 1 .163-.059s0-.01 0-.015a.116.116 0 0 0 0-.032c0-.03-.025-.13-.029-.15l.128-.018.062.064.345-.074V3h.077l.03.042c.022.031.044.06.063.091s.035.062.05.09l.017.032.091.013h.037l.317.045c.033 0 .066.006.1.008h.036l.182.025h.037l.123.011h.03l.6.041.175.013h.013l.3.021.273.015c.128.007.259.014.391.023.068 0 .136.013.2.022l.134.016c.11.011.487.041.5.042 0 0 .061-.008.148-.109A.23.23 0 0 1 15.2 3.4a1.421 1.421 0 0 1 .18.05c.08.043.187.091.188.091l.147-.271a1.033 1.033 0 0 1 .309.1l.294.23c.133.1.27.21.407.313a.375.375 0 0 1 .152.215c.032.119.125.378.127.38h.006l.166.081c.067.033.138.061.206.087l.105.042a.2.2 0 0 1 .129.2v.068a.546.546 0 0 0 .04.266 2.062 2.062 0 0 1 .092.189 1.6 1.6 0 0 0 .125.242 1.353 1.353 0 0 0 .158.183c.026.027.054.055.079.083a.265.265 0 0 0 .2.1.336.336 0 0 0 .175-.049l.074.069.012.011.013.012h.005l.233.219a.8.8 0 0 0 .129.1.294.294 0 0 0 .155.045.321.321 0 0 0 .058-.005.243.243 0 0 1 .044 0 .193.193 0 0 1 .183.118 1.107 1.107 0 0 0 .327.379c.044.037.089.076.131.116.106.1.22.2.33.289l.12.1.113.1.007.006c.147.125.3.254.45.378a.743.743 0 0 1 .3.4.509.509 0 0 0 .034.091l.014.032a.12.12 0 0 0 .113.085h.02a.412.412 0 0 1 .059 0 .244.244 0 0 1 .175.065.45.45 0 0 1 .1.176c.038.1.083.2.128.3a3.506 3.506 0 0 1 .163.406c.034.111.061.225.088.335a3.4 3.4 0 0 0 .162.543.036.036 0 0 1 0 .012c.028.2.033.3-.013.372s-.142.1-.339.153c-.135.034-.277.073-.461.126-.115.033-.136.06-.142.179-.013.25-.024.507-.035.764 0 .111-.009.222-.013.336-.007.2-.014.4-.025.595-.007.131-.017.263-.027.391-.014.181-.028.369-.034.554a3.017 3.017 0 0 0 .018.363c.005.058.011.118.014.178a.186.186 0 0 0 .118.154c.036.02.071.042.1.063a1.551 1.551 0 0 0 .175.1.283.283 0 0 1 .141.131.469.469 0 0 1 .043.185c0 .062.011.128.016.185.006.058.013.123.016.186a.173.173 0 0 0 .089.155c.066.035.074.09.084.154s0 .008 0 .012a.835.835 0 0 1-.042.408 2.391 2.391 0 0 1-.175.366l-.007.012-.031.058c-.058.109-.121.217-.181.322l-.005.009-.082.143-.014.026a.418.418 0 0 1-.026.046c-.052.076-.087.1-.134.1a.309.309 0 0 1-.123-.037l-.264-.119a23.467 23.467 0 0 1-.466-.212.337.337 0 0 0-.144-.037.3.3 0 0 0-.185.071c-.383.291-.774.583-1.153.865l-.014.011h-.006l-.422.315-.573.429-.6.449-.009.007-.484.364-.094.071c-.08.061-.162.125-.248.182a.2.2 0 0 0-.1.2c0 .022.005.044.008.065a1.141 1.141 0 0 0 .046.246 1.72 1.72 0 0 1 .083.637.173.173 0 0 1-.031.1.164.164 0 0 1-.092.054l-.56.151-.022.006h-.007l-.7.188a.308.308 0 0 1-.076.013.084.084 0 0 1-.045.012ZM9.619 16.59l-.3 2.084 5.125.417-.174-2.179-.479-3.384-3.29-.24Zm5.66-3.439.552 3.068.278 2.457 3.844-2.83-.638-1.864-1.6-2.6Zm-9.826-.185-.667 1.553 3.1 3.367.314-2.039.933-3.126-2.178-2.166ZM18.6 10.045l2.137 3.54.2-3.077-.563-1.421L18.753 7.7Zm-7.844 2.64 2.751.24L12.449 9.7l-.075.018-.052-.025Zm3.825-3.495-.093.022.815 3.22L17.342 11 14.6 9.161Zm-7.062.957 1.6 1.827 1.418-3.126-.1-.046-.008-.024ZM5.568 7.905l-.562 1.34-.458 2.355 1.963-2.613.331-2.114Zm10-.388.009.026-.056.092 2.613 1.795.177-2.007ZM11.1 5.765l-.923 1.326.546 1.529 1.692.8 1.931-.461.872-1.441-.543-1.5-1.743-.74ZM7 8.707l2.859-1.535-.042-.118.007-.01-2.487-.483Zm7.9-2.908.065.028.04.11 2.732.082L16.066 4.4ZM8.2 5.17l2.62.451.058-.083.072-.019-.744-1.759Zm4.879-.142 1.4-1.307-2.546-.181.93 1.469.1-.027ZM9.857 18.373l2.063-1.548 2 1.868Zm2.206-1.7 1.511-2.612.354 2.8.192 1.742Zm-2.037-.133.641-2.695 1.146 2.813-2 1.509Zm7.618-1.525 1.88.757-3.043 2.233Zm-1.486 1.049-.5-2.509 1.808 1.37-1.153 2.967Zm-10.9-1.519 1.61-.184.68 2.609Zm1.807-.245 1.656-1.16-.8 2.477-.181 1.32Zm3.764-.591 2.636.169-1.515 2.581Zm6.866 1.11.12-2.78 1.227 2.056.494 1.471Zm-1.968-1.479 1.873-1.373-.106 2.711Zm-10.05-.165L6.85 11.27v2.9l-1.672.2Zm1.373-2.02 1.65 1.767-1.65 1.129Zm13.077-.822.595.239-.109 2.128Zm-1.227-.106 1 .041.519 2.391Zm-7.616 2.1 1.049-2.169.695 2.317Zm3.6-2.669 1.994 1.3-1.42 1.009Zm-6.928.57 2.244-1.11-1.11 2.36Zm-2.815-.91.335-.025-.625 1.39Zm.559-.05.533-.12-1.124 1.435Zm14.377.847-.93-1.758 1.1.9.453 1.1Zm-1.2-.089.091-1.607.854 1.642ZM5.65 8.091l.779-.656-.856 1.657-.343.026Zm.936-.529-.217 1.374-.561.108Zm9.434.167 2.056-.1-.132 1.375Zm-4.828.592-.416-1.169.7-1.014 1.4-.372 1.329.565.414 1.148-.665 1.1-1.472.352Zm.691-1.782-.471.679.278.782.864.41.985-.236.445-.737-.277-.768-.89-.378ZM7.5 6.832l1.936.345-2.161 1.148Zm7.78-1.112.805-1.039L17.262 5.8Zm-6.659-.676 1.485-.966.484 1.289Zm3.65-1.31 1.794.136-1.073.918Z"/>
</svg>
