<svg xmlns="http://www.w3.org/2000/svg" viewBox="0 0 40.526 22.32">
  <path data-name="Path 99293" d="m4.689 15.386-.627-.472.054-.041c-.044-.157-.1-.312-.131-.471-.085-.425-.185-.85-.241-1.28-.052-.378-.062-.762-.088-1.143a1.477 1.477 0 0 0-.129-.807c-.044-.066-.021-.181-.022-.272 0-.344-.009-.688 0-1.032a3.349 3.349 0 0 1 .085-.419 2.444 2.444 0 0 0 .06-.464 10.815 10.815 0 0 1 .245-2.357c.063-.325.177-.641.248-.892L3.9 5.2a2.716 2.716 0 0 1 1.05-.646l.359.586c.3 0 .669-.012 1.036.006a1.113 1.113 0 0 1 .443.125 2.1 2.1 0 0 1 .962.735c.364 0 .707.01 1.049 0a.963.963 0 0 1 .628.187c.273.2.377.191.628-.021A.664.664 0 0 1 10.52 6c.3.006.607 0 .925 0 .038-.094.066-.18.106-.258a.477.477 0 0 1 .471-.3c.224.009.449 0 .681 0l.223-.271c.431-.056.475-.026.593.373.028.093.071.181.107.272h.083l.152-.636c-.183-.072-.343-.131-.5-.2a1.129 1.129 0 0 1-.276-.151c-.418-.35-.368-.656.052-.957a1.415 1.415 0 0 1 .468-.202 5.238 5.238 0 0 1 2.769.03 1.327 1.327 0 0 1 .67.4.465.465 0 0 1 0 .644 1.523 1.523 0 0 1-.719.393c-.116.044-.236.081-.405.138a.677.677 0 0 1 .131.875.83.83 0 0 0 1.211.1 1.34 1.34 0 0 1 1.238-.323c.461.106.934.157 1.4.257.541.117 1.078.254 1.612.4a.932.932 0 0 1 .368.221 4.281 4.281 0 0 1 .509.553 1.3 1.3 0 0 0 .915.589l.227-.122a.762.762 0 0 0 .715.1c.058-.026.155.015.226.044a3.315 3.315 0 0 1 1.468.963 2.375 2.375 0 0 0 .473.4 1.08 1.08 0 0 0 .707.173c.528-.013 1.057 0 1.569-.05l.55-.3c.14-.344-.073-.811.141-1.18a2 2 0 0 1 .456-.187 2.322 2.322 0 0 1 .575.022c.086.01.168.1.248.1a9.453 9.453 0 0 0 1.853.023 2.6 2.6 0 0 1 .632-.005c.367 0 .733.006 1.1.017a.39.39 0 0 1 .256.067 2.991 2.991 0 0 0 1.177.6c.3.133.619.227.923.353a.635.635 0 0 1 .412.613c.033.528.013 1.051 0 1.577a.564.564 0 0 1-.371.549c-.348.157-.706.294-1.06.437-.2.08-.4.145-.587.238a2.355 2.355 0 0 0-.544.366.459.459 0 0 1-.116.017c-.618-.069-1.238.06-1.852 0-.556-.058-1.1.038-1.656.009a.482.482 0 0 0-.427.146c-.14.152-.343.1-.521.046-.148-.045-.292-.108-.492-.183-.209-.37-.029-.841-.14-1.253l-.54-.277.019-.059c-.621 0-1.243-.018-1.862.011a.833.833 0 0 0-.546.242 1.358 1.358 0 0 1-.59.375 4.74 4.74 0 0 1-1.77.4l-.162-.257-.8-.2a.577.577 0 0 0-.438.35 9.146 9.146 0 0 1-.517.8 1.3 1.3 0 0 1-.993.573c-.707.077-1.414.166-2.117.273a1.9 1.9 0 0 1-1.576-.19l-1.293.969a1.033 1.033 0 0 0 .06.18.4.4 0 0 1-.042.472 8.49 8.49 0 0 0-.639 1.064 1.146 1.146 0 0 1-2 .189 7.67 7.67 0 0 1-.379-.685c-.047-.085-.1-.167-.2-.327-.039.177-.054.261-.076.343a2.39 2.39 0 0 1-1.285 1.613 1.441 1.441 0 0 0-.587.517 1.1 1.1 0 0 1-.506.427 5.362 5.362 0 0 1-1.019.415 4.253 4.253 0 0 1-1.72-.028 4.142 4.142 0 0 1-1.717-.858A2.647 2.647 0 0 1 4.912 16.4c-.037-.167-.106-.327-.144-.494s-.051-.328-.079-.52Zm12.818-7.948.718 1.229a1.813 1.813 0 0 1 .524.185 1.965 1.965 0 0 1 .349.482c.169.026.377.061.586.089a.817.817 0 0 0 .228 0 2.241 2.241 0 0 1 .451-.081 6.415 6.415 0 0 1 1.75.125 3.942 3.942 0 0 0 1.22.024l.319-.363c-.222-.155-.636-.04-.613-.407A6.99 6.99 0 0 1 22.2 8.2a4.36 4.36 0 0 1-.6-.678.709.709 0 0 0-.487-.3c-.235-.027-.469-.059-.7-.083-.131-.013-.266 0-.394-.021-.558-.1-1.114-.205-1.67-.31a.622.622 0 0 0-.745.4c-.043.082-.073.166-.097.23Zm.219 5.522a.673.673 0 0 0 .525.163c.95-.128 1.9-.247 2.849-.378a.431.431 0 0 0 .272-.13c.22-.306.417-.628.659-1a11.289 11.289 0 0 0-3.04-.022c-.138.392-.534.293-.787.45Zm-4.279-8.751c.67.162 1.289.349 1.876-.239a3.381 3.381 0 0 0-1.876.239Zm2.037.355c.624.259.907.211 1.173-.163a.857.857 0 0 0-.6-.329Zm15.264 4.184c.117.175.117.175.343.255l.171-.227c-.178-.123-.323-.182-.514-.028Zm0 3.2c.325.133.325.133.482-.086-.23-.162-.23-.162-.477.085ZM32.841 9l.175-.21c-.134-.17-.263-.188-.408-.061-.015.014-.014.047-.024.089Zm-.269 2.955c.2.123.331.11.435-.07-.207-.164-.207-.164-.436.073ZM14.29 15.641l-.019.057a1.261 1.261 0 0 0 .12.043.6.6 0 0 0 .025-.063Zm.178-10.788v.03l.137-.006v-.024Z"/>
</svg>
