<svg xmlns="http://www.w3.org/2000/svg" viewBox="0 0 17.617 21.945">
  <path data-name="Path 99165" d="M2.969 21.946H1.162v-.854l1.255-.226.867-1.778 5.6 1.15 5.713-1.151.73 1.8 1.067.215h.106v.847h-1.811l-.589-1.615-.438-.657.138 1.166-.179 1.1H4.047l-.174-1.08L4 19.667l-.428.624c0 .012-.384 1.2-.6 1.652ZM8.812 19.8l-3.072-.646-.123-.722.123-1.143-.477.571-.535 1.128-.678-.148.65-1.23 1.121-1.11.592-.357-.192.7 2.61 2.257 2.538-2.289-.177-.67.524.357 1.307 1.1.542 1.231-4.753.971Zm.015-1.167-.912-.809-.05-.682-.189-2.6-.323 2.6-.021.166-.187-.166-.364-.323.551-3.117.321-.248L8.826 14.5l1.187-1.056.352.263.5 3.047-.425.393-1.61 1.491Zm0-4.567-.839-.813-.032-.029-3.911-3.785L.457 7.941 0 3.115l2.83-.855-.085-.746L8.633.017A1.079 1.079 0 0 1 8.809 0a.928.928 0 0 1 .17.019L14.921 1.5l-.095.829 2.791.781-.457 4.831L13.666 9.4l-3.957 3.815-.079.072-.809.782ZM5.189 6.14l.58 2.06.592 1.716 2.1 1.985-.681-4.017.226-6.537-1.206.346.09 3.825L6.064 1.9l-1.874.538.621 6.016.752.71-.19-.839-.184-2.185Zm8.067-1.047-.6 3.068-1.6 2.443 1.974-2.172.23-3.338ZM2.944 3.26l-1.933.521.349 3.512 2.14.857Zm11.768.062-.549 4.8 2.093-.832.344-3.505-1.892-.463Z" />
</svg>
