<svg xmlns="http://www.w3.org/2000/svg" width="40.443" height="40.443" viewBox="0 0 40.443 40.443">
  <path id="About_Me" data-name="About Me" d="M18.951,39.917.526,21.493a1.8,1.8,0,0,1,0-2.541L18.951.527a1.8,1.8,0,0,1,2.541,0L39.916,18.952a1.8,1.8,0,0,1,0,2.541L21.492,39.917a1.8,1.8,0,0,1-2.541,0Zm.953-4.83a.449.449,0,0,0,.635,0l5.741-5.741A10.824,10.824,0,0,0,20.286,27.6a11.107,11.107,0,0,0-6.065,1.808Zm0-29.731L5.356,19.9a.449.449,0,0,0,0,.635l6.612,6.612c1.6-1.6,4.462-2.045,4.7-2.126a6.947,6.947,0,1,1,7.245,0,13.18,13.18,0,0,1,4.626,2.066l6.552-6.552a.449.449,0,0,0,0-.635L20.539,5.357a.449.449,0,0,0-.635,0ZM17.777,16.578a3.548,3.548,0,1,0,2.509-1.039A3.524,3.524,0,0,0,17.777,16.578Z" fill="#fff"/>
</svg>
