<svg xmlns="http://www.w3.org/2000/svg" width="40.443" height="40.443" viewBox="0 0 40.443 40.443">
  <path id="Battle_History" data-name="Battle History" d="M18.951,39.917.526,21.493a1.8,1.8,0,0,1,0-2.541L18.951.527a1.8,1.8,0,0,1,2.541,0L39.916,18.952a1.8,1.8,0,0,1,0,2.541L21.492,39.917a1.8,1.8,0,0,1-2.541,0ZM19.9,6.386,6.385,19.9a.449.449,0,0,0,0,.635L19.9,34.058a.449.449,0,0,0,.635,0L34.057,20.54a.449.449,0,0,0,0-.635L20.539,6.386a.449.449,0,0,0-.635,0ZM12.217,35.047H7.194a1.8,1.8,0,0,1-1.8-1.8V28.227l6.82,6.82h0Zm21.032,0H28.225l6.821-6.821V33.25a1.8,1.8,0,0,1-1.8,1.8ZM18.873,22.02a.449.449,0,0,1-.449-.449V12.585a.449.449,0,0,1,.322-.431L19.9,11a.45.45,0,0,1,.636,0L21.7,12.154a.449.449,0,0,1,.322.431v5.84h6.739a.449.449,0,0,1,.431.322L30.345,19.9a.449.449,0,0,1,0,.635L29.187,21.7a.449.449,0,0,1-.431.322Zm16.172-9.8L28.225,5.4h5.024a1.8,1.8,0,0,1,1.8,1.8v5.023h0Zm-29.648,0V7.194a1.8,1.8,0,0,1,1.8-1.8h5.025L5.4,12.216h0Z" fill="#fff"/>
</svg>
