<svg xmlns="http://www.w3.org/2000/svg" width="40.273" height="41.443" viewBox="0 0 40.273 41.443">
  <path id="Stats" d="M19.572,40.443h-.007a1.741,1.741,0,0,1-1.225-.509L.508,22.1A1.743,1.743,0,0,1,.5,19.65l.006-.007,7.325-7.325a1.74,1.74,0,0,1,2.46,0l8.046,8.046a1.739,1.739,0,0,0,2.459,0l8.046-8.045a1.739,1.739,0,0,1,2.459,0l7.327,7.327a1.74,1.74,0,0,1,0,2.459L20.8,39.934A1.723,1.723,0,0,1,19.572,40.443Zm10.44-26.388a1.2,1.2,0,0,0-.85.352L23.6,19.972a1.205,1.205,0,0,0,0,1.7l5.566,5.565a1.2,1.2,0,0,0,1.7,0l5.565-5.565a1.2,1.2,0,0,0,0-1.7l-5.565-5.566A1.2,1.2,0,0,0,30.012,14.055Zm-21,0a1.2,1.2,0,0,0-.85.352L2.6,19.972a1.205,1.205,0,0,0,0,1.7l5.566,5.565a1.2,1.2,0,0,0,1.7,0l5.565-5.565a1.2,1.2,0,0,0,0-1.7L9.862,14.407A1.2,1.2,0,0,0,9.012,14.055Zm10.557,3.231a1.528,1.528,0,0,1-1.086-.45L11.374,9.729a1.538,1.538,0,0,1,0-2.172L18.482.449a1.537,1.537,0,0,1,2.172,0l7.107,7.108a1.538,1.538,0,0,1,0,2.172l-7.107,7.106A1.528,1.528,0,0,1,19.568,17.286Z" transform="translate(0.635 0.5)" fill="#fff" stroke="rgba(0,0,0,0)" stroke-width="1"/>
</svg>
