<svg xmlns="http://www.w3.org/2000/svg" xmlns:xlink="http://www.w3.org/1999/xlink" width="292.303" height="51.465" viewBox="0 0 292.303 51.465">
  <defs>
    <filter id="Path_99109" x="0" y="-0.17" width="272.625" height="51.465" filterUnits="userSpaceOnUse">
      <feOffset input="SourceAlpha"/>
      <feGaussianBlur stdDeviation="3" result="blur"/>
      <feFlood flood-color="#2cfde9"/>
      <feComposite operator="in" in2="blur"/>
      <feComposite in="SourceGraphic"/>
    </filter>
    <filter id="Path_99105" x="0" y="0" width="272.625" height="51.465" filterUnits="userSpaceOnUse">
      <feOffset input="SourceAlpha"/>
      <feGaussianBlur stdDeviation="3" result="blur-2"/>
      <feFlood flood-color="#fc3939"/>
      <feComposite operator="in" in2="blur-2"/>
      <feComposite in="SourceGraphic"/>
    </filter>
    <filter id="Path_99105-2" x="0" y="0" width="272.625" height="51.465" filterUnits="userSpaceOnUse">
      <feOffset input="SourceAlpha"/>
      <feGaussianBlur stdDeviation="3" result="blur-3"/>
      <feFlood flood-color="#fc3939" result="color"/>
      <feComposite operator="out" in="SourceGraphic" in2="blur-3"/>
      <feComposite operator="in" in="color"/>
      <feComposite operator="in" in2="SourceGraphic"/>
    </filter>
    <filter id="Path_99104" x="248.412" y="5.305" width="37.166" height="40.859" filterUnits="userSpaceOnUse">
      <feOffset input="SourceAlpha"/>
      <feGaussianBlur stdDeviation="1" result="blur-4"/>
      <feFlood flood-color="#fc3939"/>
      <feComposite operator="in" in2="blur-4"/>
      <feComposite in="SourceGraphic"/>
    </filter>
    <filter id="Path_99104-2" x="248.412" y="5.305" width="37.166" height="40.859" filterUnits="userSpaceOnUse">
      <feOffset input="SourceAlpha"/>
      <feGaussianBlur stdDeviation="2" result="blur-5"/>
      <feFlood flood-color="#fc3939" result="color-2"/>
      <feComposite operator="out" in="SourceGraphic" in2="blur-5"/>
      <feComposite operator="in" in="color-2"/>
      <feComposite operator="in" in2="SourceGraphic"/>
    </filter>
    <filter id="Subtraction_571" x="266.338" y="5.308" width="25.964" height="40.859" filterUnits="userSpaceOnUse">
      <feOffset input="SourceAlpha"/>
      <feGaussianBlur stdDeviation="1" result="blur-6"/>
      <feFlood flood-color="#fc3939"/>
      <feComposite operator="in" in2="blur-6"/>
      <feComposite in="SourceGraphic"/>
    </filter>
    <clipPath id="clip-path">
      <g transform="matrix(1, 0, 0, 1, 0, 0)" filter="url(#Path_99109)">
        <path id="Path_99109-2" data-name="Path 99109" d="M-6454.3-19412.217v27.348l6.305,6.117h231.2l17.117-17.121-17.117-16.344Z" transform="translate(6454.3 19412.22)" fill="#041423"/>
      </g>
    </clipPath>
    <filter id="_24_Hour_Pass" x="40.302" y="8.695" width="187" height="33" filterUnits="userSpaceOnUse">
      <feOffset input="SourceAlpha"/>
      <feGaussianBlur stdDeviation="1" result="blur-7"/>
      <feFlood flood-color="#fc3939"/>
      <feComposite operator="in" in2="blur-7"/>
      <feComposite in="SourceGraphic"/>
    </filter>
  </defs>
  <g id="Group_94623" data-name="Group 94623" transform="translate(-510.698 -553.305)">
    <g data-type="innerShadowGroup">
      <g transform="matrix(1, 0, 0, 1, 510.7, 553.3)" filter="url(#Path_99105)">
        <path id="Path_99105-3" data-name="Path 99105" d="M-6454.3-19412.217v27.348l6.305,6.117h231.2l17.117-17.121-17.117-16.344Z" transform="translate(6463.3 19421.22)" fill="#230404"/>
      </g>
      <g transform="matrix(1, 0, 0, 1, 510.7, 553.3)" filter="url(#Path_99105-2)">
        <path id="Path_99105-4" data-name="Path 99105" d="M-6454.3-19412.217v27.348l6.305,6.117h231.2l17.117-17.121-17.117-16.344Z" transform="translate(6463.3 19421.22)" fill="#fff"/>
      </g>
    </g>
    <path id="Path_99105_-_Outline" data-name="Path 99105 - Outline" d="M-6456.3-19414.215h238.483l.2.193,17.633,16.838-17.825,17.83H-6449.66l-6.64-6.385Zm237.924,1.393h-236.531v26.248l6,5.826h230.526l16.409-16.416Z" transform="translate(6975.3 19975.822)" fill="#fc3939"/>
    <g data-type="innerShadowGroup">
      <g transform="matrix(1, 0, 0, 1, 510.7, 553.3)" filter="url(#Path_99104)">
        <path id="Path_99104-3" data-name="Path 99104" d="M-5918.3-19412.215l18.483,17.023-18.483,17.836h13.337l17.829-17.836-17.829-17.023Z" transform="translate(6169.71 19420.52)" fill="#250505"/>
      </g>
      <g transform="matrix(1, 0, 0, 1, 510.7, 553.3)" filter="url(#Path_99104-2)">
        <path id="Path_99104-4" data-name="Path 99104" d="M-5918.3-19412.215l18.483,17.023-18.483,17.836h13.337l17.829-17.836-17.829-17.023Z" transform="translate(6169.71 19420.52)" fill="#fff"/>
      </g>
    </g>
    <path id="Path_99104_-_Outline" data-name="Path 99104 - Outline" d="M-5919.708-19412.764h14.645l.172.166,17.662,16.863-.431.432-17.4,17.4h-14.6l1.062-1.025,17.4-16.783Zm14.167,1.193h-11.119l17.2,15.836-.455.443-16.792,16.2h11.161l16.617-16.617Z" transform="translate(6681.387 19974.369)" fill="#fc3939"/>
    <g transform="matrix(1, 0, 0, 1, 510.7, 553.3)" filter="url(#Subtraction_571)">
      <path id="Subtraction_571-2" data-name="Subtraction 571" d="M2.13,34.859H0l6.553-6.532v2.107L2.13,34.857Zm8.9-8.906V23.863L17.9,17.02l-6.863-6.528v-2l8.93,8.524-8.928,8.931ZM6.553,6.232l0,0L0,0H2.13L6.553,4.222v2.01Z" transform="translate(269.34 8.31)" fill="#fc3939"/>
    </g>
    <path id="Path_99108" data-name="Path 99108" d="M-6455.3-19521.584v4.256h4.355Z" transform="translate(6974.3 20113.848)" fill="#fc3939"/>
    <g id="Mask_Group_33" data-name="Mask Group 33" transform="translate(519.697 562.134)" clip-path="url(#clip-path)">
      <path id="Path_99110" data-name="Path 99110" d="M-240-10.074l116.858.8,17.366,15.828-17.366,16.929H-240l15.461-16.929Z" transform="translate(104.461 9.549)" fill="#fc3939" opacity="0.274" style="mix-blend-mode: screen;isolation: isolate"/>
    </g>
    <g transform="matrix(1, 0, 0, 1, 510.7, 553.3)" filter="url(#_24_Hour_Pass)">
      <text id="_24_Hour_Pass-2" data-name="24 Hour Pass" transform="translate(224.3 33.7)" fill="#fc3939" font-size="22" font-family="Azurite-Regular, Azurite"><tspan x="-180" y="0">24 Hour Pass</tspan></text>
    </g>
  </g>
</svg>
