<svg xmlns="http://www.w3.org/2000/svg" width="150.631" height="161.37" viewBox="0 0 150.631 161.37">
  <path id="Path_99491" data-name="Path 99491" d="M136.561,162.367l-21.9-.382-3.55-3.675-36.3-.634-36.3.634-3.55,3.675-21.9.382L2.237,151.911H2.215V112.48L0,110.266V48.359l2.215-2.215V18.7L14.2,6.716h14.42l-.058-.058L30.013,5.2H63.737l3.2-3.2H82.69l3.2,3.2h33.724l1.456,1.456-.057.057h14.332l12.066,12.066v27.36l2.219,2.22v61.907l-2.219,2.219v39.425h-.025l-10.825,10.455ZM4,19.286V46.131l2.227,2.228v61.907l-2.228,2.228v26.735c2.561,2.525,8.754,8.642,10.958,10.9H134.444c2.235-2.292,8.569-8.547,11.187-11.129V112.49l-2.223-2.222V48.361l2.223-2.223V19.515c-2.558-2.523-8.761-8.649-11.081-11.019H121.063l-1.448,1.448H85.892l-3.2,3.2H66.938l-3.2-3.2H30.013L28.565,8.5H14.843C12.557,10.835,6.5,16.82,4,19.286Z" transform="translate(0.5 -1.5)" fill="#c52a1f" stroke="rgba(0,0,0,0)" stroke-width="1"/>
</svg>
