<?xml version="1.0" encoding="UTF-8" standalone="no"?>
<svg
   enable-background="new 0 0 32 32"
   viewBox="0 0 16 26.789064"
   version="1.1"
   id="svg16"
   sodipodi:docname="General.svg"
   inkscape:version="1.1 (1:1.1+202106031931+af4d65493e)"
   xmlns:inkscape="http://www.inkscape.org/namespaces/inkscape"
   xmlns:sodipodi="http://sodipodi.sourceforge.net/DTD/sodipodi-0.dtd"
   xmlns="http://www.w3.org/2000/svg"
   xmlns:svg="http://www.w3.org/2000/svg">
  <defs
     id="defs20" />
  <sodipodi:namedview
     id="namedview18"
     pagecolor="#ffffff"
     bordercolor="#111111"
     borderopacity="1"
     inkscape:pageshadow="0"
     inkscape:pageopacity="0"
     inkscape:pagecheckerboard="1"
     showgrid="false"
     inkscape:zoom="9.6453784"
     inkscape:cx="3.473166"
     inkscape:cy="21.098187"
     inkscape:window-width="2560"
     inkscape:window-height="1314"
     inkscape:window-x="1920"
     inkscape:window-y="27"
     inkscape:window-maximized="1"
     inkscape:current-layer="svg16"
     fit-margin-top="0"
     fit-margin-left="0"
     fit-margin-right="0"
     fit-margin-bottom="0" />
  <g
     id="bold"
     transform="matrix(1.6744799,0,0,1.6744799,-18.790983,-13.395839)">
    <g
       fill="#FC4C2D"
       id="g11">
      <path
         d="m 18.276,13.843 c 0.546,0.226 0.979,0.665 1.217,1.206 l 1.224,-4.756 C 20.861,9.738 20.744,9.161 20.394,8.71 20.047,8.258 19.519,8 18.947,8 H 18 v 5.759 c 0.093,0.025 0.186,0.046 0.276,0.084 z"
         id="path5" />
      <path
         d="m 15.562,13.874 0.438,0.199 0.441,-0.2 c 0.176,-0.08 0.366,-0.13 0.559,-0.164 V 8 h -2 v 5.709 c 0.194,0.034 0.384,0.084 0.562,0.165 z"
         id="path7" />
      <path
         d="m 12.508,15.045 c 0.238,-0.539 0.67,-0.977 1.218,-1.203 0.088,-0.037 0.182,-0.058 0.274,-0.084 V 8 h -0.947 c -0.572,0 -1.1,0.258 -1.448,0.709 -0.349,0.451 -0.467,1.028 -0.323,1.582 z"
         id="path9" />
    </g>
    <path
       d="m 20.55,20.188 -0.331,-0.729 c -0.036,-0.079 -0.036,-0.171 0,-0.25 L 20.55,18.48 c 0.149,-0.327 0.155,-0.706 0.018,-1.038 -0.137,-0.332 -0.41,-0.595 -0.746,-0.721 L 19.072,16.44 C 18.99,16.409 18.926,16.345 18.895,16.263 L 18.614,15.514 C 18.488,15.177 18.225,14.905 17.893,14.768 17.56,14.63 17.182,14.636 16.856,14.785 l -0.729,0.331 c -0.079,0.036 -0.17,0.036 -0.25,0 l -0.729,-0.331 c -0.328,-0.15 -0.707,-0.156 -1.038,-0.018 -0.332,0.137 -0.595,0.41 -0.721,0.746 l -0.281,0.75 c -0.031,0.082 -0.095,0.146 -0.177,0.177 l -0.749,0.281 c -0.337,0.126 -0.609,0.389 -0.746,0.721 -0.138,0.332 -0.131,0.71 0.017,1.037 l 0.331,0.729 c 0.036,0.079 0.036,0.171 0,0.25 l -0.331,0.729 c -0.149,0.327 -0.155,0.706 -0.018,1.038 0.137,0.332 0.41,0.595 0.746,0.721 l 0.75,0.281 c 0.082,0.031 0.146,0.095 0.177,0.177 l 0.281,0.749 c 0.126,0.337 0.389,0.609 0.721,0.746 0.159,0.066 0.329,0.099 0.498,0.099 0.184,0 0.369,-0.039 0.539,-0.116 l 0.729,-0.331 c 0.079,-0.036 0.17,-0.036 0.25,0 l 0.729,0.331 c 0.327,0.149 0.706,0.155 1.038,0.018 0.332,-0.137 0.595,-0.41 0.721,-0.746 l 0.281,-0.75 c 0.031,-0.082 0.095,-0.146 0.177,-0.177 l 0.749,-0.281 c 0.337,-0.126 0.609,-0.389 0.746,-0.721 0.138,-0.332 0.131,-0.71 -0.017,-1.037 z M 16,21.667 c -1.286,0 -2.333,-1.047 -2.333,-2.333 C 13.667,18.048 14.714,17 16,17 c 1.286,0 2.333,1.047 2.333,2.333 0,1.286 -1.047,2.334 -2.333,2.334 z"
       fill="#FC8974"
       id="path13" />
  </g>
</svg>
