<svg xmlns="http://www.w3.org/2000/svg" xmlns:xlink="http://www.w3.org/1999/xlink" width="733.598" height="39.741" viewBox="0 0 733.598 39.741">
  <defs>
    <filter id="Path_147751" x="0" y="5.74" width="246.572" height="27.491" filterUnits="userSpaceOnUse">
      <feOffset input="SourceAlpha"/>
      <feGaussianBlur stdDeviation="2" result="blur"/>
      <feFlood flood-color="#feba24"/>
      <feComposite operator="in" in2="blur"/>
      <feComposite in="SourceGraphic"/>
    </filter>
    <filter id="Path_147753" x="487.025" y="6.161" width="246.572" height="26.648" filterUnits="userSpaceOnUse">
      <feOffset input="SourceAlpha"/>
      <feGaussianBlur stdDeviation="2" result="blur-2"/>
      <feFlood flood-color="#feba24"/>
      <feComposite operator="in" in2="blur-2"/>
      <feComposite in="SourceGraphic"/>
    </filter>
    <filter id="Path_147752" x="253.416" y="0" width="226.77" height="39.741" filterUnits="userSpaceOnUse">
      <feOffset input="SourceAlpha"/>
      <feGaussianBlur stdDeviation="2" result="blur-3"/>
      <feFlood flood-color="#feba24"/>
      <feComposite operator="in" in2="blur-3"/>
      <feComposite in="SourceGraphic"/>
    </filter>
  </defs>
  <g id="Sky_High_Grouped_Text" data-name="Sky High Grouped Text" transform="translate(18241.559 1528.871)">
    <g transform="matrix(1, 0, 0, 1, -18241.56, -1528.87)" filter="url(#Path_147751)">
      <path id="Path_147751-2" data-name="Path 147751" d="M2.829-4.131H14.873l2.21-2.21V-9.413l-2.077-2.254v-.11l2.077-2.276V-17.39l-2.21-2.21H2.829l-.309.309v14.85ZM6.277-13.1v-3.182H12.6l.729.729v1.613l-.707.84Zm0,5.657v-3.072h6.342l.707.862v1.481l-.729.729ZM21.37-4.131h3.138l.309-.309V-9.612h7.049v5.171l.309.309h3.138l.309-.309V-17.39l-2.21-2.21H23.27l-2.21,2.21v12.95Zm3.447-8.8v-2.63l.751-.729h5.569l.729.729v2.63Zm14.5-3.226.331.309h4.331V-4.419l.331.309h3.116l.309-.309V-15.843h4.353l.331-.309.376-3.138-.309-.309H39.247l-.309.309Zm16.507,0,.331.309h4.331V-4.419l.331.309h3.116l.309-.309V-15.843h4.353l.331-.309.376-3.138-.309-.309H55.754l-.309.309Zm17.1-3.447-.309.309v14.85l.309.309H84.151l.331-.309.4-2.7-.331-.309H76.372V-19.291l-.309-.309ZM88.5-4.131h12.463l.331-.309-.4-2.7-.331-.309H91.951v-2.74h6.74l.331-.309.376-2.7-.309-.309H91.951v-2.784h8.6l.354-.309.4-2.7-.331-.309H88.5l-.309.309v14.85Zm23.711,0h3.138l.309-.309V-9.612h6.232l.818.84v4.331l.309.309h3.138l.309-.309V-8.882L124.3-11.114v-.133l2.166-2.254V-17.39l-2.21-2.21H112.215l-.309.309v14.85Zm3.447-8.8v-3.359h6.32l.729.729v1.79l-.8.84Zm15.093,8.8h12.463l.331-.309-.4-2.7-.331-.309H134.2v-2.74h6.74l.331-.309.376-2.7-.309-.309H134.2v-2.784h8.6l.354-.309.4-2.7-.331-.309H130.756l-.309.309v14.85Zm25.192-6.453,4.685,6.232.354.221h3.094l.309-.309v-14.85l-.309-.309h-3.138l-.309.309v9.06l-4.663-5.834-4.685,5.834v-9.06l-.309-.309h-3.138l-.309.309v14.85l.309.309h3.072l.354-.221Zm12.729,6.453h3.138l.309-.309V-9.612h7.049v5.171l.309.309h3.138l.309-.309V-17.39l-2.21-2.21H170.576l-2.21,2.21v12.95Zm3.447-8.8v-2.63l.751-.729h5.569l.729.729v2.63Zm15.093,8.8h3.138l.309-.309V-9.612H196.9l.818.84v4.331l.309.309h3.138l.309-.309V-8.882L199.3-11.114v-.133L201.47-13.5V-17.39l-2.21-2.21H187.216l-.309.309v14.85Zm3.447-8.8v-3.359h6.32l.729.729v1.79l-.8.84Zm15.093,8.8H217.8l2.21-2.21V-17.39L217.8-19.6H205.757l-.309.309v14.85ZM209.2-7.446v-8.839h6.32l.729.729v7.381l-.729.729ZM224.3-4.131h10.585l2.21-2.21v-4.928l-2.21-2.21h-6.408l-.729-.729v-1.348l.729-.729h7.911l.331-.309.376-2.7-.309-.309H226.2l-2.21,2.21V-12.4l2.21,2.21h6.386l.751.751v1.26l-.751.729h-7.889l-.331.309-.376,2.7Z" transform="translate(3.48 31.34)" fill="#fff"/>
    </g>
    <g transform="matrix(1, 0, 0, 1, -18241.56, -1528.87)" filter="url(#Path_147753)">
      <path id="Path_147753-2" data-name="Path 147753" d="M2.34-4.3l.285.285H5.514L5.8-4.3V-9.61H12l.305-.285.346-2.462-.285-.285H5.8V-15.2h7.934l.305-.285.366-2.482-.305-.285H2.625l-.285.285ZM20.1-3.812h9.338l2.034-2.034V-16.426L29.439-18.46H20.1l-2.034,2.034V-5.846Zm1.424-3.723v-7.2l.671-.671h5.147l.671.671v7.2l-.671.671H22.2Zm13.9,3.52h2.889l.285-.285V-9.061h5.737l.753.773V-4.3l.285.285h2.889l.285-.285V-8.389l-1.994-2.055v-.122l1.994-2.075v-3.581l-2.034-2.034H35.42l-.285.285V-4.3Zm3.174-8.1V-15.2h5.819l.671.671v1.648l-.732.773Zm20,8.1h2.889l.285-.285V-9.061h6.49V-4.3l.285.285H71.43l.285-.285V-16.222L69.68-18.257H60.342l-2.034,2.034V-4.3Zm3.174-8.1v-2.421l.692-.671h5.127l.671.671v2.421Zm20-6.144-.285.285V-4.3l.285.285H92.1L92.4-4.3l.366-2.482-.305-.285H84.939v-10.9l-.285-.285Zm14.058.285V-4.3l.285.285H99l.285-.285V-17.972L99-18.257H96.108Zm14.913,5.656L106.4-18.053l-.325-.2h-2.848l-.285.285V-4.3l.285.285h2.889L106.4-4.3v-8.341l4.313,5.371,4.293-5.371V-4.3l.285.285h2.889l.285-.285V-17.972l-.285-.285h-2.828l-.326.2Zm11.393-5.656V-4.3l.285.285H125.3l.285-.285V-17.972l-.285-.285h-2.889Zm6.856,2.889.305.285h3.988V-4.28l.305.285h2.869l.285-.285V-14.8h4.008l.305-.285.346-2.889-.285-.285H128.923l-.285.285ZM144.731-4.015h11.474l.305-.285-.366-2.482-.305-.285H147.9V-9.59h6.205l.305-.285.346-2.482-.285-.285H147.9V-15.2h7.914l.325-.285.366-2.482-.305-.285H144.731l-.285.285V-4.3Zm15.726,0h11.088l2.034-2.034V-16.222l-2.034-2.034H160.457l-.285.285V-4.3Zm3.174-3.052V-15.2h5.819l.671.671v6.8l-.671.671Zm19.449-8.016.305.285h3.988V-4.28l.305.285h2.869l.285-.285V-14.8h4.008l.305-.285.346-2.889-.285-.285H183.019l-.285.285Zm15.462-2.889V-4.3l.285.285h2.889L202-4.3V-17.972l-.285-.285h-2.889Zm14.913,5.656-4.333-5.737-.326-.2h-2.848l-.285.285V-4.3l.285.285h2.889l.285-.285v-8.341l4.313,5.371,4.293-5.371V-4.3l.285.285H220.9l.285-.285V-17.972l-.285-.285h-2.828l-.326.2Zm11.678,8.3h11.474l.305-.285-.366-2.482-.305-.285h-7.934V-9.59h6.205l.305-.285.346-2.482-.285-.285h-6.571V-15.2h7.914l.325-.285.366-2.482-.305-.285H225.132l-.285.285V-4.3Z" transform="translate(490.69 30.62)" fill="#fff"/>
    </g>
    <g id="Sky_High" data-name="Sky High" transform="translate(4971.451 587)">
      <g transform="matrix(1, 0, 0, 1, -23213.01, -2115.87)" filter="url(#Path_147752)">
        <path id="Path_147752-2" data-name="Path 147752" d="M5.5-11.034H24.349l3.935-3.935v-8.775l-3.935-3.935H12.938l-1.3-1.3v-2.4l1.3-1.3H27.025l.59-.551.669-4.8-.551-.551H8.885L4.95-34.643v8.893l3.935,3.935H20.257l1.338,1.338v2.243l-1.338,1.3H6.209l-.59.551-.669,4.8ZM54.609-17.29v5.706l.551.551h5.588l.551-.551v-7.988l-5.627-4.014v-.2L61.3-27.836V-38.224l-.551-.551H55.16l-.551.551v8.067l-4.486,3.463H42.056V-38.027l-.551-.551H35.918l-.551.551v26.443l.551.551h5.588l.551-.551v-9.208h8.067ZM67.2-29.843l.275.708L76.841-18.2v6.611l.551.551H82.98l.551-.551V-18.2l9.326-10.939.275-.708v-8.185l-.551-.551H86.993l-.551.551v6.689l-6.257,7.87-6.3-7.87v-6.689l-.551-.551H67.751l-.551.551Zm70.593-8.736h-5.588l-.551.551v10.27H117.528v-10.27l-.551-.551H111.39l-.551.551v26.443l.551.551h5.588l.551-.551v-10.31h14.126v10.31l.551.551h5.588l.551-.551V-38.027Zm7.634.551v26.443l.551.551h5.588l.551-.551V-38.027l-.551-.551h-5.588Zm33.565,9.011h5.588l.551-.551v-5.076L181.2-38.578H163.134L159.2-34.643v19.675l3.935,3.935H181.2l3.935-3.935V-25.318l-.551-.551H173.443l-.59.551-.669,3.541.551.551h5.706v2.951L177.1-16.936h-9.916l-1.3-1.3V-31.377l1.3-1.3H177.1l1.338,1.338v1.771Zm40.176-9.562H213.58l-.551.551v10.27H198.9v-10.27l-.551-.551h-5.588l-.551.551v26.443l.551.551h5.588l.551-.551v-10.31h14.126v10.31l.551.551h5.588l.551-.551V-38.027Z" transform="translate(254.47 44.78)" fill="#feba24"/>
      </g>
      <path id="Path_147937" data-name="Path 147937" d="M188.692,117.871l-3.935-3.935v-5.99L194.93,90.327h11.824l3.935,3.935v5.077l-.551.551H204.55L204,99.338V97.567l-1.337-1.337h-9.916l-1.3,1.3V110.67l1.3,1.3h9.916L204,110.632V107.68h-5.706l-.551-.551.67-3.541.59-.551h11.137l.551.551v4.125l-5.865,10.159Zm-51.744,0-.551-.551V90.878l.551-.551h5.587l.551.551v10.271h5.488l-3.385,5.863h-2.1v3.643l-4.167,7.217Zm-56.23,0-.551-.551v-5.705l-4.486-3.5H73.319l4.247-7.357,2.6-2.008v-2.5l3.533-6.12h2.6l.551.551v10.388l-5.627,4.054v.2l5.627,4.014v7.988l-.551.551Zm-49.658,0-.552-.551.67-4.8.59-.551h3.825l-3.408,5.9Zm61.975-18.1-.275-.707V90.878l.551-.551H98.9l.551.551v6.69l3.344,4.179-3.249,5.627Zm-58.591,7.32-3.936-3.935V102.9L37.77,90.327H48.089l-3.408,5.9H38.5l-1.3,1.3v2.4l1.3,1.3h3.3L38.41,107.09ZM217.772,90.878l.551-.551h2.4l-2.955,5.118Z" transform="translate(-22984.104 -2200.001)" fill="#fff" opacity="0.373"/>
      <path id="Path_147936" data-name="Path 147936" d="M224.725,117.871l-.551-.551V104.938l6.69-11.587v7.8h10.19l-3.385,5.863h-6.805v10.31l-.551.551Zm-44.881,0,4.233-7.332v6.782l-.551.551Zm-65.9,0,1.552-2.689v2.138l-.551.551Zm-45.436,0,5.513-9.549v9l-.551.551Zm122.656-3.935V98.271l4.587-7.944h10.319l-3.408,5.9h-3.51l-1.3,1.3v7.029l-5.882,10.188ZM82.084,108.113H74.138l3.408-5.9h4.538l4.486-3.462V90.681l.551-.551h5.587l.551.551v2.185l-9.54,16.523Zm-45.173-4.957V94.262l3.935-3.935h7.243l-3.707,6.42-.781.781V98.1l-4.3,7.446Zm88.182-4.6v.51l-.275.707-1.325,1.554Zm119.9-7.675.551-.551H247.3l-2.312,4Z" transform="translate(-22990.506 -2200.001)" fill="#fff" opacity="0.373"/>
    </g>
  </g>
</svg>
