<svg xmlns="http://www.w3.org/2000/svg" xmlns:xlink="http://www.w3.org/1999/xlink" width="27.432" height="31.66" viewBox="0 0 27.432 31.66">
  <defs>
    <clipPath id="clip-path">
      <rect id="Rectangle_1081" data-name="Rectangle 1081" width="25.805" height="25.805" transform="translate(0 0)" fill="#b6cfdd"/>
    </clipPath>
  </defs>
  <g id="Boston_Cybernetics_logo" data-name="Boston Cybernetics logo" transform="translate(0 0)">
    <g id="Group_9936" data-name="Group 9936" transform="translate(0 0)">
      <path id="Path_29624" data-name="Path 29624" d="M-1213.387-17991.566l16.122-11.422,5.2-5.176,4.865,2.523v14.074Z" transform="translate(1214.069 18018.504)" fill="#123255"/>
      <path id="Path_29623" data-name="Path 29623" d="M-1190.1-18101.344l-4.935-3-10.024-3.086,2.948,7.51-.966,2.992-11.665,9.469h-1.708v-26.43h26.644Z" transform="translate(1216.843 18114.234)" fill="#428ec1"/>
      <path id="Subtraction_81" data-name="Subtraction 81" d="M27.432,27.432H0V0H27.432V27.432ZM.918.918v25.6h25.6V.918Z" transform="translate(0 0)" fill="#fff"/>
      <g id="Mask_Group_147" data-name="Mask Group 147" transform="translate(0.759 0.759)" clip-path="url(#clip-path)">
        <g id="Group_1295" data-name="Group 1295" transform="translate(-3.858 -2.212)">
          <path id="Path_29549" data-name="Path 29549" d="M-574.018-19418.312l.581.471.035.5,2.172.969.166-.133.313-.16.395-.035.417.092,1.371.445.695.406.485.918,2.769.656.744-.166,3.141,1.482.206-.334-.035-.5-.086-.441v-.109l.5.242.344.418.151.326.265.367.26.027c.009,0,.611.309.611.309l.191.432.123.463,1.337.861.8.553-.069-.6s-.241-.553-.261-.584-.526-.881-.526-.881-.116-.309-.119-.34-.069-.289-.071-.307-.025-.268-.025-.268.063-.215.066-.229.08-.187.08-.187l.091-.445s-.233-.289-.237-.3a1.96,1.96,0,0,1-.232-.17c-.007-.033-.081-.279-.082-.318s-.046-.328-.046-.328l.183-.3.381-.309.229-.078.221-.48.994-.553.4.094.308.266.329.086.209.135.542.16.339.2.258.537.09.551.211.289.6.922.4,1.107.126,1.68-.126,1.758-.447.84-.323.248-.629-.248.213,1.611h-.5l-.587-.479-.618-.885-4.958-2.643-.225.086-.113.166.018.809-.091.8-.242.035-.044.807-.091.629-.557-.047v1.057l.457.271.03.1-.047.566-.459,1.242.921.74,2.378,2.064.841.727.989-1.172.349-.018.093.047.216.264.011.41.016,1.191-.088.627-.289,1.441-.536,1.68-.908,1.4,1.821.826.718.486.212.316-.119.346-4.337-.48-1.146.512-.977-.391-.391-.385-.176-.4.176-.877.718-1.717.728-1.166,1.228-1.748.676-.5-.534-.533-3.888-2.7-.635.309-.67.156-1.041.055-1.077-.105-1.232-.463-1.526,1.266-1.726,1.813-1.045,1.117.04.674-1.354,2.02-1.046,1.5-1.7,1.3.131.482.082.391-.257.422-5.6-.031-.347-.346,1.191-1.436-.539.109.539-1.262,1.089-1.23,8.424-5.7,2.487-2.193-.286-.6-.218-.545v-.391l.064-.367.238-.23.353-.154.175-.088v-.5l-.215-.123-.615-4.645-1.064-1.391-1.088-.3a3.515,3.515,0,0,1-.522-.2c-.024-.037-.42-.395-.42-.395l-.379-.854-1.909-.646-6.113.541-1.225-.6-.428-.852-.129-1.242-.284-.348-1.637-.582-.212-.227v-.588l.568-.133.213-.527.44-.109.46.109.35-.293.37-.1.891.395,2.016-.395.556.1,2.644,1.541Z" transform="translate(584.267 19422.883)" fill="#b6cfdd"/>
          <path id="Path_29550" data-name="Path 29550" d="M-803.082-19437.482l-.251-.037-.161.5-.083.26-.281.1v.523l-.086.953.366.244.919.238,1.159.133,1.854.275.809-.748.144-.85.165-1.285-.309-.344.144-2.662-.49-.887-.687-.316Z" transform="translate(821.69 19441.684)" fill="#b6cfdd"/>
          <path id="Subtraction_80" data-name="Subtraction 80" d="M6.595,30.849c-.232,0-.463,0-.689-.007-.918-.017-1.826-.068-2.7-.154H3.2a.874.874,0,0,1-.25-.072.445.445,0,0,1-.185-.152.306.306,0,0,1-.047-.22.4.4,0,0,1,.034-.107h0l0,0a5.391,5.391,0,0,1,1.1-1.069l.016-.013.011-.008,0,0,.01-.008.006,0,.006,0h0l0,0,0,0h0a.79.79,0,0,1-.187.1.358.358,0,0,1-.11.02c-.095,0-.16-.056-.2-.171a.074.074,0,0,1,0-.017,1.414,1.414,0,0,1,.3-.757.529.529,0,0,1-.146-.24.569.569,0,0,1,.029-.377.821.821,0,0,1,.261-.33c.023-.017.047-.034.073-.05l0,0A1.311,1.311,0,0,1,4.586,27c.288-.355.606-.721.946-1.088.555-.6,1.147-1.185,1.712-1.69a14.126,14.126,0,0,1,1.749-1.362h0a4.916,4.916,0,0,1,.9-.438h0l.005,0h.01a4.271,4.271,0,0,0,.582-.262H10.5a3.692,3.692,0,0,0,.6-.4h.007l.008-.006a3.06,3.06,0,0,1,.546-.367h0l.016-.005a1.587,1.587,0,0,1,.283-.037l.093,0a2.062,2.062,0,0,1,.242.014c.832-.675,1.694-1.34,2.561-1.978.388-.285.773-.561,1.143-.821a2.907,2.907,0,0,1-.433-.731,1.982,1.982,0,0,1-.147-.836h0a.034.034,0,0,1,0-.007.65.65,0,0,1,.077-.246,1.5,1.5,0,0,1,.852-.584l.027-.355a1.881,1.881,0,0,1-.218.014A1.1,1.1,0,0,1,16,15.781a.4.4,0,0,1-.31-.187.105.105,0,0,1-.013-.062l.142-1.307a1.1,1.1,0,0,1-.352-.05.532.532,0,0,1-.289-.219.1.1,0,0,1-.016-.058l.053-1.845-.55-.016h0a.1.1,0,0,1-.1-.073,8.157,8.157,0,0,1-.283-1.216,8.891,8.891,0,0,1-.1-1.163l-.944-.25h-.008a1.977,1.977,0,0,1-.472-.239,1.527,1.527,0,0,1-.333-.312,1.247,1.247,0,0,1-.27-.762c-.613-.195-1.233-.377-1.841-.543a2.52,2.52,0,0,1-1.585.572H8.408l-.647,0A21.726,21.726,0,0,1,4.1,7.818H4.09c-.055-.014-.111-.03-.165-.047a2.794,2.794,0,0,1-.891-.457,2.266,2.266,0,0,1-.583-.669,2.166,2.166,0,0,1-.266-.809,2.347,2.347,0,0,1,.061-.873h0a.708.708,0,0,1-.3-.124.7.7,0,0,1-.214-.268.059.059,0,0,1-.005-.012l0-.009H1.718a2.674,2.674,0,0,1-.7-.139h0l-.01,0H1L.866,4.356.832,4.344l-.057-.02,0,0A3.55,3.55,0,0,1,.4,4.16C.379,4.151.362,4.144.347,4.135a.116.116,0,0,1-.023-.016l-.07-.042A.642.642,0,0,1,.15,4a.137.137,0,0,1-.018-.021.289.289,0,0,1-.046-.059h0a.789.789,0,0,1-.071-.506A.572.572,0,0,1,.1,3.208a.475.475,0,0,1,.176-.155A.56.56,0,0,1,.532,3L.588,3a.7.7,0,0,1,.373-.526.824.824,0,0,1,.376-.091h.006a1.011,1.011,0,0,1,.446.107A.786.786,0,0,1,2.1,2.158a.726.726,0,0,1,.361-.093.861.861,0,0,1,.193.023.106.106,0,0,1,.027.01l.66.321a4.005,4.005,0,0,1,.795-.253,4.2,4.2,0,0,1,.85-.085,5.409,5.409,0,0,1,1.279.163,8.924,8.924,0,0,1,1.294.43,27.669,27.669,0,0,1,2.61,1.3l.006,0,.007,0h0c.529.288,1.076.585,1.62.852a.4.4,0,0,1,.209.188.213.213,0,0,1,.008.155.239.239,0,0,1-.1.124.643.643,0,0,1-.334.072c-.045,0-.094,0-.147-.008h0a1.1,1.1,0,0,0-.125-.008.6.6,0,0,0-.231.041.417.417,0,0,0-.152.108l2.02.908a1.357,1.357,0,0,1,.523-.265,1.332,1.332,0,0,1,.326-.04,1.665,1.665,0,0,1,.36.041l.014,0,.926.351,0-.009a.556.556,0,0,1,.348-.274,3.75,3.75,0,0,1,.868-.062c.071,0,.149,0,.233.007.062,0,.129.008.2.014,0,.1,0,.2,0,.262q0,.028,0,.056v.027a2.091,2.091,0,0,0,.111.9.138.138,0,0,0,.068.14,4.4,4.4,0,0,0,1.332.533,8.691,8.691,0,0,0,1.791.154c.192.074.53.21.829.33l.049.02.035.014.049.02h0l.031.012.039.016.039.016h0l0,0,.055.022,0,0,.113.046,0,0,.033.013.177.071a.137.137,0,0,0,.045.029c.009,0,.029.014.062.031l0,0h0c.118.061.4.205.831.383h0l.012,0,.006,0,.008,0,.009,0h.008v0h.01l.023.011.007,0,.016.008.039.019.047.022.02.01h0l.028.013.156.074.018.014a.14.14,0,0,0,.2-.04,1.747,1.747,0,0,0,.291-.808,1.7,1.7,0,0,0,0-.3c.21.115.6.348.793.472a.107.107,0,0,1,.019.016,4.47,4.47,0,0,1,.713.987l.847.425a.1.1,0,0,1,.045.044,2.725,2.725,0,0,1,.3.812l2.054,1.447a6.737,6.737,0,0,0-.546-1.109h0l-.006-.01h0C27.1,10.6,26.647,9.8,27.2,9.075a2.467,2.467,0,0,1-.037-.249.642.642,0,0,1-.275-.21,1.587,1.587,0,0,1-.231-.395,1.2,1.2,0,0,1-.1-.429.409.409,0,0,1,.09-.286.627.627,0,0,1,.259-.471.471.471,0,0,1,.246-.064.789.789,0,0,1,.22.034,1.228,1.228,0,0,1,.142-.378l0,0,.006-.009,0,0,0,0,0,0,0-.007v0l0-.005h.01l0,0h0l.007-.006a5.136,5.136,0,0,1,.54-.384,4.766,4.766,0,0,1,.582-.3.092.092,0,0,1,.041-.009h.008a.965.965,0,0,1,.4.1.72.72,0,0,1,.268.238,1.138,1.138,0,0,1,.372.074.808.808,0,0,1,.278.183,1.487,1.487,0,0,1,.906.426,1.379,1.379,0,0,1,.312.955c.01.034.02.067.028.1a3.173,3.173,0,0,1,.623.748,4.986,4.986,0,0,1,.448.965,8.486,8.486,0,0,1,.424,2.506.489.489,0,0,1,0,.612c0,.138-.012.282-.023.429a7.787,7.787,0,0,1-.286,1.619,3.248,3.248,0,0,1-.561,1.147,1.183,1.183,0,0,1-.5.369l-.017.005a.917.917,0,0,1-.226.029,1.083,1.083,0,0,1-.461-.111,1.95,1.95,0,0,1-.433-.293,5.65,5.65,0,0,1-.864-1.03c-.054-.024-.1-.049-.151-.074l-.07-.04h0l-4.507-2.511c-.06.048-.127.1-.2.146a.1.1,0,0,1-.058.018.1.1,0,0,1-.048-.012l-.005,0h-.006l0,0h0l-.01,0-.014-.007-.017-.007a7.589,7.589,0,0,1,.023.788,7.326,7.326,0,0,1-.079.921.1.1,0,0,1-.1.088h-.015a.111.111,0,0,1-.041-.015c-.038-.023-.08-.045-.123-.066.007.22,0,.437-.006.646a6.357,6.357,0,0,1-.082.749.049.049,0,0,1,0,.009.1.1,0,0,1-.1.077.09.09,0,0,1-.027,0c-.128-.034-.266-.065-.411-.091-.017.107-.03.228-.037.36-.008.152-.01.319,0,.5.082.036.157.072.223.109l.011.007a.573.573,0,0,1,.2.208.542.542,0,0,1,.053.3v0a3.393,3.393,0,0,1-.466,1.617L23.3,18.7c1.071.829,2.089,1.725,3.073,2.591l0,0h0l.134.117.036.032.007.006h0l.484.426a4.111,4.111,0,0,1,.746-.683,1.294,1.294,0,0,1,.72-.253.969.969,0,0,1,.106.006h0l.01,0a.482.482,0,0,1,.1.029c.268.109.424.443.461.994a8.1,8.1,0,0,1-.132,1.768,21.645,21.645,0,0,1-.5,2.227,17.928,17.928,0,0,1-.588,1.8.105.105,0,0,1-.014.025,1.015,1.015,0,0,1-.507.307h0l-.1.039c.327.124.615.24.881.356l.081.035.016.007.021.009h0l.005,0h0a3.833,3.833,0,0,1,1.616,1.038.565.565,0,0,1,.093.209.316.316,0,0,1-.038.228.392.392,0,0,1-.117.12.106.106,0,0,1-.058.02c-.23.008-.448.012-.665.012-.4,0-.726-.014-.988-.026h-.033c-.261-.012-.464-.02-.693-.02a7.652,7.652,0,0,0-.821.043h0a13.24,13.24,0,0,1-1.916.157c-.234,0-.449-.01-.638-.029a2.189,2.189,0,0,1-.719-.171.456.456,0,0,1-.31-.439.5.5,0,0,1,.022-.118.7.7,0,0,1-.362-.276.434.434,0,0,1-.059-.253v0a10.313,10.313,0,0,1,1.324-3.389,11.164,11.164,0,0,1,2.11-2.726c-.564-.471-1.122-.917-1.658-1.327-.834-.635-1.655-1.214-2.442-1.719-.094.049-.189.095-.284.136a4.938,4.938,0,0,1-1.937.381c-.068,0-.144,0-.233-.005a5.311,5.311,0,0,1-1.183-.184,4.579,4.579,0,0,1-1.076-.444c-.516.429-1.037.891-1.548,1.374a38.477,38.477,0,0,0-2.675,2.808,1.561,1.561,0,0,1,.057.654.078.078,0,0,1,0,.013,7.6,7.6,0,0,1-1.055,1.721v0h0l0,0h0l0,0c-.339.477-.724,1.018-1.072,1.575a.862.862,0,0,1,.181.515.784.784,0,0,1-.139.441.885.885,0,0,1-.335.291.769.769,0,0,1-.337.082.645.645,0,0,1-.087-.006c-.056.126-.1.247-.147.36a.1.1,0,0,1-.028.04l-.009.009,0,0h0a.665.665,0,0,1-.442.162h0l-.067,0a.705.705,0,0,1-.443-.21h0L9.116,29.6a.086.086,0,0,1-.012-.016.833.833,0,0,1-.066-.118,6.94,6.94,0,0,1,.166.772.15.15,0,0,1,0,.02h0a.493.493,0,0,1-.171.367.851.851,0,0,1-.4.173l-.018,0C7.928,30.832,7.248,30.849,6.595,30.849Zm-.97-2.776a13.486,13.486,0,0,0-1.548,1.094,5.331,5.331,0,0,0-1.045,1.006.176.176,0,0,0-.014.046.105.105,0,0,0,.016.076.24.24,0,0,0,.1.079.693.693,0,0,0,.189.054c.865.085,1.766.136,2.678.153.224,0,.453.006.681.006.652,0,1.329-.017,2.011-.051a.647.647,0,0,0,.3-.124.289.289,0,0,0,.1-.209c-.017-.105-.036-.21-.057-.312A.087.087,0,0,1,9,29.956a1.482,1.482,0,0,1-.737.2,12.742,12.742,0,0,1-1.362.062A11.783,11.783,0,0,1,4.38,30a.182.182,0,0,1-.132-.139.634.634,0,0,1,.123-.4,3.7,3.7,0,0,1,.378-.511A9.6,9.6,0,0,1,5.624,28.073Zm2.739.124L8.157,29.97l.716-.7c-.017-.053-.035-.106-.053-.157A4.085,4.085,0,0,0,8.364,28.2Zm18.82.006a.571.571,0,0,0-.07.057h0a.6.6,0,0,0-.107.144.689.689,0,0,0,.066.665,1.577,1.577,0,0,0,.872.519,5.036,5.036,0,0,0,1.983.115.519.519,0,0,0-.037-.063,2.05,2.05,0,0,0-.586-.5c-.329-.182-.678-.353-1.068-.523C27.919,28.483,27.575,28.346,27.184,28.2Zm-2.462-2.171a21.637,21.637,0,0,0-.853,2.05,3.079,3.079,0,0,0-.286,1.482.113.113,0,0,0,.087.063c.072.009.148.017.226.022.093.006.192.009.3.009a6.387,6.387,0,0,0,1.227-.126h0l.011,0h.009l.01,0h0a3.634,3.634,0,0,0,1.04-.358h0a1.127,1.127,0,0,0,.422-.568,1.758,1.758,0,0,1-.95.675,5.119,5.119,0,0,1-1.163.242h-.11c-.423,0-.652-.069-.765-.229-.252-.359.055-1.208.729-3.067ZM22.967,29A.234.234,0,0,0,23,29.13a.355.355,0,0,0,.1.108,23.409,23.409,0,0,1,1.451-3.753,10.112,10.112,0,0,0-.973,1.735c-.162.354-.3.7-.408,1a3.8,3.8,0,0,0-.205.779ZM4.535,27.444c-.119.151-.228.3-.326.432a.1.1,0,0,1-.038.062l-.012.008c-.042.059-.082.117-.118.172a.1.1,0,0,1-.019.049.1.1,0,0,1-.033.03c-.21.325-.307.549-.281.648a.029.029,0,0,0,.028.022l.017,0a2.717,2.717,0,0,0,.616-.5h0A4.214,4.214,0,0,1,5.8,27.352l.01,0a3.833,3.833,0,0,1,.99-.135c.792-.933,1.619-1.847,2.46-2.717l-.3.274c-.865.789-1.387,1.264-1.914,1.659a10.913,10.913,0,0,1-1.867,1.1,3.536,3.536,0,0,0-.55.374,1.3,1.3,0,0,1-.388.252.026.026,0,0,1-.025-.012C4.183,28.088,4.286,27.867,4.535,27.444ZM12.36,23.5a.242.242,0,0,0-.079.013c-.094.032-.151.26-.245.639a12.121,12.121,0,0,1-.477,1.554,9.978,9.978,0,0,1-.467,1.022,10.417,10.417,0,0,1-.695,1.134,14.118,14.118,0,0,0,1.322-1.519,6.854,6.854,0,0,0,.723-1.189,2.953,2.953,0,0,0,.265-.865,1.111,1.111,0,0,0-.051-.546A.343.343,0,0,0,12.36,23.5Zm.5-1.867A25.27,25.27,0,0,0,10.014,24.4a24.692,24.692,0,0,0-2.206,2.945,4.715,4.715,0,0,1,.945.371l.009.005a.635.635,0,0,1,.089.07l-.014-.014c-.3-.3-.5-.5-.347-.95a10.654,10.654,0,0,1,1.79-2.5c.123-.134.254-.278.392-.431h0c.393-.434.839-.926,1.219-1.3.437-.432.719-.641.861-.641a.1.1,0,0,1,.055.014.335.335,0,0,1,.164.324,2.25,2.25,0,0,1-.1.5l-.012.044c.027-.082.06-.165.09-.238a1.472,1.472,0,0,0,.151-.635v0a.337.337,0,0,0-.009-.062.433.433,0,0,0-.235-.268h0Zm15.732.825a.151.151,0,0,0-.046.008c-.117.04-.114.291-.107.748a12.073,12.073,0,0,1-.295,3.06,10.071,10.071,0,0,0,.674-2.466,2.232,2.232,0,0,0-.09-1.263A.165.165,0,0,0,28.588,22.456Zm-2.939,1.318c-.019,0-.059.009-.111.069a4.42,4.42,0,0,0-.877,1.458,6.042,6.042,0,0,1,1-1.406.085.085,0,0,0,.035-.091A.046.046,0,0,0,25.649,23.774Zm1.044.064a1.44,1.44,0,0,1-.525.1c-.091,0-.151,0-.183.038a3.85,3.85,0,0,0-.748,1.05,3.5,3.5,0,0,1,.686-.828.774.774,0,0,1,.4-.168A.545.545,0,0,0,26.694,23.838ZM18.212,18.17h0a49.621,49.621,0,0,0-4.954,4.187c-.031.108-.073.214-.114.316v0A1.5,1.5,0,0,0,13,23.2a2.187,2.187,0,0,0,.092.447c.841-.968,1.716-1.882,2.6-2.718a29.783,29.783,0,0,1,2.725-2.3c-.007-.032-.015-.064-.024-.1v0a1.034,1.034,0,0,0-.107-.245l0,0c-.022-.036-.046-.072-.07-.107Zm10.457,2.925V21.1a.1.1,0,0,1,.065.057.863.863,0,0,1-.1.655,3.945,3.945,0,0,1-.559.861,5.683,5.683,0,0,1-.572.6,5.052,5.052,0,0,0,1.008-1.031,2.943,2.943,0,0,0,.329-.553.639.639,0,0,0,.067-.42.367.367,0,0,0-.17-.154.3.3,0,0,0-.061-.017Zm-5.391-2.279h0c-.046.063-.093.123-.141.18l4.612,3.743.057-.063c-.515-.44-1-.868-1.471-1.282-.983-.865-2-1.76-3.056-2.579Zm-1.738-.239a4.38,4.38,0,0,1-.408.773,2.53,2.53,0,0,1-.747.754c.131-.013.263-.032.393-.055A3.46,3.46,0,0,0,21.54,18.576Zm-4.28-1.255h0a1.012,1.012,0,0,1,.379.075c.028.011.056.024.083.037l.009,0a1.931,1.931,0,0,1,.728.73l0,.006a1.242,1.242,0,0,1,.13.294v.005a1.415,1.415,0,0,1,.04.18v.006a1.415,1.415,0,0,1-.017.522,1.034,1.034,0,0,1-.122.308,1.189,1.189,0,0,0,.252-.695,1.465,1.465,0,0,0-.16-.692,1.864,1.864,0,0,0-.558-.665,1.275,1.275,0,0,0-.733-.269.848.848,0,0,0-.714.4.98.98,0,0,1,.121-.084A1.094,1.094,0,0,1,17.26,17.321Zm1.961-1.24c-.271,0-.538.007-.8.019a18.319,18.319,0,0,1,2.821.306.3.3,0,0,1,.2.16,1.831,1.831,0,0,1,.076.967,5.914,5.914,0,0,1-.3,1.241,5.328,5.328,0,0,0,.384-1.078,4.133,4.133,0,0,0,.13-1.19c0-.027,0-.056-.008-.084h0v-.007h0V16.4l0-.033a1.1,1.1,0,0,0-.023-.11A17.63,17.63,0,0,0,19.221,16.081Zm-2.719.193a1.283,1.283,0,0,0-.728.488.433.433,0,0,0-.053.165h0a1.779,1.779,0,0,0,.133.749,2.7,2.7,0,0,0,.41.688,2.062,2.062,0,0,1-.306-.7,1.023,1.023,0,0,1,.03-.545,1.078,1.078,0,0,1,.257-.4,1.908,1.908,0,0,1,.4-.3,5.131,5.131,0,0,1,.938-.394,6.183,6.183,0,0,0-.957.2.1.1,0,0,1-.088.049h-.008a.1.1,0,0,1-.031-.007Zm5.417.016c0,.016.006.031.008.044a1.942,1.942,0,0,1,.021.221c1.07.255,1.725.549,1.708.769l.026-.239.008-.208A3.638,3.638,0,0,0,21.919,16.29ZM29.845,15a4.553,4.553,0,0,0,.666.76,1.913,1.913,0,0,0,.278.2,3.034,3.034,0,0,1-.641-.934h-.084A1.221,1.221,0,0,1,29.845,15Zm-7.269-1.958a8.217,8.217,0,0,1,.215,1.1,8.028,8.028,0,0,1,.061,1.062c.171.014.328.031.48.054.167.025.323.056.477.094.03-.195.05-.4.061-.613.012-.233.013-.476,0-.722-.06-.021-.125-.041-.192-.06a4.877,4.877,0,0,0-.641-.124.1.1,0,0,1-.089-.094,6.511,6.511,0,0,0-.116-.786,7.25,7.25,0,0,0-.189-.712,5.091,5.091,0,0,0-1.049-.23,11.776,11.776,0,0,0-1.253-.08l-.809,1.444a.1.1,0,0,1-.09.053h-.016c-.085-.007-.235-.012-.422-.012-.2,0-.933.006-1.735.084l-.136,1.417h.182a11.513,11.513,0,0,1,2.067.171l.921-2.323a.1.1,0,0,1,.1-.065h.152a8.239,8.239,0,0,1,.974.051,4.148,4.148,0,0,1,.985.227.1.1,0,0,1,.064.071Zm4.688-.963h0c.71.656,1.3,1.191,1.827,1.613a6.272,6.272,0,0,0,.757.531,1.231,1.231,0,0,0,.566.2.3.3,0,0,0,.217-.079l.243-.49a1.222,1.222,0,0,1-.454.088,2.561,2.561,0,0,1-1.414-.636l-.1-.07,0,0-.565-.4h0Zm-6.981-.359h0a12.241,12.241,0,0,1,1.338.082,5.174,5.174,0,0,1,1.142.258.1.1,0,0,1,.063.065,7.45,7.45,0,0,1,.21.783,6.691,6.691,0,0,1,.112.729,4.826,4.826,0,0,1,.585.118c.1.027.189.057.273.089h0l0,0c.058.023.114.047.167.073a7.13,7.13,0,0,0,.057-.748,7.453,7.453,0,0,0-.032-.879,11.775,11.775,0,0,0-2.026-.608,18.049,18.049,0,0,0-2.43-.343c-.414-.03-.825-.045-1.222-.045a12.89,12.89,0,0,0-1.789.117l-.081,1.737c.347-.035.7-.052,1.061-.052a12.29,12.29,0,0,1,1.667.118l.807-1.441A.1.1,0,0,1,20.283,11.721Zm11.975.943h0a3.3,3.3,0,0,1-.05.988,2.767,2.767,0,0,0,.224-.824.4.4,0,0,1-.113-.083l-.009-.009-.007-.008A.449.449,0,0,1,32.258,12.664Zm-1.014-2.277a.529.529,0,0,1,.371.165,1.391,1.391,0,0,1,.283.43,4.6,4.6,0,0,1,.322,1.271.458.458,0,0,1,.084-.147.389.389,0,0,1,.193-.125,7.8,7.8,0,0,0-.173-1.838,1.815,1.815,0,0,0-.6-1.154,1.227,1.227,0,0,1-.044.747,1.582,1.582,0,0,1-.485.653ZM25.13,10.08a6.944,6.944,0,0,1,.406,1.172v.006l-.557.828.148.039A1.235,1.235,0,0,0,25.593,12a.7.7,0,0,0,.307-.306.9.9,0,0,0,.078-.486,2.277,2.277,0,0,0-.276-.838Zm-5.955-.61h0a26.917,26.917,0,0,1,3.015.72A28.428,28.428,0,0,1,25.3,11.33l-.014-.231c-.16-.076-.323-.15-.487-.222,0-.042,0-.081-.007-.118a2.144,2.144,0,0,0-.282-1.084,2.077,2.077,0,0,0-.879-1.017A1.37,1.37,0,0,1,24,9.4a1.57,1.57,0,0,1-.028.821.452.452,0,0,1-.193.249A17.36,17.36,0,0,0,21.5,9.813,17.961,17.961,0,0,0,19.175,9.47Zm8.158-.06c-.039,0-.085.035-.1.132a1.241,1.241,0,0,0,.336.965,1.785,1.785,0,0,0,.608.434,1.941,1.941,0,0,0,.777.164,1.859,1.859,0,0,0,.659-.12c-.072,0-.143.007-.211.007s-.163,0-.242-.01a2.283,2.283,0,0,1-1.133-.391,1.575,1.575,0,0,1-.378-.375,1.272,1.272,0,0,1-.2-.459,1.223,1.223,0,0,1-.028-.232h0V9.511A.1.1,0,0,0,27.332,9.409ZM29.4,8.715c-.019.207-.031.39-.037.544a1.761,1.761,0,0,0,.039.578l.005.012a.516.516,0,0,0,.359.256,1.167,1.167,0,0,0,.332.049.931.931,0,0,0,.277-.039l.008,0,.012,0a1.5,1.5,0,0,0,.6-.756,2.539,2.539,0,0,0,.234-.9.065.065,0,0,1,0-.009,1.836,1.836,0,0,0-.012-.34,1.348,1.348,0,0,1-.183.013,1.138,1.138,0,0,1-.241-.025l-.058-.014a.77.77,0,0,1-.1.542.734.734,0,0,1-.274.248.8.8,0,0,1-.342.091h-.028a.609.609,0,0,1-.465-.194A.632.632,0,0,1,29.4,8.715ZM27.463,8.8a1.613,1.613,0,0,0,.14.523.847.847,0,0,0,.274.33,1.033,1.033,0,0,0,.6.162,2.235,2.235,0,0,0,.413-.043,2.436,2.436,0,0,0,.093-.6,1.913,1.913,0,0,0-.059-.52l-.745-.369c0,.014,0,.027,0,.039a.468.468,0,0,1-.114.245.622.622,0,0,1-.212.153.937.937,0,0,1-.38.078ZM14.8,8.207c.064.2.345.38.593.536h0a2.136,2.136,0,0,1,.378.275l.006.006a.406.406,0,0,1,.069.1l0,.01a.224.224,0,0,1,0,.207.5.5,0,0,1-.228.194,1.148,1.148,0,0,0,.989-1.012,1.67,1.67,0,0,0-.054-.689,1.63,1.63,0,0,0-.293-.571,1.09,1.09,0,0,0-.478-.35h0l-1.6-.606a1.438,1.438,0,0,0-.305-.035,1.148,1.148,0,0,0-.278.033,1.122,1.122,0,0,0-.357.161l.162.073a1.046,1.046,0,0,1,.231-.028.7.7,0,0,1,.406.122,1,1,0,0,1,.286.32,4.417,4.417,0,0,1,.372.963l0,.011c.028.092.057.188.088.285h0Zm-2.351-.176h0a1.053,1.053,0,0,0,.224.568,1.518,1.518,0,0,0,.708.482l.671.178a2.234,2.234,0,0,1-.6-.432,1.35,1.35,0,0,1-.333-.577l-.1-.035c-.187-.063-.377-.125-.563-.185Zm16.98-.542h0a3.177,3.177,0,0,0-.119.372,1.853,1.853,0,0,0-.057.394.128.128,0,0,0,.045.055.1.1,0,0,1,.056.034,1.07,1.07,0,0,0,.363.09c.033,0,.066,0,.1,0a.951.951,0,0,0,.163-.013.586.586,0,0,0,.216-.079.4.4,0,0,0,.157-.422,2.111,2.111,0,0,1-.6-.2,1.388,1.388,0,0,1-.323-.235Zm-2.579.25a1.006,1.006,0,0,0,.084.35,1.411,1.411,0,0,0,.16.29,2.082,2.082,0,0,0,.3.024,1.113,1.113,0,0,0,.252-.026.526.526,0,0,0,.32-.2c0-.015-.007-.03-.011-.046a1,1,0,0,1-.135.009,1.19,1.19,0,0,1-.186-.015,1.552,1.552,0,0,1-.455-.15,1.37,1.37,0,0,1-.163-.1.1.1,0,0,1-.022-.016A1.008,1.008,0,0,1,26.853,7.739Zm1.7-.624h0l-.01.03a1.385,1.385,0,0,0-.047.2l.071.027a.1.1,0,0,1,.067.126.944.944,0,0,1-.223.415.33.33,0,0,0,.18.252.572.572,0,0,0,.239.044,1.332,1.332,0,0,0,.225-.022,2.133,2.133,0,0,1,.06-.372,3.422,3.422,0,0,1,.137-.424,1.59,1.59,0,0,1-.422-.1.831.831,0,0,1-.278-.176Zm-1.14.037h0a.282.282,0,0,0-.115.039.4.4,0,0,0-.144.152.415.415,0,0,0-.051.215.374.374,0,0,0,.042.158,1.477,1.477,0,0,0,.129.074,1.342,1.342,0,0,0,.393.131.983.983,0,0,0,.154.013.745.745,0,0,0,.174-.02h0l.055-.016a.58.58,0,0,0,.349-.368l-.9-.344h0c-.031-.012-.059-.022-.086-.03Zm3.708.286h0a.827.827,0,0,1-.142.171l-.006.006a.753.753,0,0,1-.274.154.794.794,0,0,0,.139.012h.008a1.179,1.179,0,0,0,.307-.048,1.62,1.62,0,0,0-.034-.3Zm-.985-.818h0l-.491.558a1.784,1.784,0,0,1,.845.485,1.158,1.158,0,0,0,.3-.784,1.342,1.342,0,0,0-.658-.259ZM2.492,5.172a1.979,1.979,0,0,0,.035.775A2.231,2.231,0,0,0,3.379,7.22a1.967,1.967,0,0,0,.714.326,2.476,2.476,0,0,1-.944-.726,2.4,2.4,0,0,1-.376-.62A1.735,1.735,0,0,1,2.64,5.47c0-.02,0-.037,0-.053-.018-.023-.035-.047-.051-.07A1.443,1.443,0,0,1,2.492,5.172Zm8.576.531h0a1.665,1.665,0,0,1,.021.212,1.742,1.742,0,0,1-.008.232l3.255,1.278a2.222,2.222,0,0,0-.149-.321l-.051-.022h0L11.067,5.7Zm16.651,1.1a1.586,1.586,0,0,0-.06.213l.638.244a1.487,1.487,0,0,1,.046-.185c.007-.022.014-.041.021-.06a1.488,1.488,0,0,1-.4-.078A.786.786,0,0,1,27.719,6.808ZM10.108,4.694a.231.231,0,0,0-.1.023.051.051,0,0,0-.03.035c-.01.048.058.128.152.238a2.145,2.145,0,0,1,.475.8,1.454,1.454,0,0,1,.039.611,2.132,2.132,0,0,1-.286.765,1.746,1.746,0,0,0,.485-.986,1.7,1.7,0,0,0-.126-.89C10.564,4.939,10.314,4.694,10.108,4.694ZM29.459,6.36a4.628,4.628,0,0,0-.428.272c-.08.057-.157.117-.229.178a1.318,1.318,0,0,1,.635.286l.512-.582a.613.613,0,0,0-.161-.094A.947.947,0,0,0,29.459,6.36ZM5.729,2.266a.187.187,0,0,0-.194.118c-.012.046-.012.17.245.314a2.515,2.515,0,0,1,.913.911,2.752,2.752,0,0,1,.371,1.217,2.568,2.568,0,0,1-.193,1.16,2.346,2.346,0,0,1-.759.967,2.254,2.254,0,0,0,1.026-.865A2.3,2.3,0,0,0,7.477,4.9a2.747,2.747,0,0,0-.1-.768,2.938,2.938,0,0,0-.31-.729A2.8,2.8,0,0,0,5.882,2.3.343.343,0,0,0,5.729,2.266Zm23.1,3.761h0a4.576,4.576,0,0,0-.534.282c-.1.062-.2.13-.3.2a1.205,1.205,0,0,1,.2.049,1.15,1.15,0,0,1,.355.2,4.032,4.032,0,0,1,.359-.29c.116-.083.241-.164.373-.241a.51.51,0,0,0-.155-.123.743.743,0,0,0-.3-.074ZM4.866,5.445h0a.1.1,0,0,1-.045.017L4.567,5.5a.883.883,0,0,1,.152.437.718.718,0,0,1-.109.451,3.07,3.07,0,0,0,.33.04c.087.006.178.009.271.009s.167,0,.255-.007a.545.545,0,0,0,.18-.531.61.61,0,0,0-.123-.236.774.774,0,0,0-.211-.177A.588.588,0,0,0,5.031,5.4a.285.285,0,0,0-.165.047Zm-.7.107h0c-.1.016-.2.035-.3.053h0a4.655,4.655,0,0,1-.842.1.212.212,0,0,0-.092.139.264.264,0,0,0,.039.171.577.577,0,0,0,.191.189,1.36,1.36,0,0,0,.747.182,2.566,2.566,0,0,0,.369-.028c-.01-.087-.014-.178-.018-.266v0a1.333,1.333,0,0,0-.094-.541ZM5.18,5.038a1.022,1.022,0,0,1,.226.025.879.879,0,0,1,.39.2.81.81,0,0,1,.248.421c.016-.039.03-.082.043-.127A2.134,2.134,0,0,0,6.144,5.3a.7.7,0,0,0-.334-.234,1.137,1.137,0,0,0-.375-.061,1.344,1.344,0,0,0-.293.032ZM5.21,4.7c-.218,0-.469.015-.745.033a15,15,0,0,0-1.843.218,1.328,1.328,0,0,0,.142.279,1.1,1.1,0,0,0,.263.273,4.543,4.543,0,0,0,.8-.1c.139-.026.283-.053.431-.073l.074-.01H4.34A.782.782,0,0,1,4.556,5a1.321,1.321,0,0,1,.609-.293Zm.275-1.131a.4.4,0,0,1-.033.29.475.475,0,0,1-.239.182,4.135,4.135,0,0,1-1,.167h0a17.723,17.723,0,0,0-2.137.323.44.44,0,0,0,.084.082.546.546,0,0,0,.3.1A12.609,12.609,0,0,1,4.1,4.483c.627-.051,1.263-.074,1.748-.088a.189.189,0,0,0,.042-.015.241.241,0,0,0,.113-.127.384.384,0,0,0,.02-.216.452.452,0,0,0-.033-.105l-.011-.013A1.316,1.316,0,0,0,5.485,3.569Zm.693.8a.442.442,0,0,1-.171.181,1.253,1.253,0,0,1,.18.047,1.222,1.222,0,0,0-.009-.228ZM2.294,4.007l0,.008a.366.366,0,0,1-.158.213.675.675,0,0,1-.091.053,1.245,1.245,0,0,0,.264-.048.687.687,0,0,0,.2-.091.178.178,0,0,0,.067-.077l-.029,0a.94.94,0,0,1-.25-.055Zm-.778-.2a.707.707,0,0,1-.4.3l-.025.008a1.283,1.283,0,0,0,.237.021,1.462,1.462,0,0,0,.175-.01A.973.973,0,0,0,1.8,4.052a.286.286,0,0,0,.126-.1A1.7,1.7,0,0,1,1.516,3.809Zm1.773-.07a.473.473,0,0,1-.219.227,2.064,2.064,0,0,0,.245.015c.041,0,.082,0,.122,0A.8.8,0,0,0,3.8,3.889a.4.4,0,0,1-.036-.037.621.621,0,0,1-.2-.066,1.618,1.618,0,0,1-.269-.049h0ZM.361,3.773l.008.012.008.007a.441.441,0,0,0,.078.054A.482.482,0,0,0,.689,3.9a.65.65,0,0,0,.166-.022.733.733,0,0,0,.351-.21.729.729,0,0,1-.1-.065.9.9,0,0,1-.176-.1.594.594,0,0,1-.246-.355.551.551,0,0,0-.057,0,.352.352,0,0,0-.161.035.266.266,0,0,0-.1.087A.365.365,0,0,0,.308,3.4a.577.577,0,0,0,.053.369ZM4.683,3.2a.471.471,0,0,1-.012.156.57.57,0,0,1-.195.295.912.912,0,0,1-.322.169l-.045.012a1.192,1.192,0,0,0,.345.047c.042,0,.085,0,.127-.005a1.106,1.106,0,0,0,.3-.065.482.482,0,0,0,.2-.13.262.262,0,0,0,.036-.267Zm-2.175.082h0a.614.614,0,0,1-.1.164.872.872,0,0,1-.42.272l-.073.021c.043.011.089.021.137.03h0l.064.011a1.95,1.95,0,0,0,.2.02H2.4a1.243,1.243,0,0,0,.195-.014.482.482,0,0,0,.3-.14.235.235,0,0,0,.039-.065.456.456,0,0,1-.148-.155.843.843,0,0,1-.276-.144h0ZM3.775,2.76a.623.623,0,0,1-.044.289.64.64,0,0,1-.251.293.808.808,0,0,1-.358.12l.009.009a.921.921,0,0,0,.088.035h0a.1.1,0,0,1,.048.017,1.624,1.624,0,0,0,.309.058c.046,0,.092.006.136.006a1.19,1.19,0,0,0,.217-.019A.623.623,0,0,0,4.2,3.46a.389.389,0,0,0,.108-.44ZM1.433,2.533h0a.618.618,0,0,0-.282.068.5.5,0,0,0-.194.179.517.517,0,0,0-.076.275s0,0,0,.008h0a.373.373,0,0,0,.171.276.815.815,0,0,0,.353.135.98.98,0,0,0,.143.011.9.9,0,0,0,.269-.04.664.664,0,0,0,.384-.3.655.655,0,0,1-.38-.515A.823.823,0,0,0,1.433,2.533Zm1.12-.316a.526.526,0,0,0-.261.066.609.609,0,0,0-.265.325h0a.216.216,0,0,0,.06.186.806.806,0,0,0,.224.181,1.166,1.166,0,0,0,.163.078h0c.035.013.07.025.106.035l.012,0,.045.011a1.036,1.036,0,0,0,.228.026.845.845,0,0,0,.124-.009.607.607,0,0,0,.515-.493l-.119-.058-.006,0-.694-.337A.647.647,0,0,0,2.554,2.217ZM22.476,8.155a.1.1,0,0,1-.057-.017l-.013-.01-.01,0-.033-.016L22.345,8.1l-.053-.026-.021-.009h0l-.023-.011-.053-.025h0l-.035-.017H22.15v0l-.01,0-.01,0h0l-.012,0h0L22.1,7.988l-.631-.257a.1.1,0,0,1-.033-.022l-.241-.1,0,0-.04-.016-.069-.028-.029-.012c-.237-.1-.531-.215-.693-.276a5.736,5.736,0,0,1-2.736-.607.1.1,0,0,1-.05-.1,7.2,7.2,0,0,0,.062-.769,6.279,6.279,0,0,0-.027-.768.105.105,0,0,1,.023-.076.1.1,0,0,1,.07-.037h.232c.036-.126.071-.239.109-.345a4.169,4.169,0,0,1,.172-.421.1.1,0,0,1,.094-.059h0l.121.006.028-.12a1.024,1.024,0,0,1-.173-.1,1.209,1.209,0,0,1-.217-.206.1.1,0,0,1-.028-.093l.131-.656a.1.1,0,0,1,.1-.084H18.3l.008,0a5.04,5.04,0,0,1,.3-1.217,2.869,2.869,0,0,1,.529-.875,2.182,2.182,0,0,1,.8-.561A2.754,2.754,0,0,1,20.958,0a2.6,2.6,0,0,1,1.054.226A2.094,2.094,0,0,1,22.843.9a3.742,3.742,0,0,1,.594,2.036l.286.3a.1.1,0,0,1,.028.071v.668a.1.1,0,0,1-.042.083,2.781,2.781,0,0,1-.316.2c-.081.044-.168.088-.259.131l.005.066a1.3,1.3,0,0,1,.153.012.1.1,0,0,1,.09.092c.014.125.026.264.039.425a.665.665,0,0,1,.148.122.515.515,0,0,1,.068.1h0l0,0h0v0a.426.426,0,0,1,.041.132.514.514,0,0,1-.038.269,1.029,1.029,0,0,1-.183.28c0,.236,0,.479,0,.721a.1.1,0,0,1-.063.093,6.674,6.674,0,0,1-.692.245,1.392,1.392,0,0,1,.069.557,1.285,1.285,0,0,1-.214.593A.1.1,0,0,1,22.476,8.155ZM17.914,5.071a6.65,6.65,0,0,1,.018.678c-.006.236-.024.48-.055.723a5.343,5.343,0,0,0,2.254.536,6.231,6.231,0,0,1-1.561-.4c-.123-.059-.151-.5-.116-.885.025-.275.094-.608.206-.638l-.24-.005h-.013l-.3-.005h0Zm3.842.159h0l-.033,1.7c.183-.029.448-.077.626-.119l.014,0,.188-.047-.074-1.474c-.241-.02-.484-.038-.721-.055Zm1.3-.632c-.159.071-.214.291-.266.5l.113.01,0-.019A1.7,1.7,0,0,1,23.06,4.6Zm-4.473.3h0c1.22.016,2.528.084,4,.208a1.494,1.494,0,0,1,.194-.537A12.866,12.866,0,0,1,19.49,4.9l-.52,0h-.383Zm-.124-.643c-.049.107-.093.218-.135.338-.032.09-.061.182-.09.28l.1,0,.142-.619Zm3.487-.075.013.256c0,.088-.073.156-.2.186.206-.03.566-.1.811-.162.08-.021.087-.1.086-.153l-.048-.636a.806.806,0,0,1-.226.342.561.561,0,0,1-.362.175A.28.28,0,0,1,21.949,4.177ZM22.1.495a.317.317,0,0,0-.161.042A.391.391,0,0,0,21.76.87a.891.891,0,0,0,.128.486.944.944,0,0,0,.268.3.54.54,0,0,0,.305.11.318.318,0,0,0,.161-.042A.391.391,0,0,0,22.8,1.39.89.89,0,0,0,22.669.9.944.944,0,0,0,22.4.6.54.54,0,0,0,22.1.495Z" transform="translate(0 0)" fill="#fff" stroke="rgba(0,0,0,0)" stroke-width="1"/>
        </g>
      </g>
    </g>
    <path id="Path_29874" data-name="Path 29874" d="M30.5-271.412h.118a.983.983,0,0,0,.467-.083.271.271,0,0,0,.143-.251.267.267,0,0,0-.115-.239.7.7,0,0,0-.377-.077,1.208,1.208,0,0,0-.236.021Zm0,.254v.77a1.512,1.512,0,0,0,.265.021.652.652,0,0,0,.407-.1.379.379,0,0,0,.13-.316.3.3,0,0,0-.156-.282,1.126,1.126,0,0,0-.528-.09Zm1.121.4q0,.649-.855.649a3.705,3.705,0,0,1-.59-.044v-2.123a3.363,3.363,0,0,1,.56-.044q.8,0,.8.531a.45.45,0,0,1-.121.311.56.56,0,0,1-.321.173v.006a.67.67,0,0,1,.389.183A.494.494,0,0,1,31.621-270.757Zm.41-.728a.7.7,0,0,1,.537-.215.7.7,0,0,1,.535.215.815.815,0,0,1,.2.581.815.815,0,0,1-.2.581.7.7,0,0,1-.535.215.7.7,0,0,1-.535-.215.815.815,0,0,1-.2-.581A.819.819,0,0,1,32.031-271.486Zm.218.994a.386.386,0,0,0,.318.147.386.386,0,0,0,.318-.147A.645.645,0,0,0,33-270.9a.645.645,0,0,0-.118-.413.386.386,0,0,0-.318-.147.386.386,0,0,0-.318.147.645.645,0,0,0-.118.413A.645.645,0,0,0,32.249-270.492Zm1.9-.973q-.295,0-.295.192a.168.168,0,0,0,.069.143.566.566,0,0,0,.24.078.857.857,0,0,1,.442.167.427.427,0,0,1,.133.335.385.385,0,0,1-.155.324.7.7,0,0,1-.435.118,1.183,1.183,0,0,1-.59-.147l.059-.236a1,1,0,0,0,.531.147q.289,0,.289-.206a.189.189,0,0,0-.066-.155.513.513,0,0,0-.237-.081.9.9,0,0,1-.439-.167.4.4,0,0,1-.136-.32.371.371,0,0,1,.153-.311.709.709,0,0,1,.436-.116,1.182,1.182,0,0,1,.531.118l-.059.236A.976.976,0,0,0,34.148-271.465Zm1.439-.147h.554v.236h-.554v.708a.46.46,0,0,0,.05.258.213.213,0,0,0,.18.066.641.641,0,0,0,.265-.053l.044.23a1.062,1.062,0,0,1-.354.059.509.509,0,0,1-.373-.115.538.538,0,0,1-.114-.386v-.767h-.324v-.236h.324v-.56h.3Zm1.038.127a.7.7,0,0,1,.537-.215.7.7,0,0,1,.535.215.815.815,0,0,1,.2.581.815.815,0,0,1-.2.581.7.7,0,0,1-.535.215.7.7,0,0,1-.535-.215.815.815,0,0,1-.2-.581A.819.819,0,0,1,36.625-271.486Zm.218.994a.387.387,0,0,0,.318.147.386.386,0,0,0,.318-.147.645.645,0,0,0,.118-.413.645.645,0,0,0-.118-.413.386.386,0,0,0-.318-.147.386.386,0,0,0-.318.147.645.645,0,0,0-.118.413A.645.645,0,0,0,36.843-270.492Zm1.648-1.179.006.221H38.5a.674.674,0,0,1,.227-.184.612.612,0,0,1,.277-.066q.5,0,.5.678v.885H39.22v-.855a.685.685,0,0,0-.069-.367.28.28,0,0,0-.246-.1.356.356,0,0,0-.274.149.526.526,0,0,0-.124.346v.826h-.295v-1.533Z" transform="translate(-30.176 301.121)" fill="#428ec1"/>
    <path id="Path_29873" data-name="Path 29873" d="M-2128.5-275.705a.753.753,0,0,0-.574.23.854.854,0,0,0-.217.61.843.843,0,0,0,.222.612.757.757,0,0,0,.569.229,1.015,1.015,0,0,0,.545-.162l.1.242a1.245,1.245,0,0,1-.678.186,1.072,1.072,0,0,1-.792-.3,1.09,1.09,0,0,1-.3-.806,1.1,1.1,0,0,1,.295-.806,1.067,1.067,0,0,1,.8-.3,1.245,1.245,0,0,1,.678.186l-.1.242A1.015,1.015,0,0,0-2128.5-275.705Zm1.548,1.563h.006l.437-1.18h.313l-.885,2.182h-.313l.283-.649-.56-1.533h.325Zm1.068-1.858h.3v.885h.005a.546.546,0,0,1,.466-.236.554.554,0,0,1,.456.2.925.925,0,0,1,.164.594.907.907,0,0,1-.17.591.555.555,0,0,1-.45.205.54.54,0,0,1-.474-.251h-.006l-.006.221h-.28Zm1.1,1.445a.693.693,0,0,0-.106-.42.352.352,0,0,0-.3-.14.347.347,0,0,0-.286.146.644.644,0,0,0-.111.4v.03a.643.643,0,0,0,.111.4.348.348,0,0,0,.286.145.351.351,0,0,0,.293-.145A.673.673,0,0,0-2124.783-274.555Zm.843-.112h.829a.878.878,0,0,0-.11-.336.688.688,0,0,0-.3-.118.4.4,0,0,0-.3.119A.488.488,0,0,0-2123.94-274.667Zm0,.23a.449.449,0,0,0,.143.327.487.487,0,0,0,.338.121.969.969,0,0,0,.442-.112l.074.224a1.29,1.29,0,0,1-.545.118.721.721,0,0,1-.541-.217.8.8,0,0,1-.211-.579.826.826,0,0,1,.2-.584.682.682,0,0,1,.526-.212.656.656,0,0,1,.51.2.836.836,0,0,1,.182.581c0,.03,0,.074-.006.133Zm2.445-.914v.248a.726.726,0,0,0-.514.175.6.6,0,0,0-.188.462v.678h-.3v-1.533h.286l.006.295h.006A.875.875,0,0,1-2121.5-275.351Zm.637.029.006.221h.006a.671.671,0,0,1,.227-.184.611.611,0,0,1,.278-.066q.5,0,.5.678v.885h-.289v-.855a.687.687,0,0,0-.07-.367.281.281,0,0,0-.247-.1.356.356,0,0,0-.274.149.531.531,0,0,0-.124.346v.826h-.295v-1.533Zm1.616.655h.829a.5.5,0,0,0-.11-.336.381.381,0,0,0-.3-.118.4.4,0,0,0-.3.119A.486.486,0,0,0-2119.242-274.667Zm0,.23a.444.444,0,0,0,.143.327.483.483,0,0,0,.337.121.974.974,0,0,0,.443-.112l.073.224a1.293,1.293,0,0,1-.545.118.723.723,0,0,1-.542-.217.8.8,0,0,1-.211-.579.827.827,0,0,1,.2-.584.679.679,0,0,1,.526-.212.655.655,0,0,1,.51.2.833.833,0,0,1,.183.581c0,.03,0,.074-.006.133Zm1.964-.826h.555v.236h-.555v.708a.46.46,0,0,0,.05.258.213.213,0,0,0,.18.066.64.64,0,0,0,.266-.053l.044.23a1.061,1.061,0,0,1-.354.059.508.508,0,0,1-.373-.115.538.538,0,0,1-.114-.386v-.767h-.324v-.236h.324v-.56h.3Zm1.074-.413V-276h.313v.324Zm0,1.887v-1.533h.313v1.533Zm1.919-1.218a.826.826,0,0,0-.4-.1.454.454,0,0,0-.357.144.592.592,0,0,0-.13.41.586.586,0,0,0,.137.41.452.452,0,0,0,.35.15.827.827,0,0,0,.4-.1l.074.236a1.2,1.2,0,0,1-.486.1.768.768,0,0,1-.565-.215.782.782,0,0,1-.217-.581.8.8,0,0,1,.207-.585.768.768,0,0,1,.575-.211,1.2,1.2,0,0,1,.486.1Zm.991-.109q-.3,0-.3.192a.168.168,0,0,0,.069.143.571.571,0,0,0,.24.078.856.856,0,0,1,.443.167.429.429,0,0,1,.133.335.388.388,0,0,1-.155.324.707.707,0,0,1-.435.118,1.184,1.184,0,0,1-.59-.147l.059-.236a1,1,0,0,0,.531.147q.289,0,.289-.206a.189.189,0,0,0-.066-.155.514.514,0,0,0-.238-.081.905.905,0,0,1-.439-.167.4.4,0,0,1-.135-.32.37.37,0,0,1,.153-.311.708.708,0,0,1,.437-.116,1.186,1.186,0,0,1,.531.118l-.059.236A.979.979,0,0,0-2113.294-275.115Z" transform="translate(2140.136 304.801)" fill="#fff"/>
  </g>
</svg>
