<svg xmlns="http://www.w3.org/2000/svg" xmlns:xlink="http://www.w3.org/1999/xlink" width="33.142" height="33.141" viewBox="0 0 33.142 33.141">
  <defs>
    <clipPath id="clip-path">
      <circle id="Ellipse_64" data-name="Ellipse 64" cx="10.558" cy="10.558" r="10.558" transform="translate(0 14.931) rotate(-45)" fill="none"/>
    </clipPath>
    <linearGradient id="linear-gradient" x1="0.5" x2="0.5" y2="1" gradientUnits="objectBoundingBox">
      <stop offset="0" stop-color="#e95529"/>
      <stop offset="1" stop-color="#fa9975"/>
    </linearGradient>
    <radialGradient id="radial-gradient" cx="0.5" cy="0.5" r="0.5" gradientUnits="objectBoundingBox">
      <stop offset="0" stop-color="#fff"/>
      <stop offset="1" stop-color="#fff" stop-opacity="0"/>
    </radialGradient>
  </defs>
  <g id="Red_Mountain_Logo" data-name="Red Mountain Logo" transform="translate(0.5 0.5)">
    <path id="Path_29866" data-name="Path 29866" d="M15.684,0A15.684,15.684,0,1,1,0,15.684,15.684,15.684,0,0,1,15.684,0Z" transform="translate(0.377 0.377)" fill="#091626"/>
    <path id="Subtraction_83" data-name="Subtraction 83" d="M16.071,32.141A16.071,16.071,0,0,1,4.707,4.707,16.071,16.071,0,1,1,27.434,27.434,15.965,15.965,0,0,1,16.071,32.141ZM16.062.486A15.688,15.688,0,0,0,12.923.8,15.491,15.491,0,0,0,7.353,3.146,15.621,15.621,0,0,0,1.71,10,15.5,15.5,0,0,0,.8,12.923,15.728,15.728,0,0,0,.8,19.2,15.489,15.489,0,0,0,3.146,24.77,15.621,15.621,0,0,0,10,30.413a15.5,15.5,0,0,0,2.924.908,15.727,15.727,0,0,0,6.278,0,15.49,15.49,0,0,0,5.569-2.344,15.621,15.621,0,0,0,5.643-6.853,15.5,15.5,0,0,0,.908-2.924,15.727,15.727,0,0,0,0-6.278,15.49,15.49,0,0,0-2.344-5.569A15.62,15.62,0,0,0,22.124,1.71,15.492,15.492,0,0,0,19.2.8,15.688,15.688,0,0,0,16.062.486Z" transform="translate(0 0)" fill="#c52a1f" stroke="rgba(0,0,0,0)" stroke-width="1"/>
    <g id="Group_9913" data-name="Group 9913" transform="translate(1.14 1.14)">
      <g id="Group_1386" data-name="Group 1386" transform="translate(0 0)">
        <g id="Group_1385" data-name="Group 1385" transform="translate(0 0)" clip-path="url(#clip-path)">
          <rect id="Rectangle_1094" data-name="Rectangle 1094" width="22.096" height="14.944" transform="translate(3.893 4.287)" fill="url(#linear-gradient)"/>
          <g id="Group_9927" data-name="Group 9927" transform="translate(17.367 11.423)" opacity="0.23">
            <path id="Path_29630" data-name="Path 29630" d="M333.967,273.912a4.1,4.1,0,1,1-4.1-4.1A4.1,4.1,0,0,1,333.967,273.912Z" transform="translate(-325.758 -269.807)" fill="url(#radial-gradient)"/>
          </g>
          <g id="Group_1301" data-name="Group 1301" transform="translate(21.107 15.163)" opacity="0.446">
            <path id="Path_29630-2" data-name="Path 29630" d="M326.486,270.171a.364.364,0,1,1-.364-.364A.364.364,0,0,1,326.486,270.171Z" transform="translate(-325.758 -269.807)" fill="#fff"/>
          </g>
          <g id="Group_1302" data-name="Group 1302" transform="translate(-8.812 10.448)">
            <path id="Path_29631" data-name="Path 29631" d="M154.832,322l-.052-.056c-.056-.062-.112-.117-.167-.17a1.782,1.782,0,0,1-.221-.243,3.907,3.907,0,0,0-.253-.32c-.04-.047-.08-.094-.119-.142-.14-.175-.278-.352-.415-.528-.065-.083-.129-.167-.192-.25-.122-.159-.248-.324-.378-.485-.109-.135-.222-.264-.331-.389-.059-.068-.118-.135-.176-.2l-.024-.028h0a.578.578,0,0,0-.541-.346h-.136c-.052,0-.1,0-.16,0-.23-.153-.477-.324-.776-.533q-.307-.215-.611-.433l-.3-.215-.258-.182-.295-.209a.549.549,0,0,0-.322-.1.532.532,0,0,0-.476.287c-.055.033-.108.066-.16.1l-.32.207-.283.183-.053.034-.008-.007c-.072-.065-.143-.13-.216-.194l-.211-.185c-.1-.088-.2-.177-.3-.267a.592.592,0,0,0-.4-.171.6.6,0,0,0-.336.112l-.1.064-.211-.19-.319-.291-.15-.138-.239-.216c-.173-.156-.352-.317-.519-.479-.223-.217-.445-.445-.661-.666l-.255-.261c-.016-.016-.031-.033-.046-.05-.029-.032-.057-.065-.089-.1a.591.591,0,0,0-.414-.167.568.568,0,0,0-.388.148l-.115.108c-.057.054-.114.108-.172.16-.085.077-.18.159-.3.26-.185.156-.37.312-.557.466l-.118.094a.628.628,0,0,0-.116-.011.685.685,0,0,0-.45.186l-.277.24-.328.285-.13.115a1.026,1.026,0,0,0-.209-.059c-.016-.017-.034-.036-.042-.046l-.173-.23c-.151-.2-.294-.387-.423-.583-.254-.384-.5-.785-.744-1.172l-.158-.255a15.432,15.432,0,0,0-.934-1.344.532.532,0,0,0-.519-.374h-.119l-.031-.039-.074-.091-.107-.126c-.057-.066-.114-.133-.169-.2-.07-.087-.14-.175-.209-.263s-.139-.176-.21-.264-.123-.149-.185-.223-.122-.145-.181-.219c-.158-.2-.314-.395-.464-.588-.051-.066-.1-.133-.151-.2-.07-.094-.142-.19-.219-.286a.683.683,0,0,0-.314-.209l-.029-.01c-.165-.214-.333-.424-.492-.621-.108-.133-.234-.288-.369-.439-.1-.114-.208-.22-.311-.324l-.081-.082a.793.793,0,0,0-.113-.093l-.132-.1h-.433l-.131.138-.037.037a1.163,1.163,0,0,0-.159.181,7.71,7.71,0,0,1-.581.718c-.077.088-.154.176-.229.264-.128.15-.265.3-.4.449l-.142.157-.338.374-.28.31-.452.506-.347.391-.281.317-.2.23q-.17.19-.339.381-.121.138-.241.277c-.1.112-.194.225-.293.336q-.224.251-.45.5l-.169.186c-.012.013-.025.026-.038.039a1.5,1.5,0,0,0-.105.113.842.842,0,0,0-.134.022l-.1-.148c-.212-.314-.431-.638-.652-.956-.144-.208-.294-.414-.438-.614l-.246-.342c-.038-.053-.074-.112-.109-.168a.614.614,0,0,0-.524-.286.565.565,0,0,0-.355.122c-.124.1-.254.209-.411.342q-.339.29-.676.582-.4.345-.788.694c-.147.131-.293.263-.439.4l-.3.27c-.182.165-.365.329-.545.5-.153.142-.3.288-.444.423-.093-.046-.179-.087-.262-.125l-.016-.007a.751.751,0,0,0-.331-.086.609.609,0,0,0-.317.089,7.519,7.519,0,0,0-.821.6l-.034.027a.192.192,0,0,1-.069.034.815.815,0,0,0-.452.235c-.1.111-.207.222-.308.335l-.019.021c-.089.1-.181.2-.269.31-.177.217-.331.411-.47.592s-.269.354-.384.515c-.005,0-.013,0-.016,0-.108,0-.216-.007-.307-.012H117.3a.6.6,0,0,0-.472.224q-.251.309-.5.617c-.084-.007-.168-.015-.25-.024-.134-.015-.268-.035-.41-.056l-.018,0-.234-.036-.225-.035c-.137-.02-.273-.039-.41-.057l-.224-.029-.27-.035c-.111-.015-.221-.031-.331-.048l-.111-.016a.545.545,0,0,0-.545.231l-.037.052a1.685,1.685,0,0,0-.111.169q-.141.251-.28.5c-.085.154-.17.307-.256.461a.514.514,0,0,1-.1.143l-.227.113c-.13.064-.265.131-.4.2a2.012,2.012,0,0,0-.429.291,2.263,2.263,0,0,0-.245.283c-.029.038-.058.076-.089.113l-.115.137c-.12.144-.234.28-.354.408-.218.233-.445.467-.664.694l-.323.335-.207.219-.224.238v1.59H154.98v-2.162Z" transform="translate(-109.238 -308.377)" fill="#091626"/>
          </g>
          <g id="vwTJnu" transform="translate(-8.371 10.445)">
            <g id="Group_1347" data-name="Group 1347" transform="translate(0 0)">
              <g id="Group_1303" data-name="Group 1303" transform="translate(0 0.289)">
                <path id="Path_29632" data-name="Path 29632" d="M158.755,329.394v1.467H113.894v-.894c.076.1.149.1.215.028.09-.1.18-.207.272-.309.165-.18.33-.36.5-.537.268-.284.54-.564.807-.849.114-.123.224-.25.326-.383a1.037,1.037,0,0,1,.367-.313q.322-.158.641-.32a.622.622,0,0,0,.259-.21q.2-.322.389-.655c.107-.191.2-.388.307-.581a.064.064,0,0,1,.048-.03c.094.009.187.024.28.036.22.027.44.051.659.081.287.038.572.084.859.119.227.028.455.045.682.068.021,0,.041.006.076.011-.058.073-.108.133-.155.2-.22.288-.436.579-.658.866-.127.163-.263.32-.4.478s-.263.309-.4.463c-.083.095-.169.186-.252.281q-.211.241-.42.485c-.076.089-.153.176-.225.268a.117.117,0,0,0,.186.142c.084-.1.167-.194.25-.291l.392-.457c.111-.131.218-.265.333-.392.069-.077.106-.19.231-.209.017,0,.031-.028.044-.045s.034-.056.055-.082c.09-.114.184-.225.272-.341q.441-.578.878-1.157.336-.444.669-.89c.055-.073.11-.148.21-.154.209-.012.419-.015.629-.027a.14.14,0,0,0,.089-.054c.067-.089.123-.186.192-.274.268-.343.536-.685.81-1.023.157-.194.324-.379.487-.568a.131.131,0,0,1,.107-.055.243.243,0,0,0,.119-.032c.124-.072.248-.143.365-.226.181-.128.356-.264.533-.4a.175.175,0,0,1,.232-.023.7.7,0,0,0,.125.057c.126.055.252.113.38.163a.22.22,0,0,0,.221-.038c.118-.1.227-.2.339-.309s.207-.2.313-.3c.235-.215.472-.428.708-.642.113-.1.224-.208.338-.31.225-.2.45-.4.676-.6.147-.13.3-.259.443-.389q.319-.284.636-.57a.507.507,0,0,1,.2-.133.087.087,0,0,1,.113.034c.278.393.558.784.834,1.179.3.424.587.85.879,1.276.053.077.05.083-.025.15l-.721-1.09a3.888,3.888,0,0,0,.689,1.153l-.046.063c-.054-.081-.106-.157-.157-.235-.174-.265-.347-.531-.522-.8-.013-.02-.04-.03-.061-.045a.206.206,0,0,0,.009.072c.053.1.106.195.166.288.17.262.343.522.517.786l-.046.065c-.048-.076-.093-.149-.14-.22s-.1-.144-.145-.215-.1-.141-.146-.214c-.109-.173-.108-.174-.166-.19.021.029.039.053.055.078.165.257.33.514.492.773a.069.069,0,0,1,0,.062,3.85,3.85,0,0,1-.248.315,5.523,5.523,0,0,0-.577.752.492.492,0,0,1-.333.264,2.389,2.389,0,0,1-.594.056.176.176,0,0,0-.124.067c-.176.227-.341.462-.519.688-.152.193-.315.378-.471.568s-.291.364-.439.544c-.182.221-.367.439-.55.658q-.348.415-.7.83c-.156.185-.315.369-.472.553-.189.221-.377.443-.569.661-.156.176-.319.344-.475.519a.13.13,0,0,0-.033.1.162.162,0,0,0,.086.09.121.121,0,0,0,.106-.029q.311-.335.615-.678.265-.3.524-.6c.187-.219.37-.442.556-.662s.364-.424.543-.638c.226-.271.448-.545.672-.817.113-.138.228-.274.342-.412s.238-.288.356-.433.218-.265.322-.4.183-.25.261-.358c.137-.009.261-.011.382-.028a2.955,2.955,0,0,0,.319-.074.4.4,0,0,0,.247-.138c.047-.066.09-.134.138-.2.122-.169.242-.339.37-.5.082-.107.182-.2.263-.307.192-.259.378-.522.566-.784a.32.32,0,0,1,.29-.178.291.291,0,0,0,.311-.184.112.112,0,0,1,.025-.03c.147-.16.3-.318.439-.48.217-.244.43-.492.645-.738q.283-.324.567-.647.263-.3.527-.594l.451-.5.557-.623c.2-.227.41-.453.614-.681.168-.188.334-.377.5-.567a6.319,6.319,0,0,0,.586-.756.266.266,0,0,1,.04-.036c-.007.049-.014.084-.017.119a.638.638,0,0,1-.147.372c-.2.244-.388.5-.58.755-.364.478-.8.9-1.135,1.4a2.576,2.576,0,0,1-.428.456c-.228.207-.471.4-.706.6a1.081,1.081,0,0,0-.114.134l.013.011.492-.4a1.54,1.54,0,0,1-.436.491c-.072.048-.136.107-.205.159a2.778,2.778,0,0,0-.732.794c-.054.091-.128.171-.188.259-.017.025-.035.076-.023.09.036.041.069,0,.093-.026.086-.093.168-.189.251-.285a1.154,1.154,0,0,1,.094-.111q.314-.279.632-.554c.1-.089.211-.173.316-.259l.014.015c-.18.177-.367.346-.538.531a5.465,5.465,0,0,0-.467.589.22.22,0,0,0,.091-.055c.076-.075.147-.155.225-.227q.5-.467,1.011-.929a.761.761,0,0,1,.132-.08l.011.018-1.828,1.675a.1.1,0,0,0,.064-.015c.15-.122.3-.239.446-.369.258-.235.507-.48.765-.715.412-.376.829-.746,1.242-1.121a.078.078,0,0,1,.111-.01l-2.4,2.217a.1.1,0,0,0,.061-.025c.2-.174.406-.346.6-.523q.9-.8,1.788-1.6a.08.08,0,0,1,.122,0,.315.315,0,0,1-.023.025c-.638.567-1.23,1.184-1.894,1.722-.017.014-.021.046-.031.07a.2.2,0,0,0,.069-.018c.13-.1.266-.187.386-.3.508-.462,1.028-.912,1.5-1.415.074-.079.075-.078.183-.029l-.031.035q-.455.483-.909.966-.217.231-.429.466a.184.184,0,0,0-.023.061.189.189,0,0,0,.059-.025c.072-.066.144-.133.211-.2q.68-.72,1.357-1.442l.071-.076c.02.065-.019.1-.05.129q-.438.466-.878.932-.385.407-.772.811c-.04.042-.087.077-.127.118a.181.181,0,0,0-.026.06.38.38,0,0,0,.071-.007.124.124,0,0,0,.043-.03c.1-.09.212-.177.311-.272a18.109,18.109,0,0,0,1.235-1.345c.01-.012.019-.025.03-.036s.02-.018.034-.03a.874.874,0,0,1-.249.455c-.03.026-.054.058-.083.086-.22.214-.439.429-.661.64a6.276,6.276,0,0,1-.759.69c-.012.008-.017.025-.025.039l.013.017a.3.3,0,0,0,.072-.032c.162-.132.329-.258.481-.4.319-.3.63-.6.944-.9.034-.033.066-.068.1-.1a.523.523,0,0,1-.171.328c-.481.391-.955.791-1.432,1.186-.135.112-.274.22-.409.332-.014.012-.017.039-.024.059.022,0,.044-.007.066-.013s.014-.01.021-.016c.559-.418,1.1-.864,1.619-1.326l.06-.053.054-.047a3.345,3.345,0,0,1-.615.629c-.25.192-.512.37-.757.568a10.661,10.661,0,0,0-1.015.944c-.435.457-.883.9-1.331,1.346-.174.174-.362.335-.545.5-.04.036-.086.066-.129.1a1.09,1.09,0,0,1,.1-.157.141.141,0,0,0,.01-.051.168.168,0,0,0-.054.022.255.255,0,0,0-.042.059,1.127,1.127,0,0,1-.288.352.191.191,0,0,0-.056.065c-.011.021-.02.059-.009.073.028.036.007.056-.01.081-.686,1.052-1.346,2.119-1.928,3.233a.244.244,0,0,0-.014.047l.018.009a.37.37,0,0,0,.043-.053c.093-.164.18-.331.277-.492.521-.867,1.046-1.732,1.566-2.6a.609.609,0,0,1,.312-.291.939.939,0,0,0,.122-.067.412.412,0,0,1,.047-.017l-.066.1c-.567.836-1.09,1.7-1.6,2.572-.148.253-.3.5-.452.752a.139.139,0,0,0-.006.052c.017-.007.039-.01.049-.022a4,4,0,0,0,.242-.342c.613-1.06,1.246-2.109,1.908-3.139a.215.215,0,0,1,.052-.058c.205-.149.413-.293.616-.444a4.414,4.414,0,0,0,.793-.729c.308-.377.628-.743.944-1.114.015-.017.032-.032.057-.056a1.658,1.658,0,0,0,.03.571.129.129,0,0,1-.015.076c-.055.133-.107.269-.172.4a4.64,4.64,0,0,1-.331.614c-.383.54-.852,1.008-1.279,1.511a6.959,6.959,0,0,0-.9,1.185.92.92,0,0,1-.457.365,2.077,2.077,0,0,0-.572.329c-.074.067-.151.132-.225.2l-.233.21.012.019a.816.816,0,0,0,.1-.063q.209-.176.415-.355a1.187,1.187,0,0,1,.465-.263.642.642,0,0,0,.282-.141c.119-.111.235-.227.344-.349.155-.175.293-.364.452-.534.494-.53.991-1.058,1.5-1.577a4.137,4.137,0,0,1,.514-.433,2.616,2.616,0,0,0,.277-.2c.236-.226.475-.449.713-.673s.48-.45.718-.678c.017-.016.018-.047.027-.072-.024.007-.054.007-.071.022q-.625.546-1.247,1.1c-.013.012-.028.022-.042.033a3.645,3.645,0,0,1,.281-.341,7.483,7.483,0,0,1,1.107-1.048c.017-.012.018-.046.026-.07a.52.52,0,0,0-.077.007c-.014,0-.025.018-.037.027a7.011,7.011,0,0,0-1.157,1.12c-.01.012-.019.025-.03.036s-.023.02-.043.037a.515.515,0,0,1,.171-.326.465.465,0,0,0,.088-.124.467.467,0,0,1,.063-.084q.48-.429.962-.856c.081-.072.165-.142.245-.215.014-.013.014-.04.021-.061a.173.173,0,0,0-.064,0,.434.434,0,0,0-.079.06l-1.021.9c-.017.015-.035.028-.058.046a.187.187,0,0,1,.066-.175c.3-.265.6-.531.9-.8.1-.091.211-.178.314-.268.013-.012.016-.035.024-.053-.022,0-.043,0-.065,0s-.014.01-.021.016l-1.143.991-.052.046c-.023-.077.027-.115.067-.152q.584-.557,1.17-1.111c.024-.023.086-.04.049-.083s-.067.012-.091.034q-.56.528-1.118,1.059l-.048.047-.018-.01a.622.622,0,0,1,.056-.18,1.552,1.552,0,0,1,.206-.233q.276-.266.559-.525c.091-.084.191-.16.283-.243.016-.014.014-.047.02-.072a.7.7,0,0,0-.071.01c-.009,0-.017.014-.025.022l-.415.387-.257.239a.147.147,0,0,1,.032-.063c.089-.108.177-.217.268-.323.055-.064.113-.124.171-.184.148-.153.3-.305.445-.459a1.252,1.252,0,0,0,.086-.113l.173.515c.047.141.095.281.14.423a.064.064,0,0,1-.014.05c-.039.046-.082.087-.12.133a.2.2,0,0,0-.022.063.242.242,0,0,0,.06-.023c.03-.022.057-.049.085-.075l.012.013-.061.065c-.042.043-.086.084-.126.129-.01.011-.006.034-.008.052a.13.13,0,0,0,.047-.009.863.863,0,0,0,.074-.06l.019.018c-.035.042-.068.086-.1.127s-.059.072.01.088c-.031.119-.064.232-.091.346-.051.209-.1.42-.15.628a.7.7,0,0,1-.092.2,3.919,3.919,0,0,0-.428.728.164.164,0,0,1-.037.055c-.118.118-.232.24-.357.35a.784.784,0,0,1-.222.13.87.87,0,0,0-.359.257.71.71,0,0,1-.121.123q-.346.255-.7.5a1.929,1.929,0,0,0-.45.432c-.127.174-.268.338-.4.506a.728.728,0,0,1-.1.113,10.524,10.524,0,0,0-.787.776c-.3.3-.616.6-.924.894l-.005,0c-.154.147-.308.294-.46.442a1.2,1.2,0,0,1-.108.116c-.132.1-.277.177-.4.284-.158.135-.3.289-.446.436a.32.32,0,0,0-.043.083l.017.007c.02-.028.038-.058.06-.085a2.782,2.782,0,0,1,.5-.445,4.3,4.3,0,0,0,.5-.365c.269-.27.561-.518.845-.773.313-.28.633-.551.941-.836.26-.242.506-.5.759-.748.1-.1.2-.193.3-.291a.1.1,0,0,1,.1-.024c.194.038.387.074.582.1.142.021.284.032.441.048-.036.03-.063.051-.088.074a1.811,1.811,0,0,0-.365.412.817.817,0,0,1-.1.151c-.3.324-.6.65-.908.967a2,2,0,0,1-.328.26,1.675,1.675,0,0,0-.376.337c-.161.2-.318.4-.476.6,0,.005,0,.016-.006.043a.315.315,0,0,0,.082-.033,1.454,1.454,0,0,0,.123-.121c.165-.18.321-.369.5-.537.112-.108.258-.18.381-.279a8.179,8.179,0,0,0,1.039-1.07c.074-.086.13-.188.21-.266a3.718,3.718,0,0,1,.345-.283c.241-.183.488-.357.725-.544a.785.785,0,0,0,.34-.392c.02.045.031.071.044.1a2.337,2.337,0,0,0,.152.273c.177.242.358.481.545.715.084.1.19.192.283.29a.106.106,0,0,1,.03.075c-.041.242-.088.484-.131.726a4.511,4.511,0,0,1-.237.947,2.13,2.13,0,0,0-.109.383c-.024.119-.023.242-.043.362a1.808,1.808,0,0,0-.055.665.406.406,0,0,1-.108.38.532.532,0,0,0-.117.367.1.1,0,0,0,.055.075c.043.013.039-.032.048-.061a.787.787,0,0,1,.148-.338.372.372,0,0,0,.108-.244c.006-.106,0-.213,0-.32a1.6,1.6,0,0,1,.013-.223c.019-.122.048-.243.071-.365.035-.183.062-.367.1-.548.052-.222.131-.439.173-.662.065-.346.1-.7.162-1.045a.5.5,0,0,0-.1-.369c-.11-.167-.226-.33-.345-.491a3.211,3.211,0,0,0-.275-.333,2.071,2.071,0,0,1-.436-.733.544.544,0,0,1-.01-.44c.119-.255.219-.521.358-.766a12.38,12.38,0,0,0,.557-1.114,1.492,1.492,0,0,0,.147-.381,1.89,1.89,0,0,1,.047-.241c.04-.141.087-.28.131-.419s.017-.286.05-.428a.618.618,0,0,0-.023-.365,1.813,1.813,0,0,1-.12-.513,2.317,2.317,0,0,0-.125-.44.236.236,0,0,1-.018-.083c.015-.179.033-.357.051-.535.015-.15.022-.3.048-.449.04-.233.1-.462.139-.695.058-.325.1-.653.161-.978a1.588,1.588,0,0,1,.1-.44.075.075,0,0,0,.006-.058.4.4,0,0,1-.01-.242c.011-.138.026-.276.039-.413l.016-.008c.119.141.243.278.358.422.261.328.519.66.778.989.066.084.133.167.259.152.013,0,.033.016.044.03.088.109.174.22.261.33.133.169.266.338.4.506s.255.319.384.478c.115.142.231.283.347.426s.219.276.331.411c.094.114.192.224.288.336-.04.086-.026.155.038.173a.6.6,0,0,0,.117.017l.369.028a.057.057,0,0,1,.038.02c.206.3.419.589.615.892.388.6.762,1.206,1.15,1.8.178.274.374.536.564.8.063.088.135.17.206.259a.524.524,0,0,1-.314-.026c-.257-.125-.523-.233-.784-.353a1.039,1.039,0,0,1-.191-.12q-.21-.159-.414-.326c-.183-.15-.405-.263-.483-.513a.115.115,0,0,0-.038-.045.2.2,0,0,0-.051-.018.971.971,0,0,1,.062.108c.051.13.094.262.149.39a.94.94,0,0,0,.132.229c.117.14.242.273.368.4a.914.914,0,0,0,.354.231c.157.056.312.119.468.175.177.064.356.127.535.185a.476.476,0,0,0,.365-.005.225.225,0,0,1,.2,0c.033.013.065.029.1.043a.4.4,0,0,0,.227.026.871.871,0,0,1,.219.017c.01,0,.019.017.029.027.213.208.425.417.638.624a.779.779,0,0,0,.351.224,2.9,2.9,0,0,1,.318.1.544.544,0,0,1,.207.108c.194.207.379.425.565.64q.234.269.462.543c.176.209.348.421.524.629s.377.442.568.661c.206.236.415.471.625.7.166.187.334.371.5.556l.837.918c.067.074.128.153.2.222.094.093.192.183.295.267a.118.118,0,0,0,.164-.029.125.125,0,0,0-.039-.167,2.356,2.356,0,0,1-.22-.2c-.2-.221-.4-.446-.606-.67l-.3-.324-.61-.675c-.126-.139-.254-.278-.378-.419-.169-.192-.334-.387-.5-.58-.147-.17-.3-.339-.442-.51-.183-.216-.361-.437-.548-.651a.413.413,0,0,1-.118-.318.35.35,0,0,1,.04-.123c.106-.214.283-.409.161-.677a.066.066,0,0,1,0-.026.588.588,0,0,0-.149-.364v-.106l-.111.019a.593.593,0,0,1-.072-.1c-.008-.018.017-.049.022-.075a.049.049,0,0,0-.009-.041c-.008-.006-.028,0-.041,0a.13.13,0,0,0-.03.024c-.087-.083-.086-.093,0-.17a.364.364,0,0,0,.094-.1c.067-.134.128-.272.186-.41a.1.1,0,0,0-.009-.076c-.059-.107-.124-.212-.183-.319a.12.12,0,0,1-.017-.084c.066-.188.144-.372.2-.562.034-.111.144-.191.123-.321,0,0,0-.008.006-.012l.106-.175c.09.086.181.17.269.258.251.252.5.51.752.756s.5.465.76.7c.108.1.219.191.329.285l.418.355a1.8,1.8,0,0,0,.164.133.173.173,0,0,0,.218,0c.106-.078.219-.147.33-.22l.293.266q.129.116.258.229c.176.155.351.31.528.464.11.1.221.189.332.283s.241.2.359.3.2.192.31.28c.184.151.372.295.559.441a.239.239,0,0,0,.214.078,3.7,3.7,0,0,1,.369-.025.145.145,0,0,1,.034,0,.246.246,0,0,0,0,.063.26.26,0,0,0,.032.055.275.275,0,0,0,.033-.05.352.352,0,0,0,.012-.069c.084.064.158.118.229.175.254.208.509.416.76.627.274.23.541.467.817.693a2.107,2.107,0,0,0,.325.205.109.109,0,0,0,.151-.06.107.107,0,0,0-.059-.153,1.935,1.935,0,0,1-.446-.324c-.249-.211-.494-.426-.744-.635-.217-.183-.438-.362-.66-.54-.1-.077-.2-.149-.3-.224.069-.105.064-.131-.037-.167a.763.763,0,0,0,0-.14.155.155,0,0,1,.028-.124c.048-.073.038-.093-.037-.1a1.781,1.781,0,0,0,0-.213c-.009-.072,0-.153-.071-.207-.02-.015-.03-.044-.05-.059s-.052-.025-.058-.018c-.066.068-.132.013-.2.01.005-.071-.025-.107-.059-.078-.066.055-.093.028-.12-.035-.006-.014-.027-.022-.039-.034s-.027-.026-.029-.04a3.649,3.649,0,0,0-.187-.685,1.06,1.06,0,0,1-.023-.123l.068.045.883.629c.367.261.734.523,1.1.781a.592.592,0,0,0,.213.106c.11.021.225.007.337.02.063.007.139-.009.185.063a1.433,1.433,0,0,0,.088.115c.236.295.476.588.709.885.272.347.531.7.812,1.044.235.284.491.551.74.824C158.613,329.493,158.683,329.486,158.755,329.394Zm-32.911-4.2.018.017,1.335-1.262.017.013a.961.961,0,0,1-.114.166c-.377.358-.757.713-1.136,1.07a1.123,1.123,0,0,0-.11.124.162.162,0,0,0-.016.057l.017.007,1.184-1.093-.01.036a.739.739,0,0,1-.269.337q-.385.35-.764.7a1.043,1.043,0,0,0-.108.127c-.007.009,0,.027,0,.041a.136.136,0,0,0,.041,0c.012,0,.02-.017.03-.026.192-.178.384-.358.578-.533.1-.089.2-.17.3-.255a.692.692,0,0,1-.147.285c-.255.241-.506.486-.759.73-.016.015-.03.032-.045.048l.021.021.764-.7c-.348.372-.74.7-1.08,1.079l.022.022.816-.762.011.011c-.081.09-.161.182-.245.269a.442.442,0,0,0-.1.423.432.432,0,0,1-.035.32c-.092.169-.187.338-.295.5a2.059,2.059,0,0,0-.288.633.931.931,0,0,1-.185.357.076.076,0,0,0-.012.07.071.071,0,0,0,.068.014.473.473,0,0,0,.136-.112c.255-.363.5-.731.759-1.1a.927.927,0,0,0,.137-.566.162.162,0,0,1,.009-.071,3.531,3.531,0,0,1,.19-.358c.115-.174.243-.339.367-.508a1.51,1.51,0,0,1,.2-.258,3.17,3.17,0,0,0,.652-.778.369.369,0,0,0,.038-.33.313.313,0,0,1-.015-.1c0-.207.007-.413.009-.619,0-.033-.011-.066-.01-.1a.185.185,0,0,1,.015-.085c.041-.076.09-.148.133-.223a.26.26,0,0,0,.029-.2.224.224,0,0,1,.005-.111c.047-.162.093-.324.15-.483a4.4,4.4,0,0,1,.246-.617,4.78,4.78,0,0,1,.569-.8c.145-.17.272-.356.4-.536a.3.3,0,0,0,.036-.092,1.006,1.006,0,0,0,.028-.119.462.462,0,0,0,0-.072.252.252,0,0,0-.07.015.188.188,0,0,0-.045.048,2.509,2.509,0,0,1-.221.258c-.4.362-.814.717-1.22,1.077a.547.547,0,0,0-.14.166,1.226,1.226,0,0,1-.422.493l-.01.009q-.8.7-1.607,1.394c-.041.036-.071.017-.1-.012a1.029,1.029,0,0,1-.07-.109.58.58,0,0,0,.042-.063c.005-.011,0-.027,0-.041a.112.112,0,0,0-.04.013.667.667,0,0,0-.05.053c-.06.062-.081.062-.147,0a.131.131,0,0,0,.021-.025c.014-.031.027-.062.041-.094a.522.522,0,0,0-.087.047c-.081.065-.091.067-.166.02a.359.359,0,0,0,0-.066s-.031-.011-.034-.007c-.046.068-.132.042-.19.08s-.105.074-.159.109a4.045,4.045,0,0,0-1.01.979.311.311,0,0,0-.033.091c-.009.027-.01.063-.028.082-.1.1-.2.2-.305.3a1.329,1.329,0,0,0-.095.094c-.226.274-.451.549-.678.823-.035.042-.072.1-.119.112a2.023,2.023,0,0,1-.4.1,1.1,1.1,0,0,0-.588.206,2.416,2.416,0,0,0-.589.683,2.159,2.159,0,0,1-.253.4c-.171.192-.324.4-.486.6-.037.046-.082.087-.118.134-.013.017-.008.047-.012.071.022,0,.051,0,.064-.014.086-.086.171-.173.252-.263.062-.069.114-.147.177-.215a4.777,4.777,0,0,0,.414-.45c.171-.245.357-.476.548-.7.041-.049.084-.1.124-.142l.119.064-.027.033c-.372.424-.722.867-1.056,1.322a.279.279,0,0,0-.027.084.306.306,0,0,0,.076-.05q.536-.659,1.069-1.321c.036-.044.066-.051.111-.012-.017.022-.033.044-.05.064a16.8,16.8,0,0,0-.988,1.414.222.222,0,0,0-.018.061l.023.013c.029-.034.059-.067.086-.1q.524-.706,1.048-1.413a.1.1,0,0,1,.05-.038c.053-.015.107-.023.159-.034-.225.3-.454.6-.673.911a3.979,3.979,0,0,0-.59.979.676.676,0,0,0,.063-.065q.428-.595.857-1.189a.249.249,0,0,1,.059-.045l.012.016-.035.055c-.182.3-.365.6-.544.908-.054.092-.095.19-.139.287-.006.014,0,.035,0,.053.018-.008.036-.016.053-.025s.007-.011.01-.017c.282-.478.567-.954.842-1.436a2.6,2.6,0,0,1,.239-.365c.116-.143.236-.283.354-.425.069-.084.13-.176.206-.253a7.021,7.021,0,0,0,.588-.724.343.343,0,0,1,.106-.084c.118-.065.24-.122.357-.189.066-.038.127-.087.19-.13a.319.319,0,0,1-.059.086c-.087.1-.174.2-.26.295a14.257,14.257,0,0,1-1.224,1.273c-.124.111-.242.229-.36.346-.015.015-.015.045-.022.068.025-.006.058,0,.075-.02.271-.244.558-.473.8-.739.472-.508.92-1.037,1.381-1.555a1.813,1.813,0,0,1,.553-.429c-.112.13-.218.246-.316.367a22.293,22.293,0,0,1-1.806,2.006c-.1.1-.208.18-.309.273-.016.014-.018.043-.027.065a.232.232,0,0,0,.067.007.166.166,0,0,0,.066-.031,3.07,3.07,0,0,0,.25-.2,18.234,18.234,0,0,0,1.622-1.785c.174-.216.346-.434.521-.65a.075.075,0,0,1,.062-.024c.1.029.192.064.289.1a.1.1,0,0,1-.012.018c-.264.273-.52.555-.794.818-.5.484-1.014.959-1.522,1.438q-.233.22-.463.442a.193.193,0,0,0-.028.052.2.2,0,0,0,.063-.01.489.489,0,0,0,.092-.065c.222-.2.446-.4.663-.609.493-.471.987-.943,1.473-1.421.2-.2.379-.413.569-.618.016-.017.045-.038.063-.034.078.019.153.047.23.071a.213.213,0,0,1-.014.018c-.833.924-1.746,1.768-2.632,2.639a.751.751,0,0,0-.068.089.467.467,0,0,0,.1-.055q.621-.576,1.239-1.154a18.445,18.445,0,0,0,1.46-1.5,1.78,1.78,0,0,1,.244-.2l.014.015c-.009.02-.017.04-.028.059-.1.19-.2.379-.3.57-.041.078-.033.1.048.106-.025.027-.048.051-.069.075-.056.064-.113.125-.164.193-.014.019-.008.054-.011.081.028,0,.064,0,.082-.016a2.332,2.332,0,0,0,.212-.2q.616-.683,1.229-1.369a.41.41,0,0,1,.044-.034c-.032.128-.059.237-.088.346a.069.069,0,0,1-.019.027l-.725.746c-.191.2-.383.389-.574.585a.842.842,0,0,0-.063.083l.02.016,1.373-1.341c.012.028.025.058.037.089.047.127.058.088-.036.179q-.607.586-1.217,1.168C125.878,325.157,125.861,325.178,125.843,325.2Zm4.49-.148c-.011.02-.019.037-.028.053q-.375.652-.749,1.3-.421.737-.838,1.476a.608.608,0,0,0-.035.092c.027-.021.064-.035.081-.062.207-.341.415-.682.616-1.027a23.47,23.47,0,0,1,1.226-2.078c.157-.215.306-.437.462-.653a17.373,17.373,0,0,0,1.065-1.572,2.55,2.55,0,0,1,.188-.24.223.223,0,0,0,.02-.08c-.026,0-.061-.01-.077,0a2.134,2.134,0,0,0-.241.218c-.264.3-.52.6-.783.9a14.033,14.033,0,0,0-1.019,1.207.376.376,0,0,1-.116.1c-.093.056-.191.105-.285.16-.038.022-.07.054-.107.078-.075.047-.155.086-.227.136a1.9,1.9,0,0,0-.422.45c-.244.331-.476.67-.714,1a1.159,1.159,0,0,0-.1.132c-.037.072-.053.155-.094.223a1.879,1.879,0,0,1-.167.215c-.007.009-.023.011-.035.015a2.175,2.175,0,0,0-.218.075c-.094.044-.183.1-.274.15-.263.147-.533.284-.788.443a2.772,2.772,0,0,0-.708.592c-.015.018-.013.049-.018.075a.213.213,0,0,0,.072-.025c.114-.1.223-.2.339-.3a7.656,7.656,0,0,1,1.48-.9.165.165,0,0,1,.081-.027c.087.009.13-.044.171-.1.026-.039.051-.078.079-.115a.2.2,0,0,1,.044-.033.325.325,0,0,0,.076-.056c.155-.211.3-.43.463-.636.26-.33.529-.652.8-.975a.474.474,0,0,1,.237-.12,1.851,1.851,0,0,1-.116.188q-.621.879-1.243,1.756c-.062.087-.13.169-.193.255a.147.147,0,0,0-.012.057.157.157,0,0,0,.056-.018.56.56,0,0,0,.087-.092c.14-.189.283-.376.416-.57.357-.519.71-1.042,1.065-1.562a.068.068,0,0,1,.045-.029c.056,0,.113,0,.175,0-.026.04-.051.079-.077.117-.6.863-1.211,1.712-1.755,2.609-.085.14-.173.279-.258.419-.008.013,0,.034,0,.051.015-.007.034-.01.043-.021a1.128,1.128,0,0,0,.091-.115l.951-1.432c.344-.518.692-1.033,1.027-1.557A.3.3,0,0,1,130.334,325.049ZM117.341,329.2l.026.01a.448.448,0,0,0,.034-.092.516.516,0,0,1,.139-.286c.095-.1.172-.226.258-.339a.519.519,0,0,1,.089-.1.327.327,0,0,0,.133-.264.474.474,0,0,1,.016-.111c.038-.14.025-.185-.1-.271a.094.094,0,0,1-.039-.132,2.372,2.372,0,0,0,.24-.791c0-.208.007-.417.006-.625,0-.045,0-.11-.067-.115s-.069.06-.077.105a1.18,1.18,0,0,1-.223.567l-.012.016-.817,1.084a.309.309,0,0,1-.179.128.359.359,0,0,0-.1.057c-.042.028-.081.059-.121.088l0-.005,1.04-1.2-.02-.02a.364.364,0,0,0-.052.041c-.077.086-.151.175-.229.26-.291.318-.576.64-.877.948a5.811,5.811,0,0,1-.477.394c-.063.052-.123.109-.184.163l.017.022c.029-.02.06-.038.087-.06.159-.129.316-.259.474-.388a.447.447,0,0,1,.055-.033l.019.021a4.088,4.088,0,0,0-.732.876l.025.025c.022-.033.044-.065.065-.1a3.756,3.756,0,0,1,.522-.62c.047-.048.081-.115.167-.109.022,0,.046-.024.068-.039a.91.91,0,0,1,.128-.083,1.542,1.542,0,0,1,.183-.054l.011.022c-.049.068-.093.14-.146.2a2.12,2.12,0,0,0-.317.56.99.99,0,0,1-.074.13c-.046.075-.1.148-.141.223-.006.01,0,.028,0,.05a.186.186,0,0,0,.056-.017c.053-.04.1-.082.155-.123.036-.029.069-.061.106-.09a.945.945,0,0,0,.123-.1c.056-.063.1-.134.153-.2.09-.115.177-.234.274-.343.17-.194.346-.382.519-.572a.1.1,0,0,1,.132-.024l-1.006,1.258a.184.184,0,0,0,.1-.052c.231-.273.461-.546.688-.822.089-.108.166-.225.253-.334a.084.084,0,0,1,.071-.016.062.062,0,0,1,.033.051.18.18,0,0,1-.031.09c-.118.156-.241.307-.358.464-.15.2-.3.4-.442.608a.139.139,0,0,0-.012.044l.021.012c.236-.216.36-.523.586-.759a.733.733,0,0,1-.137.406A1.022,1.022,0,0,0,117.341,329.2Zm21.016-8.475.021-.014a1.476,1.476,0,0,1,.125.081,1.3,1.3,0,0,1,.243.2c.221.286.431.581.641.875.118.166.229.338.343.507s.233.345.353.516c.012.018.05.018.076.026,0-.026.006-.058-.005-.078-.159-.272-.317-.544-.482-.812-.133-.215-.276-.423-.415-.635a.739.739,0,0,1-.044-.081c-.076-.158-.144-.32-.228-.473a1.03,1.03,0,0,0-.419-.418.494.494,0,0,1-.147-.113c-.1-.116-.187-.236-.274-.359-.147-.209-.288-.422-.434-.631-.025-.035-.056-.092-.11-.062s-.019.085,0,.126c.1.295.2.59.3.883a.448.448,0,0,0,.108.2.538.538,0,0,1,.17.362,4.487,4.487,0,0,0,.13.474.22.22,0,0,0,.038.057c.015-.022.042-.043.043-.065a1.759,1.759,0,0,0,0-.2C138.373,320.963,138.364,320.841,138.357,320.72Zm3.436,1.38a1.435,1.435,0,0,0-.064-.131c-.184-.294-.363-.591-.557-.877-.128-.189-.286-.357-.416-.546a.373.373,0,0,0-.3-.172c-.018,0-.038-.025-.051-.043a1.57,1.57,0,0,0-.087-.136c-.08-.094-.172-.178-.248-.275s-.144-.214-.214-.322a3.008,3.008,0,0,0-.492-.542c-.013-.013-.038-.013-.057-.02,0,.023-.012.049,0,.067a.685.685,0,0,0,.073.119,3.8,3.8,0,0,1,.413.714,1.579,1.579,0,0,0,.282.418c.066.073.139.143.254.1a.052.052,0,0,1,.03.007l.114.05c.05.023.116.032.146.07.151.192.3.384.436.588a7.346,7.346,0,0,0,.666.939.068.068,0,0,0,.047.022C141.773,322.135,141.782,322.113,141.793,322.1Zm-10.66,2.116-.027-.016a.487.487,0,0,0-.047.055c-.218.351-.431.7-.652,1.052-.489.77-.978,1.54-1.4,2.351a.152.152,0,0,0-.021.041c0,.013,0,.034.01.039a.048.048,0,0,0,.041-.006.135.135,0,0,0,.032-.042c.085-.143.167-.288.253-.43.278-.462.559-.923.836-1.385q.47-.785.934-1.573A.881.881,0,0,0,131.133,324.215Zm-2.115,3.887.029.018c.022-.027.045-.054.066-.081.078-.105.164-.206.23-.318.221-.371.431-.75.653-1.12.328-.548.666-1.09.994-1.638.153-.256.293-.521.438-.783a.315.315,0,0,0,.019-.064l-.021-.008c-.01.015-.021.029-.031.045-.175.3-.348.6-.526.894-.41.685-.826,1.366-1.233,2.053a6.311,6.311,0,0,1-.605.961A.112.112,0,0,0,129.017,328.1Zm1.577-6.067.018-.016c-.01-.025-.022-.05-.03-.075-.029-.088-.061-.175-.081-.264-.008-.037.027-.084.018-.119-.04-.142-.09-.282-.138-.422,0-.01-.02-.025-.027-.023a.05.05,0,0,0-.032.027.113.113,0,0,0,0,.058c.024.1.052.192.076.288a.229.229,0,0,1,0,.075.477.477,0,0,0-.015.115.652.652,0,0,0,.17.333A.151.151,0,0,0,130.595,322.036Zm-.425-1.563-.014,0c0,.01,0,.023,0,.031q.152.26.306.519c.005.008.021.01.032.014,0-.013.013-.029.009-.039a2.09,2.09,0,0,0-.1-.2c-.06-.1-.126-.187-.19-.279C130.2,320.507,130.183,320.49,130.17,320.473Zm.2.548.019-.02c-.063-.1-.126-.206-.191-.308a.319.319,0,0,0-.045-.057c-.007-.007-.023-.006-.034-.009s-.005.026,0,.035c.069.11.139.22.21.329C130.334,321,130.352,321.011,130.366,321.021Z" transform="translate(-113.894 -316.091)" fill="#c52a1f"/>
              </g>
              <g id="Group_1304" data-name="Group 1304">
                <path id="Path_29633" data-name="Path 29633" d="M137.292,313.034a.777.777,0,0,1,.081.063c.127.129.257.257.378.391s.239.278.354.421c.185.229.37.46.548.694.047.061.109.054.167.074a.271.271,0,0,1,.119.07c.126.157.242.321.366.48q.232.3.469.594c.12.149.246.294.366.443.141.174.278.352.419.527.091.113.188.222.282.333.072.085.138.175.215.256a.174.174,0,0,0,.108.029c.078,0,.157,0,.235,0a.1.1,0,0,1,.109.09.331.331,0,0,0,.064.112,15.042,15.042,0,0,1,.909,1.308c.3.481.6.964.909,1.437.19.287.405.557.611.833.037.05.083.092.124.139a.192.192,0,0,0,.141.072.579.579,0,0,1,.329.132c.019.015.04.027.065.043.123-.11.243-.22.366-.328.2-.176.4-.35.6-.525.111-.1.191-.108.342,0,.109-.085.222-.171.332-.261.189-.155.375-.312.562-.469.1-.088.208-.177.31-.269s.194-.182.292-.272a.149.149,0,0,1,.192.009c.045.045.085.1.13.142.307.312.609.629.923.934.249.242.512.471.768.7.157.143.313.287.471.43s.309.277.467.419l.379-.252c.086-.057.118-.049.195.02.171.153.346.3.518.454.1.086.194.174.291.262a1.075,1.075,0,0,0,.145.126.121.121,0,0,0,.1-.014c.093-.051.182-.109.272-.166.2-.13.4-.261.6-.391q.126-.081.256-.155a.077.077,0,0,0,.046-.071.1.1,0,0,1,.162-.069l.554.392c.305.217.609.435.916.65.271.19.543.378.818.561a.368.368,0,0,0,.173.051c.108.008.218,0,.327,0a.14.14,0,0,1,.151.1.417.417,0,0,0,.088.122c.166.194.339.384.5.583.193.239.376.485.565.728.139.178.278.356.419.533.117.146.247.283.352.437a4.4,4.4,0,0,0,.426.462l.085.091v.08c-.072.091-.142.1-.22.012-.249-.273-.5-.54-.74-.824-.281-.34-.539-.7-.812-1.044-.233-.3-.472-.59-.709-.885-.03-.037-.062-.074-.088-.115-.045-.072-.121-.056-.185-.063-.112-.013-.227,0-.337-.02a.593.593,0,0,1-.213-.106c-.369-.258-.736-.52-1.1-.781l-.883-.629-.068-.045a1.058,1.058,0,0,0,.023.123,3.65,3.65,0,0,1,.187.685c0,.014.017.028.029.04s.033.02.039.034c.027.063.055.09.12.035.034-.029.064.008.059.078.066,0,.132.058.2-.01.007-.007.043.006.058.018s.03.044.05.059c.069.054.062.135.071.207a1.78,1.78,0,0,1,0,.213c.075.01.086.03.037.1a.155.155,0,0,0-.028.124.763.763,0,0,1,0,.14c.1.036.107.061.037.166.1.075.2.146.3.224.221.178.442.357.66.54.25.21.495.424.744.635a1.934,1.934,0,0,0,.446.324.107.107,0,0,1,.059.152.109.109,0,0,1-.151.06,2.105,2.105,0,0,1-.325-.206c-.276-.226-.544-.463-.817-.693-.251-.211-.506-.419-.76-.627-.071-.058-.145-.111-.229-.175a.349.349,0,0,1-.012.069.275.275,0,0,1-.033.05.26.26,0,0,1-.032-.055.246.246,0,0,1,0-.063.142.142,0,0,0-.034,0c-.122.022-.247-.01-.369.025a.239.239,0,0,1-.214-.078c-.186-.147-.375-.291-.559-.441-.108-.088-.205-.189-.31-.28s-.239-.2-.359-.3-.223-.188-.332-.283c-.177-.154-.352-.309-.528-.464l-.258-.229-.293-.266c-.111.073-.224.141-.33.22a.173.173,0,0,1-.218,0,1.811,1.811,0,0,1-.164-.133l-.418-.355c-.11-.095-.221-.188-.329-.285-.255-.23-.513-.457-.76-.7s-.5-.5-.752-.756c-.088-.088-.179-.172-.269-.258l-.106.175s-.007.008-.006.012c.021.13-.089.211-.123.321-.059.19-.137.374-.2.562a.12.12,0,0,0,.017.083c.059.107.124.212.183.319a.1.1,0,0,1,.009.076c-.059.138-.119.276-.186.41a.365.365,0,0,1-.094.1c-.088.076-.089.087,0,.169a.134.134,0,0,1,.03-.024c.013,0,.033-.01.041,0a.049.049,0,0,1,.009.041c-.005.026-.03.057-.022.075a.589.589,0,0,0,.072.1l.111-.019v.106a.588.588,0,0,1,.149.364.065.065,0,0,0,0,.026c.122.268-.055.464-.161.677a.351.351,0,0,0-.04.123.413.413,0,0,0,.118.318c.187.213.364.435.548.65.146.171.3.34.442.51.168.193.333.388.5.58.124.141.252.28.378.419l.61.675.3.324c.2.224.4.449.606.67a2.336,2.336,0,0,0,.22.2.125.125,0,0,1,.039.167.118.118,0,0,1-.164.029c-.1-.084-.2-.174-.295-.267-.07-.07-.131-.149-.2-.222l-.837-.918c-.168-.185-.337-.37-.5-.556-.209-.234-.418-.468-.625-.7q-.286-.328-.568-.661c-.176-.208-.348-.42-.524-.629q-.229-.273-.462-.543c-.186-.215-.371-.433-.565-.64a.546.546,0,0,0-.207-.108,2.9,2.9,0,0,0-.318-.1.778.778,0,0,1-.351-.224c-.214-.207-.426-.416-.638-.624-.01-.009-.018-.025-.029-.027a.863.863,0,0,0-.219-.017.4.4,0,0,1-.227-.026l-.1-.043a.225.225,0,0,0-.2,0,.477.477,0,0,1-.365.005c-.18-.058-.358-.121-.535-.185-.157-.056-.311-.119-.468-.175a.914.914,0,0,1-.354-.231c-.126-.131-.252-.264-.368-.4a.94.94,0,0,1-.132-.229c-.055-.127-.1-.26-.149-.389a.939.939,0,0,0-.062-.108.2.2,0,0,1,.051.018.116.116,0,0,1,.038.045c.078.25.3.363.483.513q.2.167.414.325a1.032,1.032,0,0,0,.191.12c.26.119.526.227.784.353a.525.525,0,0,0,.314.026c-.071-.089-.143-.171-.206-.259-.19-.265-.386-.528-.564-.8-.388-.6-.762-1.205-1.15-1.8-.2-.3-.409-.6-.615-.892a.056.056,0,0,0-.038-.02l-.369-.028a.614.614,0,0,1-.117-.017c-.064-.018-.078-.087-.038-.173-.1-.112-.194-.222-.288-.336-.112-.136-.22-.275-.331-.411l-.347-.426q-.193-.238-.384-.478c-.134-.168-.267-.337-.4-.506-.087-.11-.173-.221-.261-.33-.011-.014-.031-.031-.044-.03-.126.014-.193-.068-.259-.152-.259-.33-.517-.661-.778-.989-.115-.144-.238-.282-.358-.422l-.016.008c-.013.138-.028.276-.039.413a.4.4,0,0,0,.01.242.075.075,0,0,1-.006.058,1.588,1.588,0,0,0-.1.44c-.059.325-.1.653-.161.978-.041.233-.1.462-.139.695-.026.148-.033.3-.048.449-.018.179-.036.357-.051.535a.237.237,0,0,0,.018.083,2.313,2.313,0,0,1,.125.44,1.813,1.813,0,0,0,.12.513.617.617,0,0,1,.023.365c-.033.143-.006.289-.05.428s-.091.278-.131.419a1.89,1.89,0,0,0-.047.241,1.493,1.493,0,0,1-.147.381,12.374,12.374,0,0,1-.557,1.114c-.139.244-.24.51-.358.766a.544.544,0,0,0,.01.44,2.071,2.071,0,0,0,.436.733,3.221,3.221,0,0,1,.275.333c.119.16.235.324.345.491a.5.5,0,0,1,.1.368c-.059.347-.1.7-.162,1.045-.042.224-.121.44-.173.662-.043.181-.069.365-.1.548-.023.122-.052.243-.071.365a1.6,1.6,0,0,0-.013.223c0,.106.007.213,0,.32a.372.372,0,0,1-.108.244.787.787,0,0,0-.148.338c-.009.029-.005.075-.048.061a.1.1,0,0,1-.055-.075.532.532,0,0,1,.117-.367.406.406,0,0,0,.108-.38,1.808,1.808,0,0,1,.055-.665c.021-.12.019-.243.043-.362a2.131,2.131,0,0,1,.109-.383,4.51,4.51,0,0,0,.237-.947c.042-.242.089-.484.131-.726a.106.106,0,0,0-.03-.075c-.093-.1-.2-.185-.283-.29-.188-.234-.368-.473-.545-.715a2.338,2.338,0,0,1-.152-.273c-.013-.025-.023-.051-.044-.1a.785.785,0,0,1-.34.392c-.238.187-.484.361-.725.544a3.684,3.684,0,0,0-.345.283c-.08.078-.136.181-.21.266a8.172,8.172,0,0,1-1.039,1.07c-.123.1-.269.171-.381.279-.176.169-.332.357-.5.537a1.463,1.463,0,0,1-.123.121.308.308,0,0,1-.082.033c0-.027,0-.037.006-.043.158-.2.315-.4.476-.6a1.676,1.676,0,0,1,.376-.337,1.992,1.992,0,0,0,.328-.26c.308-.317.608-.642.908-.967a.812.812,0,0,0,.1-.151,1.815,1.815,0,0,1,.365-.412c.025-.023.053-.045.088-.074-.157-.017-.3-.027-.441-.049-.195-.03-.389-.066-.582-.1a.1.1,0,0,0-.1.024c-.1.1-.2.193-.3.291-.253.249-.5.506-.759.748-.308.285-.628.557-.941.836-.285.255-.576.5-.845.773a4.306,4.306,0,0,1-.5.365,2.782,2.782,0,0,0-.5.445c-.022.027-.04.057-.06.085l-.017-.007a.32.32,0,0,1,.043-.083c.147-.148.289-.3.446-.436.124-.106.269-.187.4-.284a1.184,1.184,0,0,0,.108-.116c.153-.148.307-.295.46-.442l.005,0c.308-.3.621-.59.924-.893a10.55,10.55,0,0,1,.787-.776.719.719,0,0,0,.1-.112c.135-.168.275-.332.4-.506a1.933,1.933,0,0,1,.45-.432q.351-.249.7-.5a.7.7,0,0,0,.121-.123.871.871,0,0,1,.359-.257.783.783,0,0,0,.222-.13c.125-.11.239-.232.357-.35a.163.163,0,0,0,.037-.055,3.921,3.921,0,0,1,.428-.728.7.7,0,0,0,.092-.2c.055-.208.1-.419.15-.628.028-.115.06-.228.091-.346-.069-.015-.045-.049-.01-.088s.07-.085.1-.127l-.019-.018a.864.864,0,0,1-.074.06.13.13,0,0,1-.047.009c0-.018,0-.041.008-.052.04-.045.083-.086.126-.129l.061-.065-.012-.013c-.028.025-.055.052-.085.075a.244.244,0,0,1-.06.023.2.2,0,0,1,.022-.063c.038-.046.082-.088.12-.133a.063.063,0,0,0,.014-.05c-.045-.141-.092-.282-.14-.423l-.173-.515a1.226,1.226,0,0,1-.086.113c-.147.154-.3.306-.445.459-.058.06-.116.121-.171.184-.091.106-.179.215-.268.323a.148.148,0,0,0-.032.063l.257-.239.415-.386c.008-.007.015-.02.025-.022a.67.67,0,0,1,.071-.01c-.006.025,0,.058-.02.072-.092.083-.192.159-.283.243q-.283.259-.559.525a1.552,1.552,0,0,0-.206.234.621.621,0,0,0-.056.18l.018.011.048-.047q.558-.53,1.118-1.059c.024-.023.058-.073.091-.034s-.025.06-.049.083q-.584.556-1.17,1.111c-.04.038-.09.075-.067.152l.052-.046,1.143-.991c.007-.006.013-.015.021-.016a.635.635,0,0,1,.065,0c-.008.018-.011.041-.024.053-.1.091-.211.177-.314.269-.3.265-.6.532-.9.8a.187.187,0,0,0-.066.175c.023-.018.041-.032.058-.046l1.021-.9a.428.428,0,0,1,.079-.06.172.172,0,0,1,.064,0c-.007.021-.007.048-.021.061-.08.074-.164.143-.245.215q-.481.427-.962.856a.466.466,0,0,0-.063.084c-.029.042-.049.1-.088.124a.515.515,0,0,0-.171.326c.02-.017.032-.026.043-.037s.02-.024.03-.036a7.017,7.017,0,0,1,1.157-1.12c.012-.009.024-.024.037-.027a.5.5,0,0,1,.077-.007c-.008.024-.009.058-.026.07a7.484,7.484,0,0,0-1.107,1.048,3.654,3.654,0,0,0-.281.341c.014-.011.028-.021.042-.033q.623-.548,1.247-1.1c.017-.015.047-.015.071-.022-.009.024-.01.056-.027.072-.238.227-.478.452-.718.678s-.477.447-.713.673a2.634,2.634,0,0,1-.277.2,4.145,4.145,0,0,0-.514.433c-.5.52-1,1.048-1.5,1.577-.159.17-.3.359-.452.534-.108.122-.225.238-.344.349a.643.643,0,0,1-.282.141,1.188,1.188,0,0,0-.465.262q-.206.179-.415.355a.82.82,0,0,1-.1.063l-.012-.019.233-.211c.075-.066.152-.131.225-.2a2.082,2.082,0,0,1,.572-.329.92.92,0,0,0,.457-.365,6.953,6.953,0,0,1,.9-1.185c.427-.5.9-.971,1.279-1.511a4.647,4.647,0,0,0,.331-.614c.065-.129.116-.264.172-.4a.129.129,0,0,0,.015-.076,1.659,1.659,0,0,1-.03-.571c-.025.024-.042.039-.057.056-.315.371-.636.737-.944,1.114a4.407,4.407,0,0,1-.793.729c-.2.152-.411.3-.616.444a.216.216,0,0,0-.052.058c-.662,1.03-1.295,2.079-1.908,3.139a4.009,4.009,0,0,1-.242.342c-.009.012-.032.015-.049.022a.138.138,0,0,1,.006-.052c.15-.251.3-.5.452-.752.509-.872,1.032-1.736,1.6-2.572l.066-.1a.432.432,0,0,0-.047.017.944.944,0,0,1-.122.068.609.609,0,0,0-.312.291c-.52.867-1.045,1.732-1.566,2.6-.1.161-.184.328-.277.492a.365.365,0,0,1-.043.053l-.018-.009a.246.246,0,0,1,.014-.047c.582-1.114,1.242-2.181,1.928-3.233.017-.025.037-.046.01-.081-.011-.014,0-.051.009-.073a.192.192,0,0,1,.056-.065,1.127,1.127,0,0,0,.288-.352.253.253,0,0,1,.042-.059.168.168,0,0,1,.054-.022.141.141,0,0,1-.01.051,1.1,1.1,0,0,0-.1.157c.043-.033.089-.063.129-.1.183-.165.37-.327.545-.5.447-.445.9-.889,1.331-1.346a10.67,10.67,0,0,1,1.015-.944c.245-.2.507-.376.757-.568a3.345,3.345,0,0,0,.615-.629l-.054.047-.06.053c-.523.462-1.06.908-1.619,1.326-.007.005-.013.014-.021.016s-.044.009-.066.013c.008-.02.01-.047.024-.059.135-.112.273-.22.409-.332.477-.4.951-.795,1.432-1.186a.522.522,0,0,0,.171-.328c-.032.034-.064.069-.1.1-.314.3-.625.607-.944.9-.152.141-.319.268-.481.4a.3.3,0,0,1-.072.032l-.013-.017c.008-.013.013-.031.025-.039a6.278,6.278,0,0,0,.759-.69c.222-.212.441-.427.661-.641.029-.028.054-.06.083-.086a.874.874,0,0,0,.249-.455c-.015.013-.025.021-.034.03s-.02.024-.03.036a18.108,18.108,0,0,1-1.235,1.345c-.1.1-.207.182-.311.272a.123.123,0,0,1-.043.03.372.372,0,0,1-.071.007.181.181,0,0,1,.026-.06c.04-.042.087-.077.127-.118q.387-.4.772-.811.44-.465.878-.932c.031-.033.07-.064.05-.129l-.071.076q-.679.721-1.357,1.442c-.067.071-.139.137-.211.2a.189.189,0,0,1-.059.024.186.186,0,0,1,.023-.061q.213-.234.429-.466.454-.484.909-.966l.031-.035c-.108-.049-.109-.051-.183.029-.469.5-.989.953-1.5,1.415a4.852,4.852,0,0,1-.386.3.2.2,0,0,1-.069.018c.01-.024.013-.055.031-.07.664-.538,1.256-1.156,1.894-1.722.008-.007.014-.016.023-.025a.08.08,0,0,0-.122,0q-.892.8-1.788,1.6c-.2.177-.4.349-.6.523a.1.1,0,0,1-.061.025l2.4-2.217a.079.079,0,0,0-.111.01c-.413.375-.83.745-1.242,1.121-.258.235-.507.48-.765.715-.143.13-.3.247-.446.369a.094.094,0,0,1-.064.015l1.828-1.675-.011-.018a.755.755,0,0,0-.132.08q-.508.462-1.011.929c-.078.072-.149.152-.225.227a.218.218,0,0,1-.091.055,5.473,5.473,0,0,1,.467-.589c.171-.185.358-.355.538-.531l-.014-.015c-.105.086-.213.17-.316.259q-.318.274-.632.554a1.15,1.15,0,0,0-.094.111c-.083.1-.165.192-.251.285-.023.026-.057.067-.093.026-.012-.014.006-.065.023-.089.06-.088.134-.167.188-.259a2.777,2.777,0,0,1,.732-.793c.069-.052.134-.111.205-.159a1.54,1.54,0,0,0,.436-.491l-.492.4-.013-.011a1.082,1.082,0,0,1,.114-.134c.234-.2.477-.392.706-.6a2.575,2.575,0,0,0,.428-.456c.334-.5.771-.921,1.135-1.4.192-.253.378-.511.58-.755a.638.638,0,0,0,.147-.372c0-.035.01-.07.017-.119a.261.261,0,0,0-.04.036,6.322,6.322,0,0,1-.586.756c-.167.189-.332.379-.5.567-.2.228-.409.454-.614.681q-.279.311-.557.623l-.451.5q-.264.3-.527.594-.285.323-.567.647c-.215.246-.428.493-.645.737-.144.162-.293.32-.439.48a.112.112,0,0,0-.025.03.291.291,0,0,1-.311.184.32.32,0,0,0-.29.178c-.188.261-.374.525-.566.784-.08.108-.18.2-.263.307-.127.165-.247.335-.37.5-.047.066-.09.134-.138.2a.4.4,0,0,1-.247.138,2.927,2.927,0,0,1-.319.074c-.121.017-.245.018-.382.028-.079.108-.167.236-.261.358s-.214.268-.322.4-.237.289-.356.433-.228.274-.342.412c-.224.272-.446.546-.672.817-.179.215-.363.425-.543.638s-.369.443-.556.662c-.173.2-.347.405-.524.6q-.3.342-.615.678a.122.122,0,0,1-.106.029.162.162,0,0,1-.086-.09.13.13,0,0,1,.033-.1c.156-.175.32-.344.475-.519.193-.218.38-.44.569-.661.158-.184.316-.368.472-.553q.35-.414.7-.83c.184-.219.368-.437.55-.658.148-.18.291-.364.439-.544s.319-.375.471-.568c.177-.226.343-.461.519-.687a.176.176,0,0,1,.124-.067,2.4,2.4,0,0,0,.594-.056.492.492,0,0,0,.333-.264,5.514,5.514,0,0,1,.577-.752,3.829,3.829,0,0,0,.248-.315.069.069,0,0,0,0-.062c-.163-.258-.327-.516-.492-.773-.016-.025-.034-.049-.055-.078.057.016.057.016.166.19.046.073.1.143.146.214s.1.143.145.215.092.145.14.221l.046-.065c-.174-.264-.347-.523-.517-.786-.06-.093-.113-.19-.166-.288a.206.206,0,0,1-.009-.072c.021.015.048.025.061.045.175.264.348.53.522.8.051.077.1.154.157.235l.046-.063a3.888,3.888,0,0,1-.689-1.153l.721,1.09c.076-.067.078-.073.025-.15-.292-.426-.584-.853-.879-1.276-.275-.395-.555-.786-.834-1.179a.087.087,0,0,0-.113-.034.508.508,0,0,0-.2.133q-.317.287-.636.57c-.147.131-.3.259-.443.389-.226.2-.451.4-.676.6-.114.1-.225.207-.338.31-.236.214-.473.427-.708.642-.106.1-.208.2-.313.3s-.221.212-.339.309a.22.22,0,0,1-.221.038c-.129-.05-.254-.108-.38-.163a.683.683,0,0,1-.125-.057.175.175,0,0,0-.232.023c-.176.134-.352.27-.533.4-.117.083-.241.154-.365.226a.242.242,0,0,1-.119.032.131.131,0,0,0-.107.055c-.163.189-.33.374-.487.568-.274.338-.542.681-.81,1.024-.069.088-.124.186-.192.274a.14.14,0,0,1-.089.054c-.209.012-.419.016-.629.027-.1.006-.155.081-.21.154q-.334.445-.669.89-.438.58-.878,1.157c-.088.115-.182.227-.272.341-.02.026-.035.055-.055.082s-.027.043-.044.045c-.124.019-.161.133-.231.209-.115.127-.222.261-.333.392l-.392.457c-.083.1-.166.195-.25.291a.117.117,0,0,1-.186-.142c.071-.092.149-.18.225-.268q.209-.243.42-.485c.083-.095.169-.186.252-.281q.2-.23.4-.463c.133-.158.269-.314.4-.478.223-.286.439-.577.658-.866.047-.062.1-.123.155-.2-.034-.005-.055-.009-.076-.011-.227-.022-.455-.04-.682-.068-.287-.035-.572-.081-.859-.119-.22-.029-.44-.053-.659-.08-.093-.011-.187-.027-.28-.036a.064.064,0,0,0-.048.03c-.1.193-.2.39-.307.581q-.187.332-.389.655a.623.623,0,0,1-.259.21q-.32.162-.641.32a1.038,1.038,0,0,0-.367.313c-.1.133-.211.261-.326.383-.266.285-.539.565-.807.849-.167.177-.333.357-.5.537-.093.1-.183.2-.272.308-.065.075-.138.067-.215-.028v-.08c.1-.109.2-.219.308-.327.33-.344.665-.685.99-1.033.169-.18.324-.373.484-.562a4.084,4.084,0,0,1,.3-.359,1.592,1.592,0,0,1,.337-.225c.2-.11.411-.207.616-.312a.726.726,0,0,0,.287-.32c.18-.32.356-.643.536-.963.037-.067.086-.127.129-.191a.107.107,0,0,1,.116-.043c.149.022.3.045.447.065l.5.064q.2.027.4.056c.153.023.306.05.459.072s.295.044.442.06.3.03.454.038a.115.115,0,0,0,.078-.042q.309-.373.613-.75a.16.16,0,0,1,.146-.061c.11.007.221.012.331.013.066,0,.132-.007.2-.013a.162.162,0,0,0,.12-.086c.141-.2.287-.394.435-.587s.306-.391.463-.583c.088-.108.181-.211.274-.315s.2-.222.305-.333a.389.389,0,0,1,.221-.1.631.631,0,0,0,.249-.12,7.487,7.487,0,0,1,.806-.589c.093-.056.172-.01.251.026.159.074.316.151.472.23a.085.085,0,0,0,.114-.024c.2-.2.4-.39.606-.58.24-.223.484-.442.727-.662.182-.165.364-.331.548-.494q.391-.347.785-.691.334-.292.672-.579c.132-.113.266-.225.4-.334a.17.17,0,0,1,.226.05c.04.066.081.132.126.195.227.317.458.631.681.951.277.4.547.8.819,1.2.056.083.108.17.171.271.035-.041.066-.075.1-.112a.3.3,0,0,1,.243-.1.236.236,0,0,0,.229-.115,1.322,1.322,0,0,1,.159-.178c.208-.229.417-.458.622-.69.18-.2.356-.41.535-.614s.362-.406.542-.61l.628-.708q.224-.253.451-.5c.206-.229.412-.456.617-.685.183-.2.369-.406.547-.615a12.49,12.49,0,0,0,.838-1.02,1.446,1.446,0,0,1,.152-.163Zm8.782,8.082c.138-.123.27-.242.4-.358.189-.165.378-.33.569-.491a1.054,1.054,0,0,0,.342-.445l-.063.058c-.111.1-.22.206-.333.3-.181.158-.361.317-.548.467-.135.108-.279.2-.422.3a.141.141,0,0,1-.188-.033c-.02-.023-.037-.032-.064-.007-.046.041-.1.078-.142.118q-.218.189-.433.381c-.089.079-.175.16-.266.244l.087.083c.256-.193.507-.383.76-.57.032-.024.084-.054.111-.043a.066.066,0,0,0,.078-.015C146,321.085,146.033,321.06,146.073,321.116Zm1,.015-.413.447.03.05c.026-.031.047-.06.072-.085.088-.086.131-.218.267-.252a.32.32,0,0,1,.06,0,.181.181,0,0,1-.01.061.355.355,0,0,1-.056.074l-.96.991c-.024.024-.051.046-.08.073a.822.822,0,0,1,.089.033.1.1,0,0,0,.137-.029c.133-.131.271-.257.406-.386a3.473,3.473,0,0,0,.689-.819Zm.26,1.184-.627.644.3.344.241-.279.161-.184c.011-.013.03-.029.028-.041-.008-.053-.022-.1-.035-.162-.139.145-.275.291-.415.433-.017.017-.052.017-.078.026,0-.028,0-.064.014-.081.117-.133.237-.264.36-.391a.509.509,0,0,1,.132-.066C147.438,322.476,147.356,322.4,147.334,322.315Zm-.344-.462-.751.721.228.112.612-.616C147.021,322.012,146.96,321.96,146.991,321.854Zm6.948,1.392a.778.778,0,0,1-.1-.019.1.1,0,0,0-.122.044c-.076.1-.159.185-.238.277l-.237.271.17.125Zm.208.179-.521.7a.768.768,0,0,0,.121.029.325.325,0,0,0,.111-.013.127.127,0,0,0,.067-.042c.046-.063.079-.134.129-.193C154.174,323.763,154.135,323.589,154.147,323.424Zm-6.875-1.16-.145-.124a3.516,3.516,0,0,1-.617.6l.117.129Zm6.161.361-.719.731.138.115.073-.087c.155-.188.3-.381.469-.56A.159.159,0,0,0,153.433,322.625Zm.127.417-.03.03-.469.592.12.1.446-.533Zm-18.505.012-.261-.015c-.25-.017-.5-.034-.749-.053-.068-.005-.133-.011-.173.063a.074.074,0,0,0,.023.011c.163.02.325.042.488.056s.32.01.477.034A.155.155,0,0,0,135.055,323.054Zm-.757-.406,1.052-.128c.081-.01.082-.01.056-.083l-.9.055a.078.078,0,0,0-.043.013C134.414,322.548,134.363,322.593,134.3,322.648Zm19.274,1.425a.3.3,0,0,0,.023-.027c.146-.212.29-.425.437-.636a1.269,1.269,0,0,1,.1-.114c-.013-.01-.032-.037-.056-.042s-.046.019-.06.037c-.093.119-.182.241-.274.361l-.266.347Zm-18.325-1.242c-.157.009-.307.024-.456.025-.213,0-.426-.007-.638-.016a.116.116,0,0,0-.118.066.6.6,0,0,0,.073.012c.319.01.639.015.959.03C135.161,322.951,135.2,322.9,135.247,322.831Zm-1.527.32,0,.027c.06.011.12.025.18.034l.835.118a.121.121,0,0,0,.14-.089c-.155-.014-.309-.025-.463-.042-.2-.022-.39-.052-.586-.073A.331.331,0,0,0,133.719,323.151Zm.475-.417,0,.023h.073l.972-.013c.1,0,.126-.027.143-.127Zm19.3.176-.019,0-.535.623.061.077a.213.213,0,0,1,.015-.027c.15-.186.3-.371.447-.56A.313.313,0,0,0,153.491,322.91Zm-7.737-.5.016.023a.176.176,0,0,0,.055-.027c.176-.179.351-.358.526-.538l-.043-.023Zm-11.125-.021c0,.008,0,.015,0,.023l.781-.045-.023-.169c-.014,0-.02,0-.022.006a.605.605,0,0,1-.544.164A.75.75,0,0,0,134.629,322.386Zm11-.079-.011-.017.66-.647h0l-.69.626Zm-.174-.167c.019.047.042.035.07.01.14-.133.282-.264.421-.4.05-.048.093-.1.14-.153l-.01-.009Zm1.069-.315-.006-.007-.658.631.008.017c.018-.007.043-.008.055-.021.186-.187.371-.375.556-.563A.692.692,0,0,0,146.522,321.825Zm.408-.875-.4.437A1.07,1.07,0,0,0,146.93,320.95Zm-.758.93-.007-.009-.5.476.031.028Zm1.013,1.632c.059-.1-.043-.157-.035-.24l-.1.085Zm6.965.413-.012,0-.144.207c.12.026.138.013.145-.1C154.141,323.994,154.146,323.959,154.15,323.924Zm-1.672-.759c.026.018.046.041.068.044s.121-.11.119-.149Zm-15.312-9.357-.019-.016-.191.272.016.011Z" transform="translate(-113.894 -313.034)" fill="#091626"/>
              </g>
              <g id="Group_1305" data-name="Group 1305" transform="translate(6.161 4.001)">
                <path id="Path_29634" data-name="Path 29634" d="M184.756,360.691c.018-.02.035-.041.054-.059q.609-.584,1.217-1.168c.094-.091.083-.052.036-.179-.012-.031-.025-.061-.037-.089l-1.373,1.341-.02-.016a.832.832,0,0,1,.063-.083c.191-.2.383-.389.574-.585l.725-.746a.068.068,0,0,0,.019-.027c.028-.109.056-.218.088-.346a.421.421,0,0,0-.044.034q-.614.685-1.229,1.369a2.359,2.359,0,0,1-.212.2c-.018.016-.054.011-.082.016,0-.028,0-.063.011-.081.051-.067.109-.129.164-.193.021-.025.044-.048.069-.075-.08-.008-.089-.028-.048-.106.1-.19.2-.38.3-.57.01-.019.018-.039.028-.059l-.014-.015a1.768,1.768,0,0,0-.244.2,18.431,18.431,0,0,1-1.461,1.5q-.619.578-1.239,1.154a.474.474,0,0,1-.1.055.747.747,0,0,1,.068-.089c.886-.871,1.8-1.715,2.632-2.639l.014-.018c-.077-.025-.153-.052-.23-.071-.017,0-.047.017-.063.034-.19.206-.369.422-.569.618-.486.479-.98.95-1.473,1.421-.217.207-.441.407-.663.609a.492.492,0,0,1-.092.065.2.2,0,0,1-.063.01.192.192,0,0,1,.028-.052q.231-.222.463-.442c.507-.479,1.02-.953,1.522-1.438.273-.264.53-.545.794-.818a.1.1,0,0,0,.012-.018c-.1-.034-.193-.069-.29-.1a.074.074,0,0,0-.062.024c-.175.216-.347.434-.521.65a18.249,18.249,0,0,1-1.622,1.785,3.091,3.091,0,0,1-.25.2.163.163,0,0,1-.066.031.229.229,0,0,1-.067-.007c.009-.022.011-.051.027-.065.1-.093.211-.177.309-.272a22.3,22.3,0,0,0,1.806-2.006c.1-.121.2-.237.316-.367a1.813,1.813,0,0,0-.553.429c-.461.518-.909,1.048-1.381,1.556-.247.266-.534.5-.8.739-.017.015-.049.014-.075.02.007-.023.007-.053.022-.068.118-.117.236-.235.36-.346a14.259,14.259,0,0,0,1.224-1.273l.26-.295a.318.318,0,0,0,.059-.086c-.063.044-.123.093-.19.13-.117.066-.239.124-.357.189a.34.34,0,0,0-.106.084,7.037,7.037,0,0,1-.588.724c-.077.076-.137.169-.206.253-.117.142-.237.282-.353.425a2.593,2.593,0,0,0-.239.365c-.274.482-.56.958-.842,1.436,0,.006-.005.014-.01.017s-.035.017-.053.025c0-.018-.01-.039,0-.053.044-.1.086-.2.139-.287.179-.3.362-.606.544-.908l.035-.055-.013-.016a.248.248,0,0,0-.059.045q-.429.594-.857,1.189a.681.681,0,0,1-.063.065,3.979,3.979,0,0,1,.59-.979c.219-.308.448-.607.673-.91-.052.01-.106.019-.159.034a.1.1,0,0,0-.05.038l-1.048,1.413c-.026.036-.057.069-.086.1l-.023-.013a.219.219,0,0,1,.018-.06,16.794,16.794,0,0,1,.988-1.414c.017-.02.033-.042.05-.064-.045-.038-.075-.032-.111.013q-.532.662-1.069,1.321a.3.3,0,0,1-.076.05.28.28,0,0,1,.027-.084c.334-.455.683-.9,1.056-1.322l.027-.033-.119-.064c-.04.046-.084.093-.124.142-.191.228-.377.46-.548.7a4.778,4.778,0,0,1-.414.45c-.062.068-.115.146-.177.215-.081.09-.166.177-.252.263-.013.013-.042.01-.064.014,0-.024,0-.054.012-.071.035-.047.08-.088.118-.134.162-.2.315-.407.486-.6a2.158,2.158,0,0,0,.253-.4,2.416,2.416,0,0,1,.589-.683,1.1,1.1,0,0,1,.588-.206,2.02,2.02,0,0,0,.4-.1c.047-.015.084-.069.119-.112.227-.273.451-.549.678-.823.028-.034.063-.062.095-.094.1-.1.206-.2.305-.3.018-.019.018-.054.028-.082a.31.31,0,0,1,.033-.091,4.044,4.044,0,0,1,1.01-.979c.054-.035.105-.074.159-.109s.143-.012.19-.08c0,0,.033,0,.034.007a.36.36,0,0,1,0,.066c.075.048.085.045.166-.02a.516.516,0,0,1,.087-.047c-.014.031-.027.063-.041.094a.137.137,0,0,1-.021.025c.066.061.087.061.147,0a.679.679,0,0,1,.05-.054.113.113,0,0,1,.04-.012c0,.014.006.03,0,.041a.573.573,0,0,1-.042.063,1.032,1.032,0,0,0,.07.109c.025.03.055.048.1.012q.8-.7,1.607-1.394l.01-.009a1.227,1.227,0,0,0,.422-.493.547.547,0,0,1,.14-.166c.406-.36.816-.715,1.22-1.077a2.5,2.5,0,0,0,.22-.258.188.188,0,0,1,.045-.048.253.253,0,0,1,.07-.015.451.451,0,0,1,0,.072,1.009,1.009,0,0,1-.028.119.3.3,0,0,1-.036.092c-.133.18-.259.366-.4.536a4.782,4.782,0,0,0-.569.8,4.4,4.4,0,0,0-.246.617c-.057.158-.1.321-.15.483a.225.225,0,0,0-.005.111.26.26,0,0,1-.029.2c-.043.075-.091.147-.133.223a.184.184,0,0,0-.015.085c0,.033.011.066.01.1,0,.206-.007.413-.009.619a.313.313,0,0,0,.015.1.369.369,0,0,1-.038.33,3.17,3.17,0,0,1-.652.778,1.508,1.508,0,0,0-.2.258c-.123.168-.252.334-.367.508a3.546,3.546,0,0,0-.19.358.163.163,0,0,0-.009.071.927.927,0,0,1-.137.566c-.254.364-.5.732-.759,1.1a.475.475,0,0,1-.136.112.07.07,0,0,1-.068-.014.076.076,0,0,1,.012-.07.931.931,0,0,0,.185-.357,2.056,2.056,0,0,1,.288-.633c.108-.16.2-.329.3-.5a.432.432,0,0,0,.035-.32.442.442,0,0,1,.1-.423c.083-.088.163-.179.245-.269l-.011-.011-.816.762-.022-.022c.341-.379.732-.708,1.08-1.079l-.764.7-.021-.021c.015-.016.03-.032.045-.048.252-.244.5-.489.759-.73a.691.691,0,0,0,.147-.285c-.1.085-.205.167-.3.255-.194.176-.385.355-.578.533-.01.009-.018.022-.03.026a.13.13,0,0,1-.041,0c0-.014-.006-.032,0-.041a1.039,1.039,0,0,1,.108-.127q.38-.354.764-.7a.739.739,0,0,0,.269-.337l.01-.037-1.184,1.093-.017-.007a.16.16,0,0,1,.016-.057,1.131,1.131,0,0,1,.11-.124c.378-.357.759-.711,1.136-1.07a.955.955,0,0,0,.114-.166l-.017-.013-1.334,1.262Zm.131-.832.014.013.579-.643-.012-.012c-.079.13-.228.182-.316.3S184.976,359.745,184.887,359.858Zm.223-1.388-.014-.015-.185.165.014.016Z" transform="translate(-178.967 -355.296)" fill="#091626"/>
              </g>
              <g id="Group_1306" data-name="Group 1306" transform="translate(12.054 6.458)">
                <path id="Path_29635" data-name="Path 29635" d="M245.6,384.034a.3.3,0,0,0-.249.149c-.336.523-.684,1.039-1.027,1.557l-.951,1.432a1.138,1.138,0,0,1-.091.115c-.01.011-.029.014-.043.021,0-.017,0-.038,0-.051.085-.141.173-.279.258-.419.545-.9,1.16-1.746,1.755-2.609.026-.038.051-.077.077-.117-.062,0-.119,0-.175,0a.068.068,0,0,0-.045.028c-.355.52-.708,1.043-1.065,1.562-.133.194-.276.381-.416.57a.561.561,0,0,1-.087.092.156.156,0,0,1-.056.018.146.146,0,0,1,.012-.057c.063-.086.131-.168.193-.255q.622-.877,1.243-1.756a1.879,1.879,0,0,0,.116-.188.475.475,0,0,0-.237.12c-.267.323-.537.645-.8.975-.162.206-.308.424-.463.636a.329.329,0,0,1-.076.056.2.2,0,0,0-.044.033c-.028.037-.053.077-.079.115-.041.061-.084.114-.171.1a.163.163,0,0,0-.081.027,7.66,7.66,0,0,0-1.48.9c-.115.1-.225.2-.339.3a.218.218,0,0,1-.072.025c.006-.025,0-.057.018-.075a2.77,2.77,0,0,1,.708-.592c.256-.159.525-.3.788-.443.091-.051.18-.106.274-.15a2.161,2.161,0,0,1,.218-.075c.012,0,.028-.006.035-.015a1.876,1.876,0,0,0,.167-.215c.041-.069.057-.152.094-.223a1.151,1.151,0,0,1,.1-.132c.238-.335.47-.674.714-1a1.9,1.9,0,0,1,.422-.451c.072-.05.152-.09.227-.136.037-.023.069-.056.107-.078.094-.055.191-.1.285-.16a.375.375,0,0,0,.116-.1,14.042,14.042,0,0,1,1.019-1.207c.263-.3.519-.6.783-.9a2.113,2.113,0,0,1,.241-.218c.016-.013.051,0,.077,0a.22.22,0,0,1-.02.08,2.6,2.6,0,0,0-.188.24,17.37,17.37,0,0,1-1.065,1.572c-.156.217-.305.438-.462.653a23.474,23.474,0,0,0-1.226,2.078c-.2.346-.409.686-.616,1.027-.016.027-.053.042-.081.062a.615.615,0,0,1,.035-.092q.418-.739.838-1.476.373-.653.749-1.3C245.581,384.071,245.589,384.054,245.6,384.034Z" transform="translate(-241.214 -381.245)" fill="#091626"/>
              </g>
              <g id="Group_1307" data-name="Group 1307" transform="translate(1.768 10.28)">
                <path id="Path_29636" data-name="Path 29636" d="M134.249,424.73a1.024,1.024,0,0,1,.091-.351.732.732,0,0,0,.137-.406c-.226.237-.349.543-.586.759l-.021-.012a.14.14,0,0,1,.012-.044c.147-.2.292-.407.442-.608.117-.157.24-.308.358-.464a.181.181,0,0,0,.031-.09.062.062,0,0,0-.033-.051.084.084,0,0,0-.071.016c-.087.11-.165.226-.253.334-.227.276-.457.55-.688.823a.185.185,0,0,1-.1.052l1.006-1.258a.1.1,0,0,0-.132.024c-.173.191-.349.379-.519.572-.1.11-.184.228-.274.343-.052.066-.1.138-.153.2a.936.936,0,0,1-.123.1c-.036.029-.07.061-.106.09-.051.042-.1.084-.155.123a.184.184,0,0,1-.056.017c0-.022-.005-.039,0-.05.046-.075.094-.148.141-.223a.991.991,0,0,0,.074-.13,2.119,2.119,0,0,1,.317-.56c.054-.064.1-.136.146-.2l-.011-.022a1.528,1.528,0,0,0-.183.054.9.9,0,0,0-.128.083c-.022.014-.047.04-.068.039-.086-.006-.12.061-.167.109a3.746,3.746,0,0,0-.522.62c-.021.034-.043.066-.065.1l-.025-.025a4.091,4.091,0,0,1,.732-.876l-.019-.021a.458.458,0,0,0-.055.033c-.158.129-.315.26-.474.388-.027.022-.058.041-.087.06l-.017-.022c.061-.054.121-.111.184-.163a5.792,5.792,0,0,0,.477-.394c.3-.308.586-.631.877-.948.078-.085.152-.174.229-.26a.37.37,0,0,1,.052-.041l.02.02-1.04,1.2,0,.005c.04-.029.079-.06.121-.088a.356.356,0,0,1,.1-.057.309.309,0,0,0,.179-.128l.817-1.084.012-.016a1.18,1.18,0,0,0,.223-.567c.008-.046.01-.11.077-.105s.067.07.067.115c0,.208,0,.417-.006.625a2.372,2.372,0,0,1-.24.791.094.094,0,0,0,.039.132c.123.086.136.131.1.271a.476.476,0,0,0-.016.111.327.327,0,0,1-.133.264.519.519,0,0,0-.089.1c-.086.113-.163.234-.258.339a.516.516,0,0,0-.139.286.448.448,0,0,1-.034.092Zm-.371-1.266a.862.862,0,0,0,.268-.183c.229-.3.456-.595.684-.893a.059.059,0,0,0,.015-.029c0-.082,0-.163,0-.247C134.566,422.6,134.185,423,133.877,423.464Zm-.107.646.319-.357A.623.623,0,0,0,133.77,424.11Zm.911-1.406.019.012.122-.189-.016-.01Z" transform="translate(-132.57 -421.616)" fill="#091626"/>
              </g>
              <g id="Group_1308" data-name="Group 1308" transform="translate(23.679 3.441)">
                <path id="Path_29637" data-name="Path 29637" d="M364.787,350.859c.008.122.016.243.022.365a1.748,1.748,0,0,1,0,.2c0,.023-.028.044-.043.065a.22.22,0,0,1-.038-.057,4.506,4.506,0,0,1-.13-.474.537.537,0,0,0-.17-.362.448.448,0,0,1-.108-.2c-.1-.293-.2-.588-.3-.883-.014-.042-.049-.1,0-.126s.086.027.11.062c.146.209.287.422.434.631.087.123.178.243.274.359a.5.5,0,0,0,.147.113,1.029,1.029,0,0,1,.419.418c.084.153.152.315.228.473a.754.754,0,0,0,.044.081c.138.212.282.42.415.635.166.268.323.54.482.812.012.02,0,.051.005.078-.026-.008-.064-.008-.076-.026-.12-.17-.236-.343-.353-.516s-.225-.341-.343-.507c-.21-.294-.421-.588-.641-.875a1.306,1.306,0,0,0-.243-.2,1.424,1.424,0,0,0-.125-.081Z" transform="translate(-364.002 -349.382)" fill="#091626"/>
              </g>
              <g id="Group_1309" data-name="Group 1309" transform="translate(25.402 3.235)">
                <path id="Path_29638" data-name="Path 29638" d="M384.707,350.268c-.01.014-.02.036-.031.037a.067.067,0,0,1-.047-.022,7.337,7.337,0,0,1-.666-.939c-.134-.2-.285-.4-.436-.588-.03-.038-.1-.048-.146-.07l-.114-.051a.053.053,0,0,0-.03-.007c-.115.039-.188-.032-.254-.1a1.58,1.58,0,0,1-.282-.418,3.794,3.794,0,0,0-.413-.714.681.681,0,0,1-.073-.119c-.008-.018,0-.045,0-.067.019.006.044.007.058.02a3,3,0,0,1,.492.542c.071.108.135.22.214.322s.167.181.248.275a1.556,1.556,0,0,1,.087.136c.012.018.033.042.05.043a.373.373,0,0,1,.3.172c.129.188.288.356.416.546.194.287.373.584.557.877A1.427,1.427,0,0,1,384.707,350.268Z" transform="translate(-382.211 -347.205)" fill="#091626"/>
              </g>
              <g id="Group_1310" data-name="Group 1310" transform="translate(15.093 8.397)">
                <path id="Path_29639" data-name="Path 29639" d="M275.466,401.744a.888.888,0,0,1-.04.084q-.466.787-.934,1.573c-.277.463-.558.923-.836,1.386-.086.143-.168.287-.253.43a.136.136,0,0,1-.032.042.047.047,0,0,1-.041.006c-.008,0-.012-.026-.01-.039a.15.15,0,0,1,.021-.041c.421-.811.91-1.581,1.4-2.351.221-.348.435-.7.652-1.052a.474.474,0,0,1,.047-.055Z" transform="translate(-273.32 -401.728)" fill="#091626"/>
              </g>
              <g id="Group_1311" data-name="Group 1311" transform="translate(15.123 8.306)">
                <path id="Path_29640" data-name="Path 29640" d="M273.638,404.762a.112.112,0,0,1,.014-.042,6.32,6.32,0,0,0,.605-.961c.406-.687.823-1.368,1.233-2.053.178-.3.35-.6.526-.894.009-.015.02-.03.031-.045l.021.008a.318.318,0,0,1-.019.064c-.145.262-.285.526-.438.783-.328.548-.666,1.09-.994,1.638-.222.371-.432.749-.653,1.12-.067.112-.153.212-.23.318-.021.028-.044.054-.066.082Z" transform="translate(-273.638 -400.768)" fill="#091626"/>
              </g>
              <g id="Group_1312" data-name="Group 1312" transform="translate(16.425 5.314)">
                <path id="Path_29641" data-name="Path 29641" d="M287.662,370.081a.154.154,0,0,1-.041-.023.651.651,0,0,1-.17-.333.479.479,0,0,1,.014-.115.228.228,0,0,0,0-.075c-.024-.1-.052-.192-.076-.289a.112.112,0,0,1,0-.058.05.05,0,0,1,.031-.027c.007,0,.023.013.027.023.048.14.1.28.138.422.01.035-.026.082-.018.119.02.09.053.177.081.264.008.026.02.05.03.075Z" transform="translate(-287.386 -369.16)" fill="#091626"/>
              </g>
              <g id="Group_1313" data-name="Group 1313" transform="translate(16.26 4.671)">
                <path id="Path_29642" data-name="Path 29642" d="M285.661,362.372l.038.051c.064.093.13.184.19.279a2.091,2.091,0,0,1,.1.2c0,.009-.005.026-.008.039-.011,0-.027-.006-.032-.014q-.154-.259-.306-.519c0-.008,0-.021,0-.031Z" transform="translate(-285.645 -362.372)" fill="#091626"/>
              </g>
              <g id="Group_1314" data-name="Group 1314" transform="translate(16.219 4.825)">
                <path id="Path_29643" data-name="Path 29643" d="M285.462,364.4c-.014-.01-.032-.016-.041-.03q-.107-.163-.21-.329c-.005-.008,0-.023,0-.035s.027,0,.034.009a.318.318,0,0,1,.045.057c.064.1.127.205.191.308Z" transform="translate(-285.208 -364.003)" fill="#091626"/>
              </g>
              <g id="Group_1315" data-name="Group 1315" transform="translate(31.036 6.788)">
                <path id="Path_29644" data-name="Path 29644" d="M442.86,386.031c-.041-.057-.074-.031-.107-.006a.066.066,0,0,1-.078.015c-.027-.011-.079.019-.111.043-.253.188-.5.378-.761.57l-.087-.083c.091-.084.177-.165.266-.244q.215-.192.433-.38c.046-.041.1-.077.142-.118.027-.025.044-.015.064.007a.141.141,0,0,0,.188.033c.143-.1.287-.193.422-.3.187-.15.367-.309.548-.466.114-.1.222-.2.333-.305l.063-.058a1.053,1.053,0,0,1-.342.445c-.192.162-.381.326-.57.491C443.13,385.79,443,385.909,442.86,386.031Z" transform="translate(-441.717 -384.737)" fill="#c52a1f"/>
              </g>
              <g id="Group_1316" data-name="Group 1316" transform="translate(32.092 8.097)">
                <path id="Path_29645" data-name="Path 29645" d="M453.958,398.56l.233.154a3.474,3.474,0,0,1-.689.819c-.135.128-.273.254-.406.386a.1.1,0,0,1-.137.029.856.856,0,0,0-.089-.033c.029-.027.056-.049.08-.073l.96-.991a.351.351,0,0,0,.056-.074.184.184,0,0,0,.01-.061.316.316,0,0,0-.06,0c-.135.034-.179.167-.267.252-.025.025-.046.054-.072.085l-.031-.05Z" transform="translate(-452.869 -398.56)" fill="#c52a1f"/>
              </g>
              <g id="Group_1317" data-name="Group 1317" transform="translate(32.814 9.281)">
                <path id="Path_29646" data-name="Path 29646" d="M461.121,411.07c.021.087.1.161.082.244a.506.506,0,0,0-.132.066c-.124.127-.243.258-.36.391-.015.017-.01.053-.014.081.026-.008.061-.008.078-.026.14-.142.276-.287.415-.433.013.058.027.109.035.162,0,.012-.017.028-.028.04l-.161.184-.241.279-.3-.345Z" transform="translate(-460.494 -411.07)" fill="#c52a1f"/>
              </g>
              <g id="Group_1318" data-name="Group 1318" transform="translate(32.346 8.82)">
                <path id="Path_29647" data-name="Path 29647" d="M456.3,406.193c-.031.106.03.158.089.217l-.612.616-.228-.112Z" transform="translate(-455.553 -406.193)" fill="#c52a1f"/>
              </g>
              <g id="Group_1319" data-name="Group 1319" transform="translate(39.348 10.185)">
                <path id="Path_29648" data-name="Path 29648" d="M530.209,420.643l-.527.7-.17-.125.237-.271c.08-.092.162-.181.239-.277a.1.1,0,0,1,.122-.044A.783.783,0,0,0,530.209,420.643Z" transform="translate(-529.512 -420.617)" fill="#c52a1f"/>
              </g>
              <g id="Group_1320" data-name="Group 1320" transform="translate(39.732 10.39)">
                <path id="Path_29649" data-name="Path 29649" d="M534.093,422.785c-.013.164.027.339-.094.485-.049.059-.083.131-.129.193a.128.128,0,0,1-.067.042.328.328,0,0,1-.111.013.748.748,0,0,1-.121-.029Z" transform="translate(-533.572 -422.785)" fill="#c52a1f"/>
              </g>
              <g id="Group_1321" data-name="Group 1321" transform="translate(32.616 9.106)">
                <path id="Path_29650" data-name="Path 29650" d="M459.172,409.343l-.644.609-.117-.129a3.525,3.525,0,0,0,.617-.6Z" transform="translate(-458.41 -409.219)" fill="#c52a1f"/>
              </g>
              <g id="Group_1322" data-name="Group 1322" transform="translate(38.82 9.591)">
                <path id="Path_29651" data-name="Path 29651" d="M524.653,414.34a.159.159,0,0,1-.039.2c-.164.179-.314.373-.469.56l-.073.087-.138-.115Z" transform="translate(-523.934 -414.34)" fill="#c52a1f"/>
              </g>
              <g id="Group_1323" data-name="Group 1323" transform="translate(39.168 10.008)">
                <path id="Path_29652" data-name="Path 29652" d="M528.107,418.746l.068.19-.446.533-.12-.1.469-.592Z" transform="translate(-527.609 -418.746)" fill="#c52a1f"/>
              </g>
              <g id="Group_1324" data-name="Group 1324" transform="translate(19.977 9.95)">
                <path id="Path_29653" data-name="Path 29653" d="M326.092,418.2a.155.155,0,0,1-.2.1c-.157-.024-.318-.02-.477-.034s-.325-.037-.488-.056a.073.073,0,0,1-.023-.011c.04-.074.105-.068.173-.062.25.019.5.036.749.053Z" transform="translate(-324.908 -418.133)" fill="#c52a1f"/>
              </g>
              <g id="Group_1325" data-name="Group 1325" transform="translate(20.404 9.403)">
                <path id="Path_29654" data-name="Path 29654" d="M329.41,412.564c.065-.055.117-.1.17-.143a.079.079,0,0,1,.043-.013l.9-.055c.026.073.025.073-.056.083Z" transform="translate(-329.41 -412.352)" fill="#c52a1f"/>
              </g>
              <g id="Group_1326" data-name="Group 1326" transform="translate(39.582 10.22)">
                <path id="Path_29655" data-name="Path 29655" d="M532.079,421.807l-.1-.073.266-.348c.091-.12.181-.242.274-.361.014-.018.043-.04.06-.037s.044.032.056.042a1.26,1.26,0,0,0-.1.114c-.147.211-.291.424-.437.636C532.1,421.788,532.091,421.794,532.079,421.807Z" transform="translate(-531.984 -420.988)" fill="#c52a1f"/>
              </g>
              <g id="Group_1327" data-name="Group 1327" transform="translate(20.141 9.797)">
                <path id="Path_29656" data-name="Path 29656" d="M327.845,416.514c-.047.068-.086.12-.18.116-.319-.015-.639-.02-.959-.03a.614.614,0,0,1-.073-.012.115.115,0,0,1,.118-.066c.212.009.425.017.638.016C327.538,416.538,327.688,416.523,327.845,416.514Z" transform="translate(-326.633 -416.514)" fill="#c52a1f"/>
              </g>
              <g id="Group_1328" data-name="Group 1328" transform="translate(19.825 10.09)">
                <path id="Path_29657" data-name="Path 29657" d="M323.3,419.637a.329.329,0,0,1,.109-.026c.2.022.39.051.586.073.154.017.308.029.464.042a.121.121,0,0,1-.14.089l-.835-.118c-.06-.009-.12-.023-.18-.034C323.3,419.655,323.3,419.646,323.3,419.637Z" transform="translate(-323.302 -419.61)" fill="#c52a1f"/>
              </g>
              <g id="Group_1329" data-name="Group 1329" transform="translate(20.3 9.584)">
                <path id="Path_29658" data-name="Path 29658" d="M328.317,414.38l1.19-.116c-.016.1-.047.126-.143.127l-.972.013h-.073Z" transform="translate(-328.317 -414.264)" fill="#c52a1f"/>
              </g>
              <g id="Group_1330" data-name="Group 1330" transform="translate(39.044 9.874)">
                <path id="Path_29659" data-name="Path 29659" d="M526.855,417.328a.312.312,0,0,1-.03.111c-.147.189-.3.374-.447.56a.206.206,0,0,0-.015.027l-.061-.077.535-.623Z" transform="translate(-526.301 -417.326)" fill="#c52a1f"/>
              </g>
              <g id="Group_1331" data-name="Group 1331" transform="translate(31.86 8.809)">
                <path id="Path_29660" data-name="Path 29660" d="M450.424,406.644l.553-.564.043.023c-.175.179-.35.359-.526.538a.178.178,0,0,1-.055.027Z" transform="translate(-450.424 -406.08)" fill="#c52a1f"/>
              </g>
              <g id="Group_1332" data-name="Group 1332" transform="translate(20.735 9.161)">
                <path id="Path_29661" data-name="Path 29661" d="M332.915,409.99a.749.749,0,0,1,.193-.021.605.605,0,0,0,.544-.164s.008,0,.022-.006l.023.169-.781.045Z" transform="translate(-332.915 -409.799)" fill="#c52a1f"/>
              </g>
              <g id="Group_1333" data-name="Group 1333" transform="translate(31.69 8.607)">
                <path id="Path_29662" data-name="Path 29662" d="M448.668,404.616l-.043-.04.69-.626h0l-.66.647Z" transform="translate(-448.625 -403.951)" fill="#c52a1f"/>
              </g>
              <g id="Group_1334" data-name="Group 1334" transform="translate(31.559 8.555)">
                <path id="Path_29663" data-name="Path 29663" d="M447.242,403.946l.621-.551.01.009c-.046.051-.09.105-.14.153-.139.134-.281.266-.421.4C447.285,403.982,447.261,403.993,447.242,403.946Z" transform="translate(-447.242 -403.395)" fill="#c52a1f"/>
              </g>
              <g id="Group_1335" data-name="Group 1335" transform="translate(31.964 8.784)">
                <path id="Path_29664" data-name="Path 29664" d="M452.18,405.822a.7.7,0,0,1-.044.057q-.277.282-.556.563c-.013.013-.037.014-.055.021l-.008-.017.658-.631Z" transform="translate(-451.516 -405.815)" fill="#c52a1f"/>
              </g>
              <g id="Group_1336" data-name="Group 1336" transform="translate(32.634 7.916)">
                <path id="Path_29665" data-name="Path 29665" d="M459,396.648a1.071,1.071,0,0,1-.4.437Z" transform="translate(-458.598 -396.648)" fill="#c52a1f"/>
              </g>
              <g id="Group_1337" data-name="Group 1337" transform="translate(31.774 8.837)">
                <path id="Path_29666" data-name="Path 29666" d="M450.016,406.384l-.473.495-.031-.028.5-.476Z" transform="translate(-449.512 -406.375)" fill="#c52a1f"/>
              </g>
              <g id="Group_1338" data-name="Group 1338" transform="translate(33.156 10.237)">
                <path id="Path_29667" data-name="Path 29667" d="M464.25,421.408l-.135-.156.1-.085C464.207,421.252,464.309,421.312,464.25,421.408Z" transform="translate(-464.115 -421.168)" fill="#c52a1f"/>
              </g>
              <g id="Group_1339" data-name="Group 1339" transform="translate(40.1 10.887)">
                <path id="Path_29668" data-name="Path 29668" d="M537.613,428.034c0,.035-.01.07-.012.105-.006.112-.024.125-.145.1l.144-.207Z" transform="translate(-537.457 -428.031)" fill="#c52a1f"/>
              </g>
              <g id="Group_1340" data-name="Group 1340" transform="translate(38.584 10.026)">
                <path id="Path_29669" data-name="Path 29669" d="M521.447,419.043l.187-.105c0,.039-.084.154-.119.149S521.473,419.061,521.447,419.043Z" transform="translate(-521.447 -418.938)" fill="#c52a1f"/>
              </g>
              <g id="Group_1341" data-name="Group 1341" transform="translate(23.062 0.759)">
                <path id="Path_29670" data-name="Path 29670" d="M357.7,321.065l-.194.267-.016-.011.192-.272Z" transform="translate(-357.487 -321.049)" fill="#c52a1f"/>
              </g>
              <g id="Group_1342" data-name="Group 1342" transform="translate(12.081 7.92)">
                <path id="Path_29671" data-name="Path 29671" d="M241.5,397.337c.089-.113.181-.223.265-.339s.237-.174.316-.3l.012.012-.579.644Z" transform="translate(-241.497 -396.694)" fill="#c52a1f"/>
              </g>
              <g id="Group_1343" data-name="Group 1343" transform="translate(12.104 7.16)">
                <path id="Path_29672" data-name="Path 29672" d="M241.94,388.681l-.186.166-.014-.016.185-.165Z" transform="translate(-241.74 -388.666)" fill="#c52a1f"/>
              </g>
              <g id="Group_1344" data-name="Group 1344" transform="translate(3.075 10.777)">
                <path id="Path_29673" data-name="Path 29673" d="M146.379,428.222c.308-.463.689-.869.968-1.351,0,.083,0,.165,0,.247a.059.059,0,0,1-.015.029c-.228.3-.455.6-.684.893A.86.86,0,0,1,146.379,428.222Z" transform="translate(-146.379 -426.871)" fill="#fff"/>
              </g>
              <g id="Group_1345" data-name="Group 1345" transform="translate(2.968 12.417)">
                <path id="Path_29674" data-name="Path 29674" d="M145.244,444.552a.623.623,0,0,1,.319-.357Z" transform="translate(-145.244 -444.195)" fill="#fff"/>
              </g>
              <g id="Group_1346" data-name="Group 1346" transform="translate(3.879 11.181)">
                <path id="Path_29675" data-name="Path 29675" d="M154.864,431.319l.125-.187.016.01-.122.189Z" transform="translate(-154.864 -431.131)" fill="#fff"/>
              </g>
            </g>
          </g>
        </g>
      </g>
    </g>
    <g id="Group_9916" data-name="Group 9916" transform="translate(1.248 1.247)">
      <g id="Group_9914" data-name="Group 9914" transform="translate(0.426 17.515)">
        <path id="Path_29785" data-name="Path 29785" d="M1313.49,492.627l-.1-.27,1.25-1.017-2.1.754-.187-.519,3.108-1.117.232.646-1.284,1.039,1.652-.016.232.646-3.107,1.117-.187-.519,2.1-.754Z" transform="translate(-1312.359 -490.435)" fill="#ffbfa8"/>
        <path id="Path_29786" data-name="Path 29786" d="M1335.913,541.157l2.9-1.574.263.485-2.9,1.574Z" transform="translate(-1334.709 -537.049)" fill="#ffbfa8"/>
        <path id="Path_29787" data-name="Path 29787" d="M1347.51,555.9l2.682-1.927.347.483-1.226,1.764,1.644-1.182.322.448-2.682,1.927-.347-.483,1.226-1.764-1.644,1.181Z" transform="translate(-1345.714 -550.704)" fill="#ffbfa8"/>
        <path id="Path_29788" data-name="Path 29788" d="M1378,589.4l2.414-2.253.376.4-2.414,2.253Z" transform="translate(-1374.646 -582.186)" fill="#ffbfa8"/>
        <path id="Path_29789" data-name="Path 29789" d="M1394.658,601.779l2.1-2.544.459.379-.738,2.017,1.29-1.56.425.352-2.1,2.544-.459-.379.738-2.017-1.291,1.56Z" transform="translate(-1390.451 -593.651)" fill="#ffbfa8"/>
        <path id="Path_29790" data-name="Path 29790" d="M1438.388,630l1.367-2.4.367-.1,1,.569.1.367-.337.593-.48-.273.178-.313-.021-.087-.4-.226-.089.024-1.042,1.831.024.089.4.226.085-.027.327-.574-.234-.133.269-.472.714.406-.761,1.336-.367.1-1-.57Z" transform="translate(-1431.946 -620.472)" fill="#ffbfa8"/>
        <path id="Path_29791" data-name="Path 29791" d="M1501.981,654.282l.741-2.662.332-.187,1.071.3.187.332-.183.657-.532-.148.093-.335-.045-.08-.4-.112-.08.045-.562,2.017.045.08.4.112.08-.045.093-.335.531.148-.183.657-.332.187-1.071-.3Z" transform="translate(-1492.289 -643.182)" fill="#ffbfa8"/>
        <path id="Path_29792" data-name="Path 29792" d="M1548.219,660.383l-.305,2.746-.3.238-1.106-.123-.238-.3.3-2.746.3-.238,1.105.123Zm-.647.2-.415-.046-.067.054-.233,2.094.054.067.414.046.071-.053.233-2.094Z" transform="translate(-1534.316 -651.276)" fill="#ffbfa8"/>
        <path id="Path_29793" data-name="Path 29793" d="M1589.745,664.981l-.175-3.3,1.423-.076.283.255.078,1.475-.254.283.337,1.27-.542.029-.337-1.27-.33.017.068,1.284Zm.984-1.875.057-.068-.043-.816-.064-.057-.53.028.05.941Z" transform="translate(-1575.401 -652.837)" fill="#ffbfa8"/>
        <path id="Path_29794" data-name="Path 29794" d="M1627.333,658.326l-.709-3.225,1.371-.3.321.205.318,1.443-.206.321-.832.183.276,1.256Zm.636-2,.05-.077-.175-.8-.076-.045-.489.107.2.921Z" transform="translate(-1610.56 -646.377)" fill="#ffbfa8"/>
        <path id="Path_29795" data-name="Path 29795" d="M1665.375,642.731l1.023,2.567-.151.35-1.033.412-.35-.15-1.023-2.567.15-.35,1.033-.412Zm-.477.481-.388.154-.034.079.781,1.957.079.034.387-.154.038-.08-.78-1.958Z" transform="translate(-1645.875 -634.782)" fill="#ffbfa8"/>
        <path id="Path_29796" data-name="Path 29796" d="M1697.86,627.659l-1.707-2.827,1.22-.737.37.091.764,1.265-.091.37.9.962-.465.281-.9-.962-.283.171.665,1.1Zm-.015-2.118.018-.087-.422-.7-.084-.021-.453.274.487.807Z" transform="translate(-1676.535 -617.242)" fill="#ffbfa8"/>
        <path id="Path_29797" data-name="Path 29797" d="M1739.354,606l-.513.443.354.636-.427.369-1.566-3.01.408-.352,2.75,1.988-.428.369Zm-.431-.333-.9-.691.553.992Z" transform="translate(-1715.485 -598.258)" fill="#ffbfa8"/>
        <path id="Path_29798" data-name="Path 29798" d="M1753.2,573.588l-.393.447,2.077,1.829-.365.414-2.077-1.829-.394.447-.4-.353,1.151-1.307Z" transform="translate(-1729.197 -568.981)" fill="#ffbfa8"/>
        <path id="Path_29799" data-name="Path 29799" d="M1778.257,563.916l-2.709-1.887.315-.453,2.709,1.887Z" transform="translate(-1751.871 -557.918)" fill="#ffbfa8"/>
        <path id="Path_29800" data-name="Path 29800" d="M1788.428,531.253l2.44,1.3.111.364-.522.982-.364.111-2.44-1.3-.111-.364.522-.982Zm-.053.675-.2.368.025.082,1.861.989.082-.025.2-.369-.023-.086-1.861-.989Z" transform="translate(-1763.253 -529.145)" fill="#ffbfa8"/>
        <path id="Path_29801" data-name="Path 29801" d="M1805.31,492.811l-3.138-1.028.185-.566,2.147-.051-1.924-.63.172-.524,3.138,1.028-.185.566-2.147.051,1.924.63Z" transform="translate(-1777.135 -490.012)" fill="#ffbfa8"/>
      </g>
      <g id="Group_9915" data-name="Group 9915" transform="translate(0 0)">
        <path id="Path_29802" data-name="Path 29802" d="M1307.317,424.984l-3.277.042-.018-1.414.264-.271,1.466-.019.271.264,1.273-.284.007.539-1.273.284,0,.328,1.277-.016Zm-1.821-1.051-.065-.059-.811.01-.06.061.007.526.936-.012Z" transform="translate(-1304.021 -409.197)" fill="#ffbfa8"/>
        <path id="Path_29803" data-name="Path 29803" d="M1308.341,381.145l-3.243-.479.23-1.553.525.078-.149,1.011.806.119.111-.751.525.078-.111.751.862.127.149-1.011.525.078Z" transform="translate(-1305.043 -367.267)" fill="#ffbfa8"/>
        <path id="Path_29804" data-name="Path 29804" d="M1313.166,336.177l.335-.174,2.616.827.174.336-.419,1.324-3.126-.988Zm2.51,1.16-.043-.077-1.995-.63-.08.038-.147.465,2.118.669Z" transform="translate(-1312.301 -326.359)" fill="#ffbfa8"/>
        <path id="Path_29805" data-name="Path 29805" d="M1342.436,258.941l-.158.237-1.551-.395,1.842,1.226-.3.456-2.728-1.816.377-.567,1.587.409-.99-1.307.377-.567,2.728,1.816-.3.456-1.842-1.226Z" transform="translate(-1337.722 -251.032)" fill="#ffbfa8"/>
        <path id="Path_29806" data-name="Path 29806" d="M1382.409,224.732l1.94,1.94v.378l-.781.781h-.378l-1.94-1.94v-.378l.781-.781Zm-.247.625-.293.293v.085l1.48,1.479h.085l.293-.293,0-.088-1.479-1.479Z" transform="translate(-1377.303 -220.777)" fill="#ffbfa8"/>
        <path id="Path_29807" data-name="Path 29807" d="M1415.233,194.763l-.062.373-.9.641-.373-.062-1.749-2.45.446-.318,1.561,2.187.084.014.344-.246.014-.084-1.561-2.187.446-.318Z" transform="translate(-1406.623 -190.015)" fill="#ffbfa8"/>
        <path id="Path_29808" data-name="Path 29808" d="M1454.138,171.9l-1.374-2.976.536-.248,1.489,1.526-.843-1.825.5-.23,1.375,2.976-.536.248-1.489-1.526.843,1.825Z" transform="translate(-1445.16 -167.086)" fill="#ffbfa8"/>
        <path id="Path_29809" data-name="Path 29809" d="M1498.7,154.784l-.568.165.766,2.639-.526.153-.766-2.639-.568.165-.148-.51,1.661-.482Z" transform="translate(-1487.036 -153.92)" fill="#ffbfa8"/>
        <path id="Path_29810" data-name="Path 29810" d="M1542.116,152.376l-.666.1-.043.721-.555.081.294-3.356.529-.077,1.243,3.131-.555.081Zm-.183-.509-.386-1.059-.066,1.126Z" transform="translate(-1528.748 -149.715)" fill="#ffbfa8"/>
        <path id="Path_29811" data-name="Path 29811" d="M1583.151,150.806l-.057-3.278.548-.009.057,3.278Z" transform="translate(-1568.829 -147.51)" fill="#ffbfa8"/>
        <path id="Path_29812" data-name="Path 29812" d="M1600.5,150.61l.365-3.258.587.066.484,2.077.224-2,.545.061-.365,3.258-.587-.066-.484-2.077-.224,2Z" transform="translate(-1585.342 -147.352)" fill="#ffbfa8"/>
        <path id="Path_29813" data-name="Path 29813" d="M1664.1,163.868l-.987,2.559-.346.153-1.03-.4-.153-.346.986-2.559.346-.153,1.03.4Zm-.672.028-.386-.149-.078.035-.752,1.952.035.078.386.149.082-.033.752-1.952Z" transform="translate(-1643.309 -162.319)" fill="#ffbfa8"/>
        <path id="Path_29814" data-name="Path 29814" d="M1697.224,180.24l-.266.459-.884-.512-.422.728.653.378-.266.459-.653-.378-.689,1.191-.474-.275,1.642-2.837Z" transform="translate(-1674.277 -177.812)" fill="#ffbfa8"/>
        <path id="Path_29815" data-name="Path 29815" d="M1726.8,203.358l-.332.414-.8-.64-.527.656.589.473-.332.414-.589-.472-.861,1.073-.427-.343,2.052-2.556Z" transform="translate(-1702.084 -199.563)" fill="#ffbfa8"/>
        <path id="Path_29816" data-name="Path 29816" d="M1757.584,234.2l-.433-.537,1.54-1.678-1.967,1.147-.433-.537,2.16-2.543.349.433-1.589,1.8,2.09-1.18.379.47-1.6,1.791,2.1-1.17.349.433Z" transform="translate(-1733.172 -225.824)" fill="#ffbfa8"/>
        <path id="Path_29817" data-name="Path 29817" d="M1794.087,298.059l-2.452,1.231-.359-.119-.5-.987.119-.359,2.452-1.231.359.119.5.987Zm-.516-.431-.186-.37-.081-.027-1.87.938-.027.081.186.37.083.031,1.869-.938Z" transform="translate(-1765.9 -288.965)" fill="#ffbfa8"/>
        <path id="Path_29818" data-name="Path 29818" d="M1804.656,338.946l3.137-.95.41,1.354-.179.333-1.4.425-.333-.178-1.145.626-.156-.516,1.145-.626-.095-.314-1.222.37Zm2.041.5.08.039.776-.235.04-.075-.153-.5-.9.271Z" transform="translate(-1779.066 -328.251)" fill="#ffbfa8"/>
        <path id="Path_29819" data-name="Path 29819" d="M1815.126,385.624l-.208-1.491,3.246-.453.077.547-2.721.38.132.944Z" transform="translate(-1788.803 -371.6)" fill="#ffbfa8"/>
        <path id="Path_29820" data-name="Path 29820" d="M1821.993,425.881l-.272.263-2.743-.046-.263-.272.023-1.389,3.278.055Zm-2.737-.4.064.062,2.091.035.066-.059.009-.487-2.221-.038Z" transform="translate(-1792.406 -410.274)" fill="#ffbfa8"/>
      </g>
    </g>
    <path id="Subtraction_84" data-name="Subtraction 84" d="M10.875,21.751a10.956,10.956,0,0,1-2.192-.221,10.814,10.814,0,0,1-3.889-1.636,10.908,10.908,0,0,1-3.94-4.785,10.823,10.823,0,0,1-.634-2.041,10.981,10.981,0,0,1,0-4.383A10.815,10.815,0,0,1,1.857,4.795,10.907,10.907,0,0,1,6.642.855,10.824,10.824,0,0,1,8.684.221a10.98,10.98,0,0,1,4.383,0,10.816,10.816,0,0,1,3.889,1.636A10.907,10.907,0,0,1,20.9,6.642a10.819,10.819,0,0,1,.634,2.041,10.981,10.981,0,0,1,0,4.383,10.814,10.814,0,0,1-1.636,3.889,10.908,10.908,0,0,1-4.785,3.94,10.825,10.825,0,0,1-2.041.634A10.956,10.956,0,0,1,10.875,21.751Zm0-21.407A10.605,10.605,0,0,0,8.753.558,10.473,10.473,0,0,0,4.987,2.142,10.563,10.563,0,0,0,1.171,6.776,10.48,10.48,0,0,0,.558,8.753,10.634,10.634,0,0,0,.558,13a10.474,10.474,0,0,0,1.585,3.766,10.564,10.564,0,0,0,4.634,3.816,10.482,10.482,0,0,0,1.977.614,10.635,10.635,0,0,0,4.245,0,10.472,10.472,0,0,0,3.766-1.585,10.562,10.562,0,0,0,3.816-4.634A10.477,10.477,0,0,0,21.193,13a10.635,10.635,0,0,0,0-4.245,10.473,10.473,0,0,0-1.585-3.766,10.562,10.562,0,0,0-4.634-3.816A10.477,10.477,0,0,0,13,.558,10.606,10.606,0,0,0,10.875.344Z" transform="translate(5.186 5.186)" fill="#091626" stroke="rgba(0,0,0,0)" stroke-width="1"/>
  </g>
</svg>
