<svg xmlns="http://www.w3.org/2000/svg"  viewBox="0 0 163.076 19.072">
  <g id="Group_54056" data-name="Group 54056" transform="translate(-73.148 -84.492)">
    <path id="Path_34108" data-name="Path 34108" d="M9.387-51.929h12.52l2.582-2.582v-6.118l-2.582-2.582h-7.1l-.645-.645v-.981l.645-.645H24.1l.387-.387v-3.743L24.1-70H11.582L9-67.418V-61.3l2.582,2.582h7.1l.645.645v.981l-.645.645H9.387L9-56.06v3.743Z" transform="translate(64.148 154.993)" />
    <path id="Path_34107" data-name="Path 34107" d="M26.167-70H21.779l-.387.387v12.52l-.645.645H14.808l-.645-.645v-12.52L13.776-70H9.387L9-69.613v15.1l2.582,2.582H23.973l2.582-2.582v-15.1Z" transform="translate(80.67 154.993)" />
    <path id="Path_34106" data-name="Path 34106" d="M9-52.316l.387.387h4.389l.387-.387V-55.9h9.81l2.582-2.582v-8.932L23.973-70H9.387L9-69.613Zm5.163-8.106v-5.06h6.583l.645.645v3.769l-.645.645Z" transform="translate(99.257 154.993)" />
    <path id="Path_34100" data-name="Path 34100" d="M9.387-51.929h4.389l.387-.387v-3.554h6.583l.645.645v2.909l.387.387h4.389l.387-.387v-3.012L24.607-58v-.155l1.947-2.565v-6.695L23.973-70H9.387L9-69.613v17.3Zm4.776-8.459v-5.094h6.583l.645.645v3.8l-.645.645Z" transform="translate(117.845 154.993)" />
    <path id="Path_34101" data-name="Path 34101" d="M9.387-51.929H24.1l.387-.387V-56.06l-.387-.387H14.163v-2.22h7.822l.387-.387V-62.8l-.387-.387H14.163v-2.3H24.1l.387-.387v-3.743L24.1-70H9.387L9-69.613v17.3Z" transform="translate(136.432 154.993)" />
    <path id="Path_34145" data-name="Path 34145" d="M20904.621-5248.932l-.387-.389v-9.319l-4.658,5.924h-.709l-4.7-5.924v9.319l-.389.389h-4.387l-.389-.389v-17.3l.389-.387h4.336l.439.284,4.729,6.443h.658l4.707-6.444.439-.284h4.311l.387.387v17.3l-.387.389Z" transform="translate(-20727.047 5351.995)"  stroke="rgba(0,0,0,0)" stroke-width="1"/>
    <path id="Path_34103" data-name="Path 34103" d="M9.387-51.929h4.389l.387-.387V-55.91h7.228v3.593l.387.387h4.389l.387-.387v-15.1L23.973-70H11.582L9-67.418v15.1Zm4.776-8.5v-4.41l.645-.645h5.938l.645.645v4.41Z" transform="translate(174.38 154.993)" />
    <path id="Path_34104" data-name="Path 34104" d="M23.973-70H11.582L9-67.418v12.908l2.582,2.582H23.973l2.582-2.582v-3.795l-.387-.387H21.779l-.387.387v1.213l-.645.645H14.808l-.645-.645v-7.745l.645-.645h5.938l.645.645v1.213l.387.387h4.389l.387-.387v-3.795Z" transform="translate(192.968 154.993)" />
    <path id="Path_34144" data-name="Path 34144" d="M20889.627-5248.97l-.627-.629v-2.55l4.209-5.388v-.9l-4.209-5.387v-2.535l.645-.645h3.424l3.416,4.373h.7l3.416-4.373h3.414l.654.654v2.526l-11.6,14.851Z" transform="translate(-20668.445 5351.995)" />
    <path id="Subtraction_189" data-name="Subtraction 189" d="M4.435,6.482H0L5.065,0V5.852l-.63.629Z" transform="translate(231.16 96.564)" />
  </g>
</svg>
