<svg viewBox="0 0 512 512" xmlns="http://www.w3.org/2000/svg"><g><path d="m315.149 148.353h-19.162l.068 135.698h20.544c24.355 0 50.567-21.192 50.567-67.721.001-32.862-13.665-67.977-52.017-67.977z"/><path d="m447 30.465h-382c-35.841 0-65 29.159-65 65v241.334c0 35.841 29.159 65 65 65h115.641c-5.144 21.962-20.257 40.425-41.504 49.737h-35.041v30h303.808v-30h-35.041c-21.248-9.312-36.362-27.775-41.505-49.737h115.642c35.841 0 65-29.159 65-65v-241.334c0-35.842-29.16-65-65-65zm-275.157 117.747c-12.874 0-24.142 9.119-26.21 21.211-.536 3.136-.806 7.983-.8 14.405v.33h-30v-.305c-.005-5.253.118-12.988 1.229-19.486 4.574-26.744 28.033-46.154 55.78-46.154 32.369 0 56.779 24.41 56.779 56.779 0 16.061-6.759 32.237-21.273 50.902l-44.176 58.145 72.645-.032.014 30-113.868.05.097-25.494 61.559-81.023c13.447-17.278 15.003-26.852 15.003-32.549.001-18.499-13.45-26.779-26.779-26.779zm144.756 165.839h-50.528l-.1-195.698h49.178c49.058 0 82.018 39.374 82.018 97.977 0 56.623-33.884 97.721-80.568 97.721z"/></g></svg>