<svg viewBox="0 0 512 512" xmlns="http://www.w3.org/2000/svg"><g><path d="m123.956 308.453 116.723 64.846c4.797 2.666 10.059 3.998 15.321 3.998s10.525-1.333 15.321-3.998l116.723-64.846c10.009-5.561 16.227-16.128 16.227-27.579v-135.932c0-11.451-6.218-22.018-16.227-27.578l-116.723-64.846c-9.594-5.33-21.049-5.33-30.643 0l-116.722 64.846c-10.01 5.56-16.228 16.127-16.228 27.578v135.932c.001 11.45 6.219 22.018 16.228 27.579zm265.315-27.579c0 6.006-3.262 11.549-8.512 14.466l-116.723 64.846c-5.032 2.796-11.041 2.796-16.073 0l-116.722-64.846c-5.25-2.917-8.512-8.46-8.512-14.466v-135.932c0-.46.025-.916.063-1.369l125.708 69.838v119.238c0 4.142 3.358 7.5 7.5 7.5s7.5-3.358 7.5-7.5v-119.238l125.708-69.838c.038.453.063.909.063 1.369zm-141.307-215.244c2.516-1.398 5.276-2.097 8.036-2.097s5.521.699 8.036 2.097l116.723 64.846c.187.104.365.218.546.328l-125.305 69.615-125.306-69.614c.182-.11.36-.225.546-.328z"/><path d="m434.982 225.343c-3.729-1.806-8.214-.245-10.018 3.484s-.244 8.213 3.484 10.018c44.207 21.39 68.552 49.188 68.552 78.273 0 28.269-22.854 49.883-42.027 63.037-3.416 2.344-4.285 7.012-1.941 10.428 1.454 2.119 3.802 3.257 6.191 3.257 1.462 0 2.939-.426 4.236-1.316 31.756-21.787 48.541-47.862 48.541-75.406 0-35.15-27.352-67.743-77.018-91.775z"/><path d="m424.602 399.976-77.455-7.209c-4.126-.384-7.779 2.648-8.163 6.772s2.648 7.779 6.772 8.163l41.046 3.821c-38.955 12.017-83.68 18.337-130.802 18.337-65.268 0-126.512-12.241-172.449-34.469-44.206-21.39-68.551-49.188-68.551-78.273 0-28.928 24.122-56.617 67.921-77.967 3.724-1.815 5.271-6.305 3.456-10.028-1.815-3.724-6.307-5.271-10.028-3.456-49.235 24-76.349 56.477-76.349 91.451 0 35.15 27.352 67.744 77.017 91.775 47.934 23.194 111.498 35.967 178.983 35.967 47.031 0 91.867-6.119 131.32-17.803l-28.884 23.062c-3.237 2.584-3.766 7.303-1.181 10.541 1.481 1.855 3.663 2.821 5.866 2.821 1.641 0 3.293-.536 4.675-1.64l60.791-48.536c2.391-1.909 3.382-5.078 2.506-8.009-.877-2.931-3.446-5.036-6.491-5.32z"/></g></svg>