<?xml version="1.0" encoding="UTF-8" standalone="no"?>
<svg
   viewBox="0 0 58 58"
   version="1.1"
   id="svg17"
   xmlns="http://www.w3.org/2000/svg"
   xmlns:svg="http://www.w3.org/2000/svg">
  <defs
     id="defs21" />
  <g
     id="Page-1"
     fill-rule="evenodd"
     transform="matrix(-1,0,0,1,57.99972,0)">
    <g
       id="036---Clapping"
       fill-rule="nonzero">
      <path
         id="Shape"
         d="M 5.087,34.035 6.305,19.144 c 0.2070271,-2.43714 2.1468075,-4.366766 4.585,-4.561 l 0.18,-2.226 C 11.144986,11.478371 10.826322,10.611751 10.2,9.991 9.6975774,9.487116 9.0337488,9.1762671 8.325,9.113 6.6777934,8.986909 5.2375212,10.213708 5.1,11.86 L 3.879,26.753 c -0.1279683,1.52237 -0.5187482,3.011055 -1.155,4.4 -0.6465357,1.388096 -1.5312403,2.652202 -2.614,3.735 -0.14704002,0.148803 -0.14704002,0.388197 0,0.537 l 3.412,3.412 c 0.8866469,-1.457805 1.4224034,-3.101705 1.565,-4.802 z" />
      <path
         id="path3"
         d="m 37.675,12.215 1.786,-1.786 C 40.229081,9.673149 40.532759,8.5634128 40.256555,7.5217938 39.980351,6.4801748 39.166703,5.6667183 38.125019,5.3907595 37.083335,5.1148008 35.97367,5.418741 35.218,6.187 l -1.786,1.785 c 2.215389,0.2833836 3.959616,2.0276112 4.243,4.243 z" />
      <path
         id="path5"
         d="m 16.059,22.517 9.259,-9.258 6.013,-6.013 c 0.758475,-0.7582962 1.054788,-1.8636323 0.777322,-2.8996389 -0.277466,-1.0360066 -1.086559,-1.8452896 -2.1225,-2.123 C 28.949881,1.9456507 27.844475,2.2417038 27.086,3 L 14.407,15.683 c 2.833,2.29 1.587,5.317 1.652,6.834 z" />
      <path
         id="path7"
         d="m 44.058,31.288 -7.78,7.779 c -0.392379,0.378972 -1.016085,0.373552 -1.401819,-0.01218 C 34.490448,38.669085 34.485028,38.045379 34.864,37.653 l 7.779,-7.778 3.535,-3.535 c 1.171146,-1.1715 1.171146,-3.0705 0,-4.242 -1.186984,-1.134103 -3.056016,-1.134103 -4.243,0 L 30.622,33.41 c -0.395053,0.354162 -0.99793,0.33815 -1.373626,-0.03648 C 28.872678,32.998884 28.854958,32.396054 29.208,32 L 43.35,17.854 c 1.171146,-1.1715 1.171146,-3.0705 0,-4.242 -1.186984,-1.134103 -3.056016,-1.134103 -4.243,0 l -5.3,5.3 -4.242,4.242 -4.6,4.595 c -0.392379,0.378972 -1.016085,0.373552 -1.401819,-0.01218 C 23.177448,27.351085 23.172028,26.727379 23.551,26.335 l 11.313,-11.31 c 1.136917,-1.177137 1.120657,-3.048254 -0.03654,-4.205456 C 33.670254,9.6623429 31.799137,9.6460834 30.622,10.783 l -8.485,8.485 c -6.668,6.522 -6.333,6.656 -7.071,6.656 -0.660995,-0.06129 -1.171059,-0.608338 -1.186,-1.272 l 0.395,-4.851 C 14.412077,18.708213 13.93935,17.628176 13.043536,16.987481 12.147722,16.346785 10.972868,16.248454 9.983016,16.731327 8.9931638,17.2142 8.3474818,18.200631 8.301,19.301 L 7.081,34.2 c -0.210285,2.501141 -1.1388666,4.888228 -2.674,6.874 -0.011,0.011 -0.015,0.027 -0.026,0.038 l -0.008,0.006 c -0.3270098,0.426353 -0.6800137,0.832124 -1.057,1.215 -0.07249,0.07175 -0.1132776,0.169507 -0.1132776,0.2715 0,0.101994 0.040787,0.199752 0.1132776,0.2715 l 15.013,15.012 c 0.356,0.355 0.572,-0.068 0.7,-0.158 1.338805,-1.326862 2.960203,-2.333955 4.743,-2.946 3.71,-1.3 9.5,-4.23 16.041,-10.767 L 48.3,35.532 c 0.563948,-0.561971 0.880937,-1.325354 0.880937,-2.1215 0,-0.796146 -0.316989,-1.559529 -0.880937,-2.1215 -1.18679,-1.133235 -3.054676,-1.133676 -4.242,-0.001 z" />
      <path
         id="path9"
         d="m 57,9 h -4 c -0.552285,0 -1,0.4477153 -1,1 0,0.552285 0.447715,1 1,1 h 4 c 0.552285,0 1,-0.447715 1,-1 0,-0.5522847 -0.447715,-1 -1,-1 z" />
      <path
         id="path11"
         d="m 47,6 c 0.552285,0 1,-0.4477153 1,-1 V 1 C 48,0.44771525 47.552285,0 47,0 46.447715,0 46,0.44771525 46,1 v 4 c 0,0.5522847 0.447715,1 1,1 z" />
      <path
         id="path13"
         d="m 54.707,2.293 c -0.3905,-0.3903819 -1.0235,-0.3903819 -1.414,0 l -3,3 c -0.259957,0.2510745 -0.364213,0.6228779 -0.272697,0.9725073 0.09152,0.3496295 0.36456,0.6226744 0.71419,0.7141899 C 51.084122,7.0712126 51.455925,6.9669566 51.707,6.707 l 3,-3 c 0.390382,-0.3904998 0.390382,-1.0235001 0,-1.414 z" />
    </g>
  </g>
</svg>
