<svg xmlns="http://www.w3.org/2000/svg" viewBox="0 0 50.355 73.065" xmlns:v="https://vecta.io/nano"><path d="M8.947,73.065a6.485,6.485,0,0,1-1.3-.131,6.4,6.4,0,0,1-2.3-.968,6.455,6.455,0,0,1-2.332-2.831,6.4,6.4,0,0,1-.375-1.208,6.485,6.485,0,0,1-.131-1.3V18.164H47.843V66.63a6.484,6.484,0,0,1-.131,1.3,6.4,6.4,0,0,1-.968,2.3,6.455,6.455,0,0,1-2.831,2.332,6.409,6.409,0,0,1-1.208.375,6.485,6.485,0,0,1-1.3.131ZM36.284,27.231a2.029,2.029,0,0,0-1.24,1.871V63.114a2.03,2.03,0,1,0,4.06,0V29.1a2.031,2.031,0,0,0-2.82-1.871Zm-11.9,0a2.029,2.029,0,0,0-1.24,1.871V63.114a2.03,2.03,0,1,0,4.06,0V29.1a2.031,2.031,0,0,0-2.82-1.871Zm-11.9,0a2.029,2.029,0,0,0-1.24,1.871V63.114a2.03,2.03,0,1,0,4.06,0V29.1a2.031,2.031,0,0,0-2.82-1.871ZM0,14.738v-6.9H13.245l2.22-6.523A1.943,1.943,0,0,1,17.3,0H33.05a1.943,1.943,0,0,1,1.839,1.317l2.22,6.523H50.355v6.9Zm33.005-6.9L31.66,3.885H18.7L17.35,7.839Z"/></svg>