<svg xmlns="http://www.w3.org/2000/svg" viewBox="0 0 500 500">
  <g id="BC_Icon_Fill" data-name="BC Icon Fill" transform="translate(0 -491)">
    <rect id="Rectangle_12676" data-name="Rectangle 12676" transform="translate(0 491)" fill="none"/>
    <path id="Path_34388" data-name="Path 34388" d="M5416.5,21779.5v-46h-13v-17.83h-52v25.828h-41v-25.828h-20.041v-21.016h-63.967l-2.347-.877-.713-2.439-1.421-104.85v-4.129l1.421-1.529h3.676l2.794-3.268v-63.645l1.23-2.395,3.665-2.445,62.47-1.775v-14.687l1.329-2h11.9V21465.5h41v25.117h240V21465.5h41v25.117h12.863l1.34,2v14.688l11.307.32-2.484-47.129h6.419l-5.161-87.65,3.137-4.346h16.769l4.1,4.4,5.151,87.6h7.587l2.521,47.926,13.118.658,3.665,2.445,1.226,2.395v63.645l2.8,3.268h3.67l1.421,1.529v4.129l-1.421,104.85-.719,2.439-2.342.877H5653.5v21.01h-21v25.834h-41v-25.834l-51,.006v17.83h-13v46Zm-104.3-129.1h319.3v-87.859H5312.2Z" transform="translate(-5222.002 -20842.5)" fill="#fff"/>
  </g>
</svg>
