<svg xmlns="http://www.w3.org/2000/svg" viewBox="0 0 19.471 20.856">
  <path id="Subtraction_622" data-name="Subtraction 622" d="M8768.021,7082.856h-.577l-.2-8.97,6.227-3.609v8.534l-.643,1.271-4.806,2.774Zm-1.667,0h-.132l-11.644-4.719-.579-1.207v-7.523l12.152,4.875.2,8.572h0Zm-8.584-6.741h0a.034.034,0,0,0-.032.027l-.143,1.03a.035.035,0,0,0,.009.029l1.5,1.207a.225.225,0,0,0,.121.053.148.148,0,0,0,.033,0,.271.271,0,0,0,.095-.018l1.308-.535a.035.035,0,0,0,.02-.024.036.036,0,0,0-.011-.031l-.8-.645a.019.019,0,0,0-.01,0l-.006,0-.016,0-.409.169a.1.1,0,0,1-.043.01h-.015a.116.116,0,0,1-.053-.024l-1.53-1.237a.015.015,0,0,0-.013-.006Zm.015-2.371h0a.422.422,0,0,0-.02.075l-.144,1.013,3.78,3.074a.334.334,0,0,0,.038-.115l.136-.964-3.791-3.083Zm2.054.5h.014a.126.126,0,0,1,.053.024l1.528,1.235a.018.018,0,0,0,.016.006.035.035,0,0,0,.035-.026l.143-1.028a.027.027,0,0,0-.011-.029l-1.493-1.208a.251.251,0,0,0-.121-.051l-.038,0a.215.215,0,0,0-.089.019l-1.309.535a.026.026,0,0,0-.02.024.034.034,0,0,0,.011.031l.8.645.007,0,.007,0a.032.032,0,0,0,.016,0l.411-.169A.094.094,0,0,1,8759.839,7074.242Zm5.229-1.384h0l-1.439-1.3.158-1.491,1.376-.214,1.442,1.3-.1,1.361-1.432.341Zm3.776-.436h0l-1.286-.308-.625-1.627.735-1.127,1.185.39.626,1.627-.634,1.045Zm-8.064-.841h0l-1-1.112.762-1.165,1.931-.2.942.984-.7,1.294-1.93.2Zm-1.65-1.3h0l-1.433-.346-.7-1.81.819-1.259,1.321.436.7,1.812-.706,1.167Zm12.48-.016h0l-3.922-1.275.712-.416-.079-.35,4.41,1.431-1.121.61Zm-15.561-.922h0l-1.469-.544,1.9-.623.351.912-.784.255Zm10.461-.284h0l-1.757-.819-.286-1.473,1.255-.605,1.757.821.3,1.33-1.27.747Zm-5.284-.26h0l-.725-1.283.85-1.744,1.478-.26.584,1.264-.85,1.744-1.336.28Zm2.911-.962-.531-.171.357-.729.174.9Zm-4.329-.191v0l-.188-.5.518-.167-.327.663Zm9.606-.064h0l-.974-1.1.472-1.883,1.39-.562.834,1.116-.469,1.883-1.251.55Zm-5.258-1.869h0l-.875-1.184.632-1.834,1.436-.438.73,1.185-.632,1.834-1.29.438Zm-5.038-.06h0l-1.267-.749-.134-1.936,1.149-.964,1.136.8.137,1.936-1.019.909Z" transform="translate(-8754 -7062)"/>
</svg>
