<svg xmlns="http://www.w3.org/2000/svg" viewBox="0 0 13.989 13.988">
  <path id="Damage" d="M8.455,10.641l2.186-2.186L2.552.366.418.006A.364.364,0,0,0,.006.418L.366,2.552Zm5.408,1.986-1.621-1.621.865-1.613a.437.437,0,0,0-.076-.516L12.552,8.4a.437.437,0,0,0-.618,0L8.4,11.934a.437.437,0,0,0,0,.618l.479.479a.437.437,0,0,0,.516.076l1.613-.865,1.621,1.621a.437.437,0,0,0,.618,0l.618-.618A.437.437,0,0,0,13.863,12.627ZM13.627,2.552,13.988.418a.364.364,0,0,0-.412-.412L11.441.366,7.615,4.192,9.8,6.378ZM4.192,7.615,2.734,9.073,2.059,8.4a.437.437,0,0,0-.618,0l-.479.479a.437.437,0,0,0-.076.516l.865,1.613L.13,12.627a.437.437,0,0,0,0,.618l.618.618a.437.437,0,0,0,.618,0l1.621-1.621,1.613.865a.437.437,0,0,0,.516-.076l.479-.479a.437.437,0,0,0,0-.618l-.674-.675L6.378,9.8Z" transform="translate(-0.002 -0.002)" />
</svg>
