<svg id="Energy" xmlns="http://www.w3.org/2000/svg" viewBox="0 0 15.563 17.674">
  <g id="Group_186" data-name="Group 186" transform="translate(0 0)">
    <circle id="Ellipse_7" data-name="Ellipse 7" cx="1.796" cy="1.796" r="1.796" transform="translate(6 7.047)" />
    <path id="Path_27342" data-name="Path 27342" d="M50.925,9.739c-.228-.3-.483-.6-.763-.9.28-.3.535-.6.763-.9A6.206,6.206,0,0,0,52,5.987a2.223,2.223,0,0,0-.147-1.8,2.647,2.647,0,0,0-2.337-1,8.723,8.723,0,0,0-2.222.333c-.08-.264-.166-.518-.258-.759a6.225,6.225,0,0,0-1.1-1.943A2.19,2.19,0,0,0,44.323,0h0a2.22,2.22,0,0,0-1.6.828,6.224,6.224,0,0,0-1.1,1.949c-.09.237-.173.486-.251.745a8.7,8.7,0,0,0-2.205-.329,2.647,2.647,0,0,0-2.337,1,2.224,2.224,0,0,0-.147,1.8,6.208,6.208,0,0,0,1.072,1.96c.228.3.483.6.762.9-.28.3-.535.6-.762.9a6.207,6.207,0,0,0-1.072,1.96,2.223,2.223,0,0,0,.147,1.8,2.647,2.647,0,0,0,2.337,1,8.726,8.726,0,0,0,2.223-.334c.08.263.165.515.257.756a6.206,6.206,0,0,0,1.1,1.94,2.182,2.182,0,0,0,1.605.818h0a2.216,2.216,0,0,0,1.6-.822,6.189,6.189,0,0,0,1.1-1.943c.089-.236.172-.484.25-.741a8.693,8.693,0,0,0,2.206.329h0a2.649,2.649,0,0,0,2.337-1A2.227,2.227,0,0,0,52,11.7,6.206,6.206,0,0,0,50.925,9.739ZM49.513,4.2c.433,0,1.2.068,1.483.522.318.513-.007,1.492-.869,2.618-.2.264-.429.531-.677.8a18.813,18.813,0,0,0-1.539-1.286,18.364,18.364,0,0,0-.365-2.35A7.752,7.752,0,0,1,49.513,4.2Zm-2.915,8.7-.025-.009c-.366-.13-.739-.279-1.117-.445q.407-.229.812-.48.282-.175.555-.355C46.763,12.052,46.688,12.483,46.6,12.894Zm-.859-1.787c-.462.286-.932.553-1.4.8-.47-.244-.94-.511-1.4-.8q-.628-.389-1.209-.806c-.033-.474-.051-.959-.052-1.452s.015-.983.046-1.459q.582-.418,1.214-.81c.462-.286.932-.553,1.4-.8.47.244.94.511,1.4.8q.628.389,1.209.806c.033.473.051.958.052,1.45s-.015.984-.046,1.461Q46.372,10.714,45.74,11.107ZM42.09,12.888c-.09-.406-.166-.832-.227-1.273q.268.177.544.348.4.25.809.478c-.377.165-.749.314-1.114.443ZM40.681,9.5q-.392-.324-.746-.654.353-.328.744-.652-.009.327-.008.659T40.681,9.5Zm1.395-4.7L42.1,4.8c.365.129.738.278,1.115.444q-.406.229-.811.479-.282.175-.555.355C41.911,5.635,41.987,5.2,42.076,4.794Zm4.51,0c.09.407.166.834.227,1.276q-.268-.177-.544-.348-.4-.251-.811-.479c.377-.166.75-.314,1.116-.444ZM47.994,8.19q.391.323.746.653-.353.328-.743.651Q48,9.167,48,8.835T47.994,8.19ZM42.557,3.131c.5-1.327,1.16-2.12,1.765-2.121s1.266.79,1.772,2.115c.085.222.164.455.237.7a18.187,18.187,0,0,0-1.994.836,18.155,18.155,0,0,0-2.011-.842C42.4,3.579,42.475,3.35,42.557,3.131ZM37.679,4.719c.281-.454,1.05-.522,1.483-.522a7.727,7.727,0,0,1,1.952.3,18.312,18.312,0,0,0-.358,2.359,18.8,18.8,0,0,0-1.531,1.28c-.248-.266-.474-.533-.677-.8C37.686,6.211,37.361,5.232,37.679,4.719Zm1.483,8.771c-.433,0-1.2-.068-1.483-.522-.318-.513.007-1.492.869-2.618.2-.264.429-.53.676-.8a18.815,18.815,0,0,0,1.54,1.287,18.335,18.335,0,0,0,.365,2.348A7.752,7.752,0,0,1,39.162,13.489Zm6.956,1.062c-.5,1.327-1.16,2.118-1.764,2.118h0c-.6,0-1.266-.788-1.772-2.113-.084-.221-.163-.452-.236-.693a18.183,18.183,0,0,0,1.991-.835,18.183,18.183,0,0,0,2.011.843C46.276,14.108,46.2,14.335,46.118,14.552ZM51,12.969c-.281.454-1.05.524-1.483.524h0a7.715,7.715,0,0,1-1.953-.3,18.317,18.317,0,0,0,.359-2.361,18.807,18.807,0,0,0,1.531-1.28c.248.266.475.533.677.8C50.99,11.476,51.314,12.456,51,12.969Z" transform="translate(-36.556 0)" />
  </g>
</svg>
