<svg height="512pt" viewBox="-93 0 512 512" width="512pt" xmlns="http://www.w3.org/2000/svg"><path d="m163.183594 390.335938-142.09375-69.375 141.964844 191.039062 21.328124-28.703125v-103.34375zm0 0" fill="#708299"/><path d="m163.054688 0-163.054688 292.574219h326.113281zm0 0" fill="#708299"/><path d="m326.113281 293.007812-163.058593-293.007812v293.007812zm0 0" fill="#68788e"/><path d="m113.726562 162.496094h32v32h-32zm0 0" fill="#fff"/><path d="m163.054688 213.121094-.640626-.304688-162.398437 80h.144531l162.398438 80 .640625-.304687 21.183593-10.367188v-138.578125zm0 0" fill="#3c3c47"/><path d="m113.726562 101.96875h32v32h-32zm0 0" fill="#fff"/><path d="m163.183594 390.335938-.128906 121.664062 142.066406-191.167969zm0 0" fill="#68788e"/><path d="m325.808594 292.816406-162.753906-79.695312-.640626-.304688.144532 160 .640625-.304687 162.753906-79.695313zm0 0" fill="#31313b"/></svg>