<svg xmlns="http://www.w3.org/2000/svg" viewBox="0 0 32.1 32.19">
  <defs>
    <linearGradient id="a" x1=".1" y1=".1" x2=".88" y2="1" gradientUnits="objectBoundingBox">
      <stop offset="0" stop-color="#ffe200"/>
      <stop offset=".17" stop-color="#ddb303"/>
      <stop offset=".54" stop-color="#fde780"/>
      <stop offset="1" stop-color="#ffc400"/>
    </linearGradient>
  </defs>
  <path data-name="Path 99306" d="M8778.18 7094.19v-3.69l5.56-3.22v3.7l-5.56 3.2Zm-16.38 0-5.56-3.2v-3.7l5.57 3.21v3.69Zm3.94-2.29-.2-.22v-1.96l.2-.22h3.27v-6.4H8766l-.21-.23-.24-1.95.2-.22h5.47l.2.22v8.58h3.25l.2.22v1.96l-.2.22Zm12.44-3.52v-3.68l5.56-3.22v3.7l-5.56 3.2Zm-16.38 0-5.56-3.2v-3.7l5.57 3.22v3.69Zm16.38-5.8v-3.68l5.56-3.22v3.7l-5.56 3.2Zm-16.38 0-5.56-3.2v-3.7l5.57 3.22v3.69Zm8.2-8.75-4.2 2.85 1.4-4.9-3.99-3.14 5.06-.18 1.73-4.8 1.72 4.8 5.06.18-3.99 3.14 1.4 4.9Zm11.11-4.34-3.08 2.1 1.02-3.61-2.93-2.31 3.72-.14 1.27-3.52 1.28 3.52 3.71.14-2.93 2.3 1.03 3.62Zm-22.12 0-3.08 2.1 1.02-3.61-2.93-2.32 3.72-.13 1.27-3.53 1.27 3.53 3.72.13-2.93 2.31 1.02 3.61Z" transform="translate(-8754 -7062)" fill="url(#a)"/>
</svg>
