<svg id="Layer_1" enable-background="new 0 0 53 53" height="512" viewBox="0 0 53 53" width="512" xmlns="http://www.w3.org/2000/svg" xmlns:xlink="http://www.w3.org/1999/xlink"><linearGradient id="lg1"><stop offset="0" stop-color="#fef328"/><stop offset=".8864871" stop-color="#d67011"/></linearGradient><linearGradient id="SVGID_1_" gradientUnits="userSpaceOnUse" x1="31.317" x2="6.066" xlink:href="#lg1" y1="35.136" y2="19.743"/><linearGradient id="lg2"><stop offset=".3063065" stop-color="#fff"/><stop offset="1" stop-color="#fff" stop-opacity="0"/></linearGradient><radialGradient id="SVGID_2_" cx="7.075" cy="34.546" gradientUnits="userSpaceOnUse" r="25.332" xlink:href="#lg2"/><linearGradient id="SVGID_3_" gradientUnits="userSpaceOnUse" x1="16.03" x2="12.184" xlink:href="#lg1" y1="32.561" y2="43.027"/><linearGradient id="SVGID_4_" gradientUnits="userSpaceOnUse" x1="31.717" x2="34.656" xlink:href="#lg1" y1="42.4" y2="34.403"/><linearGradient id="SVGID_5_" gradientUnits="userSpaceOnUse" x1="9.313" x2="23.416" xlink:href="#lg1" y1="37.479" y2="42.794"/><linearGradient id="SVGID_6_" gradientUnits="userSpaceOnUse" x1="30.929" x2="33.314" xlink:href="#lg1" y1="46.62" y2="40.133"/><linearGradient id="lg3"><stop offset=".3063068" stop-color="#fffd83" stop-opacity=".3"/><stop offset=".7160989" stop-color="#fffecb" stop-opacity=".123"/><stop offset="1" stop-color="#fff" stop-opacity="0"/></linearGradient><radialGradient id="SVGID_7_" cx="14.541" cy="28.27" gradientUnits="userSpaceOnUse" r="16.955" xlink:href="#lg3"/><linearGradient id="lg4"><stop offset=".3063067" stop-color="#fffd83" stop-opacity=".5"/><stop offset=".7160989" stop-color="#fffecb" stop-opacity=".205"/><stop offset="1" stop-color="#fff" stop-opacity="0"/></linearGradient><radialGradient id="SVGID_8_" cx="68.151" cy="232.684" gradientTransform="matrix(1 0 .252 1.748 -122.267 -371.477)" gradientUnits="userSpaceOnUse" r="12.606" xlink:href="#lg4"/><radialGradient id="SVGID_9_" cx="131.034" cy="24.392" gradientTransform="matrix(1 0 .252 .969 -122.267 15.074)" gradientUnits="userSpaceOnUse" r="10.944" xlink:href="#lg4"/><radialGradient id="SVGID_10_" cx="14.685" cy="38.834" gradientUnits="userSpaceOnUse" r="9.351" xlink:href="#lg2"/><radialGradient id="SVGID_11_" cx="32.329" cy="41.949" gradientUnits="userSpaceOnUse" r="4.917" xlink:href="#lg2"/><linearGradient id="lg5"><stop offset=".3063063" stop-color="#fff"/><stop offset="1" stop-color="#fff" stop-opacity="0"/></linearGradient><radialGradient id="SVGID_12_" cx="-63.26" cy="116.826" gradientTransform="matrix(.928 .374 -.374 .928 111.244 -53.711)" gradientUnits="userSpaceOnUse" r="1.571" xlink:href="#lg5"/><radialGradient id="SVGID_13_" cx="-44.597" cy="111.58" gradientTransform="matrix(.928 .374 -.374 .928 111.244 -53.711)" gradientUnits="userSpaceOnUse" r="2.882" xlink:href="#lg5"/><linearGradient id="SVGID_14_" gradientTransform="matrix(-.712 -.702 -.702 .712 400.398 166.989)" gradientUnits="userSpaceOnUse" x1="376.953" x2="351.702" xlink:href="#lg1" y1="154.868" y2="139.475"/><radialGradient id="SVGID_15_" cx="352.711" cy="154.277" gradientTransform="matrix(-.712 -.702 -.702 .712 400.398 166.989)" gradientUnits="userSpaceOnUse" r="25.332" xlink:href="#lg2"/><linearGradient id="SVGID_16_" gradientTransform="matrix(-.712 -.702 -.702 .712 400.398 166.989)" gradientUnits="userSpaceOnUse" x1="361.666" x2="357.82" xlink:href="#lg1" y1="152.293" y2="162.758"/><linearGradient id="SVGID_17_" gradientTransform="matrix(-.712 -.702 -.702 .712 400.398 166.989)" gradientUnits="userSpaceOnUse" x1="377.353" x2="380.292" xlink:href="#lg1" y1="162.132" y2="154.135"/><linearGradient id="SVGID_18_" gradientTransform="matrix(-.712 -.702 -.702 .712 400.398 166.989)" gradientUnits="userSpaceOnUse" x1="354.949" x2="369.052" xlink:href="#lg1" y1="157.211" y2="162.526"/><linearGradient id="SVGID_19_" gradientTransform="matrix(-.712 -.702 -.702 .712 400.398 166.989)" gradientUnits="userSpaceOnUse" x1="376.565" x2="378.951" xlink:href="#lg1" y1="166.351" y2="159.865"/><radialGradient id="SVGID_20_" cx="360.177" cy="148.002" gradientTransform="matrix(-.712 -.702 -.702 .712 400.398 166.989)" gradientUnits="userSpaceOnUse" r="16.955" xlink:href="#lg3"/><radialGradient id="SVGID_21_" cx="396.497" cy="301.195" gradientTransform="matrix(-.712 -.702 -1.407 1.067 748.273 -11.694)" gradientUnits="userSpaceOnUse" r="12.606" xlink:href="#lg4"/><radialGradient id="SVGID_22_" cx="445.483" cy="147.969" gradientTransform="matrix(-.712 -.702 -.86 .513 476.88 263.566)" gradientUnits="userSpaceOnUse" r="10.944" xlink:href="#lg4"/><radialGradient id="SVGID_23_" cx="360.321" cy="158.566" gradientTransform="matrix(-.712 -.702 -.702 .712 400.398 166.989)" gradientUnits="userSpaceOnUse" r="9.351" xlink:href="#lg2"/><radialGradient id="SVGID_24_" cx="377.965" cy="161.681" gradientTransform="matrix(-.712 -.702 -.702 .712 400.398 166.989)" gradientUnits="userSpaceOnUse" r="4.918" xlink:href="#lg2"/><radialGradient id="SVGID_25_" cx="302.234" cy="96.095" gradientTransform="matrix(-.923 -.385 -.385 .923 358.87 50.644)" gradientUnits="userSpaceOnUse" r="2.188" xlink:href="#lg5"/><radialGradient id="SVGID_26_" cx="323.847" cy="95.417" gradientTransform="matrix(-.923 -.385 -.385 .923 358.87 50.644)" gradientUnits="userSpaceOnUse" r="3.971" xlink:href="#lg5"/><g id="_x33_3"><g><g><g><g><g><g><g enable-background="new"><g><path d="m36.9970131 31.710947c.6891251.3978672.6927567 1.0410862.0081367 1.4389439l-8.5010509 4.9402695c-.6846561.3978806-1.7951145.3978806-2.4842415.0000114l-21.8280516-12.6024322c-.6833825-.3945503-.6927569-1.0410862-.0080996-1.4389648l8.5010519-4.9402714c.684618-.3978577 1.8008204-.3945408 2.4842024.0000114z" fill="url(#SVGID_1_)"/></g></g></g><g><path d="m37.4357147 32.7222023c-.2036896.3679466-.6294136.5061417-.968914.7244759-.1846085.1058998-6.5250721 3.7430153-6.4196529 3.6825409l-1.0719318.6102829c-.3644829.1994324-.7008495.4306335-1.095274.4974861-.3895588.0817757-.7990017.0757408-1.1851444-.0083733-.3633251-.0654793-.3167496-.0248566-5.3149757-3.0375977l-8.4774818-5.0518703-8.5179024-4.981884c-.4486518-.261219-.4174483-.5494423-.0138474-.785059.1879468-.1107502 8.0746765-4.7581329 7.9699831-4.6964149.4118681-.2259464.5612001-.3932323 1.0163069-.503334.5027151-.1217976 1.1496096-.0898285 1.6146088.1408615.1022644.057003 5.1581688 2.8751659 4.8379803 2.6966915l8.6139469 4.8155251 8.5736198 4.885416-21.8280774-12.6024476c-.6834011-.3945637-1.7995882-.3978863-2.4842052 0l-8.5010601 4.9402466c-.6846638.3978863-.6752605 1.0444241.0080934 1.4389877l21.8280754 12.6024475c.6891079.3978386 1.7995892.3978386 2.4842529-.0000458 9.1191492-5.3347549 8.7206392-4.956829 8.9315996-5.3679351z" fill="url(#SVGID_2_)"/></g><g><path d="m27.2372646 38.3823814-1.2380047 8.476902c-1.4237118 0-.2122517.1352997-23.0890503-12.8982086-.3417974-.1978531-.512696-.4676781-.512696-.7285538l1.2740176-8.4679012c0 .2608223.1799018.5216999.5216992.719553 23.1761868 13.2251435 21.7075817 12.8982086 23.0440342 12.8982086z" fill="url(#SVGID_3_)"/><path d="m37.5180283 32.4369965 1.1930428 7.0294609c0 .2608223-.1708984.5216446-.5126953.7195549-11.470192 6.505909-10.846489 6.6461945-12.1991158 6.6732712l1.2380047-8.476902c.4586754.0090027.9174061-.0899773 1.2682056-.2878304l8.4998627-4.9470024c.3417968-.1979103.5126953-.4497299.5126953-.7105522z" fill="url(#SVGID_4_)"/></g><g><path d="m24.9703884 44.9848213-21.8297605-12.6013717c-.3321567-.192276-.4997323-.4524822-.5090888-.7064171l-.2340066 1.5554771c0 .2608566.170897.5307007.5126908.7285461 22.8281555 13.0058098 21.6727009 12.8982048 23.089056 12.8982048l.2304039-1.5776024c-.3372558-.0367164-.7513392-.0102462-1.2592948-.2968368z" fill="url(#SVGID_5_)"/><path d="m38.428772 38.6083946c-11.470171 6.5059433-10.8464603 6.6462479-12.1990891 6.6732635l-.2304039 1.5776024c1.3542271-.0270462.7174911-.160862 12.1990891-6.6732635.3417931-.1978874.5126877-.4587479.5126877-.7195625l-.1603241-.9446335c-.0401383.0290489-.0755043.0596924-.1219597.0865936z" fill="url(#SVGID_6_)"/></g></g><path d="m11.9805756 19.5177402-7.796874 4.5310135c-.6846423.3978786-.6752837 1.0443897.0081015 1.4389858l21.8280219 12.6024285c.6891823.3978806 1.7996387.3978806 2.4842796 0l5.9215317-3.441227s-18.2726059-3.7749271-22.4450607-15.1312008z" fill="url(#SVGID_7_)"/><g><path d="m7.5849819 27.44347-.943469 8.6715508 2.4018926 1.3865089 3.1548357-7.3919163z" fill="url(#SVGID_8_)"/><path d="m18.3208656 33.6452675-1.6238517 8.2742996 1.3228111.763607 4.4666576-6.6316261z" fill="url(#SVGID_9_)"/></g></g></g><path d="m26.2296371 45.2816582c-1.0794811.0480385-1.53479-.4664307-3.0434875-1.2192039l-2.8968925-1.6104469-5.7628965-3.2750626-5.7187614-3.3520241c-1.9007001-1.1269455-3.7889175-2.2754593-5.6669712-3.4414711 1.9489441 1.0431595 3.887722 2.1037674 5.8140202 3.1859932l5.7622318 3.275486 5.7180967 3.3523941 2.8436031 1.7033119c1.50395.8615341 1.8679198 1.3618431 2.9510573 1.3810234z" fill="url(#SVGID_10_)"/><path d="m38.428772 38.6083946c-1.9330902 1.3061256-3.9402618 2.4842033-5.9413376 3.6729507-5.2843475 2.9795494-5.2933884 3.0457382-6.2577515 3.0003128.9250374-.0879288 1.1610355-.3552208 1.5850964-.6157074l1.4824886-.923069c2.4100838-1.4859733 6.4926872-3.8324241 9.1315041-5.1344871z" fill="url(#SVGID_11_)"/></g><g><g><path d="m9.1152573 31.2520542.2404918.8013554-.4107284-.7292252-.6176481 1.1488228.3511486-1.256176-.8015185.2409.7292242-.4107265-1.1488194-.6176453 1.2563367.3507386-.2410622-.8011113.4108896.728817.617487-1.1484146-.3511515 1.2561741.8015213-.2408981-.7286539.4104843 1.1482477.6178894z" fill="url(#SVGID_12_)"/></g></g><g><g><path d="m28.554184 33.5557289.4412422 1.4702835-.7535858-1.337944-1.1332283 2.1078033.6442699-2.3047714-1.4705868.4419937 1.3379441-.7535858-2.1077977-1.1332207 2.3050652.6435166-.4422894-1.4698391.7538815 1.3371944 1.1329346-2.1070537-.6442757 2.3047657 1.4705925-.4419861-1.3368988.7531357 2.1067486 1.1336746z" fill="url(#SVGID_13_)"/></g></g></g><g><g><g><g><g><g><g enable-background="new"><g><path d="m21.6017818 6.1879468c-.7700596-.2005095-1.2242393.2549734-1.016058 1.0189486l2.5850315 9.486433c.2081928.7640171.9989414 1.5436573 1.769001 1.7441673l24.3916035 6.3511295c.7636375.1988392 1.2242393-.2549725 1.0160446-1.0189915l-2.5850334-9.486433c-.2081795-.7639742-1.0053482-1.5452862-1.7689896-1.7441244z" fill="url(#SVGID_14_)"/></g></g></g><g><path d="m20.5793934 6.6000476c-.1132813.4050217.0928459.8023248.1813126 1.1961598l.6619625 2.3765059 1.3239574 4.7529793.3348446 1.1871672c.1195259.3979168.1967278.7987118.4306583 1.1232376.2199879.3317375.5157852.6149044.8498116.8261147.3295956.2254982.7181511.2933121 1.1248684.3940125 19.7011414 4.8362484 12.9061928 3.1682205 14.3761482 3.5290661 9.8860092 2.4821548 9.6678543 2.5311985 9.9618568 2.4481354.2263565-.0777035.2248917-.3336906.1624374-.5646877-.0270958-.1017094-.8448868-3.1713886-.7937584-2.9794731-.0270386-.1017208-1.6861115-6.3434401-1.5843124-5.9604549-.134655-.4500618-.1235466-.6740322-.3703194-1.0719585-.27248-.4396982-.7555733-.8710995-1.2486496-1.0332928-.1014442-.0280561-5.6917114-1.5741091-5.3384018-1.4763966l-9.5148449-2.6186562-9.535202-2.5405726 24.3916302 6.3511367c.7636642.198842 1.5608253.9801397 1.7689819 1.7441339l2.5850563 9.4864225c.2081947.7640266-.2524261 1.2178192-1.0160561 1.0190105l-24.3916301-6.3511373c-.7700272-.2005157-1.560791-.9801712-1.7689838-1.7441998l-2.585022-9.4863892c-.043541-.1598053-.0520248-.3022594-.0407696-.4318852.0029583-.0355167.0054207-.0709977.0126114-.1066771.0051861-.0243177.0146313-.0454239.0218125-.0683011z" fill="url(#SVGID_15_)"/></g><g><path d="m23.8676949 17.7908497-5.0699539 6.9055386c1.0138111.9995708.0561886.2453728 25.4972076 7.0258427.3823051.099081.6934395.026926.8765984-.1588421l5.0379868-6.9244118c-.1831169.18573-.4943848.2451916-.8766861.1461086-25.7887574-6.8542004-24.5134793-6.0559311-25.4651528-6.994236z" fill="url(#SVGID_16_)"/><path d="m20.7210197 6.3391643-5.784853 4.1680121c-.1831207.18573-.244545.4914465-.1401024.8723478 3.6001072 12.6858711 3.0574951 12.3479195 4.0016766 13.316864l5.0699539-6.9055386c-.3329411-.3156204-.590107-.7081738-.7009983-1.0953579l-2.5794582-9.4903908c-.1044426-.3809022-.0493393-.6802067.1337814-.8659366z" fill="url(#SVGID_17_)"/></g><g><path d="m20.8464298 24.0839539 24.3920727 6.3530846c.371521.0962849.6735382.0286484.8584862-.1456089l-.9254456 1.2719383c-.1831474.1857567-.4942932.2579231-.8765869.1588383-25.3869362-6.7660408-24.4886398-6.0314445-25.4972134-7.0258484l.9435482-1.2851678c.2659321.21064.5422154.5202141 1.1051388.6727639z" fill="url(#SVGID_18_)"/><path d="m15.7396259 10.0943537c3.6000671 12.6858835 3.057436 12.3479376 4.0016651 13.3168364l-.9435482 1.2851677c-.9453411-.970047-.3979912-.6183338-4.0016632-13.3168373-.1044531-.3808861-.0430012-.6866283.1401129-.8723516l.7773819-.5601072c.0081863.0488699.011857.0955208.0260515.147292z" fill="url(#SVGID_19_)"/></g></g><path d="m47.9764938 15.0690165 2.3709297 8.7006083c.2081833.7640057-.252388 1.2178116-1.0160637 1.0190029l-24.3915768-6.3511105c-.7701073-.2005405-1.5608559-.9801807-1.7690372-1.7441864l-1.8006325-6.6079206c.0000001-.0000001 15.6621094 10.1409005 26.6063805 4.9836063z" fill="url(#SVGID_20_)"/><g><path d="m45.5420074 23.7989769-5.4163475 6.8373566-2.6838188-.6990204 2.9432335-7.4787121z" fill="url(#SVGID_21_)"/><path d="m33.5428619 20.6776886-4.6529502 7.0321655-1.4780808-.3849735 1.4753094-7.8583317z" fill="url(#SVGID_22_)"/></g></g></g><path d="m19.7413235 23.4112244c.7349606.792099 1.4203892.7454185 3.0232315 1.2686138l3.1935291.8870888 6.4030952 1.7139149c3.8238335.95154 6.7958679 1.7789688 12.8773232 3.1561966-5.960743-1.7585354-8.9423866-2.4820633-12.7798843-3.5263863l-6.4254894-1.6273918c-.1023693-.0244732-5.1568165-1.2327919-4.836298-1.156168-.5486451-.0838795-1.0515957-.3314934-1.4555073-.715868z" fill="url(#SVGID_23_)"/><path d="m15.7396259 10.0943537c.4595242 2.2872839 1.0617008 4.5354023 1.6520481 6.7868338 1.7019062 5.9395275 1.637764 5.8913422 2.349617 6.5300026-.5969791-.7120705-.5773678-1.0681-.696455-1.5513191l-.4075947-1.6981506c-.6729202-2.7502443-1.9326972-7.28749-2.8976154-10.0673667z" fill="url(#SVGID_24_)"/></g><g><g><path d="m42.5111389 22.9539509-1.0224914.5598106 1.1208343-.3217201-.5109863 1.7439899.8804054-1.5898075.5595741 1.0230599-.3217201-1.1208344 1.7439804.5109902-1.5895653-.8809738 1.0228196-.5590115-1.1205941.3211555.5107499-1.7434272-.8804055 1.5898094-.5595779-1.0230618.321392 1.1200371-1.7436523-.510189z" fill="url(#SVGID_25_)"/></g></g><g><g><path d="m22.4758224 14.0336409-1.8555717 1.0159177 2.0340385-.5838403-.9273185 3.1649103 1.597723-2.885108 1.0154896 1.8566008-.5838452-2.0340395 3.1648941.9273214-2.8846664-1.5987511 1.8561668-1.0144682-2.0336036.5828209.9268836-3.1638908-1.5977153 2.8851118-1.0154953-1.8566046.5832481 2.0325899-3.1643009-.9258651z" fill="url(#SVGID_26_)"/></g></g></g></g></svg>