<svg xmlns="http://www.w3.org/2000/svg"  viewBox="0 0 31.878 31.879">
  <g id="Group_35056" data-name="Group 35056" transform="translate(-1085.999 -386.421)">
    <path id="Path_93395" data-name="Path 93395" d="M-2013.5,23.351l-3.249-3.249a.857.857,0,0,1-.253-.609.855.855,0,0,1,.253-.609.861.861,0,0,1,.98-.168l.441-.441-.2-.2a.288.288,0,0,1,0-.406l6.769-6.769a2.577,2.577,0,0,1,.672-.485l1.249-.624,1.592-1.592a17.27,17.27,0,0,1,6.716-4.151.858.858,0,0,1,.882.209.856.856,0,0,1,.208.881,17.272,17.272,0,0,1-4.15,6.716l-1.592,1.592-.625,1.249a2.572,2.572,0,0,1-.484.671l-6.77,6.77a.287.287,0,0,1-.2.084.29.29,0,0,1-.2-.084l-.2-.2-.442.442a.848.848,0,0,1,.084.37.853.853,0,0,1-.252.609.855.855,0,0,1-.609.253A.853.853,0,0,1-2013.5,23.351Z" transform="translate(3102.999 382.421)" fill="#f8dc00"/>
    <path id="Path_93396" data-name="Path 93396" d="M-2013.5,23.351l-3.249-3.249a.857.857,0,0,1-.253-.609.855.855,0,0,1,.253-.609.861.861,0,0,1,.98-.168l.441-.441-.2-.2a.288.288,0,0,1,0-.406l6.769-6.769a2.577,2.577,0,0,1,.672-.485l1.249-.624,1.592-1.592a17.27,17.27,0,0,1,6.716-4.151.858.858,0,0,1,.882.209.856.856,0,0,1,.208.881,17.272,17.272,0,0,1-4.15,6.716l-1.592,1.592-.625,1.249a2.572,2.572,0,0,1-.484.671l-6.77,6.77a.287.287,0,0,1-.2.084.29.29,0,0,1-.2-.084l-.2-.2-.442.442a.848.848,0,0,1,.084.37.853.853,0,0,1-.252.609.855.855,0,0,1-.609.253A.853.853,0,0,1-2013.5,23.351Z" transform="translate(3115.273 382.421)" fill="#f8dc00"/>
    <path id="Path_93397" data-name="Path 93397" d="M-2013.5,23.351l-3.249-3.249a.857.857,0,0,1-.253-.609.855.855,0,0,1,.253-.609.861.861,0,0,1,.98-.168l.441-.441-.2-.2a.288.288,0,0,1,0-.406l6.769-6.769a2.577,2.577,0,0,1,.672-.485l1.249-.624,1.592-1.592a17.27,17.27,0,0,1,6.716-4.151.858.858,0,0,1,.882.209.856.856,0,0,1,.208.881,17.272,17.272,0,0,1-4.15,6.716l-1.592,1.592-.625,1.249a2.572,2.572,0,0,1-.484.671l-6.77,6.77a.287.287,0,0,1-.2.084.29.29,0,0,1-.2-.084l-.2-.2-.442.442a.848.848,0,0,1,.084.37.853.853,0,0,1-.252.609.855.855,0,0,1-.609.253A.853.853,0,0,1-2013.5,23.351Z" transform="translate(3115.273 394.696)" fill="#f8dc00"/>
  </g>
</svg>
