<svg xmlns="http://www.w3.org/2000/svg" viewBox="0 0 13.579 16.06">
  <g id="Element" transform="translate(1 1)">
    <path d="M549.733,532.31a15.152,15.152,0,0,0,.2-2,5.392,5.392,0,0,0-.528-2.227,7.465,7.465,0,0,0-2.725-2.52,7.793,7.793,0,0,0-1.891-.492,6.333,6.333,0,0,0-3.018.363c-.106.047-1.057.609-1.057.609a7.529,7.529,0,0,0-2.3,3.434,10.817,10.817,0,0,0,.235,3.211,5.345,5.345,0,0,1,.341.551c0,.07.141.914.141.914l-.223.516a2.64,2.64,0,0,0-.059.352,11.661,11.661,0,0,0,.74,1.078c.035.058,1,.469,1.057.5s.153-.023.153-.023c.575-.656,1.116.4,1.127.527a1.155,1.155,0,0,1-.153.469.224.224,0,0,0-.035.117s.047.5.059.6.211.117.246.2.247.2.294.234a.524.524,0,0,0,.188.047l.153.012c.07.246,1.491.281,1.491.281s.951-.07,1-.094a1.034,1.034,0,0,0,.153-.129s.493-.058.54-.082.094-.141.094-.141a.4.4,0,0,0,.329-.129l.082-.047a1.331,1.331,0,0,0,.023-.516l-.059-.457a.739.739,0,0,1,.188-.563c.282-.41,1.6-.3,1.644-.352s.669-.375.716-.422a4.339,4.339,0,0,0,.458-.609,1.929,1.929,0,0,0,.059-.445,4.045,4.045,0,0,0-.164-.575c.023-.2.5-1.629.54-1.734S549.7,532.544,549.733,532.31Zm-6.541,1.535a3.008,3.008,0,0,1-2.443.633.619.619,0,0,1-.411-.434,5.967,5.967,0,0,1-.082-1.254.447.447,0,0,1,.129-.223,3.547,3.547,0,0,1,2.278-.7,1.639,1.639,0,0,1,.716.89,4.913,4.913,0,0,1,.035.528A.538.538,0,0,1,543.192,533.844Zm.657,2.276c-.382.157-.687-.074-.656-.277a2.4,2.4,0,0,1,.168-.628c.061-.092.473-.794.657-.776C544.017,534.44,544.231,535.964,543.849,536.12Zm1.235.079c-.2.044-.473-.027-.539-.2a13.474,13.474,0,0,1-.065-1.529c.081-.124.327.125.392.2a8.093,8.093,0,0,1,.441,1A.367.367,0,0,1,545.084,536.2Zm3.028-2.671c-.047.106-.247.75-.317.856a.961.961,0,0,1-.54.434,3.551,3.551,0,0,1-.681-.023c-.106-.047-.74-.41-.822-.445a2.544,2.544,0,0,1-.6-.527,1.751,1.751,0,0,1,.024-.774c.082-.211.282-.75.458-.844a1.523,1.523,0,0,1,.834-.152,4.168,4.168,0,0,1,1.539.75A.831.831,0,0,1,548.112,533.528Z" transform="translate(-538.353 -525)" fill="#fff"/>
    <path id="Path_28147_-_Outline" data-name="Path 28147 - Outline" d="M544.166,539.059s.951-.07,1-.094a1.034,1.034,0,0,0,.153-.129s.493-.058.54-.082.094-.141.094-.141a.4.4,0,0,0,.329-.129l.082-.047a1.331,1.331,0,0,0,.023-.516l-.059-.457a.739.739,0,0,1,.188-.563c.282-.41,1.6-.3,1.644-.352s.669-.375.716-.422a4.339,4.339,0,0,0,.458-.609,1.929,1.929,0,0,0,.059-.445,4.045,4.045,0,0,0-.164-.575c.023-.2.5-1.629.54-1.734s-.07-.223-.035-.457a15.152,15.152,0,0,0,.2-2,5.392,5.392,0,0,0-.528-2.227,7.465,7.465,0,0,0-2.725-2.52,7.793,7.793,0,0,0-1.891-.492,6.332,6.332,0,0,0-3.018.363c-.106.047-1.057.609-1.057.609a7.529,7.529,0,0,0-2.3,3.434,10.817,10.817,0,0,0,.235,3.211,5.345,5.345,0,0,1,.341.551c0,.07.141.914.141.914l-.223.516a2.64,2.64,0,0,0-.059.352,11.661,11.661,0,0,0,.74,1.078c.035.058,1,.469,1.057.5s.153-.024.153-.023c.575-.656,1.116.4,1.127.527a1.155,1.155,0,0,1-.153.469.224.224,0,0,0-.035.117s.047.5.059.6.211.117.246.2.247.2.294.234a.524.524,0,0,0,.188.047l.153.012c.07.246,1.491.281,1.491.281m.377-4.627c.106,0,.276.174.328.239a8.093,8.093,0,0,1,.441,1,.367.367,0,0,1-.229.524c-.2.044-.473-.027-.539-.2a13.474,13.474,0,0,1-.065-1.529.071.071,0,0,1,.063-.034m-.534.007h.007s.214,1.524-.168,1.68-.687-.074-.656-.277a2.4,2.4,0,0,1,.168-.628c.06-.091.463-.776.65-.776m2.31-2.4a.62.62,0,0,1,.148.016,4.168,4.168,0,0,1,1.539.75.831.831,0,0,1,.105.727c-.047.106-.247.75-.317.856a.961.961,0,0,1-.54.434,3.546,3.546,0,0,1-.681-.023c-.106-.047-.74-.41-.822-.445a2.544,2.544,0,0,1-.6-.527,1.751,1.751,0,0,1,.024-.774c.082-.211.282-.75.458-.844a1.74,1.74,0,0,1,.686-.168m-3.968-.2a1.679,1.679,0,0,1,.31.028,1.639,1.639,0,0,1,.716.89,4.913,4.913,0,0,1,.035.528.538.538,0,0,1-.223.563,3.009,3.009,0,0,1-2.443.633.619.619,0,0,1-.411-.434,5.967,5.967,0,0,1-.082-1.254.447.447,0,0,1,.129-.223,3.91,3.91,0,0,1,1.968-.731m1.838,8.224h-.049c-.016,0-.4-.01-.8-.054a2.934,2.934,0,0,1-1.048-.26,1.276,1.276,0,0,1-.531-.206l-.017-.011a2.019,2.019,0,0,1-.391-.3,1.091,1.091,0,0,1-.551-.815c-.013-.108-.048-.473-.062-.627l0-.046v-.047c0-.023,0-.05,0-.08h-.05a1.089,1.089,0,0,1-.509-.125l-.209-.094c-.823-.367-1.039-.464-1.221-.748l-.1-.139c-.631-.858-.8-1.089-.8-1.487a2.492,2.492,0,0,1,.084-.574l.02-.09.143-.331c-.035-.216-.059-.367-.075-.475l-.081-.12a1.835,1.835,0,0,1-.22-.373,11.209,11.209,0,0,1-.269-1.488,7.553,7.553,0,0,1-.016-2.294,8.517,8.517,0,0,1,2.691-4.04l.04-.029.042-.025c1-.592,1.108-.639,1.159-.662a7.856,7.856,0,0,1,2.677-.516,5.03,5.03,0,0,1,.912.08,7.742,7.742,0,0,1,2.229.614,8.219,8.219,0,0,1,3.112,2.927,6.42,6.42,0,0,1,.639,2.685,14.934,14.934,0,0,1-.2,2.085,1.224,1.224,0,0,1-.016.694l-.009.027c-.235.7-.369,1.126-.438,1.354a1.83,1.83,0,0,1,.122.61,2.849,2.849,0,0,1-.11.763,3.971,3.971,0,0,1-.7,1,2.434,2.434,0,0,1-.575.374c-.08.045-.194.109-.25.142a1.3,1.3,0,0,1-.814.213c-.252.006-.449.018-.589.035l.026.2a1.63,1.63,0,0,1-.186,1.186l-.132.2-.194.11a1.433,1.433,0,0,1-.359.214,1.06,1.06,0,0,1-.2.133l-.005,0a1.606,1.606,0,0,1-.573.142,1.031,1.031,0,0,1-.118.068c-.179.09-.222.111-1.37.2Zm2.684-6.238h.074c.038-.105.09-.257.119-.343l.038-.112a6.242,6.242,0,0,0-.819-.329l-.03.005c-.036.08-.08.188-.132.322l0,.017c.042.034.083.067.113.089.072.037.178.1.385.21Zm-5.6-.251h.023a2.233,2.233,0,0,0,1.115-.412c0-.055-.01-.128-.017-.2a.588.588,0,0,0-.1-.121,2.729,2.729,0,0,0-1.041.36C541.258,533.323,541.265,533.458,541.275,533.572Z" transform="translate(-538.353 -525)"/>
  </g>
</svg>
