<svg xmlns="http://www.w3.org/2000/svg" viewBox="0 0 11.076 16.883">
  <path id="Subtraction_609" data-name="Subtraction 609" d="M24109.494,22378.881h-.027a.094.094,0,0,1-.053-.012l-.012,0a.185.185,0,0,0-.049-.02l-.02,0a.114.114,0,0,0-.037.006.038.038,0,0,0-.014,0l-.008,0a.091.091,0,0,1-.027.008s-.01,0-.012,0a.029.029,0,0,0-.014,0h-.018a.075.075,0,0,1-.037-.006l0,0a.16.16,0,0,0-.066-.012.64.64,0,0,0-.154.021v-2.061a1.3,1.3,0,0,0,.65.2l.021-.021.01-.01v1.895h0l0,0A.942.942,0,0,1,24109.494,22378.881Zm-.006-2.293a.5.5,0,0,1-.145-.027c-.043-.021-.043-.021-.049-.043a.1.1,0,0,0-.01-.053.026.026,0,0,0-.021-.021c-.012,0-.025.014-.037.027l0,0c-.016.021-.029.039-.049.043h-.018a.018.018,0,0,0-.012-.008h0s-.006,0-.008,0v-.006a.205.205,0,0,0,0-.025s0-.014-.006-.02l0-.01c-.018-.047-.027-.047-.037-.047h0l0,0a.025.025,0,0,1-.012-.008l-.006,0c-.006-.008-.012-.012-.016-.012a.055.055,0,0,0-.029.012l-.018.01-.008.006-.025.012-.008,0a.012.012,0,0,1-.008,0h-.006c-.012-.008-.021-.014-.031-.021a.522.522,0,0,1-.055-.035l0,0a.15.15,0,0,1-.01-.1l-.2-.164-.049-.246-.082.17c-.385-.24-.453-.855-.541-1.637-.029-.266-.059-.523-.1-.8,0-.012,0-.016,0-.018h0a.5.5,0,0,1,.088.129l.008.01c.008.016.02.029.027.043.037.053.066.1.08.1h0c.006-.006.008-.025,0-.062s-.141-.344-.312-.738c-.227-.512-.469-1.066-.482-1.158,0-.012,0-.02,0-.021h0c.018,0,.059.059.1.121l.014.023a.578.578,0,0,0,.105.143v-.021a6.9,6.9,0,0,1-.191-.8c-.014-.094-.035-.187-.059-.285l-.008-.035,0,0a1.752,1.752,0,0,1,.064-1.275,4.822,4.822,0,0,0-.486,1.43,5.374,5.374,0,0,0,.135.814l.012.051c.012.063.025.129.039.193l0,.006a16.238,16.238,0,0,1,.336,1.885,3.07,3.07,0,0,1-.029,1.275.838.838,0,0,0-.143-.029l-.033-.006-.02,0-.08-.021-.111-.234c0-.006,0-.006-.006-.006s-.053.047-.08.092l-.016.016a.3.3,0,0,1-.059.068l-.006-.006-.09-.068a.083.083,0,0,0-.061-.016h-.041a.1.1,0,0,1-.037.006h0l0-.006-.01,0a.15.15,0,0,1-.029-.012.049.049,0,0,1,0-.029s0-.006,0-.01v0c0-.006,0-.012,0-.014a.012.012,0,0,0,0-.008c0-.008-.066-.395-.127-.738l-.07-.391-.031-.176a1.884,1.884,0,0,0-.336-.773,3.2,3.2,0,0,1,.172.857,3.509,3.509,0,0,1-.268.822.223.223,0,0,0-.1.059l-.01-.006a.18.18,0,0,0-.053-.016s0-.008,0-.012a.043.043,0,0,1-.01-.012l0,0a.032.032,0,0,0-.037-.021c-.01,0-.025,0-.031-.016a.247.247,0,0,0-.037-.039l0,0c-.008,0-.014,0-.018-.016h-.012a.652.652,0,0,0-.07.02h-.01l-.01,0a.067.067,0,0,1-.037.014l-.016,0h-.016a.172.172,0,0,1-.033,0l-.012-.064,0-.006c-.012-.057-.027-.129-.035-.156v-.016l-.059.223h-.006a.556.556,0,0,0-.1-.01l-.016-.016-.1-.027-.027.027-.006,0h-.123l0,0,0-.023a.4.4,0,0,0,.006-.094l.053.09.115-.623-.115-.271.156-.922h-.145l.027-.318-.039-.1.055-.266-.07-.127.086-.2-.07-.113v-.1l.08-.062-.068-.07.145-.172-.141,0,.178-.229h-.076v-.059l.033-.086.1-.244h-.082l.023-.455-.061-.084.3-1.279a3.085,3.085,0,0,0-.068-.615c-.012-.023-.018-.033-.023-.033s-.031.066-.045.207a.047.047,0,0,0-.008.025l0,.01s0,.006,0,.008a.548.548,0,0,1-.029.166.025.025,0,0,1-.006-.018,3.772,3.772,0,0,1-.006-.584v-.039a2.558,2.558,0,0,0,.006-.281.083.083,0,0,0-.092-.07.125.125,0,0,0-.068.018.128.128,0,0,1,0-.021l0-.02a5.367,5.367,0,0,0,.059-.748,6.686,6.686,0,0,0-.107-1.385.01.01,0,0,0-.006.01,1.335,1.335,0,0,0-.059.424v.021a.46.46,0,0,1-.012.172c0,.021-.012.033-.016.033l0-.006a1.866,1.866,0,0,1-.064-.766,2.7,2.7,0,0,0,0-.293l0-.012a.9.9,0,0,1,.006-.229l.123-.336.121.113-.059-.287.059-.17a.047.047,0,0,0-.016-.055c-.01-.012-.037-.012-.053-.012h-.025l-.15-.219v-.867a.378.378,0,0,0-.02.063l-.018.066-.006.016c-.012.037-.033.1-.053.17l-.021.076c.012-.391.041-.658.055-.785.029-.277.068-.426.111-.426h0v0c0-.047,0-.072.027-.082a.345.345,0,0,1,.164-.021h9a.376.376,0,0,1,.176.021c.01.012.01.027.01.061v.025a4.27,4.27,0,0,0-.139,1.1l-.08-.283-.219.783c.021.145.184,1.451.256,2.109,0,.045.006.092.008.139s0,.086,0,.131l0,.006a1.052,1.052,0,0,0-.037-.123c-.006-.023-.014-.045-.02-.068a.584.584,0,0,1-.02-.062c-.053-.162-.094-.295-.127-.428-.008-.01-.008-.01-.01-.01a16.291,16.291,0,0,0,.01,1.637v.045a.165.165,0,0,0-.074-.021.09.09,0,0,0-.086.074c-.012.039.027.584.041.789l0,.025c0,.029,0,.049,0,.059l0,.008-.166-.389-.121,1.154.213.928-.055.086.021.447-.121-.154.1.3.041.283.223.543-.137,0,.15.178-.072.064.076.063.006.1-.068.113.078.2-.062.127.084.3-.07.066.213.461c-.008-.012-.078-.072-.111-.072,0,0,0,0,0,0a.018.018,0,0,0-.006.025l.006.027c.01.045.018.09.025.141a.637.637,0,0,0-.037.107c0,.01,0,.014-.006.014l0,0a.247.247,0,0,1,.035-.016l0,0,.018-.008.012.064.012.066c.012.07.025.148.039.227a.007.007,0,0,0-.006,0l0,.008h0a.1.1,0,0,0-.006.039v.029h-.012a.426.426,0,0,1-.084-.02.176.176,0,0,0-.062-.016c-.006,0-.012,0-.012,0s0,.012.012.021l0,.01a.11.11,0,0,1,.029.045h0l0,0a3.226,3.226,0,0,0,.143.521v-.324h.027l.031.068c.014.082.025.17.035.254,0,.027.008.057.012.086s.008.057.012.086l-.037-.02a.642.642,0,0,1-.09-.049l-.006,0a.036.036,0,0,0,0,.014l0,.006a.233.233,0,0,0,.016.041l0,.01a.6.6,0,0,1,.078.314.31.31,0,0,1-.07.006.257.257,0,0,1-.01-.029l-.006-.008a.758.758,0,0,0-.271-.219h-.006a.918.918,0,0,0-.025.129,1.1,1.1,0,0,1-.037.17l-.008,0c-.01,0-.023,0-.047,0s-.072,0-.094,0l-.018,0h0a.273.273,0,0,0-.076.031l-.049.021a.573.573,0,0,1-.16.049h-.01c-.025-.012-.025-.018-.025-.037a.306.306,0,0,0-.006-.064c-.018-.047-.037-.059-.053-.062l-.01,0c-.008-.006-.014-.008-.018-.016s-.01-.012-.016-.012-.018.014-.031.033l-.008.01a.107.107,0,0,1-.014.018.037.037,0,0,1-.012.014.74.74,0,0,1-.043.07c-.055.08-.037.1-.01.129l.008.012.008.01a.277.277,0,0,1,.021.035v.023l-.072.035-.018.014-.061.029a3.094,3.094,0,0,1-.1-.717,2.892,2.892,0,0,1,.172-.852l0-.008a1.779,1.779,0,0,0-.342.777,7.085,7.085,0,0,1-.5,1.172l-.029.016-.092-.059-.074.113-.012,0-.008,0a.13.13,0,0,1-.029.006l-.105-.039-.277-.547v.6l-.006,0a.063.063,0,0,1-.047-.029,5.8,5.8,0,0,1-.061-2.285v-.006l0-.016a8.131,8.131,0,0,0,.189-1.049,2.723,2.723,0,0,0-.072-.59,5.676,5.676,0,0,1-.119-1.023c0,.072-.059.4-.121.781l-.014.084c-.064.375-.117.689-.143.863-.023.156-.09.406-.176.723l-.016.051,0,.016,0,.012a18.922,18.922,0,0,0-.275,2.1l-.006.072a6.181,6.181,0,0,1-.082.7h-.074a.722.722,0,0,0-.256.117h.08l-.055.07c-.1.063-.193.135-.275.2l-.176.1.043.006c-.035.029-.072.063-.111.1l-.135-.016h-.006c-.01,0-.025.031-.043.068l0,.014c-.014.033-.025.064-.039.066S24109.514,22376.588,24109.488,22376.588Zm-.307-4.141h0c.01,0,.016.047.021.1l0,.039,0,.02a1.378,1.378,0,0,0,.047.24c.043.1.086.145.135.145a.124.124,0,0,0,.084-.055c.039-.043.033-.1.025-.205l0-.012,0-.027,0-.035a2.453,2.453,0,0,1-.018-.381c0-.105.012-.154.021-.154.025,0,.063.268.064.271v-.719l-.086.4-.117-.762a.268.268,0,0,1,.006-.207l0-.01a.634.634,0,0,0,.059-.184.69.69,0,0,0,0-.34l0-.006a1.421,1.421,0,0,1-.254.428c-.053.066-.09.105-.107.105a0,0,0,0,1,0,0c-.016-.016.008-.1.037-.207l0-.006v-.012l0,0v-.01l.008-.029a1.808,1.808,0,0,0,.061-.262.822.822,0,0,0-.018-.426c-.01-.047-.02-.1-.031-.164s-.02-.109-.033-.176a1.929,1.929,0,0,0-.078-.354.12.12,0,0,0-.006.049,5.832,5.832,0,0,1-.08.984,1.8,1.8,0,0,1-.133.475l-.01.027-.006.018a1.779,1.779,0,0,0-.059.207l.09.557h.074a.47.47,0,0,1,.006.193c0,.006,0,.012,0,.018a.158.158,0,0,0,0,.029,1.379,1.379,0,0,1,.043.17c.082.24.15.422.2.545.012.035.025.064.033.088l.006.02.01.02,0-.006,0-.02a1.463,1.463,0,0,1,0-.342.052.052,0,0,0,.006-.02.01.01,0,0,0,0-.006Zm.486-1.355v.266l.039-.086a.463.463,0,0,0,.061-.082c0-.008,0-.012,0-.014l-.059-.084.025-.176h-.049v-.178l.023.082.035-.023-.074-.223-.059.223v.119l-.021.127.049.1.029-.051Zm-.947-1.2-.1.084v.09l-.043.027.043.047.037.027v.09l-.068.064.09.064.043.064c.006-.01.059-.074.059-.094h0v-.062l.072-.037-.1-.09.059-.074-.059-.074Zm.842-.549-.1.078,0,.006,0,.164h.049l.014.059h.039v.252s.059-.043.063-.059l0,0,.02-.064-.047.023.018-.08h.029l.025-.107-.072-.143Zm-.455-2.016v0l.082.084.061.063c.047.051.092.1.137.145.6.639,1.193,1.3,1.768,1.967l.006,0,.016,0a.026.026,0,0,1,.016,0h.006a.131.131,0,0,1,.037-.01h.016v-.027a.152.152,0,0,0,0-.031.1.1,0,0,1,0-.023.036.036,0,0,1,.016-.025h.014a.036.036,0,0,1,.035.016s.006,0,.006.006h.006c.012,0,.031-.016.031-.027v0l.006,0,0-.008s0-.006,0-.006v-.01a.013.013,0,0,1,.014-.01l0-.006h0l0,0s0,0,0,0a.115.115,0,0,0,.041.02c.008,0,.012,0,.018.012a.026.026,0,0,0,.01.006c.008.008.012.012.021.012l.012.01,0,.006s0,0,.006,0a.05.05,0,0,0,.025.01.073.073,0,0,0,.043-.016l.006,0,0-.006.008-.006.012-.01c0-.006.006-.012.008-.012l-.008-.006h-.021c-.006,0-.01,0-.01-.006a.085.085,0,0,1-.064-.029.015.015,0,0,1-.006-.006c0-.006.006-.012.016-.021s.021-.014.021-.021v-.021a.017.017,0,0,1-.01-.006s-.006,0-.006-.006-.018-.023-.006-.047a.081.081,0,0,0,.012-.049l0-.01,0-.006,0-.006a.066.066,0,0,1,.039-.025h.047c.012,0,.016,0,.021-.006v-.021l-.006-.006c-.025-.02-.025-.02-.031-.053v-.02a.038.038,0,0,1,.021-.033l0-.006v0l0,0v-.008l0,0a.077.077,0,0,0,.016-.041c0-.025,0-.025-.031-.053a.072.072,0,0,1,0-.031s0-.006,0-.006l0-.006c0-.006,0-.006,0-.01l0-.006a.042.042,0,0,0,0-.021.024.024,0,0,0-.012-.016s0,0,0-.006l-.006,0h0l0,0,0-.008a.218.218,0,0,1-.01-.061v-.01l.006,0,0-.008s0-.006,0-.01l0-.006,0,0a.051.051,0,0,0,0-.023v-.027l-.006,0v-.012a.206.206,0,0,1,.01-.037.012.012,0,0,0,.006-.012.011.011,0,0,0-.006-.01s0,0,0,0v-.006s.006-.006.01-.012a.018.018,0,0,1,.016-.006.026.026,0,0,1,.018,0,.063.063,0,0,0,.031-.006v-.016c0-.008,0-.016,0-.021a.026.026,0,0,1,0-.016.272.272,0,0,0-.01-.064l-.006-.033-.006-.053a.108.108,0,0,1,0-.035.018.018,0,0,0-.006-.014s-.006,0-.006,0c-.016-.006-.027-.01-.027-.025s-.01-.021-.016-.021a.03.03,0,0,1-.012-.021.078.078,0,0,0-.025-.049s-.006,0-.006-.006a.053.053,0,0,1,.006-.016.029.029,0,0,0,.008-.023c0-.006,0-.006-.008-.008a.036.036,0,0,1-.021-.037l-.006-.006,0-.006,0-.006-.01-.016c-.014,0-.021-.014-.021-.031s-.006-.012-.006-.021a.021.021,0,0,1,0-.016.022.022,0,0,0-.008-.018.063.063,0,0,1-.029-.041c0-.016,0-.027-.006-.031s0-.006,0-.008l-.008,0-.01-.008c-.01-.008-.014-.01-.014-.023v-.012a.041.041,0,0,1-.006-.025c0-.012,0-.018-.02-.021a.058.058,0,0,0-.02-.008h0l-.018,0s0,0,0,0a.007.007,0,0,1-.006,0l-.01,0s-.012,0-.012-.016a.04.04,0,0,0,0-.01.031.031,0,0,1,.008-.023l0-.006a.039.039,0,0,1,0-.018.194.194,0,0,0,0-.035.067.067,0,0,1,.01-.021l0,0,.006,0,.006,0h0l0,0s.006.006.01.006.023.02.023.035v.014a.013.013,0,0,1,0,.01l0,0,0,.006,0,0c.016.01.021.016.021.027s.006.01.006.016a.029.029,0,0,0,.016.025.019.019,0,0,1,.016.021v.006l.006,0h0l0,0,0,.02c.008.02.01.029.027.039s.01,0,.01.01a.036.036,0,0,0,.021.033s.006,0,.006,0,0,0,.006.006h0l.008,0s0,0,0,0,0,0,.006,0,.008,0,.016-.016.027-.045.021-.059v-.016l-.021-.021-.025-.031-.018-.027-.006,0c-.471-.561-.93-1.08-1.4-1.6a36.745,36.745,0,0,1,3.334-2.9.067.067,0,0,1,.021-.049.033.033,0,0,0,.02-.018l0-.02v-.012l-.012,0a.032.032,0,0,0-.018-.006h-.045a.015.015,0,0,1-.012-.006.029.029,0,0,1-.012-.027v0a.056.056,0,0,0,.006-.033v-.01a.046.046,0,0,0-.021-.012h0l0,0-.006,0c-.016,0-.016-.008-.021-.023v-.014l0-.01,0,0a.034.034,0,0,0-.021-.012h-.049l-.016-.008-.01,0a.074.074,0,0,0-.047-.016h-.029a.015.015,0,0,0-.014.006.041.041,0,0,1-.039.016h-.059a.058.058,0,0,0-.043.021c0,.006-.01.006-.02.006a.1.1,0,0,0-.039.02.019.019,0,0,1-.016.012h-.047a.02.02,0,0,0-.012-.006.05.05,0,0,1-.01-.025.028.028,0,0,0,0-.014.034.034,0,0,0,.006-.014l0-.006c0-.01,0-.016-.018-.025h0l0-.006s0,0,0,0a.081.081,0,0,0-.041-.023h-.008a.038.038,0,0,0-.029.01l-.021.023a.067.067,0,0,0-.018.016.02.02,0,0,1-.016.01h-.037c-.006,0-.014,0-.014.006a.057.057,0,0,1-.051.021.05.05,0,0,0-.037.016.068.068,0,0,1-.021.016l0,.006c-.006,0-.012.006-.012.012a.076.076,0,0,1-.031,0l-.01,0s0,0-.008,0l-.008,0h-.018a.052.052,0,0,0-.025.01c-.006,0-.006,0-.006.006s0,0-.006.006,0,0-.006,0h-.031c-.01,0-.023,0-.027,0h0l-.008,0s0,0,0,0l-.006-.006h0l0,0s0,0,0-.008v0h0s.008,0,.01,0h.008c.014,0,.021,0,.025-.01l0-.006,0-.006v0l.006,0,0-.01v-.008a.068.068,0,0,0,.006-.031v-.012c0-.01-.027-.035-.031-.035h-.01s-.008,0-.01,0,0,0-.008,0h0a.073.073,0,0,0-.043.016.024.024,0,0,1-.016.01s0,0-.006.006l-.006,0,0,0a.007.007,0,0,0-.006,0l-.01,0a.054.054,0,0,1-.023.023l-.006,0h0a.049.049,0,0,0-.014.016.044.044,0,0,1-.027.012.2.2,0,0,0-.059-.006l0-.01a.053.053,0,0,1,.025-.055l0,0a.075.075,0,0,0-.021-.043l0-.006-.008,0a.03.03,0,0,0-.008-.012s-.006,0-.008-.008a.028.028,0,0,0,0-.012h-.016a.026.026,0,0,0-.027.018s0,0,0,0,0,.008-.006.008-.016,0-.023.014-.01.012-.016.012h0c-.006,0-.012,0-.021-.012v-.01a.058.058,0,0,1,.01-.027.094.094,0,0,0,.023-.016.006.006,0,0,0,0,0h.006a.016.016,0,0,1,.018-.016.074.074,0,0,0,.018-.025.015.015,0,0,0,0-.008l0-.006s0-.016-.006-.025l-.01.006-.006,0-.018,0a.028.028,0,0,1-.012.016s0,0,0,0a.075.075,0,0,0-.021.016.036.036,0,0,1-.033.018h-.01c-.006-.008-.006-.008-.006-.012v-.006c-.006,0-.01-.016-.016-.025a.143.143,0,0,1-.006-.043.389.389,0,0,1,.027-.08l.016-.053c-.682.578-1.32,1.15-1.959,1.746.008,0,.01,0,.01.006l.006,0h0s.006,0,.006,0l0,0s.006,0,.006-.008,0-.006.012-.006a.041.041,0,0,1,.031.021c.01.008.01.012.01.018s0,.01-.006.01l-.014.016a.02.02,0,0,1-.016.01l-.008.006a.091.091,0,0,0-.02.018l-.006,0c-.006,0-.006.006-.01.006h-.012a.026.026,0,0,1-.016-.025s.006,0,.006-.008v0c0-.006,0-.006-.006-.006h0l0-.006v-.037c-.16.15-.307.289-.445.424-.061.057-.117.111-.176.164l-.215.207a11.075,11.075,0,0,0-2.2-1.838.023.023,0,0,1-.01.01l-.006.006a.026.026,0,0,0-.01.006l-.008,0a.049.049,0,0,1-.014.008l-.006,0h-.016c-.016.006-.016.006-.021.025l-.006,0a.039.039,0,0,1-.01.025.018.018,0,0,1-.01,0,.007.007,0,0,1-.006,0l-.006,0-.006,0h0a.017.017,0,0,1-.016-.01.015.015,0,0,1-.006-.006h-.01l-.016.006a.041.041,0,0,0-.023.021v.01l0,.006a.006.006,0,0,1,0,0s0,0,0,.006a.018.018,0,0,1-.008.012v.012a.08.08,0,0,0-.01.035.018.018,0,0,1-.006.014.013.013,0,0,1,0,.01l-.006,0,0,.006a.1.1,0,0,1-.006.014c0,.006-.008.01-.01.014l0,.01-.006.006-.006.01a.043.043,0,0,1-.006.01.035.035,0,0,0-.008.018l-.012.012s0,0-.008.006l-.01.006a.033.033,0,0,0-.02.014c-.023.018-.037.027-.053.037a.06.06,0,0,1-.025.02l-.006,0-.008,0h-.01c-.006,0-.006.006-.01.006a.017.017,0,0,0-.012.006l-.006.006c0,.006,0,.01-.006.01s0,.006-.01.006l0,.006v0l0,0-.01.012a.042.042,0,0,0-.021.037v.021a.031.031,0,0,0,.016.027c.012.006.012.016.012.025v.012l-.012.012s0,0-.01,0h-.006c-.02,0-.027-.006-.027-.021s-.018-.021-.031-.021-.014,0-.021.012l-.006,0-.006.01a.091.091,0,0,0-.016.039.184.184,0,0,0,0,.08v.008s0,.01-.006.014v0a.014.014,0,0,1,0,.012l-.006,0-.006,0,0-.006s0,0-.006,0l0,0a.027.027,0,0,0-.023-.01.029.029,0,0,0-.025.01l-.01.008c-.01.014-.014.02-.014.025a.359.359,0,0,1-.025.084v.008s0,0,0,0v.1a.062.062,0,0,0,.02.039.016.016,0,0,1,.006.016.015.015,0,0,0,0,.008.073.073,0,0,1,0,.02v.02a.025.025,0,0,0,.014.018.148.148,0,0,1,.041.037l0,0a.067.067,0,0,1,.033.055.027.027,0,0,0,.01.02.043.043,0,0,1,.02.033c0,.02,0,.033.014.037l.016.016h0l.006,0s0,0,0,0a.047.047,0,0,1,.012.031s0,.008,0,.012,0,.018.012.02l.016.016.016.016a.021.021,0,0,1,.006.01s0,.006.006.008a.025.025,0,0,0,0,.012s0,0,.008,0a.111.111,0,0,1,.021.047v.012c0,.01,0,.01.01.01h.021c.018,0,.021.006.021.016s0,.018.01.021a.007.007,0,0,1,.006,0s0,0,0,0,0,0,.008,0,.006.008.006.01l.01.012a.006.006,0,0,1,.006.006.012.012,0,0,1,0,.008c-.006.008-.008.014-.01.014a.012.012,0,0,0,0,.008s0,0,0,0a.3.3,0,0,1,.033.027.113.113,0,0,0,.029.025l0,0s0,0,0,.006,0,0,.006.006a.1.1,0,0,0,.053.053l.027.018c.01.006.016.012.021.016a.022.022,0,0,1,.01.021v0s.006,0,.006.006h0l0,0,.01.008.006,0h0a.043.043,0,0,1,.025.008.015.015,0,0,0,.008.014l0,0c.012.008.016.012.016.018a.015.015,0,0,1,.006.006c.416.338.824.705,1.246,1.115a15.518,15.518,0,0,0-1.645,2.045c.012.008.016.016.01.023v.043a.013.013,0,0,1,0,.01.021.021,0,0,0,0,.01.1.1,0,0,0,.021.074.035.035,0,0,0,.033.018h0a.079.079,0,0,1,.027-.021l.008-.008a0,0,0,0,1,0,0s0,0,0,0a.055.055,0,0,0,.016-.023l.012-.01s0,0,0,0,0-.006.008-.006h0c.008,0,.014,0,.018,0a.04.04,0,0,1,.021.027v.043a.067.067,0,0,0,.021.043.1.1,0,0,0,.064.031.058.058,0,0,0,.025,0s0-.006.006-.006l0-.006.008,0c.01,0,.025.012.033.035v.006s0,0,0,.006,0,.02,0,.025v.008l0,.006a.012.012,0,0,0,0,.008v0l-.006,0v.006a.028.028,0,0,1,0,.014c0,.01,0,.016.01.02a.043.043,0,0,0,.01.008l.012,0a.162.162,0,0,1,.074.033h.006a.018.018,0,0,0,.016-.006v-.006a.007.007,0,0,0,0-.012.049.049,0,0,0-.006-.031c0-.01,0-.018,0-.021a.028.028,0,0,1,.027.018c0,.012.008.018.014.025a.01.01,0,0,0,.008,0,.108.108,0,0,1,.037.072.152.152,0,0,1,.008.057.094.094,0,0,0,.008.059h.016a.037.037,0,0,0,.037-.016l.006,0,.006,0a.007.007,0,0,1,.006,0c.006,0,.008,0,.01,0a.121.121,0,0,1,.027.027s.006.008.01.01c.018.021.029.031.037.031a.05.05,0,0,0,.021,0l.01-.006a.031.031,0,0,1,.027.025l0,.012v.006a.044.044,0,0,1,0,.031l0,.006h0s0,0,0,.006a.012.012,0,0,0,0,.008.021.021,0,0,0,0,.014.023.023,0,0,0,0,.025.026.026,0,0,0,.016,0h.039a.073.073,0,0,1,.043.016.019.019,0,0,0,.016.014l0,0,.006.006a.043.043,0,0,0,.033.016.015.015,0,0,0,.014-.006.216.216,0,0,0,.059-.088l.006-.008.006-.016,0-.006c.031-.066.053-.1.066-.1s.02.008.031.01l0,0,.012,0a.045.045,0,0,0,.021.006.035.035,0,0,1,.025.021l0,.01c-.008.018-.014.027-.031.027h-.018s-.01.006-.016.016l0,0a.031.031,0,0,0,.023.012.071.071,0,0,1,.025.016l.008,0h0l0,0s0,0,0,0l.012.006c.008,0,.01,0,.012,0a.03.03,0,0,0,.012-.008l0,0,.031-.023.031-.02.01-.006h.027a.013.013,0,0,1,.012.01.044.044,0,0,1,.016.031v.027s-.006,0-.006.006l.006,0a.058.058,0,0,0,.012.029.025.025,0,0,0,.02.014h.006l.006,0a.1.1,0,0,1,.023,0,.019.019,0,0,1,.014,0c.006,0,.01,0,.016.006a.047.047,0,0,0,.018,0l0,0,.006,0a.029.029,0,0,0,.014-.006s.006-.006.008-.008h0l0-.006s0-.006.008-.008h0l.006,0a.057.057,0,0,0,.02-.049v-.01c0-.01,0-.021,0-.025a.39.39,0,0,0,.02-.041l.006-.018c.021-.041.041-.084.066-.125l.006,0,0-.006a.016.016,0,0,0,.01-.016v-.033a.033.033,0,0,0,0-.035.042.042,0,0,0-.02-.029h0l-.008,0s0,0,0,0h-.008c0-.006-.006-.006-.01-.006a.016.016,0,0,1-.01-.016s0-.01,0-.01a.078.078,0,0,0,.033-.033l0,0s0,0,0,0h0l0-.008c.006,0,.006,0,.01,0s.006.006.021.025a.041.041,0,0,0,.021.016l.006,0,0-.006a.03.03,0,0,0,0-.041c-.016-.016-.021-.025-.016-.031s0,0,.016,0h.043a.028.028,0,0,0,.025-.018c.012-.021.012-.027-.031-.059a.057.057,0,0,0-.027-.01l.01-.012.107-.131s.006,0,.006,0l.006.006c.242-.357.51-.717.8-1.064Zm5.8-4.793h-.484c.012-.123.031-.24.047-.332l.01-.066h.428a.153.153,0,0,1,.17.133v.133A.154.154,0,0,1,24114.908,22362.531Zm-10.453,0h-.283a.156.156,0,0,1-.17-.133v-.133a.154.154,0,0,1,.17-.133h.352c-.023.109-.047.238-.066.4Z" transform="translate(-24104.002 -22361.998)" />
</svg>
