<svg xmlns="http://www.w3.org/2000/svg" viewBox="0 0 15.509 15.512">
  <path id="Path_99214" data-name="Path 99214" d="M12.257,14.1l-1.408-3.252L14.1,12.26l1.411,3.252ZM1.411,12.26,4.66,10.846,3.246,14.1,0,15.512Zm2.4,2.076.364-.9a6.753,6.753,0,0,0,7.145,0l.37.9a7.69,7.69,0,0,1-7.879,0Zm-.006,0h.006Zm0,0h.006ZM13.43,11.33a6.733,6.733,0,0,0,0-7.136l.9-.382a7.685,7.685,0,0,1-.006,7.889ZM1.176,11.7A7.687,7.687,0,0,1,1.17,3.812l.9.382a6.733,6.733,0,0,0,0,7.136Zm-.006,0h.006Zm0,0h.006ZM7.752,8.857,6.3,9.486l.629-1.448L6.3,6.587l1.45.63,1.45-.63-.63,1.452L9.2,9.486Zm4.505-7.443L15.509,0,14.1,3.255,10.843,4.666ZM1.411,3.249,0,0,3.246,1.414,4.66,4.666ZM4.176,2.076l-.37-.9a7.726,7.726,0,0,1,7.891,0l-.376.9A6.77,6.77,0,0,0,4.176,2.076Z" />
</svg>
