<svg xmlns="http://www.w3.org/2000/svg" viewBox="0 0 14.514 18.08">
  <path id="Path_99165" data-name="Path 99165" d="M2.446,18.08H.957v-.7l1.034-.186L2.7,15.726l4.611.947,4.707-.948.6,1.48.879.177h.092v.7H12.1l-.488-1.328-.361-.541.113.961-.148.908H3.334l-.144-.889L3.3,16.2l-.352.514,0,0c0,.01-.316.991-.5,1.361Zm4.813-1.764-2.531-.532-.1-.6.1-.941-.393.471-.44.929-.558-.125.538-1.013L4.8,13.6l.488-.294-.158.579,2.15,1.859,2.091-1.886L9.222,13.3l.432.294,1.077.91.447,1.014-3.918.794Zm.013-.962h0l-.751-.667-.041-.562-.155-2.14-.266,2.14-.017.136-.154-.136-.3-.266.454-2.568.265-.2.965.857.978-.87.29.217.41,2.51-.35.324L7.272,15.354Zm0-3.762h0l-.691-.67L6.552,10.9h0L3.333,7.776.376,6.542,0,2.566l2.332-.7-.07-.615L7.113.014A.889.889,0,0,1,7.257,0h0A.765.765,0,0,1,7.4.016l4.892,1.221-.078.683,2.3.644-.377,3.98-2.878,1.2,0,0L8,10.887l0,0-.065.059-.667.644ZM4.275,5.058l.478,1.7.488,1.414L6.973,9.806,6.409,6.495,6.6,1.11l-1,.285.074,3.151L5,1.567l-1.544.442.512,4.956.62.585-.156-.691-.152-1.8ZM10.921,4.2h0l-.5,2.528L9.105,8.736l1.626-1.79.19-2.75Zm-8.5-1.51L.834,3.115l.287,2.894,1.765.706Zm9.7.051-.453,3.957,1.724-.686.287-2.89-1.559-.382h0Z" transform="translate(0 0)" />
</svg>
