<svg xmlns="http://www.w3.org/2000/svg" viewBox="0 0 15.397 15.197">
  <g id="Group_94359" data-name="Group 94359" transform="translate(-94.482 -395.771)">
    <path id="Intersection_1" data-name="Intersection 1" d="M6.725,14.214V12.89l-.682-.138v1.319l-.622-.128L5.085,11.73,3.858,10.7l.786-1.259,1.48-.9.271.738.479,1.5h.315V14.29ZM.784,10.258l.992-.774H4.459l-.752,1.2-1.971.168Zm-.648-.4.168-1L.89,7.575l.732,1.863-.96.744Zm6.1-1.4-.9-2.566H5.325l.215-2.53,1.714,0V7.744H6.873L6.446,9.037ZM0,7.132,1.889,6.119.824,7.4v.006H.818L.275,8.6ZM1.211,3.08,2.1,5.853.014,6.97ZM2.224,5.793,1.3,2.925,3.808.878l.622,2.48h.976L5.193,5.883ZM4.529,3.226,3.934.834,7.222,0l.032.006V3.23Z" transform="translate(94.482 396.678)" />
    <path id="Intersection_2" data-name="Intersection 2" d="M6.726.076V1.4l-.682.138V.219l-.62.127L5.086,2.561,3.859,3.589l.785,1.258,1.481.9L6.4,5.01l.479-1.5h.315V0ZM.785,4.033l.993.774H4.46L3.707,3.6l-1.97-.168Zm-.647.4.168,1L.891,6.715l.733-1.863L.663,4.109Zm6.1,1.4L5.34,8.4H5.326l.214,2.531,1.716,0V6.547H6.874L6.446,5.254ZM0,7.159,1.889,8.171.825,6.888V6.883H.82l-.544-1.2Zm1.212,4.052L2.1,8.436.016,7.321ZM2.225,8.5,1.3,11.364l2.5,2.046.622-2.479h.977L5.194,8.406Zm2.306,2.566-.6,2.393,3.289.834.032-.007V11.06Z" transform="translate(109.879 410.062) rotate(180)" />
  </g>
</svg>
