<svg xmlns="http://www.w3.org/2000/svg" viewBox="0 0 512 512">
  <path d="M512 0 309.222 69.772 314.084.005 88.104 152.454C32.933 188.959 0 250.091 0 316c0 108.075 87.925 196 196 196 65.908 0 127.044-32.938 163.55-88.109l152.444-225.975-69.768 4.862L512 0zM292.206 412.207C266.545 437.868 232.378 452 196 452s-70.545-14.132-96.207-39.793c-53.048-53.048-53.048-139.365 0-192.413C125.455 194.132 159.622 180 196 180s70.545 14.132 96.206 39.793c53.049 53.049 53.049 139.365 0 192.414z"/>
  <path d="M211.922 300.078c-4.241-4.242-9.896-6.578-15.922-6.578s-11.681 2.336-15.922 6.578c-4.242 4.242-6.578 9.896-6.578 15.922s2.336 11.681 6.578 15.922c4.242 4.242 9.896 6.578 15.922 6.578s11.681-2.336 15.922-6.578c4.242-4.242 6.578-9.896 6.578-15.922s-2.336-11.681-6.578-15.922z"/>
  <path d="M270.993 241.007C250.998 221.012 224.365 210 196 210s-54.999 11.012-74.994 31.006c-41.351 41.352-41.351 108.636 0 149.987C141.001 410.988 167.635 422 196 422s54.998-11.012 74.993-31.006c41.352-41.352 41.352-108.636 0-149.987zm-37.858 112.129C223.228 363.043 210.04 368.5 196 368.5s-27.228-5.457-37.136-15.365C148.957 343.228 143.5 330.04 143.5 316s5.457-27.228 15.365-37.136C168.772 268.957 181.96 263.5 196 263.5s27.228 5.457 37.136 15.365C243.043 288.772 248.5 301.96 248.5 316s-5.457 27.228-15.365 37.136z"/>
</svg>
