<svg id="mobility" xmlns="http://www.w3.org/2000/svg" viewBox="0 0 16.292 16.439">
  <path id="Path_27334" data-name="Path 27334" d="M241.477,271a.477.477,0,1,0,.477.477A.478.478,0,0,0,241.477,271Z" transform="translate(-233.331 -262.377)" />
  <path id="Path_27335" data-name="Path 27335" d="M154.341,181A3.341,3.341,0,0,0,151,184.341v3.341h6.682v-3.341A3.341,3.341,0,0,0,154.341,181Zm0,4.773a1.432,1.432,0,1,1,1.432-1.432A1.433,1.433,0,0,1,154.341,185.773Z" transform="translate(-146.195 -175.241)" />
  <rect id="Rectangle_162" data-name="Rectangle 162" width="1.843" height="2.764" transform="translate(7.224 13.675)" />
  <path id="Path_27336" data-name="Path 27336" d="M365.786,1.142A.955.955,0,0,0,364.85,0h-2.9a.955.955,0,0,0-.006,1.909l.389,0,.381,1.939h2.346Z" transform="translate(-349.513)" />
  <path id="Path_27337" data-name="Path 27337" d="M3.85,0H.955A.955.955,0,0,0,.019,1.142L.741,3.85H3.087l.381-1.939.389,0A.955.955,0,0,0,3.85,0Z" transform="translate(0)" />
  <path id="Path_27338" data-name="Path 27338" d="M33.864,158.5v-2.039a1.9,1.9,0,0,1-.955-1.644V151H31v3.818A3.81,3.81,0,0,0,33.864,158.5Z" transform="translate(-30.014 -146.195)" />
  <path id="Path_27339" data-name="Path 27339" d="M393.864,151h-1.909v3.818a1.9,1.9,0,0,1-.955,1.644V158.5a3.81,3.81,0,0,0,2.864-3.683Z" transform="translate(-378.558 -146.195)" />
</svg>
