<svg xmlns="http://www.w3.org/2000/svg" viewBox="0 0 32.488 32.489">
  <g id="Group_54083" data-name="Group 54083" transform="translate(-13619.943 27.084)">
    <path id="Path_107505" data-name="Path 107505" d="M119.5,3176.746l3.173,3.173v1.579l-8.161,8.161-1.38,1.38,1.38,1.38,8.161,8.161v1.58l-3.173,3.173h-1.579l-8.162-8.161-1.38-1.379-1.38,1.379-8.161,8.161H97.257l-3.173-3.173v-1.58l8.161-8.161,7.512-7.511,8.161-8.162Zm.808-1.951H117.11l-8.733,8.733-7.512,7.511-8.733,8.733v3.2l4.316,4.316h3.2l8.733-8.733,8.734,8.733H120.3l4.316-4.316v-3.2l-8.733-8.733,8.733-8.733v-3.2Z" transform="translate(13527.811 -3201.879)"/>
    <path id="Path_107506" data-name="Path 107506" d="M98.836,3176.746l5.15,5.15-4.752,4.752-5.149-5.149v-1.579l3.173-3.173Zm.808-1.951h-3.2l-4.316,4.316v3.2l7.1,7.1,7.511-7.511Z" transform="translate(13527.811 -3201.879)"/>
  </g>
</svg>
