<svg xmlns="http://www.w3.org/2000/svg"  viewBox="0 0 150 150">
  <g id="Outro_Icon" data-name="Outro Icon" transform="translate(-13754 -7293)">
    <rect id="Rectangle_13004" data-name="Rectangle 13004"  transform="translate(13754 7293)" fill="none"/>
    <path id="Path_96700" data-name="Path 96700" d="M26.932,121.5l-.533-.914s.563-5.322.533-5.358.184-.408.184-.408l.262-.4.232-.209,4.245-3.222.38-.15.54-.126h.3l.191.175.163.716h.139v.1l.264-.044.436.209,1.052-.267.5.616-.5,7.347.724-.777.989-.555.821-.344,1-.137h1.02l.674.234h1.006l.678.452-.063.607.609.474.638.629.445.664.061.547-.061.33-.54.538.046.783,2.434-.735-.488-.428-.134-.544-.93-2V118.8h-.62l-.1-.456s.021-.8,0-.834a7.781,7.781,0,0,1,.286-.786l.331-.133h.1l.213-1.281,1.213-7.76.051-.607h-5.6l-.458-.457H39.2l.075.342-1.576.115-.974-.576-.555-12.987.555-5.668.8-.7H38l-.206-.888.059-.526.752-1.707.161-.079.245-.183h.55l.047.306.167-.044.529-.262,1.45-.053-.25-.4-.089-.338.089-.457L40,80.733,38,79.605l-.791-1.137-.725-.084-.543-.07-.278-.286-7.545-.577-.1,2.346-.219.528-.288.409-.258.119h-1.12l-.432-.273-.368-.255h-.1v1.2l-.21.471s.09.14,0,.22a10.68,10.68,0,0,0-.16,1.6v1.624l-.317,1.1-.51.731H23.81l-.771.151v.572l.28.69-.28,3.406-1.093.831v.962l-.13,1.543-.311.532v.965l-.418.442L20.643,99.5l-1.022.41-1.19-.41v2.056l.093.3v1.06h-.146l-.167,1.447-4.406-.185.071-1.329-.347-.239s.094-1.381.1-1.309.177,0,.177,0v-.534h-.276l.1-1.175H13.8l.151-1c0-.011-1.286-.2-1.286-.2v-.8l-.827.056-.3-.295V96.58H11.31v-.934h.236V94.2l-.146-.134s-.156-.553-.153-.61-.28-.081-.28-.081a3.02,3.02,0,0,1-.368-.307c-.014-.048-.2-.876-.2-.876l-.908-.551.134-5.01-.618-.1L8.583,85.9h-.64V81.991s.418-.382.387-.471a3.83,3.83,0,0,1,0-.6H8.15l.115-6.053.317-.19,1.042.064V74.6h.3l.207-3.611.336-.66.469-.383.1-2.15L9.923,69.418,8.513,68.8,1.9,78.853H1.617L.167,78.6v-.268L0,78.242v-4.12l2.464-6.331L5.369,63.4l.148.064,3.932-5.938.4-6.3V49.1l.154-.222v-.789l-.085-.127.085-1.222h.139V45.027l.184-.408.388-.394,2.787-3.677V36.7l-.193-.242.481-8,.524-.092.354-.6.814-.157V25.124l.193-.221.179-2.4.242-.342.323-5.458,1.174-.877.833-.167h.914l.181.386,1.672.092.149-.311,1.858.311,1.156,1.184-.341,5.553.2.175-.2,2.428.341.277-.138,1.465-.376.394-.476,10.335-.167.212,1.47,1.167-.118,1.562,2.864,4.838V47.88l-.807,13.473h.13l-.035,1.254-.193.031-.132,1.749-.387.5L24.58,66.011l.729.219.563-.3.512-.067.359-.1.926.248.2.31,6.241-1.63.783-1.2.531-.114.186-.771.679-.469h.6l.715.66,6.1-1.613.675.3.648-.3.625-.242.7.142.331.4.256.649,1.326.217,3.008,4.815-.166,1.257.166.192,5.442.5,1.038.9-.485,3.014.485.079,1.187,1.022-.151.895h.856l.971-1.917.345-.079.158,1.2.632-.665-.331-1.722,1.217-1.1-.085-.431,1.2-1.192,4.355-.236,2.34-3.759h.285l1.507-2.439,1.253-.359.51-.546.632-.313h.8l.564.472.6-.273,5.951,1.925.559-.546h.973l.461.393.124.71.433.138.979,1.267L91.623,67.3v-.2l.672-.509.89-.163,1.393.672,1.562-.214.064-.217h.859l.438.217V67.2h.437l.108-.607-3.224-8.44.559-1.072.483-.353.1.262-.154.853.335.217.26-.7.663-.542,7.321.268,1.247.274.715.7,4.388,8.37v.77l.71.542.75,1.456.321,2.552-.981,1.314-1.126.08-.471-.886-1.066-.508L107.8,72.1v4.153l1.963,1.5.9,1.379-.472,1.277-1.32.661-1.646-.145-.258,2.09,1.715,8.346.434,4.405,2.17,16.429,5.6.6,1.283.424,2.04,1.015.317,1.02.386-.161.276.358v.8l.4.171v1.218l-.675.372.488,5.333h-6.476l-.845-5.7-3.338.372,1.073,5.333h-8.4l-.494-4.007H101.8l.349,4.007h-1.283l-.7-6.615-.821-4.73v-3.054l.821-1.537-.425-.57-.25-1.388-1.193-.689-1.34-10.476-1.245-1.6L94.885,90.4l-.715-3.063.08-2.987-.505.229L93.11,84.4l-1.4-.96-.1-.183.044-.474.224-.486.738-.954h.142l1.72-2.584-.1-.066,1.383-2.17.37-.374.394-.116.4-.094s-.658-.031-.681-.026L95.59,76l-.384.171-.286.785L83.914,79.172,82.571,78.4l-.445.476-.734.081-.049.889-.061.466-.219.295v.347l-.11.142-.093,2.456-.1.253v.109l1.368.076.5.413-.059.346-.179.427-.2,9.494h.2l.054-.153h.183l.384.62-.087,2.823-.368.375h-.167V98.15h-.151l-.047.11h-.611l-.035.973.092.07v1.334h-.319l-1.087,5.7-.618.549-.682.079-.183.355-1.465.693-.766-.241-.134-.271v-.536h-4.78l-.923,4.465-.191.085h-.176l-.151,2.209.063.181-.063.608h.151l.619.977.358,2.36-.577,4.059-.4.56h-.845l-.168.224v.561l-42.523.213ZM20.522,12.894a7.3,7.3,0,0,0-2.345.256L16.169,7.7l2.446.96V2.027l1.8,5.67L22.1,0l.387,7.066L24.644,4.52,23.363,9.79l2.805-.355-3.2,4.079A9.1,9.1,0,0,0,20.522,12.894Z" transform="translate(13768 7306)" fill="#ce00ff" />
  </g>
</svg>
