<svg xmlns="http://www.w3.org/2000/svg" viewBox="0 0 28.724 32.987">
  <g id="Group_35055" data-name="Group 35055" transform="matrix(0.777, 0.629, -0.629, 0.777, -2226.875, -1289.579)">
    <path id="Path_93362" data-name="Path 93362" d="M0,19.247a1.868,1.868,0,0,1,.369-.993V3.138c0,.64.5,1.242,1.407,1.7a7.764,7.764,0,0,0,3.392.7c2.647,0,4.8-1.077,4.8-2.4V18.253a1.868,1.868,0,0,1,.369.993c0,1.606-2.315,2.906-5.169,2.906S0,20.853,0,19.247ZM.369,2.4c0-1.325,2.149-2.4,4.8-2.4s4.8,1.074,4.8,2.4S7.82,4.8,5.169,4.8.369,3.725.369,2.4Z" transform="translate(2553 -408)" fill="#ce00ff"/>
    <path id="Path_93363" data-name="Path 93363" d="M0,19.247a1.868,1.868,0,0,1,.369-.993V3.138c0,.64.5,1.242,1.407,1.7a7.764,7.764,0,0,0,3.392.7c2.647,0,4.8-1.077,4.8-2.4V18.253a1.868,1.868,0,0,1,.369.993c0,1.606-2.315,2.906-5.169,2.906S0,20.853,0,19.247ZM.369,2.4c0-1.325,2.149-2.4,4.8-2.4s4.8,1.074,4.8,2.4S7.82,4.8,5.169,4.8.369,3.725.369,2.4Z" transform="translate(2564.076 -405.046)" fill="#ce00ff"/>
  </g>
</svg>
