<svg xmlns="http://www.w3.org/2000/svg" viewBox="0 0 36.731 36.731">
  <path id="Path_93399" data-name="Path 93399" d="M6.358,35.316a1.469,1.469,0,0,1-1.467-1.467V31.4H2.445A2.448,2.448,0,0,1,0,28.957V6.358A2.448,2.448,0,0,1,2.446,3.913H4.891V1.467A1.47,1.47,0,0,1,6.358,0h3.913a1.469,1.469,0,0,1,1.467,1.467V3.913h2.446a2.447,2.447,0,0,1,2.445,2.445v22.6A2.449,2.449,0,0,1,14.184,31.4H11.738v2.445a1.469,1.469,0,0,1-1.467,1.467Zm-4.4-6.948a.979.979,0,0,0,.978.978H13.7a.98.98,0,0,0,.977-.942V6.948a.979.979,0,0,0-.978-.978H2.934a.98.98,0,0,0-.977.942Zm1.161.1a.183.183,0,0,1-.183-.183V7.131c0-.005,0-.011,0-.016V7.031a.183.183,0,0,1,.183-.183H13.512a.184.184,0,0,1,.183.183V28.184c0,.005,0,.011,0,.016v.085a.183.183,0,0,1-.183.183Z" transform="translate(24.972) rotate(45)" fill="aqua"/>
</svg>
