<svg xmlns="http://www.w3.org/2000/svg"  viewBox="0 0 150 150">
  <g id="Power_Core_Icon" data-name="Power Core Icon" transform="translate(-13754 -7461)">
    <rect id="Rectangle_13005" data-name="Rectangle 13005"  transform="translate(13754 7461)" fill="none"/>
    <path id="Path_96701" data-name="Path 96701" d="M91.561,101.192H66.849v-5.06H43.72v5.06H20.752L13.835,89.676,44.529,70.543a20.078,20.078,0,0,0,10.9,3.18,20.248,20.248,0,0,0,6.86-1.187,20.031,20.031,0,0,0,3.92-1.914l31.8,19.824L91.56,101.189h0Zm12.24-9.9h0L103.332,91l.027-.045L64.169,66.524l5.358-8.573,34.931,21.774-.02.033,4.725,2.952L103.8,91.291ZM7.978,90.5h0L2.632,81.944,7.4,78.965l-.007-.012L41.054,57.971,46.4,66.527,42.439,69l.005,0,.007.006L7.978,90.5ZM105.692,77.67,75.034,58.559a20.37,20.37,0,0,0,.637-5.073A20.28,20.28,0,0,0,63.11,34.75V4.336H75.258l11.359,19.88-5.182,2.992L93,47.239l5.094-2.94,13.477,23.586-5.879,9.785ZM6.158,76.9h0L0,66.649,12.475,44.817l4.194,2.422L28.233,27.208l-4.282-2.473,11.657-20.4H48.2V34.572A20.28,20.28,0,0,0,35.2,53.486a20.4,20.4,0,0,0,.6,4.937L6.159,76.9ZM55.215,64.852A11.565,11.565,0,1,1,63.393,45.11a10.369,10.369,0,0,1,3.486,7.629,12.892,12.892,0,0,1-3.486,8.725A11.489,11.489,0,0,1,55.215,64.852Zm5.5-25.821H50.6v-.4H50.6V3.6H50.6V0H60.714V39.03Z" transform="translate(13773 7485)" />
  </g>
</svg>
