<svg id="speed" xmlns="http://www.w3.org/2000/svg" viewBox="0 0 17.777 12.152">
  <g id="ic_fluent_top_speed_24_filled" transform="translate(0 0)">
    <path id="_-Color" data-name="🎨-Color" d="M9.15,14.263l5.559-7.53a.617.617,0,0,1,1.1.506l-.027.087-3.438,8.706a1.839,1.839,0,1,1-3.319-1.568l.061-.1h0l.068-.1,5.559-7.53Zm7.605-7.113a9.468,9.468,0,0,1,1.8,1.93,11.021,11.021,0,0,1,1.173,2.131.666.666,0,0,1-1.241.486,7.321,7.321,0,0,0-.335-.721l-1.821,1.051a.666.666,0,0,1-.742-1.1l.075-.05,1.793-1.037-.2-.279a8.137,8.137,0,0,0-.94-1.03l.338-.857a1.557,1.557,0,0,0,.077-.259l.021-.131ZM14.42,5.762a1.522,1.522,0,0,0-.361.292l-.1.124-.481.651a8.176,8.176,0,0,0-1.927-.418V8.786a.666.666,0,0,1-1.327.09l-.006-.09V6.4a8.092,8.092,0,0,0-4.078,1.45A7.4,7.4,0,0,0,4.256,9.806l1.85,1.068a.666.666,0,0,1-.585,1.194l-.081-.04L3.6,10.964q-.17.355-.316.73a.666.666,0,1,1-1.242-.483A9.606,9.606,0,0,1,5.374,6.755,9.455,9.455,0,0,1,14.42,5.762Z" transform="translate(-1.993 -5.043)" />
  </g>
</svg>
