<?xml version="1.0" encoding="UTF-8" standalone="no"?>
<svg
   viewBox="0 0 500 500"
   version="1.1"
   id="svg5"
   xmlns="http://www.w3.org/2000/svg"
   xmlns:svg="http://www.w3.org/2000/svg">
  <defs
     id="defs9" />
  <g
     id="RM_Icon_Outline_Fill"
     data-name="RM Icon Outline Fill"
     transform="translate(-1000 -501)">
    <rect
       id="Rectangle_12670"
       data-name="Rectangle 12670"
       transform="translate(1000 501)"
       fill="none" />
    <path
       id="RM_Icon_Outline_Fill-2"
       data-name="RM Icon Outline Fill"
       d="M141.489,474.277V387.223H76.82L65.427,374.5l2.848-60.953,12.6-6.644V274.449l39.7-39.155V5.125L124.372,0h21.646l3.987,9.18v21.2h42.836V5.125L197.4,0h24.5l3.075,102.818,5.814-2.689,3.039-5.977h40.141l4.556-5.305h74.448l3.8,7.5h38.173l3.892,3.787,6.529,2.689V5.125L410.105,0h18.987l5.125,5.125V30.38H477.89V5.125L481.5,0h21.837l6.835,5.125v227.3l45.089,43.94v21.644l10.169,13.29v75.924H481.5v87.054ZM258.614,205.852V380.1H371.24V205.852ZM456.24,177.164a5.312,5.312,0,1,0,5.311,5.311A5.318,5.318,0,0,0,456.24,177.164Zm-289,0a5.312,5.312,0,1,0,5.311,5.311A5.318,5.318,0,0,0,167.241,177.164Zm289-38.25a5.312,5.312,0,1,0,5.311,5.311A5.318,5.318,0,0,0,456.24,138.914Zm-289,0a5.312,5.312,0,1,0,5.311,5.311A5.318,5.318,0,0,0,167.241,138.914Z"
       transform="translate(934.573 513.361)"
      />
  </g>
</svg>
