<svg xmlns="http://www.w3.org/2000/svg" viewBox="0 0 27.51 27.65">
  <defs>
    <linearGradient id="a" x1=".1" y1=".1" x2=".88" y2="1" gradientUnits="objectBoundingBox">
      <stop offset="0" stop-color="#fff"/>
      <stop offset=".26" stop-color="#d8d8d8"/>
      <stop offset=".54" stop-color="#fdfdfd"/>
      <stop offset="1" stop-color="#959595"/>
    </linearGradient>
  </defs>
  <path data-name="Path 99305" d="m8764.26 7089.65-1.52-1.6v-3.58l1.52-1.6h5.4l.52-.56v-.91l-.52-.55h-6.44l-.23-.22-.26-1.95.22-.23h8.3l1.52 1.6v3.59l-1.52 1.6h-5.4l-.52.56v.91l.53.54h6.45l.22.23.22 1.95-.23.22Zm11.7-1.17v-3.69l5.55-3.2v3.7l-5.55 3.2Zm-16.4 0-5.56-3.2v-3.7l5.55 3.21v3.69Zm16.4-5.8v-3.69l5.55-3.2v3.7l-5.55 3.19Zm-16.4 0-5.56-3.2v-3.7l5.55 3.21v3.69Zm15.07-11.68-3.7 2.53 1.22-4.35-3.52-2.78 4.47-.16 1.53-4.24 1.53 4.24 4.48.16-3.53 2.78 1.23 4.35Zm-13.75 0-3.71 2.53 1.23-4.35-3.53-2.78 4.48-.16 1.53-4.24 1.53 4.24 4.47.16-3.52 2.78 1.23 4.35Z" transform="translate(-8754 -7062)" fill="url(#a)"/>
</svg>
