<svg xmlns="http://www.w3.org/2000/svg" viewBox="0 0 21.09 21.74">
  <path id="Shields" d="M13.1,12.656c-.131.871.432,1.488,1.211.95.958-.662,1.109-2.26.227-2.408-.03-.005-.07-.007-.1-.009C13.664,11.226,13.19,12.07,13.1,12.656Zm3.475.215a.171.171,0,0,1,.034.006c.362.156-.8,2.139-1.336,2.281-.229.061-.043-.461.227-.971S16.273,12.919,16.577,12.871Zm-.317-7.265c-.166-.393-.359-1.031-.169-1.067.413.066,1.049,1.652.894,1.944C16.881,6.678,16.536,6.26,16.259,5.606ZM15.105,8.02c-.447.622-1.355.118-1.542-.856-.1-.513.043-1.25.668-1.281C15.119,5.962,15.572,7.371,15.105,8.02Zm-2.473,5.342a.866.866,0,0,1-1.513-.68,1.276,1.276,0,0,1,1.2-1.2C13.285,11.558,13.345,12.748,12.632,13.362Zm.189,2.036c-.67.375-1.027-.056-.849-.673a1.462,1.462,0,0,1,1.207-1.049.821.821,0,0,1,.156.024C13.942,13.887,13.62,14.951,12.821,15.4Zm4.147-2.96a5.491,5.491,0,0,0-.44,1.28l.012-.021c.189-.376.419-.887.579-1.276.108-.313.215-.743.293-1.065l-.038.056c.014-.056.055-.225.087-.41.009-.053.215-1.289-.207-.992a2.191,2.191,0,0,1,.033-.289.318.318,0,0,0,.1.068c.3-.136.225-1.074.177-1.7a.506.506,0,0,0,.068.136l0-.053L17.6,7.963a8.665,8.665,0,0,0-.312-1.448,1.708,1.708,0,0,0-.2-.522c.03.314.253,1.253.3,1.438-.083-.189-.118-.206-.2-.246-.228.1-.219.7-.209,1.33a.958.958,0,0,0-.106-.089c.148-.75-.166-1.984-.832-2.089a1.8,1.8,0,0,0-.875-1.8.421.421,0,0,0-.21,0c-.4.165-.086,1.829.812,2.007a2.342,2.342,0,0,0,.143,1.928c-.3-.211-.751-.292-1.167.515-.5-.852-1.4-.731-1.848.249a1.19,1.19,0,0,0-.377-.5c-.8-.6-1.885.2-1.728,1.277a1.431,1.431,0,0,0,.057.234,1.061,1.061,0,0,0,1.992.138c.349.98,1.21,1.134,1.806.323.081.2.3.742.831.656a3.151,3.151,0,0,0-.357,1.572A2.593,2.593,0,0,0,14,14.87c-.863.307-1.458,1.408-1.313,1.624.182.271,1.465-.52,1.673-1.321a1.957,1.957,0,0,0,.9-.689l1.428-2.394,0-.017a.738.738,0,0,0,.07.422l.079.029A1.234,1.234,0,0,0,16.969,12.439Zm-.7-3.556-.027.068c-.006-.016-.025-.063-.053-.121l0,0A.525.525,0,0,0,16.271,8.883ZM15.1,15.115a.1.1,0,0,1,.052.019c.2.219-1.216,1.607-1.635,1.6-.173,0,.23-.474.412-.676C14.009,15.964,14.744,15.156,15.1,15.115Zm.1.313a9.834,9.834,0,0,1,.849-.949l0,0a.609.609,0,0,1-.083.136l-.245.329c-.276.328-.661.752-.962,1.058-.112.105-.121.106-.135.108a6.968,6.968,0,0,1,.571-.685Zm.9-11.234c-.538-.832-.537-.874-.536-.9a1,1,0,0,1,.2.231l.278.383c.158.235.35.561.5.8.116.213.114.232.112.256A4.514,4.514,0,0,1,16.091,4.194Zm-1.143-.723c-.005-.007-.525-.714-.324-.745a2.349,2.349,0,0,1,1.1,1.346C15.7,4.266,15.32,3.974,14.948,3.471Zm-1.124.217c-.168-.286-.323-.747-.022-.769.47.045,1.166.94,1.035,1.33C14.727,4.574,14.159,4.259,13.824,3.688ZM12.58,4.864c-.131-.391-.086-.953.422-.974a1.315,1.315,0,0,1,1.026,1.58C13.756,6.05,12.849,5.671,12.58,4.864Zm-.3.992a1.214,1.214,0,0,1,.856,1.85c-.51.657-1.56.221-1.7-.707h0A.929.929,0,0,1,12.281,5.856Zm-2.594,2.8a1.06,1.06,0,0,1,.74,1.761A1.042,1.042,0,0,1,8.6,9.8,1.074,1.074,0,0,1,9.687,8.657Zm-.729,3.984a1.013,1.013,0,0,1,1.057-1.023.88.88,0,0,1,.618,1.487A.925.925,0,0,1,8.958,12.641Zm.995,2.235a.931.931,0,0,1,.915-.793c.023,0,.053,0,.076.006.564.075.634.753.122,1.189C10.509,15.752,9.9,15.437,9.953,14.876Zm.917,1.483a1.135,1.135,0,0,1,.908-.657.42.42,0,0,1,.15.033c.352.17-.03.828-.62,1.067-.446.181-.6-.085-.438-.443Zm.638.79a2.035,2.035,0,0,1,1.039-.614.177.177,0,0,1,.1.03c.257.225-.949,1.032-1.326,1.022C11.092,17.581,11.437,17.221,11.508,17.149Zm1.737-.343c.019,0,.04.006.042.027,0,.04-.114.23-.69.564a2.718,2.718,0,0,1-.948.388c0-.022.009-.055.511-.393C13,16.828,13.184,16.811,13.245,16.806Zm-.139.362a8.749,8.749,0,0,1,.932-.588l0,0a6.558,6.558,0,0,1-1.565.99,1.269,1.269,0,0,1,.184-.123C12.8,17.366,12.922,17.287,13.106,17.168Zm.673-15.516a4.092,4.092,0,0,1,1.017.867,2.572,2.572,0,0,1-.516-.405C13.777,1.681,13.778,1.666,13.779,1.652Zm.238.559c.01.108-.26-.018-.677-.378-.052-.045-.507-.441-.385-.458A2.25,2.25,0,0,1,14.018,2.211Zm-1.6-.589c.327.029.929.584.895.824-.027.188-.424.038-.759-.351h0C12.445,1.967,12.208,1.634,12.418,1.621Zm.224,1.734c-.134.371-.794.123-1.038-.391-.11-.232-.154-.6.2-.618C12.3,2.387,12.762,3.025,12.642,3.356ZM10.426,4.548a.585.585,0,0,1,.558-.753.867.867,0,0,1,.747,1.176C11.432,5.478,10.566,5.2,10.426,4.548ZM9.2,6.888a.886.886,0,0,1,.908-.973.96.96,0,0,1,.759,1.518A.963.963,0,0,1,9.2,6.888ZM7.3,8.775a.882.882,0,0,1,.619,1.455.843.843,0,0,1-1.477-.509h0A.865.865,0,0,1,7.3,8.775ZM7.6,11.742a.775.775,0,0,1,.639,1.222.793.793,0,0,1-1.412-.386A.74.74,0,0,1,7.6,11.742Zm.941,2.523a.559.559,0,0,1,.448.939.621.621,0,0,1-1.1-.294h0A.6.6,0,0,1,8.542,14.265Zm.443,2.307h0a.658.658,0,0,1,.663-.539l.055,0c.406.052.435.511.052.8C9.353,17.15,8.947,16.941,8.986,16.571Zm.785,1a.916.916,0,0,1,.648-.387.2.2,0,0,1,.114.033c.192.152-.313.577-.671.633-.233.036-.182-.147-.091-.279Zm.763.475a2.394,2.394,0,0,1-.753.23c-.019,0-.054-.014.291-.211a2.142,2.142,0,0,1,.784-.323c.018,0,.042,0,.051.016C10.944,17.807,10.78,17.933,10.534,18.046Zm.662-.1.018.007a4.1,4.1,0,0,1-1.45.449c.17-.074.354-.109.529-.168A5.982,5.982,0,0,1,11.2,17.948ZM12.152.74C11.711.529,11.711.529,11.7.519a4.545,4.545,0,0,1,.893.416v0A3.653,3.653,0,0,1,12.152.74Zm-.094.134c-.028.021-.2-.05-.511-.21h0c-.389-.2-.39-.218-.391-.228h.007A2.427,2.427,0,0,1,12.058.874Zm-1.2-.31c.252.021.885.4.926.58.027.124-.269.058-.671-.256h0C11.078.86,11.028.819,11,.791,10.829.645,10.783.568,10.858.563Zm-.23.547c.288.023.684.4.642.609s-.472.1-.694-.239C10.486,1.341,10.42,1.118,10.628,1.11Zm-.14,1.782c-.2.355-.841.158-.946-.293a.391.391,0,0,1,.383-.507C10.37,2.126,10.65,2.612,10.488,2.892Zm-2.27,1.47a.592.592,0,0,1,.612-.613.6.6,0,0,1,.491.962A.636.636,0,0,1,8.218,4.361ZM6.988,6.789Zm1.342.45a.758.758,0,0,1-1.342-.45.789.789,0,0,1,.8-.8A.753.753,0,0,1,8.33,7.24ZM5.049,8.9a.706.706,0,0,1,.409,1.181.6.6,0,0,1-1.02-.444A.652.652,0,0,1,5.049,8.9Zm-.18,3.607a.512.512,0,0,1,.5-.652.661.661,0,0,1,.518,1C5.6,13.24,4.978,13.025,4.87,12.507ZM6.015,14.9h0a.37.37,0,0,1,.373-.5.518.518,0,0,1,.47.728C6.67,15.451,6.134,15.3,6.015,14.9Zm1.274,1.762a.343.343,0,0,1,.371-.434.412.412,0,0,1,.385.6A.421.421,0,0,1,7.289,16.658Zm1.437.8c.264.02.279.249.1.412-.234.211-.492.112-.477-.109A.359.359,0,0,1,8.726,17.46Zm-.057.991c-.034-.006,0-.049.1-.129h0a.968.968,0,0,1,.484-.215.093.093,0,0,1,.064.02C9.409,18.228,8.824,18.478,8.669,18.451ZM9.451,0h0a1.893,1.893,0,0,1,.673.238c-.016.03-.262-.068-.394-.12A1.744,1.744,0,0,1,9.451,0ZM10,.569C9.991.655,9.784.6,9.635.446,9.59.4,9.5.282,9.592.279,9.731.29,10,.471,10,.569Zm-.517.745c-.118.2-.5.088-.555-.169A.226.226,0,0,1,9.149.86C9.4.879,9.57,1.158,9.48,1.314ZM7.656,2.372a.451.451,0,0,1,.446-.4.373.373,0,0,1,.222.664A.388.388,0,0,1,7.656,2.372Zm0,0Zm-.724,2.15c-.315.268-.754.084-.711-.3a.544.544,0,0,1,.526-.469A.419.419,0,0,1,6.932,4.523ZM5.859,7.089a.516.516,0,0,1-.9-.391.649.649,0,0,1,.624-.623A.572.572,0,0,1,5.859,7.089ZM3.035,9.027c.367.037.481.572.261.846s-.609.092-.639-.317h0C2.641,9.341,2.747,9.036,3.035,9.027ZM3.4,11.966a.532.532,0,0,1,.394.72c-.151.284-.56.13-.663-.251C3.077,12.245,3.127,11.973,3.4,11.966Zm1.138,2.546a.45.45,0,0,1,.388.535c-.086.205-.425.09-.549-.186C4.312,14.72,4.32,14.518,4.537,14.512ZM6,16.363a.466.466,0,0,1,.425.475c-.054.223-.41.094-.555-.148C5.774,16.532,5.8,16.367,6,16.363Zm1.378,1.323a.223.223,0,0,1,.214.229c-.028.126-.218.067-.3-.063C7.247,17.772,7.264,17.688,7.377,17.686Zm.835.754c-.054.057-.13.047-.133-.016a.086.086,0,0,1,.095-.08C8.243,18.349,8.251,18.4,8.212,18.44ZM8.788.273A.092.092,0,0,1,8.636.217.071.071,0,0,1,8.7.134C8.776.14,8.827.225,8.788.273Zm-.941.776c-.118.062-.228,0-.191-.116A.236.236,0,0,1,7.862.78l.026,0C8,.813,7.975.982,7.847,1.049Zm-1.474,1.4c-.217.1-.381-.033-.3-.237a.477.477,0,0,1,.4-.295.227.227,0,0,1,.07.014C6.727,2.014,6.622,2.343,6.374,2.452ZM4.909,3.8c.215.062.161.41-.086.555-.214.126-.409-.008-.347-.239h0a.442.442,0,0,1,.382-.324A.328.328,0,0,1,4.909,3.8ZM3.677,6.919c-.253.21-.55.034-.512-.3a.487.487,0,0,1,.428-.448C3.94,6.2,3.945,6.7,3.677,6.919ZM1.339,9.153c.2.025.245.411.106.557-.116.121-.277-.006-.292-.23C1.145,9.348,1.2,9.159,1.339,9.153Zm.427,2.933a.359.359,0,0,1,.22.464c-.074.126-.258.021-.322-.183h0C1.629,12.253,1.637,12.091,1.767,12.086Zm1.261,2.537a.329.329,0,0,1,.243.314c-.025.1-.19.032-.276-.117C2.949,14.74,2.929,14.626,3.028,14.623Zm1.657,1.856a.483.483,0,0,1,.363.342c0,.117-.221.022-.352-.126h0C4.6,16.591,4.576,16.482,4.685,16.479ZM6.425,17.8a.328.328,0,0,1,.22.157c0,.043-.109,0-.186-.061l-.021-.018C6.4,17.852,6.373,17.805,6.425,17.8ZM8,.127c-.017,0-.012-.02.012-.039h0a.2.2,0,0,1,.1-.042.013.013,0,0,1,.01,0C8.129.066,8.042.134,8,.127ZM6.642.864c-.043,0-.047-.03-.008-.073A.255.255,0,0,1,6.785.71a.031.031,0,0,1,.02.007C6.839.75,6.719.859,6.642.864Zm-1.818,1.4c-.1.019-.132-.061-.062-.166a.427.427,0,0,1,.288-.189.089.089,0,0,1,.036.009C5.187,1.976,4.994,2.231,4.824,2.262Zm-1.707,1.9c-.094.04-.147-.032-.1-.14h0a.275.275,0,0,1,.2-.173.111.111,0,0,1,.022,0C3.338,3.891,3.251,4.107,3.117,4.164ZM1.856,6.739c-.125.081-.228-.025-.2-.2.019-.107.1-.26.229-.264l.016,0C2.056,6.3,2.023,6.63,1.856,6.739ZM.047,9.294c.054.009.062.157.024.2S0,9.487,0,9.41C0,9.363.011,9.3.047,9.294Zm.495,2.917c.045.007.086.115.068.156s-.059,0-.081-.064C.517,12.266.512,12.213.541,12.211Zm1.418,2.6c0,.018-.033,0-.051-.031s-.022-.043-.006-.044A.1.1,0,0,1,1.96,14.808ZM5.856.7s0,0,.008-.01h0A.065.065,0,0,1,5.888.678h0S5.862.7,5.856.7ZM1.874,3.965c-.009,0-.009-.008,0-.019s.016-.022.025-.023h0C1.908,3.929,1.889,3.961,1.874,3.965ZM.5,6.467c.007-.03.028-.072.053-.074h0c.031.009.011.105-.027.131S.488,6.512.5,6.467Z" transform="matrix(0.978, -0.208, 0.208, 0.978, 0, 3.666)" />
</svg>
