<svg xmlns="http://www.w3.org/2000/svg" viewBox="0 0 25.651 20.818" xmlns:v="https://vecta.io/nano"><path d="M19.924 20.318H16.11c-.099 0-.197-.017-.29-.051s-.174-.081-.248-.143-.136-.136-.184-.219-.084-.181-.1-.28a.86.86 0 0 1-.015-.159v-.888H14.6l.009.888a.86.86 0 0 1-.015.159c-.016.099-.05.194-.1.28s-.11.157-.184.219-.158.11-.248.143-.191.051-.29.051h-4.4c-.099 0-.197-.017-.29-.051s-.174-.081-.248-.143-.136-.136-.184-.219-.084-.181-.1-.28a.86.86 0 0 1-.015-.159v-.888h-.46a.85.85 0 0 1-.836-.684L4.3 3.349 1.058 2.153c-.299-.11-.511-.378-.551-.694S.607.831.87.65a.85.85 0 0 1 .777-.1L5.34 1.914c.278.102.482.341.541.631l.565 2.8h17.92c.25 0 .484.119.632.32s.191.461.116.699l-2.377 7.576c-.092.294-.349.507-.655.544L8.617 16.1l.156.772H21.24c.312-.011.604.149.763.418s.159.602 0 .87-.451.428-.763.418h0l.009.888a.86.86 0 0 1-.015.159c-.016.099-.05.194-.1.28s-.11.157-.184.219-.158.11-.248.143c-.253.034-.507.051-.762.051h-.017zm-.464-1.741h-2.509v.113a.31.31 0 0 0 .006.063c.026.16.164.277.326.276h1.845c.162.001.3-.116.326-.276 0-.02.006-.063.006-.063v.16zm-6.416 0h-2.978v.113a.31.31 0 0 0 .006.063c.026.16.164.277.326.276h2.314c.162.001.3-.116.326-.276 0-.02.006-.063.006-.063zM6.762 6.91l1.544 7.647 13.086-1.574L23.3 6.91H6.762z"/></svg>