<svg xmlns="http://www.w3.org/2000/svg"  viewBox="0 0 150 150">
  <g id="Chassis_Skin_Icon" data-name="Chassis Skin Icon" transform="translate(-13754 -6927)">
    <rect id="Rectangle_13002" data-name="Rectangle 13002" transform="translate(13754 6927)" fill="none"/>
    <path id="Path_96497" data-name="Path 96497" d="M46.03,110.407h0c0-.012-.022-.116-.049-.271l-.026-.148c-.187-1.054-.623-3.521-.834-4.82l3.407-26.931L36.7,85.062l-2.564-4.441-1.39-2.407L29.61,72.776l-1.351-2.339,1.892-7.1,12.119-7L36.6,53.4,28.3,58.191a8.091,8.091,0,0,1-4.035,1.081c-.079,0-.16,0-.239,0a8.1,8.1,0,0,1-4.21-1.326L4.337,47.11c-.995-.653-3.329-1.967-4.285-2.5L.041,44.6,0,44.578c.009-.016.5-.771,1.047-1.609.27-.414.563-.862.84-1.289l.011-.016c.4-.607.76-1.166.984-1.508L14.427,22.482c.348-.532,1.282-1.806,2.628-3.587l.008-.011.058-.076.01,0,.014.006a44.109,44.109,0,0,1,4.221,2.222l16.8,11.144a8.137,8.137,0,0,1,3.662,7.126L41.464,48.3l7.177,4.362,22.466-12.97,5.151,1.51.005,0a1.774,1.774,0,0,1,.177-.126L78.627,39.8l3.3.888.5.864a5.543,5.543,0,0,1,.945.142,6.214,6.214,0,0,0,.764.127c.075.006.153.009.229.009,1.031,0,2.139-.534,3.705-1.785,1.614-1.29,3.516-5.07,3.535-5.108a2.52,2.52,0,0,0,.952.174,2.894,2.894,0,0,0,1.371-.349,3.4,3.4,0,0,0,1.152-4.139,1.228,1.228,0,0,0-1.116-.631,2.558,2.558,0,0,0-1.111.3A5.993,5.993,0,0,1,95.8,25.344a3.39,3.39,0,0,1,1.842-.54,6.263,6.263,0,0,1,3.753,1.7,1.1,1.1,0,0,0-.11,1.032,4.837,4.837,0,0,0,2.944,2.223,1.324,1.324,0,0,0,.366.052c1.36,0,2.64-2.066,2.653-2.087,1.368-.058,3.025-.272,3.71-1.415.573-.957.373-2.461-.594-4.472a4.094,4.094,0,0,0-3.6-1.959,2.99,2.99,0,0,0-1.262.252,1.616,1.616,0,0,0-.733,2.181c-3.515-.083-6.8-4.771-8.232-9.358a8.159,8.159,0,0,1,.53-6.858,5.381,5.381,0,0,1,4.053-2.415,8.437,8.437,0,0,1,.948-.054A8.084,8.084,0,0,1,107.918,6.2,10.663,10.663,0,0,1,109.8,8.772,5.873,5.873,0,0,1,111.66,7.61a11.609,11.609,0,0,1,4.74-1,13.486,13.486,0,0,1,5.314,1.14,7.65,7.65,0,0,1,3.64,3.124,9.919,9.919,0,0,1,1.283,4,15.63,15.63,0,0,1-.251,4.91,13.092,13.092,0,0,1,4.48,4.04A13.979,13.979,0,0,1,133.48,30.8a8.9,8.9,0,0,1-1.811,6.419,12.66,12.66,0,0,1-3.492,2.9,3.517,3.517,0,0,0-.816.578c-.257.368-.163.548.025.9a4.922,4.922,0,0,1,.581,1.845c.294,2.2-1.365,5.7-5.019,7.846l-.164.094a13.688,13.688,0,0,1-3.854,1.454,10.132,10.132,0,0,1-2.155.229,13.9,13.9,0,0,1-6.224-1.644,10.6,10.6,0,0,1-2.481-1.642c.093,0,.2.005.307.005a2.306,2.306,0,0,0,2.1-.8c.577-.94-.118-2.579-.789-3.9a2.256,2.256,0,0,0-2.225-1.3,11.183,11.183,0,0,0-2.059.278c-.5.1-1.018.2-1.532.258a4.006,4.006,0,0,1-.447.029c-.695,0-.805-.273-.945-.618l-.008-.02c-.177-.441-.42-1.043-2.177-1.31a5.031,5.031,0,0,0-.735-.062c-1.252,0-1.353.7-1.471,1.521a2.366,2.366,0,0,1-.946,1.884,3.892,3.892,0,0,1-2.136.48,20.984,20.984,0,0,1-3.517-.426,15.582,15.582,0,0,0-2.029-.283h-.046c-1.645,0-2.226,2.124-2.232,2.145l-.974.459.52.9-.879,3.3L83.665,53.58a1.875,1.875,0,0,1-.2.091l-1.267,5.216L61.78,70.673l.082.5,14.3,8.75-3.359,5.521-9.578-5.86-2.666,23.2c.231,1.419.969,4.658,1,4.8a.486.486,0,0,1-.081.02c-1.183.261-4.053.887-5.154,1.065L51,109.423c-1.127.181-4.933.976-4.971.984ZM63.719,62.136l-.985,1.586L64.6,63.66l13.346-7.706-.879-1.524Zm-2.886-5-.985,1.585,1.865-.06,13.346-7.705-.879-1.524Zm-2.886-5-.985,1.586,1.864-.061,13.347-7.706-.88-1.524ZM116,47.96a1.115,1.115,0,1,0,1.115-1.115A1.116,1.116,0,0,0,116,47.96Zm-30.039-.288a4.936,4.936,0,0,1,1.33-1.911c.225-.162.5-.346.8-.543a7.857,7.857,0,0,0,2.435-2.056c.152-.353.237-.58.153-.738-.1-.186-.431-.279-1.094-.409a1.616,1.616,0,0,0-.3-.029,4.246,4.246,0,0,0-2.262,1.11,14.385,14.385,0,0,1-1.383.932,3.028,3.028,0,0,1-1.553.37h-.01Zm33.385-2.5a1.673,1.673,0,1,0,1.673-1.673A1.675,1.675,0,0,0,119.342,45.171Zm4.461-.558a1.116,1.116,0,1,0,1.115-1.115A1.117,1.117,0,0,0,123.8,44.613Zm-13.473-2.885a2.781,2.781,0,0,0,1.232,1.8,1.494,1.494,0,0,0,.812.245,2.1,2.1,0,0,0,1.3-.555l-.006,0a4.968,4.968,0,0,1-1.276-1.11,3.894,3.894,0,0,1-.816-3.342c.315-1.5,1.061-2.235,2.282-2.235a5.283,5.283,0,0,1,1.112.149c.1.022.193.041.272.054a.737.737,0,0,0,.114.008,7.827,7.827,0,0,0,3.434-1.376A5.422,5.422,0,0,0,121.417,31a6.363,6.363,0,0,0-.759-3.269,4.848,4.848,0,0,0-3.723-2.346c-.1-.009-.189-.013-.278-.013-1.625,0-1.913,1.52-2.037,2.169a2.75,2.75,0,0,1-1.682,1.787,3.239,3.239,0,0,1-.841.064c-.185,0-.391,0-.611-.005h-.053c-.26,0-.516-.006-.786-.006-1.522,0-3.353.1-4.007.853-.936,1.082-.6,2.328-.238,3.648a6.727,6.727,0,0,1,.358,2.71c-.192,1.323-.987,4.52-4.216,5.644-.173.06-.255.146-.238.248.046.273.759.584,1.338.584a1.086,1.086,0,0,0,.464-.089,18.7,18.7,0,0,1,5.437-1.362A2.178,2.178,0,0,1,110.329,41.728Zm2.411-2.211a2.561,2.561,0,0,0,.484,2.295,3.453,3.453,0,0,0,2.447,1.442,1.246,1.246,0,0,0,.387-.057,5.146,5.146,0,0,0,2.781-2.649,2.328,2.328,0,0,0-.144-2.091,3.128,3.128,0,0,0-.375-.515,2.408,2.408,0,0,0-1.827-.633C115,37.308,113.176,38.082,112.74,39.517ZM99.528,33.579c-.673.317-3.253,1.8-3.592,3.267a24.65,24.65,0,0,1-.993,3.406,2.386,2.386,0,0,1-.648.665c-.333.27-.648.525-.661.777-.005.1-.013.179-.02.251-.017.179-.027.286.033.355.08.09.285.112.715.127l.093,0A4.514,4.514,0,0,0,97.8,40.808c.48-.6.728-.609,1.07-.623a2.68,2.68,0,0,0,1.689-.677c1.578-1.143,3.036-3.813,2.364-4.978a.946.946,0,0,0-.254-.288,3.77,3.77,0,0,0-2.219-.86A2.147,2.147,0,0,0,99.528,33.579Zm23.159,6.573a1.115,1.115,0,1,0,1.115-1.115A1.116,1.116,0,0,0,122.687,40.152ZM91.458,39.037a1.115,1.115,0,1,0,1.115-1.115A1.116,1.116,0,0,0,91.458,39.037ZM123.8,34.018a1.673,1.673,0,1,0,1.673-1.673A1.675,1.675,0,0,0,123.8,34.018ZM10.977,34.94H35.615L18.395,23Zm118.4-2.6a1.115,1.115,0,1,0,1.115-1.115A1.116,1.116,0,0,0,129.38,32.345ZM98.15,29a1.115,1.115,0,1,0,1.115-1.115A1.116,1.116,0,0,0,98.15,29Zm27.884-3.346a1.115,1.115,0,1,0,1.115-1.116A1.116,1.116,0,0,0,126.034,25.653Zm-5.577-6.692a1.115,1.115,0,1,0,1.115-1.115A1.116,1.116,0,0,0,120.457,18.961Zm-7.808-.558a1.673,1.673,0,1,0,1.673-1.672A1.675,1.675,0,0,0,112.649,18.4Zm-12.269-2.788A1.115,1.115,0,1,0,101.5,14.5,1.116,1.116,0,0,0,100.381,15.615Zm13.384-3.347a1.116,1.116,0,1,0,1.115-1.115A1.116,1.116,0,0,0,113.764,12.269Zm-10.038-.557a1.673,1.673,0,1,0,1.673-1.673A1.675,1.675,0,0,0,103.726,11.711Zm15.615-.558a1.115,1.115,0,1,0,1.115-1.115A1.116,1.116,0,0,0,119.342,11.153ZM100.381,7.808A1.115,1.115,0,1,0,101.5,6.692,1.116,1.116,0,0,0,100.381,7.808Zm35.691,38.479a1.673,1.673,0,1,1,1.672,1.673A1.673,1.673,0,0,1,136.072,46.287Zm-4.462-1.673a1.115,1.115,0,1,1,1.115,1.116A1.116,1.116,0,0,1,131.61,44.613Zm1.115-5.576a1.115,1.115,0,1,1,1.115,1.115A1.115,1.115,0,0,1,132.725,39.037Zm4.462-5.019a1.673,1.673,0,1,1,1.672,1.673A1.673,1.673,0,0,1,137.187,34.018Zm-2.231-6.134A1.116,1.116,0,1,1,136.072,29,1.116,1.116,0,0,1,134.956,27.884Zm3.347-6.134a1.673,1.673,0,1,1,1.672,1.672A1.673,1.673,0,0,1,138.3,21.749Zm-10.038-6.134a1.115,1.115,0,1,1,1.115,1.115A1.116,1.116,0,0,1,128.264,15.615Zm5.576-1.673a1.673,1.673,0,1,1,1.673,1.673A1.674,1.674,0,0,1,133.84,13.942Zm-6.691-6.134a1.115,1.115,0,1,1,1.115,1.115A1.115,1.115,0,0,1,127.149,7.808ZM123.8,2.789a1.673,1.673,0,1,1,1.673,1.672A1.674,1.674,0,0,1,123.8,2.789Zm-6.691.557a1.115,1.115,0,1,1,1.115,1.115A1.115,1.115,0,0,1,117.111,3.346Zm-8.923-1.672a1.673,1.673,0,1,1,1.672,1.672A1.673,1.673,0,0,1,108.188,1.673Z" transform="translate(13758 6947)"  stroke="rgba(0,0,0,0)" stroke-width="1" fill="#f8dc00" />
  </g>
</svg>
