<svg xmlns="http://www.w3.org/2000/svg" viewBox="0 0 34.964 36.908">
  <path id="Path_93398" data-name="Path 93398" d="M9.955,31.238H9.931c-1.33,0-2.62-.047-3.834-.137-1.188-.088-2.256-.214-3.173-.374a10.712,10.712,0,0,1-2.139-.554A2.217,2.217,0,0,1,.2,29.846a.48.48,0,0,1-.2-.351V22.35c.075.033.14.059.187.078a12.058,12.058,0,0,0,2.33.579,47.755,47.755,0,0,0,7.465.517,47.757,47.757,0,0,0,7.465-.517,12.056,12.056,0,0,0,2.33-.579c.048-.019.113-.044.187-.077v7.144a.48.48,0,0,1-.2.351,2.217,2.217,0,0,1-.582.327,10.712,10.712,0,0,1-2.139.554c-.917.16-1.985.286-3.173.374-1.23.091-2.537.137-3.886.137ZM3.018,22.16a7.132,7.132,0,0,1-2.987-.838.005.005,0,0,0,0,0c0-.007-.011-.02-.033-.037V11.087c.074.033.139.058.186.077h0a12.066,12.066,0,0,0,2.33.579,47.756,47.756,0,0,0,7.465.517,47.759,47.759,0,0,0,7.465-.517,12.064,12.064,0,0,0,2.33-.579c.047-.019.112-.044.187-.077V21.281c-.022.017-.033.03-.033.037a.005.005,0,0,0,0,0,7.135,7.135,0,0,1-2.987.838,48.687,48.687,0,0,1-6.964.448A48.686,48.686,0,0,1,3.018,22.16Zm0-11.263a7.132,7.132,0,0,1-2.987-.838.005.005,0,0,0,0,0c0-.007-.011-.02-.033-.037V2.633a.477.477,0,0,0,.2.348,2.169,2.169,0,0,0,.57.324,10.45,10.45,0,0,0,2.1.551c.9.16,1.949.286,3.12.375,1.209.092,2.5.141,3.827.145h.166c1.348,0,2.655-.046,3.886-.137,1.188-.088,2.256-.214,3.173-.374a10.706,10.706,0,0,0,2.139-.554,2.217,2.217,0,0,0,.582-.327.48.48,0,0,0,.2-.351v7.385c-.021.017-.033.03-.033.037a.005.005,0,0,0,0,0,7.133,7.133,0,0,1-2.987.838,48.689,48.689,0,0,1-6.964.448A48.688,48.688,0,0,1,3.018,10.9ZM9.943,3.488H9.817c-1.33,0-2.618-.052-3.827-.145-1.17-.089-2.22-.216-3.12-.375a10.454,10.454,0,0,1-2.1-.551A2.166,2.166,0,0,1,.2,2.092.477.477,0,0,1,0,1.744a.478.478,0,0,1,.2-.349A2.182,2.182,0,0,1,.773,1.07,10.524,10.524,0,0,1,2.883.518c.9-.16,1.958-.286,3.133-.375C7.232.051,8.524,0,9.859,0h.124c1.348,0,2.655.046,3.886.137,1.189.088,2.256.214,3.173.374a10.7,10.7,0,0,1,2.139.554,2.216,2.216,0,0,1,.582.327.48.48,0,0,1,.2.351.48.48,0,0,1-.2.351,2.216,2.216,0,0,1-.582.327,10.707,10.707,0,0,1-2.139.554c-.917.16-1.984.286-3.173.374-1.231.091-2.538.137-3.886.137ZM3.84,1.744A.458.458,0,0,0,4.3,2.2H5.14a.458.458,0,0,0,0-.916H4.3A.458.458,0,0,0,3.84,1.744Z" transform="translate(19.232) rotate(38)" fill="#ff6e03"/>
</svg>
