<svg xmlns="http://www.w3.org/2000/svg" viewBox="0 0 69.03 67.912">
  <g transform="translate(-841 -491.832)">
    <path id="Subtraction_390" data-name="Subtraction 390" d="M34.2,67.912h0L32,67.549V61.266L28.756,60.6v6.275l-2.962-.617L24.2,55.745l-5.841-4.9L22.1,44.866l7.039-4.283,1.282,3.522h0l2.276,7.1h1.5Zm.631-.035V51.209h1.443l2.655-7.3,0-.011,1.147-3.308,7.083,4.31,4.075,6.054-6.568,4.8L42.981,66.431l-2.934.253V60.6l-3.2.667v6.055l-2.007.556ZM8.265,51.568h0L3.74,48.753l4.734-3.68H21.228L17.65,50.791l-9.385.777Zm53.511,0-9.9-.8-3.834-5.7H60.719l5.472,3.016-4.415,3.479ZM3.17,48.4h0l-2.5-1.553.8-4.773,2.767-6.059,3.488,8.843L3.17,48.4Zm63.559-.732-5.218-2.876,3.436-8.712,2.125,5.768,0,.01.024.049.026.071.007,0,1.9,3.878-2.3,1.813Zm-28.146-4.7h0L36.277,36.8H32.7l-2.028,6.154-1-2.76L25.4,28l-.055,0,1.005-12.024,16.147.007,1.186,12.391L39.523,40.25h0l-.942,2.716ZM1.323,40.88h0L0,33.887l8.983-4.795L3.939,35.17l-.007,0-.011.025,0,0v0L1.323,40.88Zm66.012-.142h0L65.295,35.2h0l0,0-5.187-6.249L69.029,33.6l-1.694,7.139ZM.089,33.126,5.773,14.645l4.24,13.184-9.924,5.3Zm68.681-.373h0l-9.456-4.929L63.128,14.5l5.641,18.249ZM44.279,27.986h0l-1.149-12,5.571,0h0L51.657,4.22l11.01,9.6-3.925,13.7-14.463.46Zm-19.566-.007h0L10.579,27.53,6.2,13.908,18.129,4.19,21.07,15.972l.019,0v0l4.627,0-1,12Zm23.5-12.625-26.649-.011L18.725,3.976,34.367,0l16.7,3.991L48.212,15.354Z" transform="translate(841 491.832)" />
  </g>
</svg>
