<?xml version="1.0" encoding="UTF-8" standalone="no"?>
<svg
   viewBox="0 0 857.59488 978.66922"
   version="1.1"
   id="svg864"
   xmlns="http://www.w3.org/2000/svg"
   xmlns:svg="http://www.w3.org/2000/svg">
  <defs
     id="defs868" />
  <path
     id="Path_34376"
     data-name="Path 34376"
     d="m 427.24093,895.10248 h -0.015 a 40.326,40.326 0 0 1 -20.126,-5.379 l -260.043,-149.667 a 4.9,4.9 0 0 1 -2.426,-4.218 v -157.413 a 4.852,4.852 0 0 1 7.263,-4.218 l 266.268,153.532 a 17.77,17.77 0 0 0 17.594,0.076 l 60.5,-34.169 a 5.054,5.054 0 0 1 2.4,-0.626 4.788,4.788 0 0 1 2.411,0.657 l 138.734,80.044 a 4.849,4.849 0 0 1 -0.061,8.435 l -192.815,107.826 a 40.571,40.571 0 0 1 -19.684,5.12 z m 329.241,-129.4 -658.878998,-381.596 v -155.107 a 50.255,50.255 0 0 1 1.373,-11.6 l 661.015998,382.847 -0.122,147.481 a 49.173,49.173 0 0 1 -3.38,17.952 z m -45.624,-360.829 a 4.636,4.636 0 0 1 -2.4,-0.657 l -266.279,-153.257 a 17.674,17.674 0 0 0 -8.865,-2.369 17.887,17.887 0 0 0 -8.728,2.292 l -60.5,34.169 a 5.012,5.012 0 0 1 -2.38,0.611 4.807,4.807 0 0 1 -2.426,-0.642 l -138.736,-80.054 a 4.849,4.849 0 0 1 0.059,-8.44 l 192.829,-107.825001 a 40.32,40.32 0 0 1 39.81,0.244 l 260.042,149.700001 a 4.855,4.855 0 0 1 2.441,4.2 v 157.17 a 4.869,4.869 0 0 1 -4.867,4.858 z" />
</svg>
