<svg xmlns="http://www.w3.org/2000/svg" viewBox="0 0 27.51 25.77">
  <defs>
    <linearGradient id="a" x1=".1" y1=".1" x2=".88" y2="1" gradientUnits="objectBoundingBox">
      <stop offset="0" stop-color="#ff6200"/>
      <stop offset=".22" stop-color="#fa8d3d"/>
      <stop offset=".54" stop-color="#ff6b00"/>
      <stop offset="1" stop-color="#f7943f"/>
    </linearGradient>
  </defs>
  <path data-name="Path 99304" d="m8763.49 7087.77-.19-.22.23-1.96.2-.22h5.72l.46-.55v-.83l-.45-.62h-4.36l-.2-.23-.23-1.93.19-.23h4.6l.45-.64v-.83l-.46-.54h-5.71l-.2-.23-.23-1.95.18-.22h7.37l1.35 1.6v2.64l-1.05 1.34v.16l1.05 1.33v2.53l-1.35 1.6Zm11.74-4.68v-3.69l6.28-3.63v3.7l-6.28 3.61Zm-14.96 0-6.27-3.61v-3.7l6.28 3.62v3.69Zm7.48-11.9-3.79 2.59 1.26-4.44-3.6-2.84 4.57-.16 1.57-4.34 1.56 4.34 4.57.16-3.6 2.84 1.26 4.44Z" transform="translate(-8754 -7062)" fill="url(#a)"/>
</svg>
