<svg xmlns="http://www.w3.org/2000/svg" viewBox="0 0 22.645 22.641"><path d="M22708.8,19474.113a.664.664,0,0,1-.486-.2l-10.643-10.645a.649.649,0,0,1-.2-.48.663.663,0,0,1,.2-.482l10.643-10.635a.637.637,0,0,1,.486-.2.662.662,0,0,1,.48.2l10.633,10.635a.663.663,0,0,1,.207.482.649.649,0,0,1-.207.48l-10.633,10.645A.693.693,0,0,1,22708.8,19474.113Zm.031-7.17a7.017,7.017,0,0,0-3.957,1.193l-.316.258,3.773,3.773a.653.653,0,0,0,.461.188.626.626,0,0,0,.455-.187l3.813-3.812-.32-.256a6.9,6.9,0,0,0-3.883-1.156Zm-.039-13.713a.651.651,0,0,0-.461.193l-8.916,8.908a.685.685,0,0,0-.189.461.649.649,0,0,0,.189.459l4.322,4.32.262-.27a5.066,5.066,0,0,1,2.557-1.162.5.5,0,0,0,.055-.016c.01,0,.021-.008.027-.008l.012-.006a.249.249,0,0,0,.07-.025h.014l.746-.252-.678-.406a4.584,4.584,0,0,1-.723-.582,4.022,4.022,0,0,1-.83-1.23,3.839,3.839,0,0,1-.307-1.518,3.8,3.8,0,0,1,.307-1.514,3.862,3.862,0,0,1,.83-1.232,3.88,3.88,0,0,1,4.266-.84,3.933,3.933,0,0,1,2.072,2.072,3.866,3.866,0,0,1,.3,1.514,3.907,3.907,0,0,1-.3,1.518,3.841,3.841,0,0,1-.832,1.23,4.247,4.247,0,0,1-.725.582l-.68.406.75.252c.027.01.061.018.146.043l.039.012.025,0,.016.006a7.294,7.294,0,0,1,2.5,1.152l.26.205,4.25-4.256a.663.663,0,0,0,0-.92l-8.92-8.908A.586.586,0,0,0,22708.791,19453.23Zm.039,6.326a2.541,2.541,0,0,0-2.547,2.541,2.554,2.554,0,0,0,2.547,2.545,2.534,2.534,0,0,0,1.8-.748,2.532,2.532,0,0,0,0-3.6A2.529,2.529,0,0,0,22708.83,19459.557Z" transform="translate(-22697.475 -19451.473)" /></svg>