<svg xmlns="http://www.w3.org/2000/svg"  viewBox="0 0 150 150">
  <g id="Utility_Icon" data-name="Utility Icon" transform="translate(-13754 -7624)">
    <rect id="Rectangle_13006" data-name="Rectangle 13006"  transform="translate(13754 7624)" fill="none"/>
    <path id="Path_96702" data-name="Path 96702" d="M69.17,106.86a1.7,1.7,0,0,1-.28-.548c-.267-.733-.529-1.5-.759-2.168v0h0l-.009-.027c-.186-.542-.378-1.1-.574-1.654-.008-.021-.015-.043-.023-.064v0h0c-.008-.021-.015-.041-.022-.062l-.009-.025c-.5-1.422-.5-1.422-1.644-1.552h0c-.163-.019-.365-.042-.6-.074-1.577-.213-3.191-.344-4.752-.472l-.07-.006h0c-.473-.039-.961-.078-1.442-.12-.559-.049-1.127-.084-1.675-.119h-.016l-.029,0c-.5-.032-1.015-.064-1.52-.106-.841-.07-1.694-.153-2.518-.232l-.027,0L52.017,99.5c-.246-.023-.5-.048-.739-.072h0c-.591-.058-1.2-.119-1.805-.161-.555-.04-1.112-.069-1.65-.1h-.013c-.648-.035-1.317-.07-1.975-.121-1.518-.119-3.059-.252-4.55-.381l-.03,0h-.006c-.66-.056-1.48-.127-2.276-.194-.435-.037-.874-.072-1.3-.106l-.127-.011c-.357-.028-.8-.063-1.22-.1-.036,0-.074,0-.111,0a1,1,0,0,0-.914.607c-.877,1.491-1.8,2.954-2.5,4.062-.329.52-.528.751-.832.751a2.041,2.041,0,0,1-.78-.263c-.732-.355-1.472-.719-2.189-1.072h0l-.054-.027,0,0-.015-.007c-1.3-.637-2.637-1.3-3.967-1.919a1.483,1.483,0,0,1-.682-.549,1.306,1.306,0,0,1-.145-.841,6.886,6.886,0,0,0,0-1.1,2.273,2.273,0,0,1,.5-1.674,1.989,1.989,0,0,0,.41-.78,3.012,3.012,0,0,0,.092-.89c-.013-.506,0-1.02.009-1.518v0h0c.008-.382.016-.778.014-1.171a1.088,1.088,0,0,0-.176-.622c-.662-.774-1.345-1.552-2.007-2.3v0l0,0c-.381-.432-.752-.855-1.119-1.275-.814-.934-1.672-1.924-2.361-2.72l-.006-.006-.008-.009-1.586-1.828c-.618-.711-1.194-1.37-1.763-2.014-1.459-1.652-3.047-3.449-4.857-5.493-.195-.222-.392-.44-.609-.682l-.006-.006c-.385-.427-.822-.911-1.224-1.391a1.212,1.212,0,0,0-.973-.521,1.815,1.815,0,0,0-.492.077c-1.368.388-2.767.726-4.119,1.053l-.063.015-.011,0-.881.215a1.827,1.827,0,0,1-.42.063c-.313,0-.466-.159-.606-.632-.121-.413-.25-.841-.363-1.219l0-.011v0c-.479-1.6-.973-3.252-1.37-4.9a7.835,7.835,0,0,1-.11-2.07v0h0c.007-.189.014-.4.016-.606a.73.73,0,0,1,.354-.535A.908.908,0,0,0,.9,63.913a2.235,2.235,0,0,0,.105-.719,18.489,18.489,0,0,1,.227-2.473,1.271,1.271,0,0,1,.608-.815c.775-.355,1.01-.467,1.05-.487h0l3.635-5.445c0-.006.355-.593.727-1.311a7.812,7.812,0,0,0,.841-2.07c.227-1.4.457-2.825.691-4.28L8.8,46.23c.283-1.745.574-3.551.864-5.357.026-.159.042-.321.057-.478v-.008a5.228,5.228,0,0,1,.1-.7.631.631,0,0,0-.393-.8c-.284-.137-.574-.274-.824-.393l-.006,0-.012-.006h0l-.762-.363h0l-.021-.011h0c-.664-.319-1.351-.649-2.023-.978a1.1,1.1,0,0,1-.622-1.044A3.389,3.389,0,0,1,5.8,33.644a2.321,2.321,0,0,0,.434-.828,3.236,3.236,0,0,0,.112-.935,4.9,4.9,0,0,1,1.11-3.212c.626-.789,1.191-1.649,1.737-2.48l0-.006,0-.007,0,0,0,0c.148-.225.3-.458.453-.685.257-.386.423-.685.453-.741v0c.013,0,1.267-.361,1.3-.57a10.6,10.6,0,0,1,.414-1.487l0,0c.124-.1,1.225-1,1.772-1.413,1.644-1.233,3.28-2.52,4.863-3.764l.012-.009c.623-.49,1.187-.933,1.762-1.382a1.24,1.24,0,0,0,.287-.336,1.72,1.72,0,0,1,.364-.426l.131.088a.071.071,0,0,0,.065.037c.265,0,.973-1.122.98-1.134l.552-.864.6-.267a1.728,1.728,0,0,1,.588-.113.769.769,0,0,1,.437.113.482.482,0,0,0,.086-.078c.04-.042.04-.042.267-.055h0c.114-.006.286-.016.546-.037h0a18.909,18.909,0,0,0,2.032-.815.817.817,0,0,0,.511.184,2.537,2.537,0,0,0,1.319-.675,7.988,7.988,0,0,1,.675-.474c1.49-.9,10.642-7.354,11.681-8.088l.022-.016,2.119-.828A5.527,5.527,0,0,1,44.45,2c0-.029.006-.06.009-.089v0a.689.689,0,0,0,.007-.189c-.028-.179-.142-.762-.166-.877h0l.724-.1.357.37L47.392.677V.023h0c.057-.006.2-.022.309-.022.077,0,.12.008.132.023.057.082.114.162.174.245h0l0,0c.13.182.253.354.365.535s.2.362.288.525l0,0c.032.062.065.128.1.189L49.3,1.6l.037.006.177.026h.008c.6.088,1.222.177,1.834.262.19.026.384.037.572.048h0l.209.013,1,.069.216.015.722.049.174.012,3.484.241c.34.023.682.049,1.013.074l.037,0,.036,0c.577.043,1.173.086,1.761.123.544.033,1.093.063,1.577.089.737.039,1.5.079,2.258.132.395.028.788.078,1.169.126l.016,0c.252.033.514.065.772.091.635.064,2.815.238,2.907.245,0,0,.351-.046.856-.636a1.33,1.33,0,0,1,.326-.27h0a8.119,8.119,0,0,1,1.041.292c.46.253,1.08.534,1.086.536l.87-1.57h0a5.909,5.909,0,0,1,1.786.59c.577.447,1.171.917,1.694,1.33h0c.767.607,1.56,1.233,2.353,1.837a2.2,2.2,0,0,1,.876,1.26c.183.695.725,2.213.731,2.227l.034.016.96.472c.388.194.8.356,1.189.513l.021.009c.2.079.407.162.609.249a1.168,1.168,0,0,1,.746,1.171c0,.13,0,.265,0,.4a3.237,3.237,0,0,0,.234,1.556,12.161,12.161,0,0,1,.53,1.108v0a9.427,9.427,0,0,0,.723,1.419,7.9,7.9,0,0,0,.913,1.071h0c.152.159.311.322.458.489a1.523,1.523,0,0,0,1.143.585,1.92,1.92,0,0,0,1-.328l.425.405.067.064.077.072.029.028h0l.007.007c.435.416.886.846,1.347,1.282a4.658,4.658,0,0,0,.745.6,1.683,1.683,0,0,0,.9.266,1.831,1.831,0,0,0,.333-.032,1.386,1.386,0,0,1,.257-.025,1.115,1.115,0,0,1,1.06.694A6.458,6.458,0,0,0,96.6,23.148h0c.252.218.511.444.755.68.613.593,1.271,1.152,1.909,1.693.222.188.458.389.691.591l.65.563.043.037,0,0,.012.011c.846.733,1.721,1.491,2.6,2.213a4.35,4.35,0,0,1,1.721,2.355,3.008,3.008,0,0,0,.2.532h0l.008.021c.027.061.055.124.081.187a.7.7,0,0,0,.654.5.812.812,0,0,0,.118-.008,2.347,2.347,0,0,1,.34-.026,1.4,1.4,0,0,1,1.013.382,2.645,2.645,0,0,1,.6,1.03c.218.6.482,1.2.739,1.771h0a20.707,20.707,0,0,1,.942,2.377c.2.649.354,1.318.506,1.965h0a20.133,20.133,0,0,0,.939,3.182.213.213,0,0,1,.013.071v.012s0,.011,0,.015c.162,1.182.19,1.777-.077,2.177s-.818.6-1.959.894c-.779.2-1.6.428-2.666.736-.664.193-.788.349-.822,1.05-.072,1.465-.14,2.97-.2,4.474-.027.648-.05,1.3-.074,1.971v.015c-.04,1.143-.082,2.325-.145,3.485-.041.765-.1,1.541-.156,2.292v.016c-.081,1.062-.163,2.162-.2,3.245a17.929,17.929,0,0,0,.1,2.127h0v.006c.03.34.062.692.083,1.04a1.088,1.088,0,0,0,.68.9c.207.118.409.248.6.371a8.927,8.927,0,0,0,1.011.585,1.643,1.643,0,0,1,.816.765,2.778,2.778,0,0,1,.248,1.083c.022.365.061.747.095,1.082v0c.034.339.072.723.095,1.09a1.015,1.015,0,0,0,.514.906c.379.205.427.53.483.9l0,.029c0,.023.006.046.011.069a4.955,4.955,0,0,1-.242,2.39,14.1,14.1,0,0,1-1.009,2.147l0,.009-.039.072c-.057.105-.121.224-.181.337-.337.636-.7,1.27-1.047,1.884h0l-.03.053c-.155.274-.316.558-.474.839-.028.051-.055.1-.079.153l-.007.013a2.456,2.456,0,0,1-.151.271c-.3.446-.5.6-.773.6a1.768,1.768,0,0,1-.709-.216c-.515-.237-1.052-.481-1.527-.7l0,0c-.884-.4-1.8-.815-2.691-1.245a1.927,1.927,0,0,0-.834-.216,1.713,1.713,0,0,0-1.067.417c-2.211,1.7-4.473,3.416-6.66,5.071l-.083.063h0l-.033.026-2.439,1.846c-1.112.844-2.2,1.671-3.309,2.514L82.75,93.592l-.051.039L79.9,95.761c-.187.142-.377.291-.541.418h0c-.461.358-.939.73-1.435,1.067a1.148,1.148,0,0,0-.586,1.168c.016.126.032.256.046.382v0l0,.02v0a6.772,6.772,0,0,0,.266,1.442A10.208,10.208,0,0,1,78.137,104a1.025,1.025,0,0,1-.177.6.944.944,0,0,1-.531.318c-1.089.294-2.18.594-3.234.884l-.126.035-.042.012c-1.318.362-2.681.737-4.029,1.1a1.756,1.756,0,0,1-.441.075A.48.48,0,0,1,69.17,106.86ZM38.241,79.619,36.488,91.83,66.1,94.275,65.088,81.508,62.319,61.679l-19.01-1.407Zm32.7-20.146,3.187,17.977,1.605,14.395,22.208-16.58L94.258,64.341,85.041,49.1ZM14.171,58.387l-3.855,9.1,17.9,19.729,1.842-11.946,5.388-18.316L22.852,44.263ZM90.112,41.275l12.347,20.741,1.14-18.026-3.25-8.326-9.332-8.1Zm-45.3,15.467L60.7,58.15l-6.107-18.9-.431.1-.3-.144Zm22.1-20.474-.537.13,4.711,18.866,11.779-8.42L67.013,36.094Zm-40.8,5.609,9.252,10.706,8.187-18.322-.556-.267-.048-.138ZM14.834,28.739l-3.247,7.849L8.946,50.39l11.34-15.315L22.2,22.691Zm57.78-2.274.055.153-.322.539L87.434,37.672l1.023-11.756ZM46.8,16.2l-5.335,7.771L44.62,32.93l9.774,4.691,11.155-2.7,5.039-8.443-3.135-8.8L57.381,13.345ZM23.087,33.435l16.543-8.99-.244-.69.041-.058L25.054,20.863ZM68.711,16.4l.375.161.23.647,15.784.478L75.49,8.218Zm-38.7-3.686,15.14,2.644.333-.486.417-.112L41.634,4.453Zm28.19-.832,8.105-7.657-14.7-1.058,5.374,8.6.592-.16ZM39.617,90.069,51.539,81,63.072,91.944Zm12.744-9.955,8.732-15.3,2.046,16.429,1.107,10.207Zm-11.769-.788,3.7-15.788L50.916,80.02,39.381,88.859ZM84.607,70.39l10.864,4.438L77.891,87.913Zm-8.583,6.144-2.871-14.7L83.6,69.863l-6.66,17.386Zm-62.974-8.9,9.3-1.078,3.929,15.286Zm10.433-1.445,9.568-6.78L28.433,73.924l-1.05,7.73ZM45.228,62.73l15.227.991-8.75,15.134ZM84.9,69.236l.691-16.287L92.678,65l2.852,8.62ZM73.526,60.568l10.815-8.029-.614,15.881Zm-58.057-.953,6.772-11.164v17L12.58,66.63ZM23.4,47.777l9.507,10.356L23.4,64.745Zm75.556-4.815,3.436,1.4-.629,12.45Zm-7.093-.621,5.805.241,3,14.006Zm-44,12.286,6.061-12.692L57.935,55.51ZM68.632,38.989l11.52,7.6-8.176,5.953ZM28.6,42.327l13.01-6.481L35.2,49.672ZM12.336,37l1.937-.146L10.7,45.016Zm3.246-.277,3.08-.7-6.48,8.406Zm83.063,4.963-5.375-10.3,6.376,5.278,2.618,6.452Zm-6.949-.52.525-9.415,4.934,9.622ZM15.308,29.826l4.5-3.845-4.945,9.709-1.979.149Zm5.41-3.1-1.255,8.055-3.241.633Zm54.507.98L87.1,27.144,86.341,35.2Zm-27.9,3.471-2.405-6.848,4.069-5.939,8.068-2.181,7.68,3.31,2.39,6.725-3.842,6.453-8.506,2.064Zm3.99-10.441L48.594,24.71l1.61,4.583,4.989,2.4,5.693-1.381,2.572-4.319-1.6-4.5-5.141-2.216Zm-25.3,1.72,11.187,2.023L24.7,31.2Zm44.949-6.515,4.652-6.085L82.4,16.38ZM32.478,11.973l8.581-5.661,2.8,7.552ZM53.564,4.3l10.365.8-6.2,5.38Z" transform="translate(13773 7645)" fill="#6bd943" />
  </g>
</svg>
