<svg xmlns="http://www.w3.org/2000/svg"  viewBox="0 0 34.654 35.142">
  <g id="grenade" transform="matrix(0.839, 0.545, -0.545, 0.839, 40.848, -97.329)">
    <path id="Subtraction_1" data-name="Subtraction 1" d="M16.621,26.057H8.071A2.392,2.392,0,0,1,5.714,24.05a1.718,1.718,0,0,1-.852-.261L3.151,22.712a1.717,1.717,0,0,1,.686-3.156l-.458-1.018H2.333a1.721,1.721,0,0,1-1.492-.867L.228,16.594A1.717,1.717,0,0,1,1.72,14.027h.054a6.5,6.5,0,0,1,0-1H1.72A1.717,1.717,0,0,1,.228,10.456L.841,9.38a1.721,1.721,0,0,1,1.492-.867H3.379l.458-1.018A1.718,1.718,0,0,1,3.15,4.339L4.862,3.262A1.715,1.715,0,0,1,5.776,3h.909V2.489A2.486,2.486,0,0,1,7.26.9,2.51,2.51,0,0,1,7.9.35a2.478,2.478,0,0,1,.8-.31c2.374,0,3.5-.013,4.5-.024C13.957.007,14.622,0,15.708,0a2.108,2.108,0,0,1,.815.235,2.042,2.042,0,0,1,.633.524,2.391,2.391,0,0,1,.41.767,3.1,3.1,0,0,1,.146.963V3h.909a1.715,1.715,0,0,1,.915.264l1.711,1.076a1.718,1.718,0,0,1-.686,3.156l.458,1.018h1.045a1.721,1.721,0,0,1,1.492.867l.613,1.076a1.717,1.717,0,0,1-1.492,2.568h-.054a6.5,6.5,0,0,1,0,1h.054a1.717,1.717,0,0,1,1.492,2.568l-.613,1.076a1.721,1.721,0,0,1-1.492.867H21.02l-.458,1.018a1.718,1.718,0,0,1,.686,3.156l-1.711,1.076a1.72,1.72,0,0,1-.842.261,2.369,2.369,0,0,1-.661,1.46A1.976,1.976,0,0,1,16.621,26.057ZM4.065,20.042a1.2,1.2,0,0,0-.6.156,1.228,1.228,0,0,0-.615.956,1.2,1.2,0,0,0,.106.609,1.214,1.214,0,0,0,.459.525l1.711,1.076a1.214,1.214,0,0,0,.648.187h.568a1.2,1.2,0,0,0,.591-.152,1.227,1.227,0,0,0,.62-.94,1.2,1.2,0,0,0-.093-.6L7,20.779a1.215,1.215,0,0,0-1.118-.737Zm6.971,0a1.2,1.2,0,0,0-.591.152,1.227,1.227,0,0,0-.62.94,1.2,1.2,0,0,0,.093.6l.461,1.076a1.215,1.215,0,0,0,1.118.737h1.408a1.215,1.215,0,0,0,1.119-.739l.46-1.076a1.2,1.2,0,0,0,.092-.6,1.227,1.227,0,0,0-.62-.939,1.2,1.2,0,0,0-.591-.152Zm7.479,0a1.215,1.215,0,0,0-1.118.737l-.461,1.076a1.2,1.2,0,0,0-.093.6,1.227,1.227,0,0,0,.62.94,1.2,1.2,0,0,0,.591.152h.568a1.215,1.215,0,0,0,.648-.187l1.711-1.076a1.213,1.213,0,0,0,.459-.525,1.2,1.2,0,0,0,.106-.609,1.228,1.228,0,0,0-.615-.956,1.2,1.2,0,0,0-.6-.156ZM8.927,14.528a1.2,1.2,0,0,0-.576.144,1.226,1.226,0,0,0-.629.9,1.2,1.2,0,0,0,.063.59l.394,1.076a1.216,1.216,0,0,0,1.142.8h5.692a1.216,1.216,0,0,0,1.133-.774l.42-1.076a1.2,1.2,0,0,0,.075-.6,1.227,1.227,0,0,0-.626-.916,1.2,1.2,0,0,0-.582-.147Zm-7.207,0A1.214,1.214,0,0,0,.663,16.346l.613,1.076a1.216,1.216,0,0,0,1.057.614H4.446a1.2,1.2,0,0,0,.575-.144,1.226,1.226,0,0,0,.629-.9,1.2,1.2,0,0,0-.062-.59L5.2,15.327a1.216,1.216,0,0,0-1.143-.8Zm18.625,0a1.216,1.216,0,0,0-1.143.8L18.81,16.4a1.2,1.2,0,0,0-.062.59,1.226,1.226,0,0,0,.629.9,1.2,1.2,0,0,0,.576.144h2.113a1.216,1.216,0,0,0,1.057-.614l.613-1.076a1.214,1.214,0,0,0-1.057-1.818Zm-.393-5.514a1.2,1.2,0,0,0-.575.144,1.226,1.226,0,0,0-.629.9,1.2,1.2,0,0,0,.062.59l.392,1.076a1.216,1.216,0,0,0,1.143.8h2.333A1.214,1.214,0,0,0,23.735,10.7l-.613-1.076a1.216,1.216,0,0,0-1.057-.614Zm-17.619,0a1.216,1.216,0,0,0-1.057.614L.663,10.7A1.214,1.214,0,0,0,1.72,12.523H4.054a1.216,1.216,0,0,0,1.143-.8l.392-1.076a1.2,1.2,0,0,0,.062-.59,1.226,1.226,0,0,0-.629-.9,1.2,1.2,0,0,0-.576-.144Zm6.987,0a1.216,1.216,0,0,0-1.142.8l-.394,1.076a1.2,1.2,0,0,0-.063.59,1.226,1.226,0,0,0,.629.9,1.2,1.2,0,0,0,.576.144h6.505a1.2,1.2,0,0,0,.582-.147,1.227,1.227,0,0,0,.626-.916,1.2,1.2,0,0,0-.075-.6l-.42-1.076a1.216,1.216,0,0,0-1.133-.774ZM11.5,3.5a1.215,1.215,0,0,0-1.118.737L9.918,5.313a1.2,1.2,0,0,0-.093.6,1.227,1.227,0,0,0,.62.94,1.2,1.2,0,0,0,.591.152h2.329a1.2,1.2,0,0,0,.591-.152,1.227,1.227,0,0,0,.62-.939,1.2,1.2,0,0,0-.092-.6l-.46-1.076A1.215,1.215,0,0,0,12.905,3.5Zm6.556,0a1.2,1.2,0,0,0-.591.152,1.227,1.227,0,0,0-.62.94,1.2,1.2,0,0,0,.093.6L17.4,6.272a1.215,1.215,0,0,0,1.118.737h1.818a1.2,1.2,0,0,0,.6-.156,1.228,1.228,0,0,0,.615-.956,1.2,1.2,0,0,0-.106-.609,1.213,1.213,0,0,0-.459-.525L19.27,3.687a1.214,1.214,0,0,0-.648-.187ZM5.776,3.5a1.216,1.216,0,0,0-.648.187L3.417,4.763a1.212,1.212,0,0,0-.459.525,1.2,1.2,0,0,0-.106.609,1.228,1.228,0,0,0,.615.956,1.2,1.2,0,0,0,.6.156H5.883A1.215,1.215,0,0,0,7,6.272L7.463,5.2a1.2,1.2,0,0,0,.093-.6,1.227,1.227,0,0,0-.62-.94A1.2,1.2,0,0,0,6.345,3.5Z" transform="translate(30.653 96.145)" fill="#6bd943"/>
  </g>
</svg>
