<svg xmlns="http://www.w3.org/2000/svg"  viewBox="0 0 22.483 14.134">
  <g id="Group_94454" data-name="Group 94454" transform="translate(-376.968 -171.353)">
    <path id="Path_99246" data-name="Path 99246" d="M388.2,185.487a13.217,13.217,0,0,1-11.149-6.774.579.579,0,0,1,0-.586,12.583,12.583,0,0,1,22.324,0,.579.579,0,0,1,0,.586A13.237,13.237,0,0,1,388.2,185.487Zm-10.259-7.067a13.908,13.908,0,0,0,3.654,3.886,11.18,11.18,0,0,0,13.184.034,13.777,13.777,0,0,0,3.706-3.92,13.833,13.833,0,0,0-3.832-4.008,11.156,11.156,0,0,0-12.753-.089A13.738,13.738,0,0,0,377.938,178.421Z" transform="translate(0 0)" />
    <path id="Path_99247" data-name="Path 99247" d="M418.819,195.14a.34.34,0,0,1-.219-.083.592.592,0,0,1-.117-.7,10.041,10.041,0,0,0,0-8.93.59.59,0,0,1,.117-.7.354.354,0,0,1,.557.148,11.281,11.281,0,0,1,0,10.038A.39.39,0,0,1,418.819,195.14Zm-11.526,0a.39.39,0,0,1-.338-.23,11.087,11.087,0,0,1,0-10.038.354.354,0,0,1,.557-.148.591.591,0,0,1,.117.7,9.846,9.846,0,0,0,0,8.93.592.592,0,0,1-.117.7A.34.34,0,0,1,407.293,195.14Z" transform="translate(-24.849 -11.47)" />
    <path id="Path_99248" data-name="Path 99248" d="M447.7,201.8a4,4,0,1,1,4.027-4A4,4,0,0,1,447.7,201.8Z" transform="translate(-59.501 -19.386)" />
    <path id="Path_99250" data-name="Path 99250" d="M427.389,246.649l-.389-.13.72-2.145,3.624-.414.047.408-3.365.384Z" transform="translate(-44.375 -62.677)" />
    <path id="Path_99253" data-name="Path 99253" d="M432.253,246.649l-.637-1.9-3.365-.384.047-.408,3.624.414.72,2.145Z" transform="translate(-38.866 -62.677)" />
    <path id="Path_99251" data-name="Path 99251" d="M429.881,189.445l-2.752-.3-.47-2.555.4-.074.414,2.254,2.448.267Z" transform="translate(-44.015 -13.089)" />
    <path id="Path_99252" data-name="Path 99252" d="M428.017,189.445l-.044-.408,2.448-.267.414-2.254.4.074-.47,2.555Z" transform="translate(-37.481 -13.089)" />
  </g>
</svg>
