<svg xmlns="http://www.w3.org/2000/svg"  viewBox="0 0 31.878 31.878">
  <path id="Path_93400" data-name="Path 93400" d="M8.985,31.737l-1.02-1.02h0L6.6,29.356l-1.02,1.02a.481.481,0,0,1-.68,0l-1.02-1.02h0L1.5,26.975a.481.481,0,0,1,0-.68l1.02-1.02,0,0L.141,22.893a.481.481,0,0,1,0-.68L5.1,17.251a.481.481,0,0,1,.34-.141h5.24l2.723-2.723-1.019-1.019a.481.481,0,0,1,0-.68l2.921-2.921a.481.481,0,0,1,.34-.141h2.519L21.582,6.21l.007.007,0-.009,2.041-2.041,1.361-1.361h0A9.583,9.583,0,0,1,31.375,0a.482.482,0,0,1,.5.5A9.583,9.583,0,0,1,29.07,6.89L27.71,8.25l-2.041,2.041-3.418,3.418v2.522a.481.481,0,0,1-.141.34L19.19,19.491a.481.481,0,0,1-.68,0l-1.02-1.02-2.721,2.721h0v2.721h0v2.522a.481.481,0,0,1-.141.34L9.665,31.737a.481.481,0,0,1-.68,0Z" transform="translate(0)" fill="#ff2700"/>
</svg>
