<svg xmlns="http://www.w3.org/2000/svg"  viewBox="0 0 150 150">
  <g id="Weapons_Icon" data-name="Weapons Icon" transform="translate(-13754 -7795)">
    <rect id="Rectangle_13007" data-name="Rectangle 13007"  transform="translate(13754 7795)" fill="none"/>
    <path id="Path_96703" data-name="Path 96703" d="M23.618,137.135q-3.636-3.9-7.266-7.795c-1.046-1.123-1.06-1.156-2.439-.515a.9.9,0,0,1-1.265-.279c-.894-1.039-1.84-2.032-2.769-3.041-.576-.626-.828-.9-.826-1.253a3.441,3.441,0,0,1,.454-1.223,1.439,1.439,0,0,0,.121-.574.639.639,0,0,0-.1-.384c-.825-1.046-1.7-2.061-2.61-3.03-1.725-1.828-3.5-3.611-5.236-5.427-.479-.5-.721-.789-.722-1.068,0-.3.271-.582.824-1.1,1.448-1.35,2.9-2.7,4.513-4.2L3.13,104.057c1.006-1.47,3-2.083,3.131-4.182a3.285,3.285,0,0,1-.82-1.531c0-.4.4-.61,1.228-.834.626-1.1,1.1-2.023,1.654-2.889a5.18,5.18,0,0,0,1.122-2.773,3.107,3.107,0,0,0-.108-.8,1.39,1.39,0,0,1-.048-.347A1.852,1.852,0,0,1,10,89.356c4.017-3.687,7.991-7.421,11.98-11.14.959-.894,1.076-.9,1.93.042a9.4,9.4,0,0,1,.688,1.08,10.8,10.8,0,0,1,1.427-1.626,2.164,2.164,0,0,0,.955-1.676,1.527,1.527,0,0,0-.052-.409,2.955,2.955,0,0,1-.111-.768c0-1.422,1.27-2.039,2.163-2.915.148-.145.4-.242.456-.411.272-.828.5-1.673.734-2.513.159-.568.289-1.146.465-1.709C31.429,64.778,33,62.4,36.551,59.6a16.785,16.785,0,0,1,8.674-3.61,10.105,10.105,0,0,1,3.664.434c1.778.426,3.382.851,3.589-.016a7.326,7.326,0,0,1,.746-1.5,20.543,20.543,0,0,0,1.441-2.925c.271-.844,1.353-1.286,1.347-2.242a1.5,1.5,0,0,0-.075-.444.033.033,0,0,1,0-.01c0-.072.208-.212.316-.314a6.357,6.357,0,0,1,.9-.817,10.442,10.442,0,0,1,1.306-.609l.282.349a21.061,21.061,0,0,1,1.752-2.281c.585-.588,1.4-.944,2.037-1.485a29.376,29.376,0,0,0,2.521-2.364c.339-.362,1.059-.577,1.059-1.156a1.129,1.129,0,0,0-.175-.552.027.027,0,0,1,0-.015c0-.067.168-.242.269-.339.45-.431.892-.872,1.372-1.268a1.594,1.594,0,0,1,.632-.181c.279-.066.658-.027.823-.2.863-.9,1.625-1.892,2.516-2.757.545-.531,1.3-.836,1.885-1.337,1.2-1.034,2.342-2.13,3.3-3.013q-.01-.12-.009-.229c.008-1.492,1.358-1.722,1.922-2.43a1.755,1.755,0,0,0,1.188-.311c.916-.925,1.714-1.968,2.646-2.874.575-.559,1.356-.9,1.969-1.428,1.062-.913,2.064-1.893,3.156-2.907a.812.812,0,0,1-.328-.561c0-.32.348-.551.648-.74.633-.4.9-1.659,2.208-.842,1.062-1.218,2.1-2.5,3.247-3.68.551-.568,1.343-.894,1.958-1.409,1-.838,1.945-1.742,2.913-2.617l-.293-.2c.144-.345.19-.836.449-1.008.694-.463.982-1.791,2.34-1.1,1.371-1.385,2.763-2.8,4.164-4.206.476-.477.924-.657,1.475-.014.949,1.109.467.6,1.386,1.595.787-.081,1.062-1.413,1.966-.548.378.361,2.466,2.361,2.458,2.754-.01.491-.536.971-.84,1.456l-.215.195,3.806,3.821-4.446,4.047c.207.189,2.581,2.75,2.824,2.972,1.231-1.162,3.569-3.4,3.569-3.4l1.186-1.221,3.2,3.3a3.114,3.114,0,0,1,.583,1.533,1.1,1.1,0,0,1-.089.443.547.547,0,0,0-.059.207c0,.118.1.126.1.309a1,1,0,0,1-.041.257l.9-.368c.888.791,1.29,1.15,1.289,1.593,0,.367-.278.793-.786,1.571l3.381,3.409-9.969,9.3c-.132-.09-2.266-2.142-2.526-2.32l-.72.716c.161.254,2.195,2.367,2.368,2.64l-1.587,1.4c-.2-.148-2.306-2.2-2.617-2.431l-.666.675c.193.275,2.239,2.384,2.3,2.477l-7.545,7.04c-.125-.092-2.231-2.136-2.463-2.306l-.775.646c.2.307,2.243,2.417,2.391,2.64l-1.554,1.44c-.209-.162-2.31-2.21-2.566-2.408l-.713.713c.186.3,2.218,2.418,2.266,2.5l-7.52,7.018c-.137-.1-2.243-2.155-2.485-2.34l-.715.7c.17.254,2.208,2.361,2.317,2.524l-1.487,1.51c-.249-.185-2.358-2.235-2.607-2.42l-.716.73c.181.288,2.214,2.4,2.282,2.507l-7.49,7.038c-.177-.133-2.285-2.183-2.542-2.376l-.709.71c.168.308,2.186,2.426,2.292,2.62l-1.457,1.452c-.263-.2-2.368-2.246-2.61-2.428L78,68.94c.17.281,2.215,2.421,2.335,2.619A75.2,75.2,0,0,1,67.038,82.5l.825,1.081a.294.294,0,0,0-.1.245c-.008,1.03,2.962,4.235,2.958,5.219a.265.265,0,0,1-.094.222,3.648,3.648,0,0,1,.88,2.079,3.483,3.483,0,0,1-.693,1.852l.727.941L52.213,112.148c.556.558,1.034,1.093,1.569,1.562a1,1,0,0,1,.433.7c0,.248-.174.493-.493.789q-7.689,7.106-15.314,14.281c-.6.565-.949.571-1.494-.042-.364-.41-2.731-2.59-2.731-2.59l-5.2,4.421s.424.665.474.718a1.124,1.124,0,0,1,.386.746,1.056,1.056,0,0,1-.432.743c-1.364,1.233-2.693,2.5-4.041,3.754-.385.357-.628.539-.863.539C24.254,137.765,24.013,137.558,23.618,137.135Zm23.2-54.7s.725-.758.965-.98c2.455-2.29,7.964-7.4,7.964-7.4a26.6,26.6,0,0,0-2.687-2.888L44.3,79.489C44.98,80.225,46.813,82.434,46.813,82.434Zm-11.9-13.6-.83,3.459c1.278-.159,11.456-8.674,11.456-8.674L48.8,60.845,44.6,60.1C41.355,60.575,37.456,61.992,34.916,68.831Zm27.193-.4.914-.873c1.234-1.185,2.5-2.333,3.823-3.552-.212-.244-2.561-2.821-2.7-2.976l-4.685,4.414C59.651,65.671,62.108,68.429,62.108,68.429Zm8.966-8.543,6.367-5.769s-2.377-2.648-2.776-2.906L68.452,56.99A34.561,34.561,0,0,0,71.074,59.886Zm10.484-9.813,6.21-5.914a29.834,29.834,0,0,0-2.744-2.909L78.874,47.1A23.414,23.414,0,0,0,81.558,50.073Zm10.525-9.85,6.3-5.908c-.114-.113-2.446-2.648-2.554-2.754l-6.255,5.891C89.616,37.5,91.961,40.078,92.083,40.222Zm10.567-9.764,6.277-5.864c-.174-.347-2.635-3.076-2.635-3.076s-4.344,4.082-6.335,5.935C100.158,27.695,102.491,30.265,102.651,30.458Z" transform="translate(13765.038 7799.019)"  stroke="rgba(0,0,0,0)" stroke-width="1" />
  </g>
</svg>
