<svg viewBox="0 0 512 512" xmlns="http://www.w3.org/2000/svg"><path d="m143.533 512h-64.266c-6.067 0-11.537-3.655-13.858-9.26s-1.038-12.057 3.252-16.347l48.208-48.208c11.86-11.861 11.861-31.175 0-43.037-11.864-11.863-31.176-11.894-43.054-.017l-48.209 48.209c-4.289 4.29-10.742 5.572-16.347 3.252-5.604-2.322-9.259-7.792-9.259-13.859v-64.267c0-43.78 35.416-79.266 79.267-79.266h74.12l135.813-135.813v-74.12c0-43.781 35.415-79.267 79.267-79.267h64.267c6.067 0 11.537 3.655 13.858 9.26s1.038 12.057-3.252 16.347l-48.208 48.208c-11.86 11.861-11.861 31.175 0 43.037 11.864 11.863 31.176 11.894 43.054.017l48.208-48.208c4.289-4.291 10.74-5.575 16.347-3.252 5.604 2.321 9.259 7.791 9.259 13.858v64.267c0 43.781-35.416 79.267-79.267 79.267h-74.12l-135.813 135.812v74.12c0 43.781-35.415 79.267-79.267 79.267z"/></svg>