<?xml version="1.0" encoding="UTF-8" standalone="no"?>
<svg
   viewBox="0 0 39.673894 36.731146"
   version="1.1"
   id="svg8"
   sodipodi:docname="ZaibatsuLogo.svg"
   inkscape:version="1.1 (1:1.1+202106031931+af4d65493e)"
   width="39.673893"
   height="36.731144"
   xmlns:inkscape="http://www.inkscape.org/namespaces/inkscape"
   xmlns:sodipodi="http://sodipodi.sourceforge.net/DTD/sodipodi-0.dtd"
   xmlns="http://www.w3.org/2000/svg"
   xmlns:svg="http://www.w3.org/2000/svg">
  <defs
     id="defs12" />
  <sodipodi:namedview
     id="namedview10"
     pagecolor="#ffffff"
     bordercolor="#111111"
     borderopacity="1"
     inkscape:pageshadow="0"
     inkscape:pageopacity="0"
     inkscape:pagecheckerboard="1"
     showgrid="false"
     inkscape:zoom="9.3133014"
     inkscape:cx="17.34079"
     inkscape:cy="12.508991"
     inkscape:window-width="2560"
     inkscape:window-height="1314"
     inkscape:window-x="0"
     inkscape:window-y="27"
     inkscape:window-maximized="1"
     inkscape:current-layer="svg8"
     fit-margin-top="0"
     fit-margin-left="0"
     fit-margin-right="0"
     fit-margin-bottom="0" />
  <rect
     style="fill:#000000;stroke-width:9.35128"
     id="rect851"
     width="39.673893"
     height="36.731144"
     x="0"
     y="0"
     inkscape:export-filename="/home/ninja/go/src/github.com/ninja-software/passport-gamebar/src/assets/images/ZaibatsuLogo.png"
     inkscape:export-xdpi="1935.7819"
     inkscape:export-ydpi="1935.7819" />
  <g
     id="Group_54120"
     data-name="Group 54120"
     transform="translate(2.4789351,2.2940728)">
    <path
       id="Path_28322"
       data-name="Path 28322"
       d="m 32.075,850.7 a 0.547,0.547 0 0 1 -0.322,-0.092 0.273,0.273 0 0 1 -0.131,-0.232 v -2.756 h 0.906 v 2.426 h 1.281 v -2.426 h 0.906 v 2.756 a 0.274,0.274 0 0 1 -0.131,0.232 0.549,0.549 0 0 1 -0.322,0.092 z m -5.08,0 v -0.654 h 1.786 v -0.577 h -1.333 a 0.538,0.538 0 0 1 -0.318,-0.095 0.28,0.28 0 0 1 -0.135,-0.236 v -1.2 a 0.275,0.275 0 0 1 0.135,-0.228 0.539,0.539 0 0 1 0.318,-0.1 h 2.231 v 0.654 H 27.9 v 0.542 h 1.333 a 0.521,0.521 0 0 1 0.314,0.095 0.283,0.283 0 0 1 0.131,0.236 v 1.231 a 0.283,0.283 0 0 1 -0.131,0.236 0.521,0.521 0 0 1 -0.314,0.095 z m -3.677,0 v -2.426 h -0.88 v -0.647 H 25.1 v 0.647 h -0.88 v 2.426 z m -3,0 -0.3,-0.724 h -1.406 l -0.3,0.724 h -0.924 l 1.246,-3.066 H 20 l 1.246,3.066 z m -1.438,-1.385 h 0.863 l -0.427,-1.034 z m -6.045,1.385 v -3.073 h 2.579 a 0.527,0.527 0 0 1 0.309,0.095 0.28,0.28 0 0 1 0.135,0.235 v 2.419 a 0.272,0.272 0 0 1 -0.135,0.232 0.539,0.539 0 0 1 -0.309,0.092 z m 0.889,-0.647 H 14.97 V 849.5 h -1.246 z m 0,-1.216 h 1.246 v -0.549 h -1.246 z m -3.79,1.863 v -3.073 h 0.9 v 3.073 z m -2.666,0 -0.3,-0.724 H 5.559 L 5.254,850.7 H 4.331 l 1.246,-3.066 H 6.945 L 8.191,850.7 Z M 5.83,849.315 H 6.693 L 6.266,848.281 Z M 0,850.7 v -0.675 l 1.533,-1.744 H 0 v -0.654 h 2.736 v 0.569 l -1.577,1.849 h 1.577 v 0.654 z"
       transform="translate(0,-823.98)"
       fill="#ffffff"
       stroke="rgba(0,0,0,0)"
       stroke-width="1" />
    <path
       id="Path_29285"
       data-name="Path 29285"
       d="m -200.052,-377.025 a 10.135,10.135 0 0 1 -2.781,4.66 l 0.4,0.675 a 11.386,11.386 0 0 0 2.875,-5.065 v 5.334 a 0.431,0.431 0 0 1 -0.477,0.488 c -0.353,0 -0.716,-0.021 -1.11,-0.052 l 0.156,0.7 h 1.2 a 0.844,0.844 0 0 0 0.955,-0.944 v -5.791 h 1.256 v -0.674 h -1.256 v -1.972 h -0.726 v 1.972 h -2.823 v 0.674 z m -6.372,-2.273 v 6.289 h 3.5 v -6.291 z m 2.771,5.625 h -2.047 v -1.266 h 2.044 z m -2.044,-1.889 v -1.194 h 2.044 v 1.194 z m 0,-1.827 v -1.245 h 2.044 v 1.245 z m 1.972,4.722 -0.55,0.343 a 13.648,13.648 0 0 1 1.152,1.858 l 0.571,-0.4 a 14.713,14.713 0 0 0 -1.174,-1.8 z m -1.93,0.083 a 11.355,11.355 0 0 1 -1.225,1.951 l 0.623,0.322 a 10.291,10.291 0 0 0 1.214,-1.982 z m 1.131,11.991 v 3.062 h 0.633 v -3.757 a 6.577,6.577 0 0 0 0.768,-1.256 l -0.56,-0.27 a 5.925,5.925 0 0 1 -1.889,2.221 l 0.218,0.716 c 0.289,-0.223 0.569,-0.466 0.829,-0.715 z m 4.795,-1.1 -2.024,0.446 q -0.062,-0.623 -0.062,-1.4 h -0.643 a 13.719,13.719 0 0 0 0.083,1.536 l -1.1,0.249 0.093,0.612 1.1,-0.239 a 4.932,4.932 0 0 0 0.176,0.747 c 0.073,0.218 0.156,0.426 0.239,0.623 a 5.832,5.832 0 0 1 -1.546,0.685 l 0.374,0.581 a 6.051,6.051 0 0 0 1.484,-0.685 2.116,2.116 0 0 0 0.27,0.353 1.311,1.311 0 0 0 0.955,0.529 0.681,0.681 0 0 0 0.53,-0.344 l 0.135,0.508 c 0.291,0.01 0.581,0.021 0.872,0.021 0.519,0 0.789,-0.291 0.789,-0.861 v -8.157 h -3.896 v 3.3 h 3.155 v 4.618 c 0,0.291 -0.114,0.436 -0.322,0.436 -0.208,0 -0.4,-0.01 -0.633,-0.031 a 6.775,6.775 0 0 0 0.322,-0.706 l -0.519,-0.332 q -0.249,0.841 -0.467,0.872 a 0.983,0.983 0 0 1 -0.643,-0.467 l -0.062,-0.093 a 6.1,6.1 0 0 0 1.339,-1.557 l -0.54,-0.28 a 5.227,5.227 0 0 1 -1.09,1.245 4.531,4.531 0 0 1 -0.218,-0.664 3.235,3.235 0 0 1 -0.093,-0.477 l 2.034,-0.446 z m -1.1,-1.09 -0.457,0.176 a 6.128,6.128 0 0 1 0.519,0.944 l 0.467,-0.208 a 4.667,4.667 0 0 0 -0.531,-0.911 z m -5.013,-1.775 h 2.366 v 0.768 h -2.366 z m 2.366,-0.581 h -2.366 v -0.747 h 2.366 z m 2.294,0.581 h 2.439 v 0.768 h -2.439 z m 2.439,-0.581 h -2.439 v -0.727 h 2.439 z m -4.006,-1.349 h -3.829 v 9.091 h 0.737 v -5.781 h 3.093 z"
       transform="translate(232.288,379.673)"
       fill="#ffffff" />
    <path
       id="Path_29282"
       data-name="Path 29282"
       d="m 14.615,22.275 8.909,-8.436 v 8.436 z M 0,22.275 V 17.957 L 18.964,0 h 4.561 V 4.318 L 4.561,22.275 Z M 0,0 H 8.909 L 0,8.436 Z"
       transform="translate(0,0.001)"
       fill="#ffffff"
       stroke="rgba(0,0,0,0)"
       stroke-width="1" />
    <path
       id="Path_29286"
       data-name="Path 29286"
       d="M 4.778,-53.111 H 5.2 v 1.832 H 4.778 V -51.9 h -0.6 v 0.616 H 3.751 v -1.832 h 0.432 v 0.826 h 0.6 z m 2.708,0.394 H 6.534 v 0.335 H 7.058 V -52 H 6.534 v 0.331 h 0.952 v 0.386 H 6.111 v -1.832 h 1.375 z m 2.184,1.438 -0.143,-0.432 H 8.848 l -0.147,0.432 H 8.257 l 0.6,-1.828 h 0.658 l 0.6,1.828 z m -0.482,-1.442 -0.21,0.616 h 0.415 z m 2.88,-0.39 h 0.44 l -0.545,1.832 H 11.3 l -0.549,-1.832 h 0.44 l 0.44,1.434 z m 2.947,0 -0.687,0.993 v 0.838 h -0.432 v -0.838 l -0.687,-0.993 H 13.8 l 0.314,0.449 0.31,-0.449 z m 3.064,1.832 h -0.432 v -1.832 h 0.432 z m 2.7,-1.832 v 1.832 H 20.4 l -0.822,-1.241 v 1.241 H 19.15 v -1.832 h 0.616 l 0.578,0.88 v -0.88 z m 2.159,0 a 0.218,0.218 0 0 1 0.151,0.057 0.181,0.181 0 0 1 0.063,0.14 v 1.442 a 0.175,0.175 0 0 1 -0.063,0.138 0.223,0.223 0 0 1 -0.151,0.054 H 21.7 v -1.832 z m -0.218,0.394 h -0.591 v 1.052 h 0.591 z m 2.645,1.438 h -1.05 a 0.228,0.228 0 0 1 -0.155,-0.054 0.175,0.175 0 0 1 -0.063,-0.138 v -1.643 h 0.436 v 1.446 h 0.616 v -1.446 h 0.436 v 1.643 a 0.175,0.175 0 0 1 -0.063,0.138 0.228,0.228 0 0 1 -0.154,0.054 z m 2.289,0 h -1.075 v -0.39 h 0.859 v -0.344 H 26.8 a 0.226,0.226 0 0 1 -0.153,-0.057 0.179,0.179 0 0 1 -0.065,-0.14 v -0.717 a 0.175,0.175 0 0 1 0.065,-0.136 0.226,0.226 0 0 1 0.153,-0.057 h 1.07 v 0.39 h -0.855 v 0.323 h 0.641 a 0.218,0.218 0 0 1 0.151,0.057 0.181,0.181 0 0 1 0.063,0.14 v 0.734 a 0.181,0.181 0 0 1 -0.063,0.14 0.218,0.218 0 0 1 -0.151,0.057 z m 2.356,-1.832 v 0.386 h -0.423 v 1.446 h -0.432 v -1.446 h -0.423 v -0.386 z m 2.079,1.832 -0.419,-0.629 h -0.31 v 0.629 h -0.43 v -1.832 h 1.245 a 0.223,0.223 0 0 1 0.155,0.057 0.177,0.177 0 0 1 0.063,0.136 v 0.813 a 0.181,0.181 0 0 1 -0.063,0.14 0.223,0.223 0 0 1 -0.155,0.057 l 0.419,0.629 z M 31.362,-52.3 h 0.6 v -0.423 h -0.6 z m 2.515,1.019 h -0.432 v -1.832 h 0.432 z m 2.381,-1.438 h -0.952 v 0.335 H 35.83 V -52 h -0.524 v 0.331 h 0.952 v 0.386 h -1.375 v -1.832 h 1.375 z m 2,1.438 h -1.082 v -0.39 h 0.859 v -0.344 h -0.641 a 0.226,0.226 0 0 1 -0.153,-0.057 0.179,0.179 0 0 1 -0.065,-0.14 v -0.717 a 0.175,0.175 0 0 1 0.065,-0.136 0.226,0.226 0 0 1 0.153,-0.057 h 1.073 v 0.39 h -0.855 v 0.323 h 0.641 a 0.218,0.218 0 0 1 0.151,0.057 0.181,0.181 0 0 1 0.063,0.14 v 0.734 a 0.181,0.181 0 0 1 -0.063,0.14 0.218,0.218 0 0 1 -0.151,0.059 z"
       transform="translate(-3.751,81.214)"
       fill="#ffffff" />
    <path
       id="Path_29287"
       data-name="Path 29287"
       d="m 0,976.776 v -0.835 h 34.716 v 0.835 z"
       transform="translate(0,-944.634)"
       fill="#ffffff"
       stroke="rgba(0,0,0,0)"
       stroke-width="1" />
  </g>
</svg>
