<?xml version="1.0" encoding="UTF-8" standalone="no"?>
<svg
   viewBox="0 0 500 500"
   version="1.1"
   id="svg5"
   xmlns="http://www.w3.org/2000/svg"
   xmlns:svg="http://www.w3.org/2000/svg">
  <defs
     id="defs9" />
  <g
     id="ZHI_Icon_Fill"
     transform="translate(-500 -501)">
    <rect
       id="Rectangle_12671"
       data-name="Rectangle 12671"
       transform="translate(500 501)"
       fill="none" />
    <path
       id="ZHI_Icon_Fill-2"
       d="M331.254,431.78v0h-9.927l-3.68-2.943H174.7l-5.521,2.943H163.22l-4.039-5.813L121.368,374.14V361.257l-9.778-5.987L94.34,285.276v-89.91L57.373,165.25,1.819,106.127,0,63.6l4.766-5.189,9.166,2.132,72.341,59.169,1.223-11,6.843-5.133v-24.2l6.6-6.088h62.91l8.922-14.881H211.08L228.489,0h34.853l16.291,58.411H321.1l9.986,14.881h62.652l6.989,7.564v20.717l6.665,8.378v13.6l78.087-66.513,8.953,3.507,3.427,6.552-5.747,37.582-93.371,96.855,1.987,83.742L379.838,355.27l-6.111,4.014.884,14.131-43.355,58.362Zm9.37-201.268h0l-.015.014c-1.139,1.009-27.911,24.729-29.7,26.107l15.7,8.046,7.587,22.385,26.919-41.346-5.9-15.206H340.624Zm-203.52,0-5.9,15.206,26.919,41.346,7.585-22.385,15.7-8.046c-1.744-1.344-26.821-23.557-29.674-26.085l-.04-.036H137.1Zm327.9-136.844h0c-.181.186-18.313,18.728-32.255,31.235a248.576,248.576,0,0,1-24.278,19.481l.742,18.864,18.875-12.236,39.636-41.067,1.685-13.166-1.685-3.112h-2.72ZM24.956,93.332l1.507,18.225,31.183,29.582,26.41,21.134V143.521L50.643,116.244,26.462,93.332Z"
       transform="translate(501.474 535.355)"
   />
  </g>
</svg>
